<svg width="791" height="675" viewBox="0 0 791 675" fill="none" xmlns="http://www.w3.org/2000/svg">
<mask id="mask0" mask-type="alpha" maskUnits="userSpaceOnUse" x="0" y="0" width="791" height="675">
<rect width="791" height="675" fill="#3D3D3D"/>
</mask>
<g mask="url(#mask0)">
<path d="M384.375 610.907C384.375 610.907 382.461 592.098 379.908 579.664C377.356 567.231 362.038 533.756 355.975 524.511C349.912 515.265 300.452 485.617 294.229 483.724C288.007 481.831 251.629 484.182 249.475 483.724C247.321 483.265 233.919 480.835 218.123 476.242C202.328 471.647 207.354 470.553 198.738 469.836C190.122 469.118 183.182 463.38 176.959 462.191C170.737 461.003 151.112 461.706 133.163 459.554C115.213 457.402 75.4851 440.904 75.4851 440.904L-17.3372 402.637L-20.6025 459.788L75.4851 482.429C75.4851 482.429 121.755 490.4 143.135 495.423C164.515 500.446 216.209 511.122 223.549 512.862C230.888 514.601 229.293 521.005 227.058 523.555C224.825 526.106 223.23 529.931 223.23 532.8C223.23 535.67 228.016 537.583 232.803 537.264C237.589 536.945 238.546 527.381 235.355 523.874C232.164 520.366 234.717 515.696 234.717 515.696C234.717 515.696 260.883 516.541 281.586 522.279C302.287 528.018 293.751 537.264 308.748 557.03C323.746 576.795 326.732 609.098 326.732 609.098C338.121 650.329 307.301 711.45 308.748 713.475C310.196 715.5 382.296 742.5 382.296 742.5C382.296 742.5 397.16 711.45 400.2 681.075C403.24 650.7 384.375 610.907 384.375 610.907Z" fill="#8D8D8D"/>
<path d="M79.8608 365.164L81.1668 365.531L113.635 250.312L142.075 258.402L142.446 257.098L114.003 249.007L127.915 199.638L155.001 207.234L155.367 205.929L128.282 198.334L132.744 182.5L186.397 197.681L171.353 251.577L167.526 253.966L153.095 304.428L154.4 304.801L168.687 254.84L172.035 252.749L186.765 257.164L190.778 242.628L189.471 242.267L185.826 255.467L172.768 251.554L187.704 198.05L241.948 213.398L231.116 251.347L232.421 251.718L243.253 213.767L267.483 220.623L267.853 219.318L243.625 212.463L265.732 135.009L348.858 157.964V199.319L338.676 237.73L339.988 238.077L350.192 199.581L350.215 199.496V158.339L375.695 165.375L366.012 202.025L367.324 202.37L386.949 128.089L385.637 127.743L376.041 164.065L350.347 156.97L359.151 119.943L357.831 119.63L349.039 156.609L266.103 133.707L267.361 129.298L266.057 128.926L264.795 133.346L209.988 118.212L219.976 82.4297L218.669 82.0652L208.681 117.85L127.602 95.4619L127.24 96.7687L153.453 104.007L142.75 141.988L89.3878 125.995L121.167 19.4063L119.87 19.006L88.0879 125.605L76.8786 122.245L76.4888 123.544L87.6879 126.9L47.9165 258.912L49.213 259.313L88.9879 127.289L142.383 143.293L131.807 180.825L-5.7066 139.545L-6.07617 140.85L131.438 182.131L112.698 248.636L0.601045 216.552L0.229451 217.856L112.329 249.94L79.8608 365.164ZM264.423 134.649L242.319 212.094L188.067 196.744L198.852 158.105L225.841 165.631L226.206 164.325L199.217 156.799L209.624 119.518L264.423 134.649ZM154.761 104.368L208.316 119.156L200.809 146.045C197.449 145.194 181.903 141.223 179.418 139.982C176.597 138.573 173.263 136.671 173.229 136.652L172.556 137.83C172.59 137.849 175.956 139.768 178.812 141.194C181.442 142.509 196.948 146.467 200.445 147.351L194.986 166.907L171.155 160.497L155.569 159.112L158.881 146.823L144.049 142.377L154.761 104.368ZM143.683 143.683L157.229 147.743L153.839 160.321L170.86 161.821L194.623 168.213L186.762 196.374L133.112 181.194L143.683 143.683Z" fill="#4B4B4B"/>
<path d="M157.392 306.835L146.859 344.134L148.165 344.502L158.698 307.203L157.392 306.835Z" fill="#4B4B4B"/>
<path d="M242.561 288.042L242.99 286.756L197.039 271.453L196.61 272.739L211.357 277.65L179.234 394.525L201.131 400.121L210.402 366.483L209.094 366.123L200.177 398.478L180.909 393.553L212.646 278.08L242.561 288.042Z" fill="#4B4B4B"/>
<path d="M236.684 474.186C235.145 473.672 213.374 466.39 203.305 462.274C192.903 458.023 154.23 453.638 143.728 453.139C134.227 452.687 124.39 445.765 111.937 437.001L110.58 436.046C97.6485 426.954 81.6713 425.891 81.5111 425.881L81.4287 427.234C81.5848 427.244 97.1904 428.289 109.799 437.154L111.156 438.109C123.789 446.999 133.768 454.022 143.663 454.493C154.107 454.99 192.517 459.33 202.791 463.529C213.222 467.792 236.109 475.423 236.339 475.5L236.424 475.528L307.394 479.838H336.113V478.483L307.435 478.484L236.684 474.186Z" fill="#4B4B4B"/>
<path d="M464.645 334.817C468.091 333.763 470.8 331.26 472.077 327.951C472.616 326.556 472.995 325.007 473.202 323.349L471.855 323.18C471.662 324.728 471.31 326.169 470.811 327.463C470.654 327.872 470.468 328.267 470.261 328.647L456.289 288.932L464.96 286.131L464.542 284.841L455.839 287.653L452.347 277.729L451.068 278.179L454.547 288.069L444.365 291.358L437.696 272.537L445.667 239.018L444.347 238.704L436.282 272.612L443.073 291.776L422.868 298.303L419.473 289.513L434.055 234.851L432.744 234.502L418.049 289.591L421.576 298.721L404.415 304.264L401.238 293.727L432.705 179.836L483.432 194.242L483.803 192.938L433.066 178.529L442.948 142.761L441.641 142.401L431.761 178.158L405.125 170.593L429.505 83.5063L428.199 83.1411L381.172 251.113L381.171 251.113L374.296 275.814L384.533 308.419L385.229 310.46L370.041 315.366L369.659 314.307L365.733 305.743L362.993 282.775L361.646 282.936L364.411 306.115L368.392 314.793L368.75 315.783L349.335 322.055L349.444 321.969L310.096 271.862L321.728 263.13L327.099 270.576L327.933 274.979L334.939 286.031L340.772 288.411L346.445 299.308L350.124 303.516L354.028 296.413L352.987 243.311L351.63 243.338L352.664 296.078L349.866 301.17L347.61 298.61L341.747 287.343L335.853 284.94L329.217 274.473L328.376 270.029L322.02 261.217L296.265 280.551L286.039 267.37L300.654 252.69V229.296H299.297V252.13L284.945 266.547L262.599 259.732L262.203 261.028L284.733 267.899L331.279 327.887L317.237 332.423L317.655 333.713L332.162 329.027L332.441 329.385L356.991 370.723L342.475 379.107L342.434 379.131L311.283 403.549L311.207 403.609L311.151 403.688C311.131 403.716 311.112 403.742 311.092 403.77L275.803 358.641L275.445 358.377L286.761 342.484L297.565 338.73L297.12 337.449L285.906 341.346L274.355 357.57L235.042 328.459L234.234 329.548L273.568 358.674L252.753 387.908L253.858 388.694L274.658 359.481L274.846 359.62L310.267 404.918C296.73 423.785 295.376 426.003 295.242 426.454L295.237 426.452C295.119 427.001 292.804 433.831 290.173 441.513L290.1 440.708L284.402 441.226L278.62 457.593L270.063 460.742L239.83 449.125L251.784 419.027L235.684 411.931L249.545 393.005L248.45 392.204L234.371 411.428L210.621 404.584L221.878 371.783L220.594 371.343L209.308 404.228L109.126 379.087L118.983 340.168L117.668 339.835L107.787 378.851L79.7387 370.911L79.3691 372.215L108.76 380.535L108.793 380.402L208.787 405.495L202.847 418.279V430.304L238.095 449.815L238.062 449.898L270.053 462.19L279.686 458.644L285.391 442.495L289.98 442.078C288.527 446.317 286.994 450.774 285.691 454.55L286.974 454.992C295.969 428.93 296.545 426.872 296.581 426.596C296.574 426.706 296.543 426.782 296.539 426.79C296.974 425.869 306.118 413.02 312.196 404.555L343.195 380.255L373.72 362.624L464.645 334.817ZM204.204 429.506V418.577L210.118 405.85L234.407 412.85L250.041 419.741L238.6 448.545L204.204 429.506ZM403.515 305.978L416.247 348.201L401.111 352.83L386.958 311.326L403.515 305.978ZM454.997 289.349L469.324 330.071C468.053 331.684 466.299 332.893 464.247 333.52L459.789 334.884L444.818 292.637L454.997 289.349ZM458.49 335.281L441.883 340.36L426.743 298.476L443.527 293.054L458.49 335.281ZM425.451 298.892L440.584 340.758L417.545 347.804L404.806 305.56L425.451 298.892ZM385.823 307.998L375.711 275.791L382.232 252.358L404.758 171.898L431.4 179.464L399.878 293.554L399.826 293.742L403.123 304.679L399.306 305.913L390.486 278.899L389.197 279.32L398.015 306.331L386.52 310.043L385.823 307.998ZM297.095 281.622L309.01 272.678L348.1 322.454L332.645 327.447L297.095 281.622ZM373.175 361.374L358.166 370.044L333.585 328.657L333.529 328.585L369.21 317.059L379.87 346.568L381.146 346.108L370.502 316.642L385.666 311.743L399.813 353.227L373.248 361.351L373.175 361.374Z" fill="#4B4B4B"/>
<path d="M83.9762 43.3837L82.6871 43.0158L78.8536 56.4213L54.3378 -3.79613C54.198 -4.13836 53.8082 -4.30306 53.4643 -4.16401C53.1217 -4.02428 52.9569 -3.63413 53.096 -3.29123L73.1784 46.0378L51.2259 57.3157C46.504 46.1721 41.3854 33.9755 41.1152 32.9799C41.0692 32.6545 40.7895 32.4041 40.4517 32.4041C40.0814 32.4041 39.7815 32.7038 39.7815 33.0737C39.7815 33.5415 43.2265 41.8966 50.028 57.9306L41.2861 62.4214C36.8168 51.8596 32.2699 41.0056 32.0158 40.0681C31.9699 39.7427 31.6902 39.4923 31.3524 39.4923C30.9821 39.4923 30.6821 39.792 30.6821 40.1619C30.6821 40.6101 33.8441 48.2983 40.0889 63.037L29.3457 68.5564C25.5589 59.5816 22.1686 51.4486 21.9503 50.6433C21.9044 50.3179 21.6247 50.0675 21.2869 50.0675C20.9166 50.0675 20.6166 50.3672 20.6166 50.7371C20.6166 51.1381 23.1448 57.3278 28.1458 69.1727L21.4504 72.6125L11.3052 51.6828C11.1437 51.35 10.7424 51.211 10.4093 51.3723C10.0762 51.5336 9.93702 51.9346 10.0985 52.2673L20.2565 73.2261L20.0795 73.3172C19.7505 73.486 19.6208 73.8903 19.7897 74.219C19.9086 74.4499 20.143 74.5828 20.3863 74.5828C20.489 74.5828 20.5944 74.5592 20.6923 74.5086L20.841 74.4323L38.2917 110.437L-0.418984 98.5852L-0.811523 99.8656L39.089 112.082L39.4882 112.905C39.6038 113.144 39.8429 113.283 40.0923 113.283C40.1909 113.283 40.2895 113.262 40.3841 113.216C40.6294 113.098 40.7665 112.849 40.7598 112.593L61.0164 118.795L39.447 194.216L40.7361 194.584L62.2981 119.188L76.6349 123.577L77.0274 122.297L62.6663 117.9L73.3831 80.4263L99.4602 88.5027L99.8575 87.2229L73.7513 79.1377L83.9762 43.3837ZM61.3846 117.506L40.0416 110.971L22.0341 73.8181L28.6681 70.41C30.27 74.2008 32.107 78.5282 34.1826 83.4017C34.2913 83.6562 34.5393 83.8094 34.8001 83.8094C34.8872 83.8094 34.9764 83.7925 35.0622 83.7561C35.4027 83.611 35.5615 83.2181 35.4162 82.8773C33.7272 78.9109 31.7645 74.2852 29.868 69.7937L40.6132 64.2736C41.732 66.9128 42.942 69.7593 44.248 72.8272C44.3568 73.0816 44.6048 73.2349 44.8656 73.2349C44.9527 73.2349 45.0419 73.218 45.1277 73.1815C45.4682 73.0364 45.627 72.6436 45.4817 72.3027C44.3474 69.6391 43.0893 66.6772 41.8104 63.6586L50.553 59.1672C51.432 61.2381 52.3616 63.4237 53.3474 65.7383C53.4561 65.9928 53.7041 66.146 53.9649 66.146C54.0521 66.146 54.1412 66.1292 54.227 66.0927C54.5676 65.9476 54.7263 65.5547 54.5811 65.2138C53.6967 63.1369 52.7359 60.877 51.7502 58.5523L73.6851 47.2831L78.2557 58.5104L72.4703 78.7408L54.8162 73.2733L54.4189 74.5531L72.1021 80.0301L61.3846 117.506Z" fill="#4B4B4B"/>
<path d="M54.4179 420.611C47.5562 413.81 30.1135 395.396 30.2892 390.398C30.4595 385.552 35.2645 383.74 39.5041 382.142C40.4479 381.786 41.3391 381.45 42.1627 381.088C43.672 380.427 44.5578 379.592 44.8706 378.539C45.4422 376.614 43.9835 374.391 42.137 371.577C41.8046 371.07 41.458 370.542 41.1073 369.991C38.2447 365.496 39.3926 351.803 39.5108 350.49L51.4268 322.323C52.5403 325.314 53.5882 328.245 53.7145 328.834C53.4693 330.025 50.0601 341.659 47.7818 349.348L47.6089 349.932L48.1737 350.159C57.8021 354.038 76.627 361.855 78.9573 363.678C81.5483 365.705 79.4633 371.177 79.4417 371.232L80.6909 371.718C80.793 371.456 83.1576 365.262 79.7842 362.623C76.9297 360.39 53.3281 350.798 49.2405 349.144C51.9383 340.037 55.0631 329.372 55.0631 328.838C55.0631 328.272 53.4476 323.87 52.0923 320.277L51.5012 318.708L38.2359 350.064L38.1866 350.26C38.1258 350.885 36.7374 365.623 39.977 370.709C40.331 371.266 40.681 371.799 41.0168 372.31C42.6728 374.835 43.9808 376.828 43.5862 378.157C43.3923 378.811 42.7505 379.368 41.6242 379.862C40.8337 380.209 39.9581 380.539 39.0311 380.888C34.6294 382.548 29.1514 384.614 28.9501 390.351C28.7562 395.866 44.6929 412.657 51.1431 419.218C33.1978 411.217 -5.29807 389.15 -5.74264 388.895L-6.41016 390.056C-4.31909 391.256 44.9516 419.5 57.219 423.025C69.4803 426.549 81.6753 427.245 81.7969 427.252L81.8692 425.916C81.749 425.909 69.7066 425.222 57.5892 421.739C56.7217 421.488 55.6495 421.103 54.4179 420.611Z" fill="#4B4B4B"/>
<path d="M188.668 628.326C187.673 626.053 190.066 613.419 190.894 610.525C191.285 609.161 191.755 607.306 192.05 606.12L223.355 614.223L223.692 612.927L192.228 604.783L139.332 597.387L139.146 598.714L190.718 605.92C190.425 607.098 189.977 608.855 189.604 610.157C189.111 611.884 186.105 625.818 187.439 628.863C187.827 629.749 188.717 631.003 189.748 632.454C191.978 635.595 195.034 639.898 194.816 643.06C194.681 645.015 193.395 647.671 191.904 650.745C189.802 655.084 187.419 660.001 187.092 665.171C186.548 673.803 184.543 684.557 184.522 684.665L185.84 684.911C185.86 684.803 187.881 673.97 188.43 665.255C188.74 660.347 191.062 655.557 193.11 651.329C194.661 648.129 196 645.366 196.153 643.153C196.404 639.513 193.189 634.985 190.841 631.679C189.854 630.287 189 629.086 188.668 628.326Z" fill="#4B4B4B"/>
<path d="M0.87207 507.437L0.93693 508.775C26.7729 507.524 75.7051 505.188 78.2131 505.188C78.2441 505.188 78.2685 505.188 78.2847 505.19L78.3549 503.852C76.7476 503.776 3.96914 507.288 0.87207 507.437Z" fill="#4B4B4B"/>
<path d="M271.7 603.745L270.36 603.704L269.807 621.876L250.115 617.582L251.051 583.725L249.711 583.687L248.782 617.291L228.735 612.92L228.449 614.229L248.744 618.654L247.437 665.908L229.346 663.62L230.494 655.102L217.143 646.095L216.394 647.205L229.055 655.747L227.838 664.779L247.4 667.253L247.009 681.394L248.349 681.431L248.736 667.423L268.344 669.902L267.953 682.742L269.292 682.784L271.097 623.529L280.303 625.537L280.589 624.228L271.138 622.167L271.7 603.745ZM268.384 668.557L248.773 666.077L250.077 618.945L269.765 623.238L268.384 668.557Z" fill="#4B4B4B"/>
<path d="M485.258 627.557L456.996 649.299L442.489 627.714L441.377 628.461L455.932 650.117L446.693 657.224L421.266 621.624L420.175 622.401L445.63 658.041L440.216 662.207L441.034 663.268L446.409 659.133L462.601 681.801L463.692 681.024L447.472 658.315L456.681 651.231L468.445 668.736L469.558 667.99L457.744 650.413L486.076 628.618L485.258 627.557Z" fill="#4B4B4B"/>
<path d="M538.084 603.472L496.539 637.913L497.395 638.945L538.941 604.503L538.084 603.472Z" fill="#4B4B4B"/>
<path d="M635.399 630.746C635.449 630.571 635.426 630.383 635.334 630.226C635.242 630.069 635.091 629.955 634.914 629.912L616.446 625.412C616.277 625.371 616.099 625.397 615.949 625.484L611.165 628.281L620.908 590.229C621 589.87 620.783 589.506 620.425 589.414C620.067 589.321 619.701 589.538 619.609 589.897L609.539 629.233L573.704 650.187C573.491 650.118 573.28 650.061 573.074 650.036C572.255 649.934 570.914 650.023 569.216 650.136C565.217 650.403 559.178 650.807 556.707 648.674C556.244 648.275 555.559 647.835 554.716 647.371L557.832 627.516C557.872 627.265 557.764 627.012 557.555 626.865C557.346 626.718 557.073 626.702 556.848 626.825C556.598 626.962 550.679 630.25 546.134 637.287C545.312 638.561 544.455 640.429 543.603 642.632C540.271 641.396 537.063 640.291 534.939 639.56C534.304 639.341 533.743 639.148 533.339 639.006C535.672 635.621 551.78 618.49 562.664 607.152L562.751 607.062L570.56 604.499L570.142 603.227L562.056 605.881L562.068 605.916C560.496 605.257 557.266 603.826 556.458 603.117L555.574 604.123C556.503 604.939 559.478 606.269 561.022 606.929C559.01 609.03 552.814 615.517 546.707 622.049C531.521 638.291 531.651 638.927 531.765 639.488L531.867 639.872L532.189 640.01C532.421 640.109 533.104 640.345 534.503 640.827C536.475 641.505 539.727 642.626 543.13 643.888C539.321 654.286 535.721 670.62 535.681 670.818C535.609 671.181 535.843 671.535 536.206 671.607C536.251 671.616 536.295 671.62 536.339 671.62C536.651 671.62 536.931 671.4 536.995 671.082C537.035 670.885 540.663 654.557 544.387 644.358C547.842 645.665 551.306 647.078 553.621 648.296C553.628 648.3 553.637 648.303 553.645 648.308C554.595 648.809 555.353 649.276 555.831 649.688C558.718 652.179 564.838 651.771 569.304 651.473C570.867 651.368 572.216 651.279 572.907 651.365C574.884 651.611 578 655.393 579.033 656.829L579.162 657.008L646.934 678.845L647.346 677.57L624.489 670.206C625.242 666.656 631.281 645.17 635.399 630.746ZM547.261 638.013C550.411 633.135 554.332 630.088 556.28 628.766L553.462 646.717C551.113 645.554 547.986 644.284 544.859 643.102C545.674 640.992 546.488 639.212 547.261 638.013ZM575.132 650.905L616.393 626.777L633.919 631.049C630.788 642.02 624.327 664.801 623.234 669.8L579.992 655.867C579.393 655.056 577.292 652.331 575.132 650.905Z" fill="#4B4B4B"/>
<path d="M764.912 585.409L631.298 552.603L639.873 519.713L681.791 465.314C682.017 465.02 681.962 464.6 681.669 464.374C681.375 464.148 680.954 464.204 680.729 464.497L640.5 516.703L620.886 464.669C620.755 464.324 620.368 464.149 620.022 464.279C619.676 464.409 619.501 464.796 619.631 465.141L639.538 517.952L638.727 519.004C638.672 519.074 638.632 519.157 638.609 519.243L638.418 519.98L612.32 520.993C611.95 521.007 611.661 521.318 611.676 521.687C611.691 522.048 611.987 522.331 612.345 522.331C612.355 522.331 612.363 522.331 612.372 522.331L638.064 521.334L629.835 552.897C629.743 553.248 629.949 553.609 630.299 553.709L764.542 586.695C764.604 586.713 764.667 586.722 764.727 586.722C765.019 586.722 765.286 586.531 765.371 586.236C765.474 585.883 765.269 585.511 764.912 585.409Z" fill="#4B4B4B"/>
<path d="M709.299 199.805H647.817C647.447 199.805 647.147 200.105 647.147 200.475C647.147 200.845 647.447 201.145 647.817 201.145H657.584L697.207 262.944L682.394 290.88C681.635 291.752 674.139 300.436 670.718 306.808C667.732 312.368 668.429 315.802 668.834 316.962L644.177 346.691C643.958 346.955 643.973 347.342 644.214 347.587L656.801 360.406L645.952 373.407C645.744 373.655 645.743 374.015 645.95 374.264L669.375 402.521L647.389 420.798C647.104 421.035 647.065 421.457 647.302 421.741C647.435 421.899 647.626 421.982 647.818 421.982C647.97 421.982 648.121 421.931 648.247 421.827L670.231 403.552L693.468 429.836C693.601 429.996 693.792 430.078 693.985 430.078C694.136 430.078 694.287 430.028 694.412 429.924C694.697 429.688 694.737 429.266 694.501 428.981L671.262 402.696L685.559 390.81C686.456 391.598 713.701 414.497 713.832 414.64C713.963 414.809 714.161 414.9 714.363 414.9C714.49 414.9 714.62 414.863 714.734 414.787C715.042 414.582 715.126 414.166 714.92 413.858C714.85 413.754 687.576 390.818 686.595 389.95L718.023 355.809C718.307 355.572 718.346 355.151 718.109 354.866C717.873 354.583 717.45 354.543 717.165 354.78L685.576 389.055C679.363 383.612 663.833 370.375 655.878 363.605L759.321 239.049C759.559 238.765 759.52 238.343 759.236 238.106C758.951 237.87 758.529 237.909 758.292 238.192L657.664 359.373L645.596 347.081L670.124 317.508C670.296 317.301 670.324 317.006 670.2 316.767C670.184 316.736 668.615 313.558 671.901 307.442C675.358 301.003 683.376 291.795 683.457 291.703C683.491 291.663 683.52 291.621 683.545 291.576L698.577 263.226C698.69 263.012 698.679 262.755 698.549 262.551L659.18 201.144H709.302C709.673 201.144 709.973 200.844 709.973 200.474C709.973 200.104 709.669 199.805 709.299 199.805ZM684.537 389.918L670.405 401.665L647.337 373.839L655.018 364.634C665.065 373.185 678.834 384.948 684.537 389.918Z" fill="#4B4B4B"/>
<path d="M614.951 128.754C614.67 128.995 614.637 129.418 614.879 129.699L641.904 161.199C642.036 161.353 642.224 161.433 642.413 161.433C642.567 161.433 642.723 161.38 642.849 161.272C643.13 161.031 643.163 160.608 642.921 160.327L615.896 128.827C615.655 128.546 615.231 128.514 614.951 128.754Z" fill="#4B4B4B"/>
<path d="M458.237 0.626417L542.762 32.4614C542.264 34.1942 541.49 38.9003 546.605 41.6522C547.966 42.3839 550.362 43.0583 553.394 43.9128C563.783 46.8383 583.12 52.2842 596.143 70.2911C596.163 70.3195 596.186 70.3458 596.21 70.3701L621.398 95.767C611.613 103.762 602.56 110.587 602.372 110.728C602.076 110.951 602.017 111.371 602.24 111.666C602.371 111.841 602.573 111.933 602.776 111.933C602.917 111.933 603.058 111.889 603.179 111.798C603.939 111.227 612.8 104.545 622.356 96.7316L664.682 139.409C664.813 139.541 664.986 139.608 665.159 139.608C665.329 139.608 665.5 139.543 665.63 139.413C665.894 139.153 665.896 138.729 665.635 138.466L623.396 95.8777C633.725 87.3855 644.546 77.7904 646.624 73.2929C648.107 70.0832 650.096 66.5719 652.018 63.1766C655.39 57.2238 658.877 51.0678 660.179 45.7211C661.305 41.0954 666.777 13.7538 665.694 12.3113C665.472 12.0157 665.052 11.9543 664.755 12.1777C664.497 12.3714 664.419 12.715 664.55 12.9965C664.87 14.9425 660.873 37.2013 658.876 45.4052C657.619 50.571 654.178 56.644 650.852 62.5178C648.915 65.9367 646.912 69.473 645.406 72.7326C643.43 77.0108 632.693 86.4925 622.44 94.9145L597.199 69.4649C583.903 51.1151 564.295 45.5922 553.758 42.6242C550.804 41.7926 548.471 41.1352 547.241 40.4737C542.012 37.661 544.124 32.5438 544.216 32.3291C544.289 32.1611 544.289 31.9707 544.218 31.802C544.147 31.6332 544.008 31.5016 543.837 31.4368L458.708 -0.625708C458.361 -0.756658 457.975 -0.581833 457.845 -0.235558C457.714 0.110042 457.89 0.496142 458.237 0.626417Z" fill="#4B4B4B"/>
<path d="M384.563 26.2063L328.655 4.77504C328.308 4.64274 327.921 4.81486 327.789 5.16046C327.656 5.50606 327.829 5.89284 328.175 6.02581L384.083 27.4571C384.162 27.4874 384.243 27.5016 384.323 27.5016C384.591 27.5016 384.845 27.3383 384.949 27.0716C385.081 26.726 384.909 26.3386 384.563 26.2063Z" fill="#4B4B4B"/>
<path d="M380.844 39.5361L264.974 -4.17014C264.627 -4.30109 264.241 -4.12627 264.11 -3.77999C263.979 -3.43372 264.154 -3.04762 264.5 -2.91667L380.37 40.7896C380.448 40.8186 380.528 40.8328 380.607 40.8328C380.878 40.8328 381.133 40.6674 381.234 40.3994C381.365 40.0532 381.191 39.6664 380.844 39.5361Z" fill="#4B4B4B"/>
<path d="M374.902 57.7504L318.487 39.5254C318.135 39.4127 317.757 39.605 317.643 39.9567C317.529 40.3084 317.722 40.6864 318.075 40.7998L374.49 59.0248C374.559 59.0471 374.628 59.0572 374.696 59.0572C374.98 59.0572 375.243 58.877 375.334 58.5935C375.447 58.2418 375.254 57.8645 374.902 57.7504Z" fill="#4B4B4B"/>
<path d="M165.798 65.1807C165.893 65.4663 166.168 65.6627 166.456 65.6627C166.522 65.6627 166.589 65.6526 166.653 65.631C167.005 65.5142 167.201 65.1612 167.084 64.8102C166.972 64.1844 166.832 56.7459 166.768 52.1046L171.718 40.2881C172.685 40.6148 173.679 40.9496 174.728 41.3033C187.483 45.5997 200.383 49.8684 200.511 49.9109C200.581 49.9338 200.652 49.9446 200.722 49.9446C201.003 49.9446 201.265 49.7664 201.358 49.4856C201.475 49.134 201.284 48.7553 200.933 48.6392C192.235 45.7617 181.591 42.2112 172.236 39.0495L192.726 -9.8671C192.869 -10.208 192.708 -10.6002 192.366 -10.7433C192.025 -10.8863 191.633 -10.725 191.489 -10.3841L170.964 38.6181C160.409 35.046 151.736 32.0457 149.804 31.2107C150.855 27.6683 159.509 3.87185 165.374 -12.0885C165.502 -12.4355 165.324 -12.8202 164.976 -12.9478C164.629 -13.0754 164.244 -12.8978 164.116 -12.5502C148.168 30.8428 148.322 31.4564 148.387 31.7183C148.509 32.2056 148.582 32.4669 170.446 39.8574L165.714 51.1529L139.911 43.0461V-6.5812C139.911 -6.9511 139.611 -7.2508 139.241 -7.2508C138.87 -7.2508 138.57 -6.9511 138.57 -6.5812V43.5375C138.57 43.8298 138.76 44.0883 139.039 44.1761L165.433 52.4685C165.511 58.1128 165.636 64.6947 165.798 65.1807Z" fill="#4B4B4B"/>
<path d="M303.121 453.3C303.735 452.585 304.83 451.323 306.2 449.744C311.37 443.787 320.023 433.816 322.295 430.79C325.238 426.869 326.673 416.565 326.732 416.128L325.388 415.945C325.374 416.048 323.944 426.334 321.21 429.976C318.966 432.965 310.333 442.913 305.175 448.856C303.802 450.438 302.706 451.701 302.092 452.417C299.322 455.645 290.85 460.835 290.765 460.888L291.473 462.044C291.828 461.828 300.213 456.69 303.121 453.3Z" fill="#4B4B4B"/>
<path d="M270.02 573.808C256.141 561.997 245.361 554.976 231.333 554.041C219.278 553.239 209.789 555.14 207.034 555.777C208.717 550.211 210.229 545.226 211.354 541.525L211.595 540.732L211.524 540.725L210.368 530.247L161.239 519.762L164.113 504.927L114.04 495.118L111.134 503.828H77.639V505.184H110.781L111.436 518.02L113.681 520.964H160.374L209.127 531.367L210.144 540.591C206.688 540.246 189.781 538.483 182.168 536.371C173.619 533.999 171.112 533.956 171.004 533.956H171.003L94.4181 531.087L94.3675 532.441L170.973 535.311C170.998 535.311 173.469 535.363 181.804 537.677C189.49 539.81 205.899 541.531 209.816 541.922C209.231 543.847 207.633 549.112 205.605 555.819L137.099 544.962L137.06 544.956L71.4462 542.085L71.3867 543.439L136.923 546.307L141.099 546.968V554.299L201.776 568.506C201.304 570.075 200.828 571.658 200.352 573.24C199.305 576.73 198.339 579.957 197.457 582.91C192.079 581.266 157.474 570.805 148.445 571.255C148.276 571.264 148.092 571.267 147.891 571.267C136.985 571.267 80.7543 558.963 80.1766 558.837L79.8861 560.161C82.2934 560.689 138.951 573.084 148.513 572.609C153.506 572.362 167.096 575.712 178.732 578.905C178.267 579.966 177.185 582.399 176.113 584.541C174.801 587.162 174.606 591.249 174.606 593.452H175.962C175.962 589.855 176.447 586.905 177.326 585.147C178.476 582.85 179.636 580.225 180.052 579.27C188.107 581.499 194.993 583.578 197.069 584.211C195.762 588.598 194.652 592.348 193.753 595.415C190.692 605.86 190.728 605.908 191.009 606.286L191.558 606.562V605.88L192.059 605.431C192.251 605.644 192.227 605.882 192.227 605.892C192.353 604.731 197.778 586.507 203.101 568.816L222.673 573.399L214.384 593.674L214.343 593.824C212.374 606.12 212.826 606.573 213.097 606.843L214.057 605.885C214.168 605.997 214.193 606.108 214.193 606.11C214.035 605.367 214.818 599.443 215.67 594.115L224.011 573.713L233.525 575.941L234.063 576.067L240.518 562.176L239.287 561.606L233.297 574.495L224.531 572.443L229.522 560.234L228.266 559.722L223.193 572.129L203.493 567.516C204.545 564.022 205.588 560.566 206.58 557.284C206.74 557.241 217.195 554.458 231.242 555.394C244.896 556.304 255.477 563.213 269.139 574.841C269.738 575.35 270.321 575.88 270.891 576.429L270.789 581.556L254.444 577.02L254.08 578.325L270.761 582.954L270.337 604.438L271.694 604.465L272.221 577.772C282.777 588.89 288.02 605.897 288.076 606.083L289.374 605.69C289.313 605.482 282.946 584.809 270.02 573.808ZM112.77 517.532L112.136 505.113L114.951 496.677L162.525 505.997L159.888 519.608H114.353L112.77 517.532ZM142.458 553.224V547.184L205.21 557.128C204.259 560.272 203.228 563.691 202.17 567.206L142.458 553.224Z" fill="#4B4B4B"/>
<path d="M407.638 519.043L400.251 529.826L401.37 530.593L409.069 519.354L409.398 518.87L408.969 518.474C408.87 518.381 406.559 516.191 408.232 513.734C410.217 510.817 415.423 505.016 415.476 504.959L415.63 504.787L416.365 495.233L415.013 495.129L414.312 504.225C413.412 505.233 408.975 510.232 407.111 512.972C406.955 513.201 406.83 513.431 406.721 513.659L378.915 498.421L378.263 499.609L406.316 514.982C406.084 516.654 406.869 518.146 407.638 519.043Z" fill="#4B4B4B"/>
<path d="M466.152 492.087L455.342 510.499L456.513 511.185L467.323 492.773L466.152 492.087Z" fill="#4B4B4B"/>
<path d="M775.512 542.208L691.396 518.751L691.166 520.087L775.282 543.544L775.512 542.208Z" fill="#4B4B4B"/>
<path d="M834.549 414.474L762.09 365.772L761.45 366.968L833.909 415.67L834.549 414.474Z" fill="#4B4B4B"/>
<path d="M848.091 435.198L762.904 454.414L763.336 455.7L848.522 436.483L848.091 435.198Z" fill="#4B4B4B"/>
<path d="M750.226 442.581L720.898 527.99L722.249 528.332L751.576 442.922L750.226 442.581Z" fill="#4B4B4B"/>
<path d="M583.78 589.008C583.394 589.179 574.708 593.068 571.974 596.771L564.925 593.363L564.748 593.374C564.688 593.378 558.689 593.741 554.872 594.337C554.755 594.356 554.652 594.377 554.541 594.396C554.548 592.809 554.424 590.17 553.666 587.899C552.972 585.82 552.357 585.467 551.212 585.199C550.643 585.067 549.998 584.916 548.986 584.083C546.906 582.372 539.506 571.238 535.884 565.59L535.795 565.453L519.872 556.158L530.115 539.519L542.21 557.252L543.331 556.488L516.447 517.073L543.104 504.248V512.802L605.23 502.186L605.998 502.054L598.88 479.684L586.429 444.326L585.149 444.776L590.989 461.359C585.044 462.675 576.256 464.576 575.52 464.617L575.596 465.97C576.662 465.911 589.268 463.128 591.442 462.647L597.594 480.115L604.232 500.982L544.46 511.194V503.595L590.333 481.525L589.743 480.303L550.766 499.056L521.071 500.84L521.153 502.193L547.54 500.608L492.909 526.892C494.086 525.453 495.076 524.159 495.825 523.059C503.648 511.572 509.32 501.592 509.377 501.492L509.51 501.258L509.445 500.996C509.243 500.177 504.433 480.898 499.547 476.505C494.78 472.218 492.79 469.494 490.587 465.672C488.516 462.077 484.407 459.203 478.025 456.885C472.83 454.998 458.635 447.102 453.916 443.475C449.779 440.296 438.512 432.647 436.056 430.985L436.084 430.994C436.1 430.938 436.468 429.633 435.493 428.358C434.668 427.281 430.932 425.227 430.191 424.826L429.967 424.705L426.009 425.598L426.308 426.92L429.768 426.139C431.403 427.036 433.936 428.555 434.415 429.181C434.961 429.894 434.787 430.59 434.779 430.62L434.816 430.63L404.779 463.038L405.775 463.96L418.559 450.166L420.308 451.676L418.434 454.65L419.119 457.609L414.812 463.423L419.161 468.223C418.897 470.186 417.857 478.551 419.044 480.686C420.273 482.896 430.183 490.549 431.309 491.414L432.137 490.34C427.804 487.01 421.058 481.516 420.23 480.028C419.44 478.605 420.006 471.955 420.549 468.098L420.593 467.784L416.564 463.338L420.582 457.913L419.884 454.895L422.077 451.413L419.482 449.171L435.295 432.108C437.761 433.777 448.986 441.397 453.088 444.55C457.876 448.23 472.285 456.243 477.562 458.16C483.63 460.364 487.506 463.043 489.411 466.349C491.685 470.295 493.737 473.105 498.639 477.514C502.927 481.369 507.464 498.714 508.062 501.06C507.16 502.631 501.829 511.835 494.704 522.297C492.629 525.344 488.607 529.968 483.822 535.116L458.032 520.061L457.348 521.232L482.874 536.132C477.9 541.442 472.216 547.222 467.065 552.361L458.297 543.282H454.534C452.234 541.845 426.976 526.062 426.076 525.462L425.323 526.59C425.709 526.847 430.279 529.712 435.661 533.081C434.562 534.166 431.761 536.936 429.003 539.732C421.557 547.281 421.675 547.517 421.962 548.088L423.175 547.482C423.284 547.698 423.235 547.898 423.206 547.956C423.695 546.946 431.717 538.862 436.843 533.82C444.531 538.63 453.339 544.134 453.979 544.534L454.145 544.637H457.721L466.103 553.319C458.459 560.926 452.204 566.919 451.602 567.496C450.491 568.223 432.454 580.041 427.071 583.728C426.782 583.927 426.451 584.162 426.086 584.426C416.704 572.218 406.406 558.766 404.044 555.68L407.553 551.487L406.512 550.618L402.965 554.853L388.23 559.734L388.657 561.021L402.831 556.326C405.01 559.173 415.467 572.835 424.993 585.232C417.655 590.719 401.152 604.327 400.378 604.967L401.242 606.012C401.432 605.855 418.459 591.814 425.821 586.308C433.649 596.491 440.654 605.565 441.618 606.688L442.647 605.804C442.33 605.435 441.319 604.153 439.819 602.228L444.086 601.156L451.354 593.468L441.021 576.073C446.885 572.207 452.296 568.662 452.397 568.596L452.494 568.519C453.39 567.663 466.805 554.832 478.746 542.456L485.283 547.98L484.84 550.982L475.407 566.862L476.135 571.13L494.473 584.124L495.258 583.018L477.378 570.349L476.829 567.125L480.725 560.566C492.29 566.966 500.665 571.591 506.724 574.93L503.302 580.487L503.202 580.65V587.218L513.046 594.595L513.86 593.51L504.558 586.54V581.033L507.912 575.585C522.483 583.609 522.625 583.612 522.787 583.612V582.864L523.038 582.306C522.599 582.108 516.479 578.752 508.626 574.426L514.021 565.662L527.466 573.633L528.159 572.467L514.732 564.507L519.16 557.314L534.829 566.46C535.922 568.161 545.464 582.942 548.122 585.13C549.38 586.165 550.26 586.371 550.902 586.52C551.591 586.681 551.848 586.742 552.378 588.328C553.119 590.551 553.198 593.255 553.179 594.696C552.12 594.984 551.416 595.319 550.821 595.607C550.063 595.974 549.463 596.263 548.334 596.366C546.37 596.544 542.594 599.607 538.803 602.891C538.296 603.331 537.77 603.785 537.653 603.863C537.655 603.862 537.699 603.833 537.77 603.81L538.199 605.096C538.396 605.029 538.494 604.952 539.692 603.914C541.365 602.466 545.467 598.913 547.661 597.953L556.077 604.451L556.906 603.379L549.391 597.577C550.221 597.402 550.804 597.121 551.411 596.828C552.126 596.481 552.927 596.096 554.366 595.806L554.495 595.816C554.495 595.811 554.497 595.791 554.497 595.781C554.682 595.745 554.873 595.71 555.08 595.678C558.469 595.149 563.638 594.805 564.653 594.74L571.266 597.937C569.387 601.444 569.148 604.275 569.138 604.401L570.491 604.505C570.493 604.475 570.741 601.511 572.795 597.979C574.639 594.805 582.666 591.012 584.108 590.349L619.887 600.562L620.259 599.258L584.004 588.909L583.78 589.008ZM449.666 593.279L443.372 599.937L438.911 601.056C435.948 597.239 431.58 591.571 426.914 585.501C427.257 585.253 427.567 585.033 427.84 584.846C430.224 583.213 435.103 579.976 439.888 576.819L449.666 593.279ZM526.94 542.09L517.439 528.212L520.892 525.996L529.278 538.292L526.94 542.09ZM490.78 529.421L515.211 517.668L520.128 524.875L515.531 527.825L526.161 543.354L518.699 555.474L485.031 535.821C487.129 533.557 489.077 531.397 490.78 529.421ZM507.437 573.769C498.92 569.076 488.671 563.411 481.418 559.398L486.144 551.443L486.296 550.409L488.743 550.674L512.854 564.969L507.437 573.769ZM513.566 563.814L489.182 549.357L486.495 549.067L486.736 547.43L479.689 541.475C481.194 539.907 482.668 538.354 484.085 536.838L517.989 556.629L513.566 563.814Z" fill="#4B4B4B"/>
<path d="M538.921 470.187L548.571 468.778L549.793 485.189L551.146 485.088L549.816 467.227L538.725 468.846L538.921 470.187Z" fill="#4B4B4B"/>
<path d="M403.802 434.487L404.052 434.277L404.042 433.949C404.039 433.848 403.759 423.725 406.347 419.161C406.515 418.865 406.698 418.539 406.893 418.189C409.28 417.948 419.891 416.818 421.908 415.578C423.942 414.327 428.452 411.876 428.498 411.851L427.849 410.66C427.664 410.761 423.263 413.154 421.197 414.424C421.012 414.537 420.711 414.654 420.318 414.773C411.165 388.926 406.629 376.275 404.366 370.072L421.126 365.335L427.155 382.178L419.064 385.511L423.85 402.985L425.158 402.627L420.69 386.308L427.612 383.456L435.711 406.085L517.621 457.411C518.444 458.799 525.077 469.982 528.31 475.328C531.639 480.833 531.8 487.003 531.802 487.065L533.158 487.039C533.153 486.772 532.995 480.454 529.471 474.626C526.042 468.956 518.777 456.702 518.704 456.579L518.62 456.438L436.831 405.187L421.978 363.685L403.899 368.795C402.212 364.198 402.111 364.094 402.049 364.032L401.48 364.599L400.983 364.848C401.169 365.22 402.48 368.804 404.349 373.995H399.502C398.818 372.411 396.647 367.388 396.432 366.958L395.219 367.564C395.388 367.902 397.233 372.161 398.433 374.941L398.61 375.351H404.836C407.494 382.743 411.092 392.84 414.229 401.667C413.284 403.456 407.628 414.154 405.167 418.493C402.636 422.955 402.647 431.814 402.678 433.663C402.132 434.126 400.843 435.223 399.07 436.759L365.053 380.777L363.893 381.481L398.031 437.662C389.119 445.42 371.02 461.654 368.436 467.739C365.12 475.551 357.811 494.748 357.736 494.941L359.004 495.423C359.078 495.231 366.378 476.057 369.685 468.269C372.935 460.615 403.494 434.748 403.802 434.487ZM418.999 415.107C416.181 415.726 411.431 416.348 407.691 416.744C410.035 412.474 413.388 406.154 414.846 403.402C416.447 407.911 417.898 412.002 418.999 415.107Z" fill="#4B4B4B"/>
<path d="M394.045 476.214L386.086 490.522L387.272 491.18L395.231 476.873L394.045 476.214Z" fill="#4B4B4B"/>
<path d="M441.239 351.901L439.935 352.274L449.747 386.468L451.051 386.094L441.239 351.901Z" fill="#4B4B4B"/>
<path d="M452.343 348.716L451.076 349.202L457.414 365.702L458.681 365.216L452.343 348.716Z" fill="#4B4B4B"/>
<path d="M506.635 364.799L491.502 367.474L479.725 350.848L478.617 351.63L490.892 368.958L492.726 368.634L495.191 385.852L485.305 388.268L478.374 381.345L465.981 350.271L465.887 350.036L459.68 346.812L459.054 348.015L464.813 351.007L476.991 381.538L470.998 386.961L470.955 387.004C451.03 408.599 451.03 409.118 451.03 409.462H452.388C452.388 409.62 452.33 409.723 452.328 409.728C452.869 408.775 462.828 397.835 470.307 389.709L478.28 395.093L472.234 406.148L473.425 406.798L480.063 394.66L471.236 388.7C471.471 388.445 471.704 388.194 471.932 387.946L477.773 382.661L484.886 389.767L495.385 387.2L498.634 409.884L488.309 412.025L488.584 413.352L500.158 410.951L494.064 368.397L506.873 366.133L506.635 364.799Z" fill="#4B4B4B"/>
<path d="M439.185 129.996L446.198 131.065L454.407 104.797L462.336 108.098L462.857 106.847L453.555 102.975L445.25 129.549L438.144 128.466L435.729 139.003L437.052 139.305L439.185 129.996Z" fill="#4B4B4B"/>
<path d="M480.611 124.629L480.275 125.941L539.309 141.007L539.645 139.695L480.611 124.629Z" fill="#4B4B4B"/>
<path d="M585.527 194.715L579.189 174.311L549.136 91.2235L570.759 83.6028L570.307 82.325L548.675 89.9484L546.281 83.3307L545.005 83.7918L547.395 90.3993L531.488 96.0059L475.442 82.3054L475.12 83.6223L531.361 97.3707L531.558 97.4187L547.857 91.6744L577.902 174.742L584.305 195.352L573.735 232.311L584.143 245.605L572.522 259.71L573.57 260.572L585.882 245.627L575.23 232.02L585.509 196.075L620.922 199.684L621.06 198.335L585.527 194.715Z" fill="#4B4B4B"/>
<path d="M543.588 170.951L522.057 257.961L540.368 263.894L540.786 262.605L523.677 257.06L544.905 171.277L543.588 170.951Z" fill="#4B4B4B"/>
<path d="M511.246 245.251L501.74 278.782L488.116 274.722L486.837 278.826L466.646 271.933L466.207 273.216L486.434 280.121L482.292 293.414L482.232 293.606L490.267 322.053L484.206 324.833L472.462 285.293L471.161 285.679L483.35 326.717L491.888 322.801L483.648 293.625L489.013 276.404L502.671 280.474L512.551 245.62L511.246 245.251Z" fill="#4B4B4B"/>
<path d="M310.162 188.785L299.314 228.317L300.622 228.676L311.47 189.144L310.162 188.785Z" fill="#4B4B4B"/>
<path d="M321.407 234.428L320.167 234.978L339.872 279.369L341.113 278.82L321.407 234.428Z" fill="#4B4B4B"/>
<path d="M368.973 247.51L362.989 266.759L364.285 267.16L370.268 247.913L368.973 247.51Z" fill="#4B4B4B"/>
<path d="M394.107 254.333L389.682 268.919L390.98 269.313L395.406 254.727L394.107 254.333Z" fill="#4B4B4B"/>
<path d="M455.998 242.383L451.974 263.253L453.436 270.438L454.766 270.167L453.357 263.246L457.33 242.639L455.998 242.383Z" fill="#4B4B4B"/>
<path d="M669.445 602.533L722.582 410.737L719.997 410.028L666.869 601.791C645.76 595.712 625.643 589.88 620.979 588.398C622.137 583.972 627.742 566.094 631.36 554.75L631.768 553.47L630.485 553.066C630.421 553.046 624.039 550.986 621.473 545.507C619.022 540.271 602.723 488.273 598.824 475.797C621.381 467.254 645.631 456.346 663.669 447.862L700.286 482.119L702.152 480.195L666.258 446.64C681.149 439.597 723.416 413.367 723.708 413.213L721.161 408.424C721.151 408.43 720.332 408.935 718.883 409.824C709.776 415.411 675.821 436.124 662.081 442.594L659.696 440.284C657.66 436.728 632.431 392.753 623.531 381.555C615.234 371.117 608.339 364.12 606.742 362.667C599.316 355.185 582.849 353.094 573.606 352.517C569.913 352.289 557.635 354.706 543.419 357.508C527.944 360.559 510.4 364.016 505.694 363.52C497.086 362.615 495.594 359.633 492.885 354.22C491.587 351.626 489.975 347.803 488.614 344.43C487.646 342.031 488.913 339.315 491.371 338.503C503.97 334.342 513.927 330.92 518.375 329.083C521.028 327.988 529.098 324.655 577.77 275.629C580.138 273.244 583.289 270.028 587.034 266.178C591.671 265.972 599.936 266.522 608.272 271.584C621.218 279.445 746.125 380.113 746.851 380.703L748.544 378.626C745.575 376.212 622.768 277.25 609.665 269.294C602.163 264.739 594.822 263.569 589.689 263.446C611.443 241.032 649.643 201.101 675.829 173.68C685.414 180.462 695.126 190.19 699.504 194.763C700.987 196.312 820.276 295.712 820.322 295.763L824.302 292.172C824.123 291.975 704.864 192.607 703.51 191.185C699.166 186.624 689.541 176.954 679.539 169.795C693.899 154.753 829.263 -9.03962 829.331 -9.11252L822.419 -15.6195C822.356 -15.5534 686.258 149.004 671.336 164.634C668.137 162.939 665.039 161.729 662.212 161.269C658.475 160.659 654.405 160.038 650.202 159.494C652.543 155.661 658.796 147.263 674.842 132.729C688.247 120.589 692.261 97.2054 693.268 79.7269C694.379 60.4678 692.114 40.9077 689.38 33.8303C684.786 21.9382 645.215 18.9155 633.089 18.2648C646.344 -5.00245 657.772 -27.5981 658.698 -29.4354L656.303 -30.6403C656.071 -30.1793 643.98 -6.27145 630.17 17.9293L585.019 -13.6033C585.189 -13.8618 585.306 -14.0393 585.36 -14.1224L580.553 -17.2652C573.17 -5.992 552.183 24.5092 543.84 30.1981C539.63 33.0682 484.37 48.3307 436.689 61.1718L477.912 -47.5632L475.405 -48.5116L444.389 33.3031L390.158 12.6778L407.454 -45.8582L404.882 -46.6169L387.644 11.7214L321.291 -13.5142L320.337 -11.0106L330.4 -7.18337C326.367 6.0932 306.094 73.3056 305.591 84.2413L305.558 84.2433L305.583 84.6443C305.583 84.8178 305.589 84.9771 305.603 85.1107L305.611 85.11L306.164 94.1375C306.213 94.934 305.935 95.7163 305.394 96.3036L301.529 100.5C291.403 97.6968 272.218 92.3298 250.325 86.1934L287.839 -14.2695L285.327 -15.2057L247.734 85.4671C230.389 80.6044 211.532 75.3117 194.219 70.4517C202.113 49.3722 219.167 4.44958 229.282 -22.1373L226.775 -23.0891C225.512 -19.7708 201.557 43.2 191.632 69.7254C170.518 63.7983 151.983 58.5961 141.76 55.7361L141.774 55.6868L137.96 54.6473C137.231 52.6142 135.807 49.4295 133.022 44.6613C128.619 37.1209 128.001 33.4874 127.285 29.2794C127.128 28.3581 126.966 27.4063 126.759 26.3932C125.527 20.362 121.208 17.2516 116.208 13.6498C113.761 11.8874 111.76 10.993 109.442 9.9569C106.939 8.83842 104.103 7.57145 99.6923 4.8242C94.267 1.44515 87.9763 3.04018 82.9219 4.32065C79.7066 5.13605 76.669 5.9069 75.3684 4.90115C74.7813 4.44823 74.4644 3.97168 74.3975 3.44585C74.2192 2.03308 75.717 0.112701 76.8095 -1.28995C77.4703 -2.13707 78.0405 -2.86877 78.3189 -3.53702L75.844 -4.56707C75.7035 -4.23092 75.1907 -3.5728 74.6941 -2.9356C73.3125 -1.16305 71.4194 1.2656 71.7376 3.78133C71.895 5.0321 72.5652 6.12155 73.728 7.02065C76.0623 8.82358 79.5458 7.94 83.5813 6.91738C88.3796 5.70103 93.8184 4.322 98.2742 7.0976C102.841 9.94138 105.894 11.3056 108.347 12.4018C110.62 13.4176 112.416 14.2202 114.64 15.822C119.371 19.23 123.11 21.9226 124.132 26.9284C124.33 27.8977 124.488 28.8279 124.641 29.7277C125.369 34.0071 126.057 38.049 130.706 46.0107C134.143 51.896 135.365 55.1542 135.801 56.6716L135.017 59.4823C135.022 59.4837 135.033 59.487 135.038 59.4884L92.453 208.153C92.1874 209.124 91.1814 209.693 90.2119 209.419L38.2718 193.056L37.5144 195.682C37.2813 196.49 14.1823 276.572 10.6954 286.858C6.76799 298.442 13.7513 309.018 14.0499 309.462L14.5769 310.244L70.2586 327.574L70.1992 327.785L211.146 367.502C214.912 368.563 218.373 370.48 221.286 373.089C225.657 377.003 236.282 385.312 263.11 405.051C276.365 414.804 289.653 424.445 297.745 430.297C299.857 431.824 300.291 434.789 298.716 436.865C290.832 447.251 284.677 455.821 283.107 458.737C281.017 462.615 237.535 573.736 211.142 641.528C198.209 641.978 147.592 643.75 97.3857 645.595C63.3848 646.844 36.2267 647.882 16.6646 648.68C-20.9584 650.215 -21.2124 650.378 -22.1562 650.984L-19.049 655.813C-19.5105 656.109 -19.928 656.183 -19.974 656.19C-14.3082 655.277 142.002 649.68 208.876 647.35C199.64 671.087 192.898 688.489 191.485 692.26L200.38 695.586C221.331 639.677 289.173 467.762 291.47 463.236C292.783 460.799 297.55 454.118 303.977 445.601C305.918 443.029 309.828 443.159 311.586 445.859C321.998 461.843 340.618 489.893 347.352 496.621C352.583 501.847 358.064 506.274 361.944 509.202C363.126 510.095 363.802 511.497 363.751 512.977C363.385 523.577 369.476 542.219 382.572 571.063C383.14 572.312 383.589 573.301 383.884 573.975C385.843 578.45 387.802 590.431 388.992 599.068C389.389 601.947 407.448 677.417 407.645 679.152L413.038 678.542C412.999 678.206 394.935 602.483 394.409 598.623C393.291 590.404 391.22 577.201 388.856 571.801C388.555 571.112 388.096 570.1 387.515 568.822C384.611 562.425 378.567 549.114 374.201 536.292C370.893 526.579 369.59 520.183 369.256 515.981C369.099 514.006 371.356 512.783 372.922 513.999C400.572 535.465 437.423 564.598 440.201 568.299C441.687 570.277 445.51 575.641 449.937 581.853C459.611 595.425 485.734 629.959 495.09 643.26C502.136 653.276 508.221 661.924 510.608 664.872C511.847 666.4 514.745 669.977 563.64 683.112C587.428 689.503 610.815 695.099 611.048 695.154L611.389 693.731L641.525 704.066L668.735 605.117C690.672 611.429 757.042 629.599 757.264 629.663L758.002 627.087C747.864 624.19 685.969 607.288 669.445 602.533ZM571.059 268.917C571.044 268.931 571.03 268.945 571.016 268.96C528.312 311.973 517.44 319.203 514.748 320.314C510.056 322.252 498.796 326.087 484.683 330.719C482.044 331.586 479.209 330.09 478.441 327.422C474.612 314.116 468.068 290.519 467.087 281.372C466.748 278.206 470.077 263.045 475.463 241.436C476.043 239.106 478.435 237.711 480.75 238.355L569.502 263.053C572.09 263.773 572.951 267.01 571.059 268.917ZM187.293 311.136L204.468 250.037C204.864 248.628 206.329 247.807 207.738 248.205L249.864 260.087C251.562 260.566 252.4 262.474 251.6 264.045C246.469 274.128 236.786 293.856 231.741 311.693C230.877 314.748 229.946 317.969 229.004 321.206C228.315 323.575 225.827 324.931 223.461 324.226L188.821 313.908C187.639 313.556 186.959 312.322 187.293 311.136ZM184.71 310.291C184.37 311.505 183.1 312.204 181.891 311.844L133.957 297.566C133.168 297.331 132.716 296.503 132.947 295.713L150.75 234.689C151.132 233.381 152.499 232.624 153.813 232.994L200.027 246.029C201.434 246.426 202.253 247.886 201.858 249.292L184.71 310.291ZM432.226 234.678C432.812 235.819 433.825 236.639 435.055 236.978L454.785 242.398C455.183 242.507 455.589 242.562 455.993 242.562C456.928 242.561 457.85 242.269 458.645 241.698C459.511 241.076 460.102 240.141 460.385 239.113L461.336 235.66C461.918 233.541 464.129 232.314 466.237 232.938L467.681 233.366C469.871 234.014 471.161 236.276 470.608 238.491C467.588 250.578 465.57 259.214 464.227 265.421C463.507 268.751 460.136 270.792 456.845 269.896L277.998 221.208C276.685 220.85 275.917 219.492 276.288 218.185C279.015 208.604 281.958 198.17 284.919 187.618C285.415 185.854 287.243 184.821 289.011 185.304L430.409 223.995C432.218 224.49 433.281 226.357 432.784 228.163L431.929 231.272C431.617 232.406 431.687 233.632 432.226 234.678ZM434.506 232.135L439.931 212.424C440.153 211.621 440.885 211.091 441.682 211.091C441.84 211.091 442.001 211.112 442.162 211.156L461.892 216.577C462.856 216.842 463.425 217.842 463.16 218.805L457.734 238.518C457.469 239.481 456.468 240.05 455.504 239.784L435.774 234.364C434.809 234.099 434.24 233.099 434.506 232.135ZM276.211 183.48C266.646 217.575 258.176 247.281 255.347 255.998L209.199 242.982C207.793 242.586 206.973 241.125 207.368 239.719L227.085 169.581C227.536 167.976 229.2 167.038 230.808 167.482L273.888 179.369C275.668 179.86 276.709 181.704 276.211 183.48ZM251.026 287.212C255.29 277.634 259.494 269.447 261.733 265.09C262.287 264.014 262.735 263.141 263.055 262.502C264.026 260.563 268.458 245.578 274.205 225.487C274.573 224.202 275.908 223.449 277.199 223.8L457.377 272.853C460.183 273.617 462.019 276.298 461.733 279.19C461.571 280.835 461.641 281.49 461.69 281.949C462.738 291.72 469.513 316.083 473.366 329.428C474.1 331.97 472.68 334.631 470.161 335.445C453.591 340.8 435.155 346.653 419.324 351.679C395.142 359.356 382.422 363.404 380.234 364.315C374.473 366.713 355.874 375.605 344.032 383.38C342.356 384.48 339.625 387.133 336.224 390.818C334.962 392.185 332.719 391.885 331.879 390.225C320.8 368.294 304.288 343.507 302.026 340.4C298.649 335.761 262.285 301.37 251.902 291.58C250.712 290.459 250.361 288.707 251.026 287.212ZM667.505 168.647C637.467 200.108 593.569 246.021 581.08 258.757C580.182 259.672 578.856 260.027 577.62 259.683L481.882 233.041C479.646 232.419 478.315 230.127 478.892 227.881C483.678 209.206 489.52 187.277 495.655 164.724C496.403 161.978 499.234 160.353 501.985 161.093C540.821 171.541 568.666 178.785 571.723 178.923C571.938 178.933 572.159 178.938 572.386 178.938C583.634 178.938 608.471 167.118 611.319 165.745L611.286 165.679C623.355 160.369 651.9 165.018 661.349 166.557C663.249 166.866 665.327 167.602 667.505 168.647ZM361.414 114.51L369.829 84.7017C377.4 82.7745 397.325 77.685 421.226 71.4285L509.945 92.8422C506.354 105.622 500.716 125.79 494.568 148.186C493.823 150.902 491.021 152.508 488.3 151.771C451.45 141.793 406.712 129.526 363.103 117.508C361.804 117.15 361.048 115.806 361.414 114.51ZM359.022 112.995C358.531 114.734 356.725 115.751 354.981 115.27C342.125 111.724 329.419 108.215 317.094 104.807C315.604 104.394 314.877 102.645 315.724 101.353C315.999 100.933 316.219 100.475 316.375 99.9884L363.178 86.4533C364.762 85.995 366.233 87.455 365.785 89.0406L359.022 112.995ZM631.597 20.871C647.183 21.6155 683.209 25.2943 686.879 34.7942C691.82 47.5868 696.587 109.419 673.041 130.744C655.471 146.657 649.364 155.417 647.304 159.135C632.872 157.428 617.416 156.858 608.63 160.989L608.641 161.013C600.833 164.753 579.943 173.862 571.975 173.507C569.059 173.319 541.992 166.25 503.443 155.862C500.682 155.118 499.052 152.274 499.808 149.519C505.008 130.563 510.29 111.59 515.215 94.1139L531.295 97.9951L531.682 98.0889L570.273 84.4134L570.433 84.3446C570.532 84.2946 580.407 79.2571 596.687 69.8982C604.647 65.3231 618.809 43.1331 631.597 20.871ZM547.08 34.9393C556.532 28.4938 577.234 -1.92107 583.538 -11.3697L628.833 20.2635C616.352 41.9755 602.749 63.3237 595.351 67.5762C579.891 76.4626 570.243 81.4313 569.293 81.9187L531.537 95.2978L515.942 91.534C517.04 87.644 518.119 83.8296 519.173 80.1164L519.135 80.1056L529.531 41.4544C538.797 38.5405 545.165 36.2448 547.08 34.9393ZM513.975 78.6442L513.952 78.6375C513.912 78.7779 512.699 83.0553 510.671 90.2616L426.7 69.9941C459.723 61.3224 498.85 50.7957 523.475 43.3235L513.975 78.6442ZM389.396 15.2543L443.439 35.808L433.498 62.0304C405.133 69.6593 379.97 76.2966 370.633 78.7529L389.396 15.2543ZM332.911 -6.22825L386.882 14.2985L367.601 79.5508C367.061 79.6925 366.774 79.7674 366.774 79.7674L315.329 94.6464C314.288 93.4017 312.725 92.608 310.98 92.608C310.213 92.608 309.483 92.7625 308.815 93.0393L308.266 84.0773H308.264C308.718 75.818 322.861 26.8434 332.911 -6.22825ZM313.932 98.2671C313.932 99.8932 312.608 101.216 310.981 101.216C309.353 101.216 308.029 99.8925 308.029 98.2671C308.029 96.6411 309.354 95.3187 310.981 95.3187C312.608 95.3181 313.932 96.6411 313.932 98.2671ZM306.229 111.025C306.737 109.182 308.644 108.104 310.488 108.614C365.013 123.705 433.571 142.598 486.814 157C489.561 157.743 491.181 160.568 490.433 163.311C489.397 167.116 488.356 170.95 487.317 174.791C481.424 196.586 476.873 213.873 473.36 227.608C472.761 229.952 470.335 231.325 468.014 230.638L466.808 230.282C464.758 229.675 463.57 227.539 464.137 225.479L465.737 219.668C466.049 218.534 465.978 217.309 465.44 216.263C464.854 215.122 463.841 214.302 462.611 213.963L443.024 208.582C441.89 208.271 440.663 208.341 439.616 208.879C438.474 209.465 437.653 210.477 437.314 211.706L436.023 216.4C435.526 218.203 433.661 219.264 431.855 218.77L290.51 180.093C288.728 179.605 287.682 177.762 288.18 175.984C295.6 149.458 302.672 123.902 306.229 111.025ZM252.343 92.4905C264.198 95.7838 278.596 99.7798 294.648 104.227C296.496 104.74 297.584 106.649 297.074 108.496C291.472 128.782 284.963 152.219 278.741 174.453C278.246 176.221 276.413 177.253 274.642 176.764L231.567 164.878C229.949 164.432 229.002 162.757 229.456 161.142L248.081 94.8908C248.598 93.0534 250.503 91.9795 252.343 92.4905ZM243.045 89.9066C244.895 90.4209 245.98 92.3393 245.46 94.1861L204.759 238.975C204.363 240.384 202.898 241.204 201.488 240.807L154.498 227.553C153.198 227.186 152.429 225.849 152.765 224.542L168.22 164.597L168.328 164.18L168.174 163.778C168.138 163.681 164.506 154.026 165.84 147.807C167.135 141.769 175.192 136.774 175.273 136.724L175.738 136.439L190.236 81.3969L190.18 81.382C190.513 80.4269 191.241 78.4417 192.288 75.6236C215.67 82.213 238.345 88.6005 243.045 89.9066ZM97.6688 209.659L140.263 60.9592C149.58 63.5836 169.668 69.2476 189.705 74.8953C188.33 78.5977 187.487 80.919 187.389 81.299L187.453 81.3159L173.387 134.712C171.485 135.967 164.542 140.92 163.186 147.24C161.835 153.538 164.763 162.312 165.486 164.332L150.181 223.695C149.833 225.046 148.441 225.845 147.098 225.466L98.9248 211.878C97.9674 211.608 97.4067 210.618 97.6688 209.659ZM93.2326 217.82C93.4914 216.842 94.5028 216.265 95.4771 216.54L146.416 230.908C147.746 231.283 148.514 232.668 148.127 233.994L130.352 294.922C130.12 295.718 129.283 296.174 128.486 295.937L76.6528 280.498L93.2326 217.82ZM41.91 199.792L89.3762 214.819C90.3281 215.088 90.8889 216.069 90.6362 217.025L74.0077 279.886L23.4499 263.205C30.2413 240.171 39.2264 209.089 41.91 199.792ZM15.7748 288.578C16.8044 285.541 19.4454 276.761 22.6912 265.776L72.9551 282.36L63.8571 319.972L18.0496 305.715C16.7429 303.383 13.2358 296.068 15.7748 288.578ZM115.795 335.001L73.9172 323.2L73.9448 323.111L66.4224 320.77L75.5583 283.001L127.744 298.545C128.533 298.78 128.984 299.607 128.754 300.397L119.21 333.11C118.784 334.57 117.26 335.414 115.795 335.001ZM226.077 331.251C221.91 345.6 219.465 354.482 218.332 360.193C217.957 362.083 216.055 363.253 214.198 362.731L123.745 337.241C122.262 336.823 121.404 335.278 121.835 333.8L131.349 301.19C131.582 300.392 132.419 299.937 133.216 300.174L223.852 327.171C225.589 327.688 226.582 329.512 226.077 331.251ZM310.172 422.06C308.625 424.023 305.808 424.42 303.781 422.956C278.054 404.371 243.728 379.189 231.07 368.983C228.464 366.881 227.276 363.484 228.017 360.221C229.819 352.307 233.687 339.062 236.508 329.399C237.985 324.341 239.512 319.111 240.881 314.273C242.428 308.804 244.449 303.116 246.645 297.587C247.648 295.061 250.893 294.353 252.87 296.22C270.474 312.841 297.16 338.325 299.831 341.994C302.179 345.219 320.007 371.984 330.902 394.328C331.369 395.283 331.215 396.421 330.52 397.225C324.392 404.309 317.147 413.209 310.172 422.06ZM339.947 471.179C331.771 459.389 322.249 444.895 315.951 435.15C314.873 433.481 314.976 431.317 316.205 429.755C317.268 428.404 318.343 427.045 319.426 425.683C324.852 418.858 329.585 413.065 333.602 408.281C334.633 407.053 336.611 407.429 337.131 408.945C337.42 409.787 337.684 410.607 337.921 411.403C339.993 418.354 341.843 424.129 343.475 429.226C346.81 439.642 349.014 446.524 348.421 449.485C347.832 452.426 345.192 463.016 343.288 470.571C342.897 472.123 340.86 472.495 339.947 471.179ZM371.652 499.869C370.008 501.407 367.492 501.512 365.717 500.126C362.317 497.468 358.078 493.92 354.066 489.913C352.448 488.296 349.898 485.059 346.815 480.851C345.251 478.717 344.715 476 345.364 473.435C347.27 465.895 350.414 453.355 351.082 450.016C351.812 446.366 349.769 439.985 346.059 428.4C344.431 423.315 342.585 417.554 340.521 410.629C340.132 409.323 339.671 407.952 339.15 406.527C338.397 404.471 338.809 402.168 340.257 400.526C344.964 395.187 347.994 392.132 349.248 391.31C360.406 383.984 378.548 375.296 383.886 373.074C385.794 372.28 403.478 366.666 422.2 360.722C440.361 354.956 461.937 348.106 480.278 342.139C482.514 341.411 484.93 342.539 485.805 344.722C487.236 348.295 489.014 352.546 490.458 355.432C493.475 361.46 495.812 365.207 505.411 366.216C505.779 366.256 506.207 366.274 506.694 366.274C512.97 366.274 528.698 363.174 543.944 360.168C556.8 357.634 570.092 355.007 573.437 355.222C580.661 355.673 598.206 357.513 605.08 364.839L605.111 364.81C606.594 366.212 613.166 372.821 621.431 383.22C630.385 394.485 657.194 441.306 657.463 441.777L657.558 441.941L659.488 443.812C626.299 459.354 573.822 482.277 549.387 484.109C511.685 486.933 417.158 490.796 408.387 490.796C405.559 490.796 402.006 490.633 398.57 490.477C388.155 490.002 383.707 489.932 381.622 491.183C380.075 492.11 375.474 496.296 371.652 499.869ZM639.696 700.608L612.015 691.114L612.295 689.945C574.299 680.867 518.921 666.037 514.776 661.502C512.503 658.697 506.176 649.703 499.476 640.18C489.167 625.526 460.008 586.637 454.358 578.709C449.91 572.468 446.068 567.08 444.543 565.047C440.652 559.865 390.885 521.074 374.427 508.306C373.324 507.451 373.248 505.814 374.264 504.859C378.878 500.522 383.193 496.624 384.342 495.878C385.954 495.33 393.387 495.669 398.323 495.894C401.82 496.054 405.435 496.219 408.387 496.219C417.192 496.219 512.006 492.348 549.793 489.516C561.14 488.666 578.068 483.546 596.31 476.744C600.341 489.65 616.499 541.206 619.045 546.643C621.374 551.616 626.143 554.166 628.421 555.141C627.572 557.813 625.44 564.532 623.355 571.221C617.76 589.17 617.846 589.299 618.326 590.018C618.706 590.587 618.713 590.597 633.749 594.993C641.484 597.254 652.244 600.369 665.73 604.252C665.873 604.293 666.016 604.334 666.159 604.375L639.696 700.608Z" fill="#717271"/>
<path d="M201.623 489.023L200.379 496.622L201.35 496.78L201.796 494.052C202.049 494.717 202.582 495.209 203.51 495.36C204.833 495.576 206.14 494.685 206.452 492.777C206.759 490.901 205.81 489.608 204.487 489.392C203.558 489.24 202.896 489.537 202.445 490.087L202.593 489.181L201.623 489.023ZM202.078 492.062C202.325 490.549 203.241 490.042 204.105 490.183C205.097 490.345 205.621 491.229 205.396 492.604C205.171 493.979 204.393 494.651 203.401 494.489C202.537 494.348 201.83 493.576 202.078 492.062ZM208.076 495.964L208.276 494.738L207.049 494.538L206.849 495.763L208.076 495.964ZM214.525 490.046L218.633 490.717L218.786 489.779L213.591 488.931L212.326 496.658L215.175 497.123C216.839 497.395 218.107 496.88 218.384 495.185C218.642 493.607 217.711 492.733 215.994 492.453L214.18 492.157L214.525 490.046ZM213.568 495.898L214.033 493.052L215.762 493.334C216.872 493.515 217.431 493.978 217.261 495.013C217.108 495.951 216.405 496.361 215.339 496.187L213.568 495.898ZM224.67 496.058C225.086 494.255 224.29 492.626 222.53 492.338C220.961 492.082 219.557 493.035 219.259 494.857C218.982 496.552 219.771 498.016 221.585 498.312C222.983 498.541 224.035 497.87 224.451 496.931L223.448 496.767C223.11 497.292 222.578 497.599 221.725 497.459C220.882 497.322 220.084 496.579 220.254 495.337L224.67 496.058ZM222.394 493.17C223.429 493.339 223.883 494.244 223.782 495.06L220.4 494.508C220.674 493.37 221.54 493.03 222.394 493.17ZM230.921 493.807L227.091 493.182L226.685 495.129C226.178 497.486 225.597 497.961 225.085 497.877L224.978 497.86L224.841 498.701L225.022 498.731C226.355 498.949 227.052 497.837 227.57 495.547L227.882 494.176L229.813 494.491L229.012 499.383L229.983 499.541L230.921 493.807ZM235.582 497.993C235.361 499.347 234.429 499.622 233.522 499.474C232.829 499.36 232.472 498.93 232.561 498.387C232.69 497.598 233.854 497.514 235.642 497.632L235.582 497.993ZM233.183 500.206C234.208 500.373 234.848 500.139 235.298 499.6C235.253 499.942 235.247 500.182 235.243 500.4L236.225 500.561C236.197 499.998 236.26 499.341 236.43 498.373L236.657 497.053C236.932 495.434 236.35 494.573 234.761 494.314C233.651 494.132 232.428 494.644 232.141 495.866L233.143 496.03C233.303 495.323 233.831 494.972 234.642 495.104C235.368 495.223 235.888 495.658 235.716 496.713L235.693 496.852C233.304 496.724 231.701 496.878 231.48 498.232C231.307 499.287 232.106 500.031 233.183 500.206ZM242.77 495.742L240.519 495.374C239.196 495.158 238.29 495.613 238.096 496.795C237.957 497.648 238.357 498.282 239.042 498.646L236.925 500.675L238.13 500.872L240.023 499.08C240.074 499.099 240.127 499.108 240.181 499.117L241.194 499.282L240.861 501.318L241.832 501.476L242.77 495.742ZM241.662 496.426L241.332 498.44L240.191 498.254C239.519 498.144 238.95 497.8 239.078 497.021C239.191 496.329 239.72 496.109 240.435 496.226L241.662 496.426Z" fill="white"/>
<path d="M398.406 358.521L393.838 359.957L395.583 365.499L396.522 365.204L395.032 360.476L397.723 359.63L399.213 364.358L400.151 364.063L398.406 358.521ZM399.99 358.023L402.304 365.368L403.242 365.073L402.412 362.436C402.937 362.916 403.634 363.116 404.531 362.834C405.81 362.432 406.576 361.048 405.994 359.204C405.424 357.391 403.993 356.663 402.714 357.065C401.818 357.346 401.36 357.909 401.205 358.603L400.929 357.728L399.99 358.023ZM401.767 360.532C401.306 359.07 401.895 358.206 402.731 357.943C403.689 357.641 404.555 358.195 404.974 359.525C405.392 360.854 405 361.803 404.041 362.105C403.205 362.368 402.227 361.996 401.767 360.532ZM407.822 358.629C407.345 357.115 407.977 356.316 408.833 356.047C409.689 355.778 410.675 356.102 411.142 357.586C411.59 359.008 410.987 359.899 410.131 360.168C409.275 360.437 408.289 360.113 407.822 358.629ZM408.573 355.223C407.285 355.628 406.189 356.935 406.821 358.944C407.454 360.953 409.101 361.398 410.39 360.992C411.679 360.587 412.775 359.28 412.143 357.271C411.51 355.263 409.862 354.818 408.573 355.223ZM414.736 353.286C413.097 353.801 412.441 355.354 412.96 357.003C413.493 358.692 414.862 359.587 416.461 359.084C417.76 358.676 418.457 357.472 418.325 356.37L417.356 356.674C417.404 357.294 417.025 358.001 416.232 358.25C415.407 358.51 414.42 358.073 413.978 356.672C413.54 355.281 414.109 354.389 414.934 354.129C415.666 353.9 416.38 354.185 416.721 354.802L417.67 354.504C417.237 353.598 416.098 352.858 414.736 353.286ZM422.826 350.845L418.258 352.281L420.003 357.824L420.941 357.529L419.452 352.8L422.143 351.954L423.632 356.683L424.571 356.388L422.826 350.845ZM427.218 355.556L426.845 354.371L425.659 354.744L426.032 355.929L427.218 355.556ZM435.723 350.268C435.787 351.3 435.276 352.197 434.08 352.573C432.688 353.01 431.351 352.219 430.754 350.324C430.144 348.386 430.851 347.032 432.17 346.617C433.357 346.245 434.316 346.702 434.828 347.571L435.849 347.25C435.016 345.757 433.49 345.229 431.943 345.715C429.839 346.376 428.955 348.353 429.681 350.66C430.395 352.927 432.152 354.152 434.297 353.478C435.916 352.969 436.932 351.699 436.744 349.946L435.723 350.268ZM441.326 348.574C441.739 349.882 441.03 350.546 440.153 350.822C439.483 351.033 438.97 350.809 438.805 350.284C438.565 349.521 439.567 348.923 441.216 348.224L441.326 348.574ZM440.181 351.628C441.171 351.317 441.637 350.82 441.796 350.136C441.91 350.463 442.012 350.679 442.108 350.876L443.057 350.577C442.778 350.088 442.539 349.472 442.254 348.532L441.862 347.251C441.379 345.682 440.472 345.175 438.935 345.657C437.862 345.994 437.001 347.001 437.295 348.222L438.264 347.917C438.088 347.215 438.402 346.663 439.185 346.417C439.887 346.196 440.547 346.351 440.868 347.37L440.911 347.505C438.72 348.465 437.358 349.323 437.771 350.631C438.091 351.651 439.139 351.956 440.181 351.628ZM447.01 343.244L443.308 344.407L443.822 346.329C444.432 348.662 444.127 349.347 443.632 349.502L443.528 349.535L443.785 350.349L443.96 350.294C445.249 349.888 445.371 348.582 444.8 346.305L444.461 344.939L446.327 344.353L447.816 349.082L448.755 348.787L447.01 343.244ZM453.058 344.887C453.47 346.195 452.761 346.859 451.885 347.135C451.215 347.346 450.702 347.121 450.537 346.596C450.297 345.834 451.299 345.236 452.948 344.536L453.058 344.887ZM451.912 347.942C452.903 347.63 453.369 347.132 453.528 346.448C453.642 346.775 453.744 346.992 453.84 347.188L454.788 346.89C454.51 346.401 454.271 345.785 453.986 344.844L453.594 343.564C453.111 341.994 452.203 341.487 450.667 341.97C449.594 342.307 448.733 343.314 449.026 344.535L449.996 344.23C449.82 343.527 450.133 342.976 450.917 342.729C451.618 342.508 452.279 342.663 452.6 343.683L452.642 343.817C450.451 344.777 449.09 345.636 449.502 346.944C449.823 347.964 450.871 348.269 451.912 347.942ZM454.359 340.934L456.104 346.477L458.682 345.666C459.868 345.294 460.619 344.548 460.255 343.394C460.022 342.652 459.476 342.394 458.847 342.411C459.294 342.032 459.422 341.539 459.237 340.952C458.884 339.829 457.885 339.825 456.772 340.176L454.359 340.934ZM456.03 342.967L455.554 341.453L456.935 341.019C457.637 340.798 458.108 340.786 458.29 341.362C458.488 341.991 458.134 342.306 457.443 342.523L456.03 342.967ZM456.274 343.74L457.738 343.28C458.604 343.007 459.078 343.073 459.273 343.692C459.455 344.269 459.106 344.639 458.281 344.898L456.786 345.368L456.274 343.74ZM464.579 341.266C464.99 342.574 464.281 343.238 463.405 343.514C462.735 343.724 462.222 343.501 462.057 342.975C461.817 342.213 462.819 341.615 464.468 340.915L464.579 341.266ZM463.433 344.32C464.423 344.009 464.889 343.512 465.048 342.828C465.162 343.154 465.264 343.371 465.36 343.568L466.308 343.269C466.03 342.779 465.791 342.164 465.506 341.223L465.114 339.942C464.631 338.373 463.723 337.866 462.187 338.349C461.114 338.686 460.253 339.693 460.547 340.913L461.516 340.609C461.34 339.906 461.653 339.354 462.437 339.108C463.138 338.888 463.799 339.042 464.12 340.062L464.163 340.196C461.971 341.156 460.61 342.014 461.022 343.323C461.343 344.343 462.391 344.648 463.433 344.32ZM469.937 336.932L469.68 336.118L464.948 337.606L465.204 338.419L467.102 337.823L468.591 342.552L469.528 342.257L468.039 337.528L469.937 336.932ZM474.8 338.053C475.212 339.361 474.503 340.026 473.626 340.301C472.956 340.512 472.444 340.288 472.278 339.763C472.038 339 473.04 338.402 474.689 337.702L474.8 338.053ZM473.654 341.108C474.644 340.797 475.11 340.299 475.269 339.615C475.383 339.941 475.485 340.158 475.581 340.355L476.53 340.056C476.251 339.567 476.012 338.951 475.727 338.01L475.335 336.73C474.852 335.16 473.944 334.654 472.408 335.136C471.336 335.474 470.474 336.48 470.767 337.701L471.737 337.397C471.561 336.693 471.875 336.142 472.659 335.896C473.359 335.675 474.02 335.829 474.342 336.849L474.383 336.984C472.193 337.944 470.831 338.802 471.243 340.11C471.564 341.13 472.612 341.435 473.654 341.108ZM484.147 329.307C482.209 329.916 481.304 331.65 481.731 333.689L480.184 334.176L479.188 331.013L478.137 331.343L480.488 338.812L481.54 338.481L480.469 335.082L481.996 334.602C482.771 336.668 484.573 337.675 486.583 337.044C488.759 336.36 489.727 334.357 488.993 332.029C488.264 329.711 486.323 328.623 484.147 329.307ZM486.305 336.157C484.902 336.598 483.547 335.858 482.94 333.932C482.337 332.016 483.024 330.633 484.426 330.192C485.88 329.735 487.318 330.45 487.921 332.366C488.528 334.292 487.759 335.7 486.305 336.157ZM493.946 328.491L490.244 329.654L490.759 331.576C491.369 333.909 491.063 334.594 490.568 334.749L490.465 334.782L490.721 335.596L490.896 335.54C492.186 335.135 492.307 333.829 491.737 331.552L491.398 330.186L493.265 329.6L494.754 334.329L495.691 334.034L493.946 328.491ZM499.995 330.134C500.407 331.442 499.698 332.106 498.822 332.381C498.151 332.593 497.639 332.369 497.474 331.843C497.233 331.081 498.235 330.483 499.884 329.783L499.995 330.134ZM498.849 333.188C499.839 332.877 500.305 332.379 500.464 331.696C500.578 332.022 500.681 332.239 500.776 332.435L501.725 332.137C501.446 331.648 501.207 331.032 500.922 330.091L500.53 328.811C500.047 327.241 499.14 326.734 497.603 327.217C496.531 327.554 495.669 328.561 495.963 329.782L496.932 329.477C496.756 328.774 497.07 328.223 497.853 327.976C498.555 327.756 499.215 327.91 499.536 328.93L499.579 329.065C497.388 330.024 496.026 330.883 496.439 332.191C496.76 333.211 497.807 333.515 498.849 333.188ZM507.112 327.738C506.67 325.941 505.226 324.844 503.525 325.378C502.008 325.855 501.184 327.337 501.738 329.099C502.254 330.737 503.619 331.689 505.372 331.138C506.723 330.714 507.36 329.642 507.309 328.616L506.34 328.921C506.274 329.541 505.937 330.055 505.112 330.314C504.298 330.57 503.25 330.265 502.843 329.08L507.112 327.738ZM503.777 326.182C504.778 325.868 505.591 326.473 505.869 327.245L502.6 328.273C502.332 327.135 502.952 326.441 503.777 326.182ZM507.297 324.295L509.042 329.837L511.621 329.027C512.806 328.654 513.558 327.909 513.194 326.755C512.96 326.013 512.414 325.754 511.785 325.771C512.233 325.393 512.36 324.9 512.176 324.313C511.822 323.189 510.824 323.186 509.71 323.536L507.297 324.295ZM508.969 326.328L508.492 324.813L509.873 324.379C510.575 324.159 511.047 324.146 511.229 324.724C511.427 325.352 511.072 325.667 510.382 325.884L508.969 326.328ZM509.212 327.101L510.676 326.641C511.542 326.368 512.017 326.434 512.211 327.052C512.393 327.629 512.045 327.999 511.22 328.259L509.725 328.728L509.212 327.101ZM517.517 324.626C517.929 325.935 517.22 326.599 516.343 326.874C515.673 327.085 515.161 326.861 514.995 326.335C514.756 325.573 515.757 324.975 517.407 324.276L517.517 324.626ZM516.371 327.681C517.361 327.37 517.828 326.872 517.986 326.188C518.1 326.515 518.203 326.732 518.299 326.928L519.247 326.63C518.968 326.14 518.729 325.525 518.444 324.584L518.052 323.303C517.57 321.734 516.661 321.226 515.125 321.71C514.053 322.047 513.191 323.054 513.485 324.275L514.454 323.97C514.279 323.266 514.592 322.715 515.376 322.469C516.077 322.248 516.737 322.403 517.059 323.423L517.101 323.557C514.91 324.517 513.548 325.376 513.96 326.684C514.282 327.704 515.329 328.008 516.371 327.681Z" fill="white"/>
<path d="M230.63 380.66L231.037 380.965C232.082 381.75 232.541 381.607 233.64 380.864L238.939 377.263L238.118 376.647L234.276 379.37L235.784 374.897L234.911 374.242L233.097 380.147L232.991 380.216C232.239 380.786 231.962 380.633 231.443 380.244L231.123 380.004L230.63 380.66ZM243.058 380.35L239.954 378.023L238.691 379.561C237.149 381.416 236.414 381.567 235.998 381.256L235.912 381.191L235.4 381.873L235.546 381.984C236.627 382.794 237.76 382.131 239.281 380.341L240.193 379.27L241.759 380.443L238.781 384.408L239.567 384.998L243.058 380.35ZM241.79 386.664L242.536 385.671L241.542 384.926L240.796 385.919L241.79 386.664ZM250.841 388.279C251.603 388.417 252.266 388.199 252.753 387.551C253.557 386.48 253.084 385.167 251.951 384.317C250.628 383.326 249.21 383.505 248.137 384.591L249.011 385.245C249.735 384.479 250.659 384.51 251.35 385.028C252.103 385.592 252.295 386.29 251.782 386.972C251.289 387.629 250.528 387.599 249.793 387.047L249.102 386.529L248.563 387.246L249.306 387.803C250.275 388.529 250.439 389.246 249.914 389.946C249.388 390.645 248.56 390.741 247.617 390.034C246.753 389.386 246.498 388.573 246.922 387.703L246.057 387.055C245.423 388.402 245.65 389.72 246.999 390.731C248.235 391.659 249.807 391.959 250.793 390.646C251.461 389.757 251.375 388.99 250.841 388.279ZM254.84 393.41C254.015 394.506 253.062 394.318 252.327 393.767C251.765 393.346 251.649 392.799 251.979 392.359C252.459 391.72 253.53 392.184 255.06 393.116L254.84 393.41ZM251.687 394.259C252.517 394.882 253.194 394.971 253.842 394.701C253.643 394.984 253.526 395.194 253.423 395.385L254.218 395.982C254.454 395.47 254.815 394.917 255.414 394.137L256.227 393.073C257.223 391.767 257.106 390.734 255.817 389.768C254.918 389.094 253.597 388.981 252.776 389.931L253.588 390.541C254.058 389.988 254.689 389.921 255.346 390.414C255.934 390.855 256.194 391.481 255.551 392.336L255.467 392.448C253.409 391.229 251.917 390.625 251.093 391.721C250.451 392.577 250.814 393.605 251.687 394.259ZM258.313 399.052L259.29 399.784L259.196 395.879L262.599 395.001L261.665 394.301L258.76 395.092L258.18 394.658L259.607 392.758L258.812 392.162L255.321 396.809L256.117 397.406L257.668 395.341L258.264 395.788L258.313 399.052ZM263.232 402.739L264.019 403.329L267.51 398.682L266.723 398.092L261.684 399.797L264.319 396.29L263.532 395.701L260.041 400.348L260.828 400.938L265.866 399.232L263.232 402.739ZM267.568 405.991L270.041 407.845C271.295 408.785 272.679 409.012 273.678 407.682C274.255 406.913 274.251 406.181 273.843 405.483C274.472 405.563 275.125 405.215 275.573 404.619C276.507 403.375 275.696 402.295 274.529 401.42L272.273 399.728L267.568 405.991ZM270.618 403.767L272.165 404.927C273.108 405.634 273.315 406.275 272.763 407.01C272.225 407.726 271.507 407.782 270.608 407.109L269.008 405.909L270.618 403.767ZM272.596 401.132L274.11 402.267C274.81 402.791 275.078 403.425 274.591 404.073C274.04 404.807 273.382 404.746 272.656 404.202L271.143 403.068L272.596 401.132ZM277.662 410.52C276.839 411.618 275.885 411.429 275.15 410.879C274.588 410.457 274.471 409.911 274.802 409.47C275.283 408.831 276.353 409.295 277.883 410.227L277.662 410.52ZM274.51 411.371C275.34 411.993 276.017 412.081 276.666 411.812C276.466 412.095 276.35 412.304 276.246 412.497L277.041 413.093C277.277 412.581 277.639 412.028 278.237 411.249L279.051 410.184C280.045 408.877 279.929 407.844 278.641 406.879C277.741 406.205 276.42 406.092 275.599 407.043L276.412 407.651C276.881 407.099 277.512 407.032 278.169 407.525C278.757 407.965 279.016 408.592 278.374 409.447L278.29 409.56C276.232 408.341 274.74 407.735 273.916 408.833C273.274 409.688 273.637 410.716 274.51 411.371ZM285.31 412.027L282.206 409.7L280.943 411.238C279.401 413.093 278.666 413.244 278.251 412.933L278.164 412.868L277.651 413.55L277.799 413.661C278.88 414.471 280.013 413.808 281.533 412.018L282.446 410.947L284.01 412.12L281.032 416.085L281.819 416.675L285.31 412.027ZM286.342 420.066L287.129 420.656L290.619 416.009L289.833 415.419L284.795 417.124L287.429 413.616L286.642 413.026L283.152 417.674L283.938 418.264L288.976 416.559L286.342 420.066ZM293.325 424.233L292.676 423.747L295.654 419.783L292.515 417.429L291.332 418.879C289.927 420.606 289.131 421.09 288.603 420.694L288.396 420.539L287.112 422.249L287.872 422.82L288.645 421.792L292.051 424.346L291.279 425.374L292.04 425.944L293.325 424.233ZM291.889 423.158L289.624 421.459C290.246 421.386 290.951 420.861 292.052 419.54L292.764 418.682L294.355 419.875L291.889 423.158ZM296.795 427.903L297.582 428.493L301.073 423.845L300.286 423.255L295.248 424.96L297.882 421.453L297.095 420.863L293.605 425.511L294.391 426.101L299.43 424.395L296.795 427.903Z" fill="white"/>
<path d="M268.574 244.102L268.712 243.614C269.066 242.355 268.767 241.98 267.676 241.225L262.399 237.591L262.121 238.579L266.052 241.173L261.332 241.387L261.037 242.437L267.204 241.99L267.306 242.064C268.11 242.559 268.067 242.872 267.892 243.496L267.784 243.881L268.574 244.102ZM263.79 232.639L262.742 236.372L264.633 236.992C266.922 237.757 267.329 238.388 267.189 238.887L267.159 238.991L267.981 239.221L268.031 239.045C268.396 237.744 267.368 236.929 265.148 236.16L263.818 235.698L264.347 233.816L269.124 235.156L269.39 234.209L263.79 232.639ZM270.141 231.536L268.944 231.2L268.608 232.396L269.805 232.732L270.141 231.536ZM272.253 220.502L271.999 221.407L265.369 219.548L265.071 220.608L271.701 222.468L270.687 226.076L264.058 224.216L263.76 225.277L271.305 227.393L272.894 221.737L274.466 222.178L274.741 221.2L272.253 220.502ZM269.08 213.457C268.758 214.601 269.156 215.98 270.797 216.654L270.479 217.787L268.147 217.133L267.882 218.08L273.481 219.65L273.747 218.704L271.301 218.018L271.613 216.905C273.442 217.272 274.581 216.257 274.908 215.092C275.273 213.792 274.777 212.161 272.748 211.592C270.718 211.023 269.445 212.158 269.08 213.457ZM274.075 214.859C273.856 215.638 273.06 216.234 271.561 215.814C270.031 215.384 269.693 214.471 269.912 213.691C270.155 212.828 270.965 212.18 272.464 212.601C273.9 213.004 274.318 213.995 274.075 214.859ZM270.261 209.611L277.682 211.692L277.948 210.746L275.283 209.999C275.973 209.822 276.522 209.348 276.776 208.443C277.139 207.153 276.397 205.757 274.534 205.234C272.703 204.721 271.31 205.519 270.948 206.809C270.694 207.713 270.915 208.404 271.412 208.913L270.527 208.665L270.261 209.611ZM273.336 209.497C271.858 209.083 271.456 208.117 271.692 207.275C271.964 206.308 272.902 205.887 274.245 206.264C275.587 206.64 276.169 207.488 275.897 208.455C275.66 209.297 274.814 209.912 273.336 209.497ZM279.341 205.79L279.478 205.301C279.832 204.044 279.532 203.668 278.443 202.913L273.165 199.28L272.887 200.267L276.818 202.862L272.098 203.074L271.803 204.125L277.969 203.678L278.072 203.752C278.876 204.247 278.833 204.56 278.657 205.184L278.549 205.569L279.341 205.79ZM274.698 193.825L273.403 198.431L279.002 200.002L279.268 199.055L274.491 197.716L275.254 195.001L280.031 196.341L280.297 195.395L274.698 193.825ZM281.313 191.78C281.672 190.501 281.434 189.548 280.05 189.16C278.853 188.825 278.103 189.298 277.693 190.754L277.39 191.835L275.412 191.281L275.146 192.227L280.746 193.797L281.313 191.78ZM278.212 192.066L278.48 191.109C278.726 190.236 279.041 189.875 279.791 190.085C280.55 190.299 280.701 190.801 280.467 191.633L280.189 192.621L278.212 192.066ZM282.429 187.808L276.829 186.237L276.564 187.184L282.163 188.754L282.429 187.808Z" fill="white"/>
<path d="M721.152 408.429L821.224 291.263L827.304 296.663L723.708 413.213C723.708 413.213 720.977 410.548 720.915 410.422C720.852 410.295 721.273 408.438 721.273 408.438L721.152 408.429Z" fill="#717271"/>
<path d="M754.232 684.969C754.205 684.684 751.578 655.895 757.579 612.526C761.329 585.421 769.452 555.487 775.607 535.148C779.152 523.431 779.215 511.026 775.789 499.273L767.832 471.981C764.674 461.151 758.653 451.348 750.417 443.628L719.599 414.748L722.219 411.957L753.037 440.837C761.773 449.024 768.161 459.423 771.51 470.91L779.467 498.202C783.102 510.669 783.035 523.828 779.274 536.256C773.16 556.464 765.091 586.191 761.374 613.051C755.434 655.983 758.019 684.326 758.047 684.607L754.232 684.969Z" fill="#717271"/>
</g>
</svg>
