<svg width="76" height="65" viewBox="0 0 76 65" fill="none" xmlns="http://www.w3.org/2000/svg">
<path d="M73.2536 47.2436C62.4101 65.8048 25 64.9948 25 64.9948C25 64.9948 27.1687 53.7947 35.3013 40.6926C43.9761 26.7171 49.9407 21.0394 61.3257 22.1313C73.7957 23.3272 79.951 35.7793 73.2536 47.2436Z" fill="url(#paint0_linear)"/>
<path d="M49 24.8279C49 45.8758 24.5 65 24.5 65C24.5 65 0 45.7639 0 24.8279C0 11.1167 10.9086 0 24.5 0C38.0914 0 49 11.1167 49 24.8279Z" fill="url(#paint1_linear)"/>
<mask id="mask0" mask-type="alpha" maskUnits="userSpaceOnUse" x="0" y="0" width="49" height="65">
<path d="M48.5 24.8279C48.5 35.1723 42.4697 45.1005 36.3646 52.4884C33.3198 56.1729 30.2739 59.2049 27.9888 61.3157C26.8467 62.3708 25.8954 63.195 25.2307 63.7547C24.9227 64.014 24.6762 64.2165 24.5009 64.3588C24.3254 64.2157 24.0787 64.0119 23.7702 63.7509C23.1054 63.1883 22.1542 62.3602 21.0119 61.3007C18.7268 59.181 15.6806 56.1385 12.6357 52.4468C6.53 45.0442 0.5 35.1161 0.5 24.8279C0.5 11.3857 11.1918 0.5 24.5 0.5C37.8082 0.5 48.5 11.3857 48.5 24.8279Z" fill="white" stroke="#B4B4B4"/>
</mask>
<g mask="url(#mask0)">
<path d="M33.0173 40L30.9656 34.9193H17.9894L15.936 40H11L23.7131 9H25.2852L38 40H33.0173ZM29.3053 30.7139L24.4992 18.1012L19.6497 30.7139H29.3053Z" fill="white"/>
</g>
<defs>
<linearGradient id="paint0_linear" x1="70.5427" y1="26.4988" x2="24.7412" y2="64.6845" gradientUnits="userSpaceOnUse">
<stop stop-opacity="0"/>
<stop offset="1" stop-opacity="0.3"/>
</linearGradient>
<linearGradient id="paint1_linear" x1="-0.356355" y1="2.2361" x2="54.6612" y2="7.70062" gradientUnits="userSpaceOnUse">
<stop stop-color="#FF8200"/>
<stop offset="1" stop-color="#FE0999"/>
</linearGradient>
</defs>
</svg>
