<svg width="409" height="145" viewBox="0 0 409 145" fill="none" xmlns="http://www.w3.org/2000/svg">
<path d="M404.342 11.6284C400.458 9.15392 395.394 10.7863 392.294 15.043C387.512 21.611 378.568 33.2793 359.712 33.2793C348.457 33.2793 341.007 27.6265 341.007 21.7557C341.007 18.391 344.07 16.1313 347.934 16.1313C355.435 16.1313 363.492 23.6112 366.364 29.0942C368.871 29.2556 373.026 28.4901 375.699 26.8444C378.205 25.3002 380.908 20.5843 378.029 16.6388C375.15 12.6933 363.251 0.00998428 347.323 0.00998428C335.827 0.00998428 323.771 7.65295 323.771 21.6559C323.771 35.6589 337.191 49.3972 359.863 49.3972C365.736 49.3972 371.333 48.1958 371.56 48.1492C371.56 61.1221 359.963 77.0553 341.681 77.0553C323.399 77.0553 311.87 61.1204 311.87 47.6383C311.87 36.2745 316.709 29.6683 316.709 29.6683C318.905 25.9658 317.927 21.1334 314.359 18.599C310.602 15.9332 305.401 16.8218 302.738 20.5843C298.243 26.9392 294.63 36.2213 294.63 46.9844C294.63 71.0797 314.741 93.1833 341.683 93.1833C368.625 93.1833 388.839 71.0797 388.839 46.2738C388.839 44.6214 388.716 42.9723 388.527 41.3332C395.139 37.1299 401.707 31.3273 406.601 23.6161C409.259 19.4311 408.226 14.1028 404.342 11.6284ZM65.6692 14.5887C60.5941 2.09337 53.0786 0.00832023 46.6247 0.00832023C40.1707 0.00832023 32.6552 2.09337 27.5801 14.5887C24.3058 22.6527 0.65121 80.9059 0.65121 80.9059C0.209318 82.0042 0 83.1374 0 84.2523C0 89.0315 3.9355 93.1816 8.8146 93.1816C12.3697 93.1816 15.7536 91.1049 17.1674 87.6004C17.1724 87.5838 42.9649 21.8057 43.9966 19.1748C44.8122 17.0964 45.6695 16.7403 46.623 16.7403C47.5766 16.7403 48.4338 17.0947 49.2511 19.1748C50.2844 21.8057 76.0753 87.5838 76.0803 87.6004C77.494 91.1049 80.878 93.1816 84.4331 93.1816C89.3122 93.1816 93.2477 89.0298 93.2477 84.2523C93.2477 83.1374 93.0384 82.0042 92.5965 80.9076C92.5981 80.9076 68.9436 22.6543 65.6692 14.5887ZM190.012 61.5148C186.431 59.1602 182.676 59.9955 179.271 63.7496C175.865 67.5037 167.715 76.4879 151.405 76.4879C134.681 76.4879 126.637 66.8065 123.778 61.573C127.129 62.2337 133.279 62.9392 140.575 62.9392C168.042 62.9392 186.577 47.3521 186.577 26.7828C186.577 9.7147 171.772 0 152.441 0C123.419 0 103.268 22.8074 103.268 48.9113C103.268 74.293 123.821 93.1816 151.935 93.1816C176.342 93.1816 189.974 76.22 192.245 72.2762C194.514 68.3291 193.596 63.8678 190.012 61.5148ZM151.671 16.1512C162.427 16.1512 169.321 20.3163 169.321 26.9692C169.321 39.6992 151.141 47.3821 135.48 47.3821C127.561 47.3821 124.413 46.8446 120.55 45.5466C120.745 30.1991 134.428 16.1512 151.671 16.1512ZM281.801 1.51761H206.882C202.438 1.51761 198.837 5.12526 198.837 9.57659C198.837 14.0279 202.438 17.6356 206.882 17.6356H235.722V84.5485C235.722 89.3177 239.581 93.1833 244.342 93.1833C249.103 93.1833 252.962 89.3177 252.962 84.5485V17.6356H281.801C286.245 17.6356 289.847 14.0279 289.847 9.57659C289.847 5.12526 286.245 1.51761 281.801 1.51761Z" fill="url(#paint0_linear)"/>
<path d="M56.0016 120.116C55.6116 119.696 55.2816 119.546 54.7716 119.546C53.9916 119.546 53.3616 120.176 53.3616 121.016C53.3616 121.376 53.4816 121.736 53.7816 122.066L60.4716 129.116L52.9416 137.576C52.7016 137.846 52.6116 138.146 52.6116 138.506C52.6116 139.316 53.2716 140.006 54.0816 140.006C54.5916 140.006 55.0116 139.766 55.5216 139.226L63.4116 130.286C63.7716 129.896 63.9216 129.566 63.9216 129.116C63.9216 128.726 63.7716 128.366 63.3816 127.946L56.0016 120.116ZM66.2616 119.546C65.3616 119.546 64.6716 120.236 64.6716 121.166V138.386C64.6716 139.316 65.3616 140.006 66.2616 140.006C67.1616 140.006 67.8516 139.316 67.8516 138.386V121.166C67.8516 120.236 67.1916 119.546 66.2616 119.546ZM79.5816 137.576L72.0516 129.146L78.7416 122.066C79.0416 121.736 79.1916 121.376 79.1916 121.016C79.1916 120.176 78.5316 119.546 77.7516 119.546C77.2416 119.546 76.9116 119.696 76.5216 120.116L69.1116 127.946C68.7516 128.336 68.5716 128.726 68.5716 129.116C68.5716 129.506 68.7516 129.896 69.0816 130.286L77.0316 139.226C77.5116 139.766 77.9316 140.006 78.4416 140.006C79.2516 140.006 79.9116 139.316 79.9116 138.506C79.9116 138.146 79.8216 137.846 79.5816 137.576ZM98.6394 119.546C97.9494 119.546 97.5894 119.846 97.2294 120.356L86.7594 134.066V121.166C86.7594 120.236 86.0994 119.546 85.1694 119.546C84.2694 119.546 83.5794 120.236 83.5794 121.166V138.446C83.5794 139.316 84.2994 140.006 85.1694 140.006C85.7094 140.006 86.0994 139.826 86.4594 139.346L97.0194 125.576V138.386C97.0194 139.316 97.7094 140.006 98.6094 140.006C99.5394 140.006 100.199 139.316 100.199 138.386V121.106C100.199 120.236 99.5094 119.546 98.6394 119.546ZM118.191 119.876H109.341C108.411 119.876 107.691 120.566 107.691 121.526V123.116C107.691 131.636 106.311 136.046 103.341 137.066C102.681 137.306 102.261 137.816 102.261 138.506C102.261 139.316 102.891 139.916 103.701 139.916C104.151 139.916 104.541 139.796 105.051 139.526C108.831 138.026 110.751 132.476 110.811 122.726H116.631V138.386C116.631 139.316 117.321 140.006 118.221 140.006C119.151 140.006 119.811 139.316 119.811 138.386V121.526C119.811 120.566 119.121 119.876 118.191 119.876ZM133.98 119.546C128.16 119.546 123.6 124.046 123.6 129.776C123.6 135.506 128.16 140.006 133.98 140.006C139.8 140.006 144.39 135.506 144.39 129.776C144.39 124.076 139.8 119.546 133.98 119.546ZM134.01 122.456C138.09 122.456 141.12 125.576 141.12 129.746C141.12 133.976 138.09 137.096 134.01 137.096C129.9 137.096 126.9 134.006 126.9 129.746C126.9 125.546 129.9 122.456 134.01 122.456ZM156.248 117.806C158.768 117.806 161.018 115.916 161.018 113.816C161.018 113.096 160.508 112.526 159.758 112.526C159.188 112.526 158.798 112.886 158.558 113.576C158.228 114.716 157.388 115.406 156.248 115.406C155.168 115.406 154.328 114.746 153.968 113.576C153.698 112.856 153.308 112.526 152.738 112.526C152.018 112.526 151.478 113.096 151.478 113.816C151.478 115.946 153.758 117.806 156.248 117.806ZM163.268 119.546C162.578 119.546 162.218 119.846 161.858 120.356L151.388 134.066V121.166C151.388 120.236 150.728 119.546 149.798 119.546C148.898 119.546 148.208 120.236 148.208 121.166V138.446C148.208 139.316 148.928 140.006 149.798 140.006C150.338 140.006 150.728 139.826 151.088 139.346L161.648 125.576V138.386C161.648 139.316 162.338 140.006 163.238 140.006C164.168 140.006 164.828 139.316 164.828 138.386V121.106C164.828 120.236 164.138 119.546 163.268 119.546ZM179.798 119.546C178.868 119.546 178.208 120.236 178.208 121.166V138.386C178.208 139.316 178.898 140.006 179.798 140.006C180.698 140.006 181.388 139.316 181.388 138.386V121.166C181.388 120.236 180.698 119.546 179.798 119.546ZM193.328 137.486L185.618 129.116L192.548 122.156C192.938 121.736 193.088 121.406 193.088 120.986C193.088 120.176 192.458 119.546 191.648 119.546C191.198 119.546 190.868 119.726 190.478 120.116L182.588 128.066C182.288 128.396 182.108 128.756 182.108 129.116C182.108 129.506 182.288 129.866 182.588 130.196L191.078 139.376C191.468 139.796 191.888 140.006 192.368 140.006C193.148 140.006 193.838 139.346 193.838 138.536C193.838 138.146 193.688 137.846 193.328 137.486ZM205.23 119.546C199.41 119.546 194.85 124.046 194.85 129.776C194.85 135.506 199.41 140.006 205.23 140.006C211.05 140.006 215.64 135.506 215.64 129.776C215.64 124.076 211.05 119.546 205.23 119.546ZM205.26 122.456C209.34 122.456 212.37 125.576 212.37 129.746C212.37 133.976 209.34 137.096 205.26 137.096C201.15 137.096 198.15 134.006 198.15 129.746C198.15 125.546 201.15 122.456 205.26 122.456ZM236.708 119.546C236.018 119.546 235.568 119.846 234.968 120.836L228.848 130.436L222.728 120.836C222.128 119.846 221.678 119.546 220.988 119.546C220.118 119.546 219.458 120.236 219.458 121.166V138.386C219.458 139.316 220.148 140.006 221.048 140.006C221.948 140.006 222.638 139.316 222.638 138.386V126.326L227.258 133.586C227.708 134.336 228.188 134.636 228.848 134.636C229.508 134.636 229.958 134.336 230.438 133.586L235.058 126.326V138.386C235.058 139.316 235.748 140.006 236.648 140.006C237.548 140.006 238.238 139.316 238.238 138.386V121.166C238.238 120.236 237.578 119.546 236.708 119.546ZM244.808 140.006C245.708 140.006 246.398 139.316 246.398 138.386V122.726H255.638V138.386C255.638 139.316 256.298 140.006 257.228 140.006C258.128 140.006 258.818 139.316 258.818 138.386V121.526C258.818 120.566 258.098 119.876 257.168 119.876H244.868C243.908 119.876 243.218 120.566 243.218 121.526V138.386C243.218 139.316 243.908 140.006 244.808 140.006ZM276.804 119.876H267.954C267.024 119.876 266.304 120.566 266.304 121.526V123.116C266.304 131.636 264.924 136.046 261.954 137.066C261.294 137.306 260.874 137.816 260.874 138.506C260.874 139.316 261.504 139.916 262.314 139.916C262.764 139.916 263.154 139.796 263.664 139.526C267.444 138.026 269.364 132.476 269.424 122.726H275.244V138.386C275.244 139.316 275.934 140.006 276.834 140.006C277.764 140.006 278.424 139.316 278.424 138.386V121.526C278.424 120.566 277.734 119.876 276.804 119.876ZM284.943 139.676H295.473C296.313 139.676 296.943 139.046 296.943 138.236C296.943 137.426 296.313 136.826 295.473 136.826H286.593V130.556H292.743C293.553 130.556 294.153 129.956 294.153 129.176C294.153 128.396 293.553 127.796 292.743 127.796H286.593V122.726H295.113C295.953 122.726 296.583 122.126 296.583 121.316C296.583 120.506 295.953 119.876 295.113 119.876H284.943C284.073 119.876 283.413 120.536 283.413 121.406V138.146C283.413 139.016 284.073 139.676 284.943 139.676ZM302.083 119.546C301.153 119.546 300.493 120.236 300.493 121.166V138.386C300.493 139.316 301.183 140.006 302.083 140.006C302.983 140.006 303.673 139.316 303.673 138.386V121.166C303.673 120.236 302.983 119.546 302.083 119.546ZM315.613 137.486L307.903 129.116L314.833 122.156C315.223 121.736 315.373 121.406 315.373 120.986C315.373 120.176 314.743 119.546 313.933 119.546C313.483 119.546 313.153 119.726 312.763 120.116L304.873 128.066C304.573 128.396 304.393 128.756 304.393 129.116C304.393 129.506 304.573 129.866 304.873 130.196L313.363 139.376C313.753 139.796 314.173 140.006 314.653 140.006C315.433 140.006 316.123 139.346 316.123 138.536C316.123 138.146 315.973 137.846 315.613 137.486ZM327.545 140.006C330.635 140.006 333.485 138.716 335.225 136.556C335.615 136.046 335.765 135.686 335.765 135.296C335.765 134.516 335.105 133.856 334.295 133.856C333.785 133.856 333.365 134.066 333.005 134.486C331.565 136.196 329.735 137.096 327.575 137.096C323.465 137.096 320.435 133.976 320.435 129.776C320.435 125.576 323.465 122.456 327.575 122.456C329.765 122.456 331.595 123.326 333.035 125.066C333.395 125.486 333.815 125.696 334.295 125.696C335.105 125.696 335.765 125.036 335.765 124.256C335.765 123.836 335.615 123.476 335.255 122.996C333.455 120.836 330.605 119.546 327.545 119.546C321.695 119.546 317.135 124.016 317.135 129.776C317.135 135.536 321.695 140.006 327.545 140.006Z" fill="white"/>
<defs>
<linearGradient id="paint0_linear" x1="-11.0836" y1="93.1832" x2="408.078" y2="93.1832" gradientUnits="userSpaceOnUse">
<stop stop-color="#FEFB45"/>
<stop offset="0.510417" stop-color="#49EBA0"/>
<stop offset="1" stop-color="#19D2FA"/>
</linearGradient>
</defs>
</svg>
