<svg width="93" height="80" fill="none" xmlns="http://www.w3.org/2000/svg"><path d="M89.1 57.526C75.8 80.133 29.92 79.146 29.92 79.146s2.66-13.64 12.634-29.599C53.194 32.525 60.508 25.61 74.47 26.94c15.293 1.456 22.842 16.623 14.628 30.586z" fill="url(#paint0_linear)"/><path d="M59.843 30.232c0 25.628-29.922 48.915-29.922 48.915S0 55.724 0 30.23C0 13.536 13.322 0 29.921 0c16.6 0 29.922 13.536 29.922 30.232z" fill="#00A9A4"/><path d="M35.057 40.644H24.943L23.436 44H17v-.992L28.584 17h2.832L43 43.008V44h-6.436l-1.507-3.356zm-5.075-12.852l-2.906 7.017h5.884l-2.978-7.017z" fill="#fff"/><defs><linearGradient id="paint0_linear" x1="85.775" y1="32.259" x2="29.921" y2="79.147" gradientUnits="userSpaceOnUse"><stop stop-opacity="0"/><stop offset="1" stop-opacity=".3"/></linearGradient></defs></svg>