<svg width="156" height="55" fill="none" xmlns="http://www.w3.org/2000/svg"><path d="M92.186 27.819h-3.784v-8.887h-3.67v20.64h3.67V29.94h3.784v9.632h3.67v-20.64h-3.67v8.887zm10.665 7.568h-.344s.229-4.186.344-6.078V18.932h-3.67v20.64h4.874l3.096-16.455h.344s-.23 4.186-.344 6.078v10.377h3.669v-20.64h-4.873l-3.096 16.455zm-25.744-7.339l-.23 2.408h-.286l-2.293-11.524H69.94l4.931 16.34-1.49 4.3h3.784l6.364-20.64H79.17l-2.064 9.116zm74.019-9.116l-2.522 13.244h-.402l-2.522-13.244h-4.874v20.64h3.669V29.195c-.172-1.835-.344-6.078-.344-6.078h.344l3.097 16.455h1.662l3.096-16.455h.344s-.229 4.186-.344 6.078v10.377H156v-20.64h-4.874zm-25.571 0h-3.612l-3.784 9.173h-.344v-9.173h-3.67v20.64h3.67v-9.861h.344l4.013 9.861h3.784l-4.644-11.008 4.243-9.632zm7.626 9.116l-.23 2.408h-.286l-2.294-11.524h-4.357l4.931 16.34-1.491 4.3h3.784l6.364-20.64h-4.357l-2.064 9.116z" fill="#fff"/><path d="M48.232 38.078H0v15.23h48.232v-15.23zm15.232-15.232H48.232v15.232h15.232V22.846z" fill="#FFD040"/><path d="M48.232 0v38.078H0v-15.23L48.232 0zm7.616 38.078h-7.616v15.23h7.616v-15.23z" fill="#FFB600"/><path d="M63.464 17.77v5.077H48.232V0l7.616 12.693 7.616 5.077zm0 20.308H55.85v15.23h7.615v-15.23z" fill="#CC9F53"/><path d="M72.865 53.332v-1.834h-2.121v1.834h-.688V49.09h.745v1.777h2.064V49.09h.745v4.242h-.745zm1.663-1.147c0-1.032 1.146-1.318 2.867-1.49v-.115c0-.802-.402-1.032-.975-1.032-.63 0-.918.344-.975.86H74.7c.057-.917.86-1.433 1.72-1.433 1.204 0 1.72.573 1.72 1.777v.975c0 .745 0 1.204.115 1.605h-.746c0-.172-.057-.344-.057-.573-.287.459-.688.688-1.433.688-.86 0-1.491-.459-1.491-1.262zm2.924-.917c-1.319.115-2.121.344-2.121.917 0 .402.286.688.802.688.688 0 1.319-.286 1.319-1.318v-.287zm5.217-.573h-.63v2.637h-.803V47.6h.802v2.408h.574l1.95-2.408h.974L83.3 50.294l2.293 3.038h-.974l-1.95-2.637zm7.281.516c0 1.548-1.032 2.236-2.064 2.236s-2.064-.688-2.064-2.236c0-1.548 1.032-2.236 2.064-2.236s2.064.688 2.064 2.236zm-2.006 1.605c.63 0 1.261-.516 1.261-1.605 0-1.147-.63-1.605-1.261-1.605-.631 0-1.262.4-1.262 1.605 0 1.147.574 1.605 1.262 1.605zm7.626.516h-.688v-3.44l-1.376 3.44h-.573l-1.376-3.382v3.382h-.688V49.09H91.9l1.318 3.268 1.262-3.268h1.032v4.242h.057zm5.847 0h-.688v-3.44l-1.376 3.44h-.516l-1.376-3.382v3.382h-.688V49.09h1.032l1.319 3.268 1.261-3.268h1.032v4.242zm.976.803h.286c.459 0 .688-.057.918-.688l.057-.115-1.548-4.242h.803l1.089 3.268 1.032-3.268h.745l-1.548 4.472c-.344.917-.516 1.204-1.49 1.204h-.344v-.631zm6.822-.803v-1.834h-2.121v1.834h-.745V49.09h.745v1.777h2.121V49.09h.746v4.242h-.746zm4.874-3.21l-2.179 3.21h-.745V49.09h.745v3.21l2.179-3.21h.745v4.242h-.745v-3.21zm5.447.344h-.746c-.114-.516-.516-.86-1.089-.86-.631 0-1.204.516-1.204 1.548 0 1.09.573 1.605 1.204 1.605s1.032-.401 1.147-.86h.745a1.924 1.924 0 0 1-1.892 1.49c-1.204 0-2.007-.917-2.007-2.235 0-1.262.803-2.236 2.064-2.236 1.032.057 1.72.86 1.778 1.548zm2.465-.746v3.612h-.745V49.72h-1.434v-.63h3.612v.63h-1.433zm5.102.402l-2.178 3.21h-.746V49.09h.746v3.21l2.178-3.21h.746v4.242h-.746v-3.21zm4.359 3.21v-1.72c-.516.115-.86.172-1.262.172-.917 0-1.376-.401-1.376-1.318V49.09h.746v1.26c0 .632.286.86.917.86.287 0 .631-.056 1.032-.114v-1.95h.745v4.244h-.802v-.058zm2.406-1.892c0 .918.688 1.376 1.319 1.376s.975-.287 1.147-.688h.745c-.172.745-.86 1.319-1.892 1.319-1.376 0-2.064-.975-2.064-2.236 0-1.376.917-2.236 2.064-2.236 1.319 0 2.064 1.09 2.007 2.465h-3.326zm0-.63h2.523c0-.574-.459-1.205-1.204-1.205-.688 0-1.261.345-1.319 1.205zm7.684-.344h-.745c-.115-.516-.516-.86-1.089-.86-.631 0-1.204.516-1.204 1.548 0 1.09.573 1.605 1.204 1.605.63 0 1.032-.401 1.146-.86h.746a1.925 1.925 0 0 1-1.892 1.49c-1.204 0-2.007-.917-2.007-2.235 0-1.262.803-2.236 2.064-2.236 1.089.057 1.72.86 1.777 1.548zm2.179.974h-.573v1.892h-.745V49.09h.745v1.72h.516l1.376-1.72h.86l-1.605 2.006 1.777 2.236h-.917l-1.434-1.892zm6.708-.23c0 1.549-1.032 2.237-2.064 2.237-.975 0-2.064-.688-2.064-2.236 0-1.548 1.032-2.236 2.064-2.236.975 0 2.064.688 2.064 2.236zm-2.064 1.606c.631 0 1.261-.516 1.261-1.605 0-1.147-.63-1.605-1.261-1.605-.631 0-1.261.4-1.261 1.605 0 1.147.573 1.605 1.261 1.605zm5.847-2.694l-2.178 3.21h-.746V49.09h.746v3.21l2.178-3.21h.746v4.242h-.746v-3.21zm.23-2.523c-.058.459-.344.975-1.262.975-.86 0-1.204-.46-1.261-.975h.573c.058.23.23.459.688.459.459 0 .688-.23.688-.46h.574z" fill="#fff"/></svg>