<svg fill="none" height="58" width="198" xmlns="http://www.w3.org/2000/svg"><g fill="#f2a890"><path d="m25.98 7.833v3.003h-1.164v-1.914h-7.205l-.012 1.914h-1.163l.012-3.003h.425c.55-.033.938-.47 1.163-1.307.225-.838.363-2.02.413-3.547l.087-2.815h6.155v7.67h1.288zm-6.724-1.676c-.154.809-.402 1.367-.745 1.676h4.942v-6.58h-3.84l-.063 1.84c-.042 1.234-.14 2.255-.294 3.064zm10.614 2.282a4.297 4.297 0 0 1 -1.67-1.607 4.415 4.415 0 0 1 -.606-2.29c0-.842.202-1.605.607-2.288.405-.684.96-1.22 1.67-1.608.708-.388 1.505-.582 2.389-.582.876 0 1.668.194 2.377.582a4.272 4.272 0 0 1 1.663 1.601c.4.68.6 1.445.6 2.296 0 .85-.2 1.616-.6 2.295-.4.68-.956 1.213-1.664 1.601-.71.389-1.501.582-2.377.582-.884 0-1.681-.193-2.39-.582zm4.122-.968a3.224 3.224 0 0 0 1.214-1.207 3.384 3.384 0 0 0 .444-1.72c0-.634-.148-1.208-.444-1.721a3.207 3.207 0 0 0 -1.214-1.206 3.433 3.433 0 0 0 -1.732-.44 3.51 3.51 0 0 0 -1.745.439c-.521.292-.93.694-1.226 1.206a3.379 3.379 0 0 0 -.444 1.72c0 .635.148 1.208.444 1.721.296.512.705.915 1.226 1.207a3.509 3.509 0 0 0 1.745.438c.642 0 1.22-.145 1.732-.437zm13.678 1.449-.012-6.38-3.165 5.317h-.576l-3.165-5.279v6.343h-1.201v-8.757h1.026l3.652 6.155 3.603-6.155h1.026l.012 8.757h-1.2zm16.076-8.755v8.757h-1.251v-3.903h-5.03v3.903h-1.25v-8.758h1.25v3.766h5.03v-3.766h1.25zm9.044 6.568h-4.654l-.963 2.19h-1.288l3.965-8.758h1.239l3.978 8.757h-1.313l-.964-2.19zm-.438-1-1.889-4.29-1.888 4.29zm-38.87 32.577c-.705-.39-1.204-.994-1.495-1.815-.291-.82-.437-1.92-.437-3.296v-10.194l-6.62 14.696h-.53l-6.884-14.96v14.959h-1.059v-17.476h2.516l6.355 13.77 6.223-13.77h2.383v12.976c0 1.641.207 2.913.622 3.814.415.9 1.046 1.35 1.893 1.35v.53c-1.271 0-2.26-.195-2.966-.582zm17.292-1.18c-.83-.467-1.492-1.38-1.986-2.74l-.662-1.721h-7.416l-2.118 5.03h-1.192l7.415-17.476h.794l5.826 14.166c.44 1.025.856 1.726 1.244 2.105.388.38.944.605 1.669.676v.53a3.946 3.946 0 0 1 -1.06.132c-.847 0-1.685-.233-2.515-.701zm-9.665-5.52h6.488l-3.178-7.68zm26.373 5.68c-.9-.45-1.933-1.285-3.098-2.503l-5.561-5.825v8.738h-2.383v-14.3c0-.899-.123-1.566-.37-1.998-.248-.432-.742-.648-1.484-.648h-.53v-.53h2.384c.653 0 1.143.083 1.47.25.326.169.56.473.701.915.14.441.212 1.112.212 2.012v5.163l5.56-5.56.53-.556c.494-.511.91-.913 1.245-1.205a4.42 4.42 0 0 1 1.192-.729c.458-.193.97-.29 1.535-.29h1.324v.661c-.741 0-1.386.129-1.933.384-.547.256-1.183.746-1.906 1.47l-5.164 5.163 6.09 6.355a15.37 15.37 0 0 0 2.357 2c.795.538 1.51.851 2.145.94v.502a5.397 5.397 0 0 1 -1.721.266c-.83 0-1.695-.225-2.595-.675z"/><path d="m74.857 37.039c-1.245-.795-2.202-1.875-2.873-3.244-.671-1.368-1.006-2.89-1.006-4.568 0-1.73.365-3.326 1.099-4.792.732-1.466 1.729-2.622 2.992-3.47 1.262-.847 2.634-1.27 4.117-1.27 1.412 0 2.652.198 3.72.595s1.858.905 2.37 1.523c.301.37.486.86.557 1.47.07.608.106 1.442.106 2.501h-.53c-.335-1.712-.953-2.978-1.854-3.799-.9-.821-2.091-1.231-3.574-1.231-1.907 0-3.443.671-4.608 2.012-1.165 1.342-1.748 3.496-1.748 6.46 0 1.395.226 2.693.676 3.893.45 1.202 1.152 2.176 2.105 2.926s2.145 1.125 3.575 1.125c1.288 0 2.413-.309 3.376-.927.962-.618 1.822-1.544 2.582-2.78l.53.397c-.813 1.589-1.815 2.715-3.006 3.377-1.192.661-2.617.992-4.277.992-1.642 0-3.085-.396-4.33-1.19zm15.37-13.637c0-.9-.122-1.567-.37-2-.247-.43-.741-.648-1.483-.648h-.53v-.53h2.384c.653 0 1.143.084 1.47.252.326.168.56.472.701.914.141.441.212 1.112.212 2.012v11.916l8.474-15.093h2.383v17.475h-2.383v-15.093l-8.474 15.093h-2.383v-14.298zm34.82 14.909c-.706-.39-1.204-.994-1.496-1.815-.291-.82-.437-1.92-.437-3.296v-10.195l-6.62 14.696h-.529l-6.884-14.96v14.959h-1.06v-17.476h2.516l6.355 13.77 6.223-13.77h2.383v12.976c0 1.641.207 2.913.622 3.814.416.9 1.046 1.35 1.894 1.35v.53c-1.272 0-2.26-.195-2.967-.582zm8.196-1.298c-1.246-.812-2.203-1.924-2.873-3.337-.672-1.412-1.007-2.983-1.007-4.713s.335-3.3 1.007-4.714c.67-1.412 1.627-2.524 2.873-3.336 1.243-.812 2.687-1.218 4.329-1.218 1.641 0 3.084.406 4.329 1.218 1.244.812 2.202 1.924 2.873 3.336.67 1.413 1.006 2.983 1.006 4.714 0 1.73-.336 3.3-1.006 4.713-.671 1.413-1.629 2.525-2.873 3.337-1.245.811-2.687 1.217-4.329 1.217s-3.086-.406-4.329-1.217zm7.307-.848c.838-.67 1.478-1.62 1.92-2.847.441-1.226.661-2.679.661-4.355 0-1.677-.22-3.13-.661-4.356-.442-1.227-1.082-2.176-1.92-2.847-.839-.67-1.831-1.005-2.978-1.005-1.148 0-2.141.334-2.979 1.005s-1.479 1.62-1.92 2.847c-.442 1.227-.662 2.68-.662 4.356s.22 3.129.662 4.355c.441 1.228 1.082 2.176 1.92 2.847s1.831 1.006 2.979 1.006c1.147 0 2.139-.335 2.978-1.006zm9.07-12.763c0-.9-.124-1.567-.37-2-.247-.43-.741-.648-1.483-.648h-.53v-.53h6.885c1.924 0 3.596.318 5.017.953 1.421.636 2.133 1.863 2.133 3.68 0 .83-.283 1.581-.848 2.251s-1.43 1.201-2.595 1.588c1.624.266 2.758.747 3.402 1.444.645.697.967 1.628.967 2.793 0 1.784-.701 3.024-2.105 3.721s-3.129 1.046-5.177 1.046h-5.296zm4.899 4.899a5.19 5.19 0 0 0 2.052-.41 3.798 3.798 0 0 0 1.576-1.219c.406-.538.608-1.187.608-1.946 0-.795-.238-1.46-.714-2a4.25 4.25 0 0 0 -1.814-1.19 6.747 6.747 0 0 0 -2.238-.385c-.618 0-1.279.088-1.986.265v6.884h2.516zm3.721 7.52c.874-.636 1.31-1.553 1.31-2.754 0-1.2-.428-2.118-1.285-2.754-.856-.635-2.105-.953-3.746-.953h-2.515v7.043c.847.248 1.685.37 2.515.37 1.606 0 2.847-.317 3.721-.952zm18.838 1.31c-.829-.467-1.492-1.38-1.986-2.74l-.661-1.721h-7.415l-2.118 5.03h-1.192l7.415-17.476h.795l5.825 14.166c.441 1.025.857 1.726 1.244 2.105.387.38.944.605 1.669.676v.53a3.953 3.953 0 0 1 -1.06.132c-.847 0-1.685-.233-2.516-.701zm-9.664-5.52h6.488l-3.178-7.68z"/><path d="m197.345 57.63h-197.345v-57.038h1.185v55.85h194.975v-55.256h-107.645v-1.186h108.83z"/></g></svg>