<svg width="190" height="40" fill="none" xmlns="http://www.w3.org/2000/svg">
    <path d="M13.78 16.897H6.247L5.12 19.3H.349v-.72L8.955 0h2.117l8.633 18.58v.72h-4.799l-1.126-2.403zM10 7.741L7.83 12.76h4.37L10 7.74zM23.593 19.06V0h4.986v7.207h.349c4.906 0 4.638-3.657 4.638-7.207h5.04c0 3.897.107 7.474-3.7 9.903l5.202 8.382v.774h-5.443l-4.209-7.367c-.643.107-1.26.107-1.877.107v7.26h-4.986zM56.944 9.156c1.555.8 2.305 2.216 2.305 3.897-.026 3.31-2.037 6.006-5.951 6.006h-8.955V0h8.177c3.271 0 5.925 2.563 5.925 5.846 0 1.148-.59 2.536-1.501 3.31zm-7.909-4.805v3.07h3.083c1.93 0 1.93-3.07-.027-3.07h-3.056zm0 7.127v3.23h3.914c1.957 0 1.93-3.23-.027-3.23h-3.887zM75.47 16.897h-7.534L66.81 19.3h-4.772v-.72L70.617 0h2.118l8.632 18.58v.72h-4.772l-1.126-2.403zm-3.808-9.156l-2.171 5.019h4.37L71.662 7.74z"
          fill="#00A9A4"/>
    <path d="M102.145 0h1.742v19.113h-5.013v-8.489L94.8 14.87h-.536l-4.048-4.245v8.489H85.2V0h1.796l7.48 8.275L102.145 0zM121.18 16.897h-7.534L112.52 19.3h-4.772v-.694L116.327 0h2.118l8.633 18.606v.694h-4.772l-1.126-2.403zm-3.807-9.156l-2.172 5.019h4.37l-2.198-5.019zM130.965 19.06V0h8.419c9.168.027 9.168 14.175 0 14.175h-3.539v4.884h-4.88zm8.392-14.709c-1.153-.027-2.386 0-3.485 0v5.446h3.485c2.681 0 2.842-5.42 0-5.446zM153.083 19.166h-1.742V.08h5.013v9.343L166.005 0h1.77v19.14h-5.067V9.77l-9.625 9.396zM190 19.06h-5.013v-7.662h-5.898v7.662h-5.014V0h5.014v6.914h5.898V0H190v19.06z"
          fill="#4E4B4B"/>
    <path d="M81.448 28.67a14.85 14.85 0 00-2.896-.268c-6.541 0-6.541 3.177-13.083 3.177-6.541 0-6.541-3.177-13.083-3.177s-6.542 3.177-13.083 3.177c-6.542 0-6.542-3.177-13.083-3.177-6.542 0-6.542 3.177-13.083 3.177-6.542 0-6.542-3.177-13.084-3.177v6.38c6.542 0 6.542 3.204 13.084 3.204 6.541 0 6.541-3.204 13.083-3.204 6.541 0 6.541 3.204 13.083 3.204 6.541 0 6.541-3.204 13.083-3.204 6.541 0 6.541 3.204 13.083 3.204s6.542-3.204 13.083-3.204c1.153 0 2.091.107 2.896.267v-6.38z"
          fill="#00A9A4"/>
    <path d="M85.55 28.51h1.742v3.096h.027l2.467-3.096h2.09l-2.921 3.497 3.056 3.603H89.92l-2.6-3.096h-.028v3.096H85.55v-7.1zM98.928 30.351c0 .347-.08.667-.268.934s-.456.454-.778.588v.026c.43.107.75.294.965.56.215.268.322.588.322.962 0 .454-.134.854-.402 1.201-.268.347-.67.614-1.233.774a4.605 4.605 0 01-.697.134 9.5 9.5 0 01-.966.053h-2.788v-7.1h3.137c.268 0 .51.026.724.053.214.026.402.08.59.133.455.134.83.374 1.072.668.188.267.322.614.322 1.014zm-2.842.961c.295 0 .51-.027.643-.107a.957.957 0 00.295-.267.85.85 0 00.08-.373c0-.267-.106-.48-.348-.588-.134-.08-.348-.107-.67-.107h-1.34v1.469h1.34v-.027zm-.054 2.936c.188 0 .349 0 .483-.026.134-.027.241-.054.322-.08a.927.927 0 00.402-.294.824.824 0 00.134-.454c0-.16-.027-.294-.107-.4a.788.788 0 00-.322-.267c-.08-.027-.161-.054-.268-.08-.108-.027-.215-.027-.376-.027h-1.474v1.602h1.206v.026zM104.853 34.836h-.027a4.097 4.097 0 01-.349.32 2.117 2.117 0 01-.482.294c-.188.107-.376.16-.59.24-.215.053-.456.08-.697.08-.349 0-.644-.053-.938-.16a2.345 2.345 0 01-.751-.454 2.055 2.055 0 01-.51-.72 2.642 2.642 0 01-.187-.935c0-.373.08-.72.214-1.014.134-.294.322-.56.59-.774.241-.214.536-.374.885-.48.348-.108.724-.16 1.153-.16.321 0 .589.026.858.052.268.027.482.08.697.134v-.294c0-.16-.027-.32-.081-.48a.816.816 0 00-.268-.4 2.096 2.096 0 00-.483-.294 2.056 2.056 0 00-.723-.107c-.349 0-.697.027-1.073.107-.348.08-.724.187-1.153.347v-1.362a5.27 5.27 0 011.153-.347c.402-.08.831-.133 1.26-.133.51 0 .965.053 1.368.187.402.133.723.293.965.534.268.213.455.48.59.774.134.293.187.64.187.987v2.67c0 .48 0 .88.027 1.201 0 .347.027.64.027.908h-1.582l-.08-.721zm-.134-2.27c-.161-.026-.349-.08-.563-.106-.215-.026-.429-.053-.644-.053-.429 0-.777.08-1.019.24-.241.16-.375.427-.375.774 0 .16.027.294.08.427a.845.845 0 00.242.294c.107.08.214.133.321.187.108.053.269.053.403.053.187 0 .348-.027.509-.08.161-.053.295-.107.429-.187s.241-.16.348-.24c.108-.08.188-.16.269-.267v-1.041zM111.984 35.77c-.375 0-.724-.08-1.045-.213a2.8 2.8 0 01-.778-.507h-.027c0 .107 0 .24.027.427v3.55h-1.743V28.51h1.529l.08.8h.027c.214-.293.482-.507.831-.694.348-.186.724-.266 1.18-.266.375 0 .777.08 1.152.213.376.134.697.374.992.668.295.293.51.667.697 1.12.161.454.268.988.268 1.629 0 .667-.08 1.228-.268 1.708-.187.48-.429.881-.723 1.202-.295.32-.644.56-1.019.694-.402.106-.778.187-1.18.187zm-.214-6.059c-.295 0-.59.08-.858.214-.268.133-.51.347-.724.587v3.176c.08.08.161.16.268.24.107.08.214.16.349.24.134.081.268.134.428.161.161.053.322.053.483.053.268 0 .509-.053.724-.16.214-.107.375-.267.536-.48.134-.214.241-.454.322-.748a3.66 3.66 0 00.107-.96c0-.374-.027-.721-.107-1.015a2.264 2.264 0 00-.322-.72c-.134-.188-.295-.348-.509-.428a1.66 1.66 0 00-.697-.16zM118.177 29.95h-2.279v-1.468h6.3v1.469h-2.278v5.632h-1.743v-5.632zM127.48 34.836h-.027a4.078 4.078 0 01-.348.32 2.103 2.103 0 01-.483.294c-.188.107-.375.16-.59.24-.214.053-.455.08-.697.08-.348 0-.643-.053-.938-.16a2.356 2.356 0 01-.751-.454 2.066 2.066 0 01-.509-.72 2.642 2.642 0 01-.188-.935c0-.373.081-.72.215-1.014.134-.294.321-.56.59-.774.241-.214.536-.374.884-.48.349-.108.724-.16 1.153-.16.322 0 .59.026.858.052.268.027.483.08.697.134v-.294c0-.16-.027-.32-.08-.48a.818.818 0 00-.269-.4 2.088 2.088 0 00-.482-.294 2.065 2.065 0 00-.724-.107c-.348 0-.697.027-1.072.107-.349.08-.724.187-1.153.347v-1.362c.348-.16.751-.267 1.153-.347.402-.08.831-.133 1.26-.133.509 0 .965.053 1.367.187.402.133.724.293.965.534.268.213.456.48.59.774.134.293.188.64.188.987v2.67c0 .48 0 .88.026 1.201 0 .347.027.64.027.908h-1.582l-.08-.721zm-.134-2.27c-.161-.026-.349-.08-.563-.106a5.22 5.22 0 00-.643-.053c-.429 0-.778.08-1.019.24-.241.16-.376.427-.376.774 0 .16.027.294.081.427a.842.842 0 00.241.294c.107.08.215.133.322.187.107.053.268.053.402.053.188 0 .349-.027.509-.08.161-.053.295-.107.429-.187s.242-.16.349-.24c.107-.08.188-.16.268-.267v-1.041zM137.158 28.51v7.1h-1.742v-5.66h-1.26c-.134.935-.268 1.709-.429 2.35-.161.64-.322 1.174-.51 1.601-.187.427-.375.774-.563 1.015-.187.24-.402.427-.589.534a1.705 1.705 0 01-.617.213c-.215.027-.429.054-.644.054h-.268c-.107 0-.187-.027-.295-.054v-1.548c.135.027.269.027.403.027.187 0 .321-.027.455-.054.134-.026.242-.133.349-.24.107-.133.214-.294.322-.56.107-.24.214-.588.321-.988.108-.427.215-.935.322-1.575.107-.614.215-1.362.349-2.243h4.396v.027zM141.287 28.51h1.877l1.072 2.562c.402.988.697 1.709.858 2.163h.027c.134-.374.375-1.041.777-2.03l1.1-2.695h1.903l-4.584 10.517h-1.716l1.635-3.79-2.949-6.727zM159.812 32.06c0 .56-.08 1.068-.241 1.522a3.102 3.102 0 01-.724 1.174c-.321.32-.697.587-1.126.748a4.26 4.26 0 01-1.474.267c-.563 0-1.073-.08-1.502-.267-.428-.187-.831-.427-1.126-.748-.321-.32-.536-.72-.697-1.174a4.553 4.553 0 01-.241-1.522c0-.56.081-1.068.241-1.522.161-.453.403-.854.724-1.174.322-.32.697-.587 1.126-.748.429-.186.939-.266 1.475-.266.563 0 1.072.08 1.501.266.456.187.831.428 1.126.748.322.32.536.72.697 1.174.161.454.241.962.241 1.522zm-1.796 0a3.5 3.5 0 00-.134-.988 1.834 1.834 0 00-.375-.72c-.161-.187-.349-.347-.563-.427-.215-.107-.456-.134-.724-.134-.268 0-.483.053-.697.134-.215.106-.402.24-.563.427-.161.186-.268.427-.375.72a3.645 3.645 0 00-.134.988c0 .374.053.72.134.988.08.293.214.534.375.72.161.187.348.347.563.428.214.106.456.16.724.16.268 0 .509-.054.724-.16.214-.107.402-.24.563-.427.161-.187.268-.428.375-.721.054-.294.107-.614.107-.988zM160.885 28.75c.375-.134.751-.268 1.18-.321a6.88 6.88 0 011.26-.107c.455 0 .884.054 1.26.16.375.107.67.24.938.428.241.186.456.4.59.64.134.24.187.534.187.854 0 .374-.08.668-.268.935a1.75 1.75 0 01-.67.587v.027c.161.053.322.133.456.213.134.08.268.214.375.32.107.134.188.268.241.428.054.16.081.347.081.56 0 .32-.054.614-.188.881a1.971 1.971 0 01-.59.748c-.268.213-.616.373-1.018.507-.429.133-.912.187-1.502.187-.482 0-.938-.027-1.34-.107a5.649 5.649 0 01-1.073-.32V33.98c.376.16.751.267 1.126.347.376.08.724.107 1.073.107.322 0 .59-.027.804-.053.215-.054.402-.107.51-.187a.695.695 0 00.268-.294.858.858 0 00.08-.373c0-.4-.214-.641-.617-.721a4.328 4.328 0 00-.697-.053h-1.635v-1.362h1.716c.241 0 .429-.027.536-.053a.606.606 0 00.375-.294.777.777 0 00.108-.427c0-.267-.108-.454-.322-.614-.215-.134-.563-.214-1.019-.214-.375 0-.751.054-1.153.134-.375.08-.75.187-1.099.294v-1.469h.027zM171.716 34.382c.349 0 .697-.027 1.072-.107.376-.08.751-.16 1.126-.294v1.389c-.214.106-.563.186-1.045.266a8.33 8.33 0 01-1.448.134 5.13 5.13 0 01-1.448-.187 3.297 3.297 0 01-1.179-.614 2.873 2.873 0 01-.805-1.121c-.187-.454-.294-1.014-.294-1.682 0-.64.08-1.201.268-1.681.187-.481.429-.881.75-1.202.322-.32.671-.56 1.073-.72.402-.16.831-.24 1.26-.24.456 0 .858.08 1.26.213.375.133.697.347.992.64.268.294.482.668.643 1.122.161.453.242 1.014.242 1.628 0 .24 0 .454-.027.614h-4.719c.027.32.107.614.215.827.134.24.295.428.482.561.188.134.429.24.697.32.268.107.563.134.885.134zm-.697-4.698c-.214 0-.429.053-.59.133a1.76 1.76 0 00-.456.32c-.134.134-.214.294-.295.481-.08.187-.134.374-.134.587h2.815c0-.213-.026-.4-.08-.587a1.362 1.362 0 00-.241-.48 1.192 1.192 0 00-.402-.32 1.295 1.295 0 00-.617-.134zM179.33 35.77c-.375 0-.724-.08-1.046-.213a2.794 2.794 0 01-.777-.507h-.027c0 .107 0 .24.027.427v3.55h-1.743V28.51h1.528l.081.8h.027c.214-.293.482-.507.831-.694.348-.186.724-.266 1.179-.266.376 0 .778.08 1.153.213.375.134.697.374.992.668.295.293.509.667.697 1.12.161.454.268.988.268 1.629 0 .667-.08 1.228-.268 1.708s-.429.881-.724 1.202c-.295.32-.643.56-1.019.694-.402.106-.777.187-1.179.187zm-.241-6.059c-.295 0-.59.08-.858.214-.268.133-.51.347-.724.587v3.176c.08.08.161.16.268.24.107.08.214.16.348.24.134.081.268.134.429.161.161.053.322.053.483.053.268 0 .509-.053.724-.16.214-.107.375-.267.536-.48.134-.214.241-.454.322-.748a3.66 3.66 0 00.107-.96c0-.374-.027-.721-.107-1.015a2.264 2.264 0 00-.322-.72c-.134-.188-.295-.348-.509-.428a1.572 1.572 0 00-.697-.16zM188.231 34.836h-.027a4.097 4.097 0 01-.349.32 2.095 2.095 0 01-.482.294c-.188.107-.375.16-.59.24-.214.053-.456.08-.697.08a2.66 2.66 0 01-.938-.16 2.345 2.345 0 01-.751-.454 2.066 2.066 0 01-.509-.72 2.62 2.62 0 01-.188-.935c0-.373.08-.72.214-1.014.134-.294.322-.56.59-.774.242-.214.536-.374.885-.48.348-.108.724-.16 1.153-.16.321 0 .59.026.858.052.268.027.482.08.697.134v-.294c0-.16-.027-.32-.081-.48a.816.816 0 00-.268-.4 2.11 2.11 0 00-.482-.294 2.065 2.065 0 00-.724-.107c-.349 0-.697.027-1.073.107-.348.08-.723.187-1.152.347v-1.362c.348-.16.75-.267 1.152-.347a6.51 6.51 0 011.26-.133c.51 0 .966.053 1.368.187.402.133.724.293.965.534.268.213.456.48.59.774.134.293.187.64.187.987v2.67c0 .48 0 .88.027 1.201 0 .347.027.64.027.908h-1.582l-.08-.721zm-.134-2.27c-.161-.026-.349-.08-.563-.106-.215-.026-.429-.053-.644-.053-.429 0-.777.08-1.018.24-.242.16-.376.427-.376.774 0 .16.027.294.081.427a.83.83 0 00.241.294c.107.08.214.133.322.187.107.053.268.053.402.053.187 0 .348-.027.509-.08.161-.053.295-.107.429-.187s.241-.16.349-.24c.107-.08.187-.16.268-.267v-1.041z"
          fill="#4E4B4B"/>
</svg>