<svg width="168" height="68" fill="none" xmlns="http://www.w3.org/2000/svg"><path d="M19.2 33.6c0 13.255 10.745 24 24 24s24-10.745 24-24-10.745-24-24-24-24 10.745-24 24z" fill="url(#paint0_radial)"/><path d="M52 34c0 18.778 15.222 34 34 34s34-15.222 34-34S104.778 0 86 0 52 15.222 52 34z" fill="url(#paint1_radial)"/><path d="M103.2 33.6c0 12.371 10.029 22.4 22.4 22.4 12.371 0 22.4-10.029 22.4-22.4 0-12.371-10.029-22.4-22.4-22.4-12.371 0-22.4 10.029-22.4 22.4z" fill="url(#paint2_radial)"/><path d="M0 34c0 7.732 6.268 14 14 14s14-6.268 14-14-6.268-14-14-14S0 26.268 0 34z" fill="url(#paint3_radial)"/><path d="M138.4 34c0 8.174 6.626 14.8 14.8 14.8S168 42.174 168 34s-6.626-14.8-14.8-14.8-14.8 6.626-14.8 14.8z" fill="url(#paint4_radial)"/><path d="M24.038 40.8l-.973-2.36h-6.151l-.974 2.36H13.6l6.027-14.4h.745L26.4 40.8h-2.362zm-1.76-4.313L20 30.627l-2.3 5.86h4.578zM33.635 40.8V28.473H28.8V26.4h12v2.073h-4.857V40.8h-2.308zM57.62 26.4h.78v14.4h-2.298v-8.885l-4.1 5.323h-.781l-4.122-5.344V40.8H44.8V26.4h.802l6.009 7.919L57.62 26.4zm6.382 7.2c-.03-1.984.709-3.687 2.215-5.11 1.505-1.42 3.296-2.117 5.372-2.089 2.061-.028 3.856.669 5.384 2.09 1.527 1.422 2.27 3.125 2.225 5.11.044 1.984-.698 3.687-2.225 5.108-1.528 1.422-3.323 2.118-5.384 2.09-2.076.029-3.87-.668-5.384-2.09-1.513-1.42-2.247-3.124-2.203-5.109zm12.806-.02c0-1.465-.497-2.685-1.49-3.664-.996-.978-2.23-1.467-3.707-1.467-1.49 0-2.73.485-3.717 1.457-.987.97-1.48 2.195-1.48 3.673 0 1.492.49 2.727 1.469 3.705.98.979 2.222 1.467 3.728 1.467 1.477 0 2.711-.492 3.706-1.477.994-.984 1.491-2.217 1.491-3.695zm6.394.02c-.046-1.984.723-3.687 2.308-5.11 1.585-1.42 3.46-2.117 5.622-2.089 1.372 0 2.629.289 3.772.866 1.142.577 2.041 1.358 2.696 2.343l-1.828 1.245c-1.112-1.604-2.65-2.406-4.617-2.406-1.553 0-2.85.49-3.884 1.467-1.037.979-1.555 2.206-1.555 3.684 0 1.478.518 2.706 1.555 3.684 1.034.978 2.33 1.467 3.884 1.467 1.966 0 3.505-.802 4.617-2.407L97.6 37.59c-.655 1-1.55 1.784-2.685 2.355-1.135.57-2.396.854-3.783.854-2.163.029-4.037-.668-5.622-2.09-1.585-1.422-2.354-3.124-2.308-5.109zm27.637 5.534V40.8h-2.527v-1.666c-2.242-.04-4.054-.566-5.438-1.574-1.382-1.008-2.074-2.362-2.074-4.063 0-1.686.692-3.027 2.074-4.021 1.384-.995 3.196-1.512 5.438-1.554V26.4h2.527v1.522c2.258.042 4.083.56 5.474 1.554s2.087 2.341 2.087 4.042c0 1.687-.696 3.034-2.087 4.042-1.391 1.008-3.216 1.533-5.474 1.574zm-2.527-1.913v-7.406c-1.542.027-2.759.37-3.649 1.028-.891.659-1.335 1.564-1.335 2.716 0 1.138.441 2.026 1.323 2.664.882.638 2.102.97 3.661.998zm7.56-3.703c0-1.152-.449-2.05-1.347-2.695-.899-.645-2.128-.98-3.686-1.008v7.405c1.543-.013 2.767-.35 3.674-1.008.905-.658 1.359-1.556 1.359-2.694zM121.6 40.8V26.4h10.12v2.073h-7.648v3.687h5.76v2.008h-5.76v4.56H132V40.8h-10.4zm15.2 0V26.4h5.805c1.605 0 2.906.412 3.902 1.233.995.822 1.493 1.88 1.493 3.174 0 1.295-.502 2.357-1.506 3.186-1.003.83-2.3 1.243-3.889 1.243h-3.252V40.8H136.8zm2.553-7.614h3.203c.884 0 1.574-.212 2.072-.633.497-.422.747-.996.747-1.723 0-.728-.25-1.306-.747-1.735-.498-.429-1.188-.644-2.072-.644h-3.203v4.735zm21.191 7.614l-1.095-2.36h-6.921l-1.095 2.36H148.8l6.781-14.4h.838l6.781 14.4h-2.656zm-1.981-4.313L156 30.627l-2.587 5.86h5.15z" fill="#fff"/><defs><radialGradient id="paint0_radial" cx="0" cy="0" r="1" gradientUnits="userSpaceOnUse" gradientTransform="matrix(23.9985 0 0 23.9988 43.194 33.596)"><stop offset=".391" stop-color="#FF0" stop-opacity="0"/><stop offset=".667" stop-color="#FF0" stop-opacity=".105"/><stop offset="1" stop-color="#FF0" stop-opacity=".43"/></radialGradient><radialGradient id="paint1_radial" cx="0" cy="0" r="1" gradientUnits="userSpaceOnUse" gradientTransform="translate(85.987 33.991) scale(34.0007)"><stop offset=".459" stop-color="red" stop-opacity="0"/><stop offset=".729" stop-color="red" stop-opacity=".09"/><stop offset="1" stop-color="red" stop-opacity=".46"/></radialGradient><radialGradient id="paint2_radial" cx="0" cy="0" r="1" gradientUnits="userSpaceOnUse" gradientTransform="translate(125.594 33.594) scale(22.3991)"><stop offset=".495" stop-color="#FF0" stop-opacity="0"/><stop offset=".729" stop-color="#FFC000" stop-opacity=".155"/><stop offset="1" stop-color="#FF8200" stop-opacity=".46"/></radialGradient><radialGradient id="paint3_radial" cx="0" cy="0" r="1" gradientUnits="userSpaceOnUse" gradientTransform="matrix(13.9999 0 0 14.0001 13.998 33.997)"><stop offset=".432" stop-color="#C8FF00" stop-opacity="0"/><stop offset=".714" stop-color="#A8FF00" stop-opacity=".164"/><stop offset="1" stop-color="#82FF00" stop-opacity=".67"/></radialGradient><radialGradient id="paint4_radial" cx="0" cy="0" r="1" gradientUnits="userSpaceOnUse" gradientTransform="matrix(14.7999 0 0 14.8002 153.196 33.997)"><stop offset=".49" stop-color="#F0F" stop-opacity="0"/><stop offset=".714" stop-color="#F0F" stop-opacity=".132"/><stop offset="1" stop-color="#F0F" stop-opacity=".44"/></radialGradient></defs></svg>