<svg width="150" height="32" viewBox="0 0 150 32" fill="none" xmlns="http://www.w3.org/2000/svg">
<path d="M10.8398 13.7549H4.89063L4.00143 15.6521H0.23291V15.0829L7.02895 0.411133H8.70149L15.5187 15.0829V15.6521H11.729L10.8398 13.7549ZM7.85464 6.52438L6.13975 10.4875H9.5907L7.85464 6.52438Z" fill="#00A9A4"/>
<path d="M18.5884 15.4624V0.411133C19.8798 0.411133 21.1713 0.411133 22.5263 0.411133V6.10278H22.8015C26.6759 6.10278 26.4642 3.2148 26.4642 0.411133C27.7768 0.411133 29.0894 0.411133 30.4444 0.411133C30.4444 3.48884 30.5291 6.31358 27.5227 8.23188L31.63 14.851V15.4624H27.3322L24.0083 9.64425C23.5002 9.72857 23.0132 9.72857 22.5263 9.72857V15.4624C21.1925 15.4624 19.901 15.4624 18.5884 15.4624Z" fill="#00A9A4"/>
<path d="M44.9262 7.64163C46.1541 8.27404 46.7469 9.39129 46.7469 10.7193C46.7257 13.3333 45.1379 15.4624 42.0469 15.4624H34.9756V0.411133H41.4329C44.0158 0.411133 46.1118 2.43483 46.1118 5.02769C46.1118 5.93414 45.646 7.03031 44.9262 7.64163ZM38.6806 3.8472V6.27142H41.1153C42.6397 6.27142 42.6397 3.8472 41.0941 3.8472H38.6806ZM38.6806 9.47561V12.0263H41.7716C43.3171 12.0263 43.296 9.47561 41.7505 9.47561H38.6806Z" fill="#00A9A4"/>
<path d="M59.5552 13.7549H53.606L52.7168 15.6521H48.9482V15.0829L55.7231 0.411133H57.3957L64.2129 15.0829V15.6521H60.4444L59.5552 13.7549ZM56.5488 6.52438L54.8339 10.4875H58.2849L56.5488 6.52438Z" fill="#00A9A4"/>
<path d="M80.6216 0.411133H81.9977V15.5045C80.6851 15.5045 79.3725 15.5045 78.0387 15.5045V8.80104L74.8206 12.1528H74.3972L71.2003 8.80104V15.5045C69.8876 15.5045 68.575 15.5045 67.2412 15.5045V0.411133H68.6597L74.5665 6.94599L80.6216 0.411133Z" fill="#4E4B4B"/>
<path d="M95.6533 13.7549H89.7041L88.8149 15.6521H85.0464V15.104L91.8213 0.411133H93.4938L100.311 15.104V15.6521H96.5425L95.6533 13.7549ZM92.6469 6.52438L90.9321 10.4875H94.383L92.6469 6.52438Z" fill="#4E4B4B"/>
<path d="M103.38 15.4624C103.38 10.4453 103.38 5.44929 103.38 0.411133C105.561 0.411133 107.805 0.411133 110.028 0.411133C117.269 0.432213 117.269 11.6047 110.028 11.6047H107.234V15.4624C105.942 15.4624 104.651 15.4624 103.38 15.4624ZM110.007 3.8472C109.097 3.82612 108.123 3.8472 107.255 3.8472C107.255 5.06985 107.255 6.92491 107.255 8.14756H110.007C112.124 8.14756 112.251 3.86828 110.007 3.8472Z" fill="#4E4B4B"/>
<path d="M120.847 15.5467H119.471V0.474373C120.783 0.474373 122.096 0.474373 123.43 0.474373V7.85243L131.051 0.411133H132.449V15.5256C131.136 15.5256 129.802 15.5256 128.447 15.5256V8.12647L120.847 15.5467Z" fill="#4E4B4B"/>
<path d="M150 15.4624C148.687 15.4624 147.374 15.4624 146.041 15.4624V9.41237H141.383V15.4624C140.07 15.4624 138.736 15.4624 137.424 15.4624V0.411133C138.715 0.411133 140.049 0.411133 141.383 0.411133V5.8709H146.041V0.411133C147.353 0.411133 148.666 0.411133 150 0.411133V15.4624Z" fill="#4E4B4B"/>
<path d="M64.2766 23.0514C63.6414 22.9249 62.8792 22.8406 61.99 22.8406C56.8242 22.8406 56.8242 25.3491 51.6584 25.3491C46.4925 25.3491 46.4925 22.8406 41.3267 22.8406C36.1609 22.8406 36.1609 25.3491 30.995 25.3491C25.8292 25.3491 25.8292 22.8406 20.6633 22.8406C15.4975 22.8406 15.4975 25.3491 10.3317 25.3491C5.16584 25.3491 5.16584 22.8406 0 22.8406V27.8787C5.16584 27.8787 5.16584 30.4084 10.3317 30.4084C15.4975 30.4084 15.4975 27.8787 20.6633 27.8787C25.8292 27.8787 25.8292 30.4084 30.995 30.4084C36.1609 30.4084 36.1609 27.8787 41.3267 27.8787C46.4925 27.8787 46.4925 30.4084 51.6584 30.4084C56.8242 30.4084 56.8242 27.8787 61.99 27.8787C62.9004 27.8787 63.6414 27.9631 64.2766 28.0895V23.0514Z" fill="#00A9A4"/>
<path d="M67.5156 22.9249H68.8918V25.3702H68.9129L70.8607 22.9249H72.5121L70.2044 25.6864L72.6179 28.5322H70.9666L68.9129 26.087H68.8918V28.5322H67.5156V22.9249Z" fill="#4E4B4B"/>
<path d="M78.0802 24.3792C78.0802 24.6532 78.0167 24.9062 77.8685 25.117C77.7203 25.3278 77.5086 25.4753 77.2545 25.5807V25.6018C77.5933 25.6861 77.8473 25.8337 78.0167 26.0445C78.1861 26.2553 78.2708 26.5083 78.2708 26.8034C78.2708 27.1618 78.1649 27.478 77.9532 27.752C77.7415 28.026 77.4239 28.2368 76.9793 28.3633C76.8099 28.4055 76.6406 28.4476 76.4288 28.4687C76.2171 28.4898 75.9631 28.5109 75.6667 28.5109H73.4648V22.9036H75.9419C76.1536 22.9036 76.3442 22.9246 76.5135 22.9457C76.6829 22.9668 76.8311 23.009 76.9793 23.0511C77.3392 23.1565 77.6356 23.3462 77.8262 23.5781C77.9744 23.7889 78.0802 24.063 78.0802 24.3792ZM75.836 25.1381C76.0689 25.1381 76.2383 25.117 76.3442 25.0537C76.45 24.9905 76.5135 24.9273 76.577 24.8429C76.6194 24.7586 76.6406 24.6532 76.6406 24.5478C76.6406 24.337 76.5559 24.1684 76.3653 24.0841C76.2595 24.0208 76.0901 23.9997 75.836 23.9997H74.7775V25.1591H75.836V25.1381ZM75.7937 27.4569C75.9419 27.4569 76.0689 27.4569 76.1748 27.4358C76.2806 27.4147 76.3653 27.3936 76.4288 27.3726C76.577 27.3093 76.6617 27.2461 76.7464 27.1407C76.8099 27.0353 76.8523 26.9299 76.8523 26.7823C76.8523 26.6558 76.8311 26.5504 76.7676 26.4661C76.7041 26.3818 76.6194 26.2975 76.5135 26.2553C76.45 26.2342 76.3865 26.2132 76.3018 26.1921C76.2171 26.171 76.1324 26.171 76.0054 26.171H74.841V27.4358H75.7937V27.4569Z" fill="#4E4B4B"/>
<path d="M82.7586 27.9207H82.7375C82.6528 28.0051 82.5681 28.0894 82.4622 28.1737C82.3564 28.258 82.2294 28.3424 82.0812 28.4056C81.933 28.4899 81.7848 28.5321 81.6154 28.5953C81.446 28.6375 81.2555 28.6586 81.0649 28.6586C80.7897 28.6586 80.5568 28.6164 80.3239 28.5321C80.091 28.4478 79.9005 28.3213 79.7311 28.1737C79.5617 28.0261 79.4347 27.8364 79.3289 27.6045C79.2442 27.3727 79.1807 27.1408 79.1807 26.8667C79.1807 26.5716 79.2442 26.2976 79.35 26.0657C79.4559 25.8338 79.6041 25.623 79.8158 25.4544C80.0064 25.2857 80.2392 25.1592 80.5145 25.0749C80.7897 24.9906 81.0861 24.9484 81.4248 24.9484C81.6789 24.9484 81.8906 24.9695 82.1023 24.9906C82.314 25.0117 82.4834 25.0538 82.6528 25.096V24.8641C82.6528 24.7376 82.6316 24.6112 82.5893 24.4847C82.5469 24.3582 82.4834 24.2528 82.3776 24.1685C82.2717 24.0842 82.1447 23.9998 81.9965 23.9366C81.8271 23.8734 81.6366 23.8523 81.4248 23.8523C81.1496 23.8523 80.8744 23.8734 80.578 23.9366C80.3027 23.9998 80.0064 24.0842 79.6676 24.2106V23.1355C79.9428 23.0091 80.2604 22.9247 80.578 22.8615C80.8956 22.7983 81.2343 22.7561 81.573 22.7561C81.9753 22.7561 82.3352 22.7983 82.6528 22.9037C82.9704 23.0091 83.2244 23.1355 83.415 23.3253C83.6267 23.4939 83.7749 23.7047 83.8807 23.9366C83.9866 24.1685 84.0289 24.4425 84.0289 24.7166V26.8246C84.0289 27.204 84.0289 27.5202 84.0501 27.7732C84.0501 28.0472 84.0713 28.2791 84.0713 28.4899H82.8222L82.7586 27.9207ZM82.6528 26.1289C82.5258 26.1079 82.3776 26.0657 82.2082 26.0446C82.0388 26.0235 81.8694 26.0025 81.7001 26.0025C81.3613 26.0025 81.0861 26.0657 80.8956 26.1922C80.705 26.3187 80.5992 26.5295 80.5992 26.8035C80.5992 26.93 80.6203 27.0354 80.6627 27.1408C80.705 27.2251 80.7685 27.3094 80.8532 27.3727C80.9379 27.4359 81.0226 27.4781 81.1073 27.5202C81.192 27.5624 81.319 27.5624 81.4248 27.5624C81.573 27.5624 81.7001 27.5413 81.8271 27.4991C81.9541 27.457 82.06 27.4148 82.1658 27.3516C82.2717 27.2883 82.3564 27.2251 82.4411 27.1619C82.5258 27.0986 82.5893 27.0354 82.6528 26.9511V26.1289Z" fill="#4E4B4B"/>
<path d="M88.391 28.6586C88.0946 28.6586 87.8194 28.5954 87.5653 28.49C87.3113 28.3846 87.1207 28.237 86.9513 28.0895H86.9302C86.9302 28.1738 86.9302 28.2792 86.9513 28.4267C86.9513 28.5743 86.9513 28.7219 86.9513 28.8905V31.2304H85.5752V22.9248H86.782L86.8455 23.5572H86.8667C87.036 23.3253 87.2477 23.1567 87.523 23.0091C87.7982 22.8616 88.0946 22.7983 88.4545 22.7983C88.7509 22.7983 89.0685 22.8616 89.3649 22.967C89.6613 23.0724 89.9154 23.2621 90.1482 23.494C90.3811 23.7259 90.5505 24.021 90.6987 24.3794C90.8257 24.7377 90.9104 25.1593 90.9104 25.6652C90.9104 26.1922 90.8469 26.6349 90.6987 27.0144C90.5505 27.3938 90.36 27.71 90.1271 27.963C89.8942 28.2159 89.619 28.4057 89.3226 28.5111C89.005 28.5954 88.7086 28.6586 88.391 28.6586ZM88.2216 23.8734C87.9887 23.8734 87.7559 23.9367 87.5441 24.0421C87.3324 24.1475 87.1419 24.3161 86.9725 24.5058V27.0144C87.036 27.0776 87.0995 27.1409 87.1842 27.2041C87.2689 27.2673 87.3536 27.3306 87.4595 27.3938C87.5653 27.4571 87.6712 27.4992 87.7982 27.5203C87.9252 27.5625 88.0523 27.5625 88.1793 27.5625C88.391 27.5625 88.5815 27.5203 88.7509 27.436C88.9203 27.3517 89.0473 27.2252 89.1743 27.0565C89.2802 26.8879 89.3649 26.6982 89.4284 26.4663C89.4919 26.2344 89.5131 25.9814 89.5131 25.7074C89.5131 25.4123 89.4919 25.1382 89.4284 24.9064C89.3649 24.6745 89.2802 24.4848 89.1743 24.3372C89.0685 24.1896 88.9415 24.0632 88.7721 23.9999C88.5815 23.9156 88.4122 23.8734 88.2216 23.8734Z" fill="#4E4B4B"/>
<path d="M93.2815 24.063H91.4819V22.9036H96.4572V24.063H94.6576V28.5109H93.2815V24.063Z" fill="#4E4B4B"/>
<path d="M100.628 27.9207H100.607C100.522 28.0051 100.438 28.0894 100.332 28.1737C100.226 28.258 100.099 28.3424 99.9508 28.4056C99.8026 28.4899 99.6544 28.5321 99.485 28.5953C99.3156 28.6375 99.1251 28.6586 98.9346 28.6586C98.6593 28.6586 98.4264 28.6164 98.1936 28.5321C97.9607 28.4478 97.7701 28.3213 97.6008 28.1737C97.4314 28.0261 97.3043 27.8364 97.1985 27.6045C97.1138 27.3727 97.0503 27.1408 97.0503 26.8667C97.0503 26.5716 97.1138 26.2976 97.2197 26.0657C97.3255 25.8338 97.4737 25.623 97.6854 25.4544C97.876 25.2857 98.1089 25.1592 98.3841 25.0749C98.6593 24.9906 98.9557 24.9484 99.2945 24.9484C99.5485 24.9484 99.7602 24.9695 99.972 24.9906C100.184 25.0117 100.353 25.0538 100.522 25.096V24.8641C100.522 24.7376 100.501 24.6112 100.459 24.4847C100.417 24.3582 100.353 24.2528 100.247 24.1685C100.141 24.0842 100.014 23.9998 99.8661 23.9366C99.6967 23.8734 99.5062 23.8523 99.2945 23.8523C99.0192 23.8523 98.744 23.8734 98.4476 23.9366C98.1724 23.9998 97.876 24.0842 97.5372 24.2106V23.1355C97.8125 23.0091 98.13 22.9247 98.4476 22.8615C98.7652 22.7983 99.1039 22.7561 99.4427 22.7561C99.8449 22.7561 100.205 22.7983 100.522 22.9037C100.84 23.0091 101.094 23.1355 101.285 23.3253C101.496 23.4939 101.645 23.7047 101.75 23.9366C101.856 24.1685 101.899 24.4425 101.899 24.7166V26.8246C101.899 27.204 101.899 27.5202 101.92 27.7732C101.92 28.0472 101.941 28.2791 101.941 28.4899H100.692L100.628 27.9207ZM100.522 26.1289C100.395 26.1079 100.247 26.0657 100.078 26.0446C99.9084 26.0235 99.7391 26.0025 99.5697 26.0025C99.231 26.0025 98.9557 26.0657 98.7652 26.1922C98.5746 26.3187 98.4688 26.5295 98.4688 26.8035C98.4688 26.93 98.49 27.0354 98.5323 27.1408C98.5746 27.2251 98.6382 27.3094 98.7228 27.3727C98.8075 27.4359 98.8922 27.4781 98.9769 27.5202C99.0616 27.5624 99.1886 27.5624 99.2945 27.5624C99.4427 27.5624 99.5697 27.5413 99.6967 27.4991C99.8238 27.457 99.9296 27.4148 100.035 27.3516C100.141 27.2883 100.226 27.2251 100.311 27.1619C100.395 27.0986 100.459 27.0354 100.522 26.9511V26.1289Z" fill="#4E4B4B"/>
<path d="M108.271 22.9246V28.532H106.895V24.063H105.9C105.794 24.8008 105.688 25.4121 105.561 25.918C105.434 26.424 105.307 26.8456 105.159 27.1828C105.01 27.5201 104.862 27.7942 104.714 27.9839C104.566 28.1736 104.396 28.3212 104.248 28.4055C104.1 28.4898 103.931 28.5531 103.761 28.5741C103.592 28.5952 103.423 28.6163 103.253 28.6163C103.19 28.6163 103.105 28.6163 103.041 28.6163C102.957 28.6163 102.893 28.5952 102.809 28.5741V27.3515C102.914 27.3726 103.02 27.3726 103.126 27.3726C103.274 27.3726 103.38 27.3515 103.486 27.3304C103.592 27.3093 103.677 27.225 103.761 27.1407C103.846 27.0353 103.931 26.9088 104.015 26.698C104.1 26.5083 104.185 26.2342 104.269 25.918C104.354 25.5807 104.439 25.1802 104.523 24.6743C104.608 24.1895 104.693 23.5992 104.799 22.9036H108.271V22.9246Z" fill="#4E4B4B"/>
<path d="M111.531 22.9249H113.013L113.86 24.9486C114.178 25.7286 114.411 26.2978 114.538 26.6561H114.559C114.665 26.361 114.855 25.834 115.173 25.054L116.041 22.9249H117.544L113.924 31.2305H112.569L113.86 28.2371L111.531 22.9249Z" fill="#4E4B4B"/>
<path d="M126.16 25.7285C126.16 26.1712 126.097 26.5717 125.97 26.9301C125.843 27.2884 125.652 27.6046 125.398 27.8576C125.144 28.1105 124.848 28.3213 124.509 28.4478C124.17 28.5743 123.768 28.6586 123.345 28.6586C122.9 28.6586 122.498 28.5954 122.159 28.4478C121.82 28.3003 121.503 28.1105 121.27 27.8576C121.016 27.6046 120.846 27.2884 120.719 26.9301C120.592 26.5717 120.529 26.1712 120.529 25.7285C120.529 25.2858 120.592 24.8853 120.719 24.5269C120.846 24.1686 121.037 23.8523 121.291 23.5994C121.545 23.3464 121.841 23.1356 122.18 23.0091C122.519 22.8616 122.921 22.7983 123.345 22.7983C123.789 22.7983 124.191 22.8616 124.53 23.0091C124.89 23.1567 125.187 23.3464 125.419 23.5994C125.673 23.8523 125.843 24.1686 125.97 24.5269C126.097 24.8853 126.16 25.2858 126.16 25.7285ZM124.742 25.7285C124.742 25.4334 124.7 25.1593 124.636 24.9485C124.573 24.7166 124.467 24.5269 124.34 24.3794C124.213 24.2318 124.064 24.1053 123.895 24.0421C123.726 23.9577 123.535 23.9367 123.323 23.9367C123.112 23.9367 122.942 23.9788 122.773 24.0421C122.604 24.1264 122.455 24.2318 122.328 24.3794C122.201 24.5269 122.117 24.7166 122.032 24.9485C121.968 25.1804 121.926 25.4334 121.926 25.7285C121.926 26.0236 121.968 26.2977 122.032 26.5085C122.095 26.7403 122.201 26.9301 122.328 27.0776C122.455 27.2252 122.604 27.3517 122.773 27.4149C122.942 27.4992 123.133 27.5414 123.345 27.5414C123.556 27.5414 123.747 27.4992 123.916 27.4149C124.086 27.3306 124.234 27.2252 124.361 27.0776C124.488 26.9301 124.573 26.7403 124.657 26.5085C124.7 26.2766 124.742 26.0236 124.742 25.7285Z" fill="#4E4B4B"/>
<path d="M127.007 23.1146C127.304 23.0092 127.6 22.9038 127.939 22.8617C128.278 22.7984 128.616 22.7773 128.934 22.7773C129.294 22.7773 129.633 22.8195 129.929 22.9038C130.225 22.9881 130.458 23.0935 130.67 23.2411C130.861 23.3887 131.03 23.5573 131.136 23.747C131.242 23.9368 131.284 24.1686 131.284 24.4216C131.284 24.7167 131.221 24.9486 131.072 25.1594C130.924 25.3702 130.755 25.5178 130.543 25.6232V25.6442C130.67 25.6864 130.797 25.7496 130.903 25.8129C131.009 25.8761 131.115 25.9815 131.199 26.0659C131.284 26.1713 131.348 26.2767 131.39 26.4031C131.432 26.5296 131.453 26.6772 131.453 26.8458C131.453 27.0988 131.411 27.3307 131.305 27.5415C131.199 27.7733 131.051 27.9631 130.839 28.1317C130.628 28.3004 130.352 28.4268 130.035 28.5322C129.696 28.6376 129.315 28.6798 128.849 28.6798C128.468 28.6798 128.108 28.6587 127.791 28.5955C127.473 28.5322 127.198 28.4479 126.944 28.3425V27.2463C127.24 27.3728 127.537 27.4571 127.833 27.5204C128.129 27.5836 128.405 27.6047 128.68 27.6047C128.934 27.6047 129.146 27.5836 129.315 27.5625C129.484 27.5204 129.633 27.4782 129.717 27.415C129.823 27.3517 129.887 27.2674 129.929 27.1831C129.971 27.0988 129.993 26.9934 129.993 26.888C129.993 26.5718 129.823 26.3821 129.506 26.3188C129.379 26.2977 129.188 26.2767 128.955 26.2767H127.664V25.2016H129.019C129.209 25.2016 129.357 25.1805 129.442 25.1594C129.59 25.1172 129.675 25.0329 129.738 24.9275C129.802 24.8221 129.823 24.7167 129.823 24.5902C129.823 24.3794 129.738 24.2319 129.569 24.1054C129.4 24 129.125 23.9368 128.765 23.9368C128.468 23.9368 128.172 23.9789 127.854 24.0422C127.558 24.1054 127.261 24.1897 126.986 24.274V23.1146H127.007Z" fill="#4E4B4B"/>
<path d="M135.561 27.5625C135.836 27.5625 136.111 27.5415 136.408 27.4782C136.704 27.415 137.001 27.3517 137.297 27.2463V28.3425C137.128 28.4268 136.852 28.4901 136.471 28.5533C136.111 28.6166 135.73 28.6587 135.328 28.6587C134.926 28.6587 134.545 28.6166 134.185 28.5112C133.825 28.4058 133.507 28.2371 133.253 28.0263C132.978 27.7944 132.766 27.4993 132.618 27.1409C132.47 26.7826 132.385 26.3399 132.385 25.8129C132.385 25.307 132.449 24.8643 132.597 24.4848C132.745 24.1054 132.936 23.7892 133.19 23.5362C133.444 23.2833 133.719 23.0935 134.037 22.9671C134.354 22.8406 134.693 22.7773 135.032 22.7773C135.392 22.7773 135.709 22.8406 136.027 22.946C136.323 23.0514 136.577 23.22 136.81 23.4519C137.022 23.6838 137.191 23.9789 137.318 24.3373C137.445 24.6956 137.509 25.1383 137.509 25.6232C137.509 25.8129 137.509 25.9815 137.488 26.108H133.761C133.783 26.361 133.846 26.5929 133.931 26.7615C134.037 26.9512 134.164 27.0988 134.312 27.2042C134.46 27.3096 134.651 27.3939 134.862 27.4571C135.074 27.5415 135.307 27.5625 135.561 27.5625ZM135.011 23.8524C134.841 23.8524 134.672 23.8946 134.545 23.9578C134.418 24.0211 134.291 24.1054 134.185 24.2108C134.079 24.3162 134.015 24.4427 133.952 24.5902C133.888 24.7378 133.846 24.8854 133.846 25.054H136.069C136.069 24.8854 136.048 24.7378 136.006 24.5902C135.963 24.4427 135.9 24.3162 135.815 24.2108C135.73 24.1054 135.624 24.0211 135.497 23.9578C135.328 23.8735 135.18 23.8524 135.011 23.8524Z" fill="#4E4B4B"/>
<path d="M141.574 28.6586C141.277 28.6586 141.002 28.5954 140.748 28.49C140.494 28.3846 140.303 28.237 140.134 28.0895H140.113C140.113 28.1738 140.113 28.2792 140.134 28.4267C140.134 28.5743 140.134 28.7219 140.134 28.8905V31.2304H138.758V22.9248H139.965L140.028 23.5572H140.049C140.219 23.3253 140.43 23.1567 140.706 23.0091C140.981 22.8616 141.277 22.7983 141.637 22.7983C141.934 22.7983 142.251 22.8616 142.547 22.967C142.844 23.0724 143.098 23.2621 143.331 23.494C143.564 23.7259 143.733 24.021 143.881 24.3794C144.008 24.7377 144.093 25.1593 144.093 25.6652C144.093 26.1922 144.029 26.6349 143.881 27.0144C143.733 27.3938 143.543 27.71 143.31 27.963C143.077 28.2159 142.802 28.4057 142.505 28.5111C142.188 28.5954 141.891 28.6586 141.574 28.6586ZM141.383 23.8734C141.15 23.8734 140.917 23.9367 140.706 24.0421C140.494 24.1475 140.303 24.3161 140.134 24.5058V27.0144C140.197 27.0776 140.261 27.1409 140.346 27.2041C140.43 27.2673 140.515 27.3306 140.621 27.3938C140.727 27.4571 140.833 27.4992 140.96 27.5203C141.087 27.5625 141.214 27.5625 141.341 27.5625C141.552 27.5625 141.743 27.5203 141.912 27.436C142.082 27.3517 142.209 27.2252 142.336 27.0565C142.442 26.8879 142.526 26.6982 142.59 26.4663C142.653 26.2344 142.675 25.9814 142.675 25.7074C142.675 25.4123 142.653 25.1382 142.59 24.9064C142.526 24.6745 142.442 24.4848 142.336 24.3372C142.23 24.1896 142.103 24.0632 141.934 23.9999C141.764 23.9156 141.574 23.8734 141.383 23.8734Z" fill="#4E4B4B"/>
<path d="M148.602 27.9207H148.581C148.497 28.0051 148.412 28.0894 148.306 28.1737C148.2 28.258 148.073 28.3424 147.925 28.4056C147.777 28.4899 147.628 28.5321 147.459 28.5953C147.29 28.6375 147.099 28.6586 146.909 28.6586C146.633 28.6586 146.401 28.6164 146.168 28.5321C145.935 28.4478 145.744 28.3213 145.575 28.1737C145.405 28.0261 145.278 27.8364 145.173 27.6045C145.088 27.3727 145.024 27.1408 145.024 26.8667C145.024 26.5716 145.088 26.2976 145.194 26.0657C145.3 25.8338 145.448 25.623 145.66 25.4544C145.85 25.2857 146.083 25.1592 146.358 25.0749C146.633 24.9906 146.93 24.9484 147.269 24.9484C147.523 24.9484 147.734 24.9695 147.946 24.9906C148.158 25.0117 148.327 25.0538 148.497 25.096V24.8641C148.497 24.7376 148.475 24.6112 148.433 24.4847C148.391 24.3582 148.327 24.2528 148.221 24.1685C148.115 24.0842 147.988 23.9998 147.84 23.9366C147.671 23.8734 147.48 23.8523 147.269 23.8523C146.993 23.8523 146.718 23.8734 146.422 23.9366C146.146 23.9998 145.85 24.0842 145.511 24.2106V23.1355C145.787 23.0091 146.104 22.9247 146.422 22.8615C146.739 22.7983 147.078 22.7561 147.417 22.7561C147.819 22.7561 148.179 22.7983 148.497 22.9037C148.814 23.0091 149.068 23.1355 149.259 23.3253C149.47 23.4939 149.619 23.7047 149.724 23.9366C149.83 24.1685 149.873 24.4425 149.873 24.7166V26.8246C149.873 27.204 149.873 27.5202 149.894 27.7732C149.894 28.0472 149.915 28.2791 149.915 28.4899H148.666L148.602 27.9207ZM148.497 26.1289C148.369 26.1079 148.221 26.0657 148.052 26.0446C147.883 26.0235 147.713 26.0025 147.544 26.0025C147.205 26.0025 146.93 26.0657 146.739 26.1922C146.549 26.3187 146.443 26.5295 146.443 26.8035C146.443 26.93 146.464 27.0354 146.506 27.1408C146.549 27.2251 146.612 27.3094 146.697 27.3727C146.782 27.4359 146.866 27.4781 146.951 27.5202C147.036 27.5624 147.163 27.5624 147.269 27.5624C147.417 27.5624 147.544 27.5413 147.671 27.4991C147.798 27.457 147.904 27.4148 148.01 27.3516C148.115 27.2883 148.2 27.2251 148.285 27.1619C148.369 27.0986 148.433 27.0354 148.497 26.9511V26.1289Z" fill="#4E4B4B"/>
</svg>
