<svg width="112" height="39" fill="none" xmlns="http://www.w3.org/2000/svg"><path d="M65.646 19.81h-2.694v-6.328h-2.613V28.18h2.613v-6.86h2.694v6.86h2.614V13.482h-2.614v6.328zm7.595 5.39h-.245s.163-2.981.245-4.328v-7.39h-2.613V28.18h3.47l2.205-11.718h.245s-.163 2.98-.245 4.328v7.39h2.613V13.482h-3.47L73.24 25.2zm-18.333-5.226l-.163 1.714h-.204l-1.633-8.206h-3.103l3.511 11.636-1.062 3.062h2.695l4.532-14.698h-3.103l-1.47 6.492zm52.711-6.492l-1.797 9.431h-.285l-1.797-9.431h-3.47V28.18h2.613v-7.39c-.123-1.306-.245-4.328-.245-4.328h.245l2.205 11.718h1.184l2.204-11.718h.245s-.163 2.98-.245 4.328v7.39h2.613V13.482h-3.47zm-18.21 0h-2.572l-2.695 6.532h-.245v-6.532h-2.613V28.18h2.613v-7.023h.245L87 28.18h2.695l-3.307-7.84 3.021-6.858zm5.43 6.492l-.163 1.714h-.204l-1.633-8.206h-3.103l3.511 11.636-1.061 3.062h2.694l4.532-14.698H96.31l-1.47 6.492z" fill="#fff"/><path d="M34.347 27.116H0v10.846h34.347V27.116zm10.847-10.847H34.348v10.846h10.846V16.27z" fill="#FFD040"/><path d="M34.348 0v27.116H.001V16.27L34.348 0z" fill="#FFB600"/><path d="M39.77 27.116h-5.422v10.846h5.423V27.116z" fill="#FFB600"/><path d="M45.194 12.654v3.616H34.348V0l5.423 9.039 5.423 3.615zm0 14.462H39.77v10.846h5.424V27.116z" fill="#CC9F53"/><path d="M51.887 37.98v-1.307h-1.51v1.306h-.49v-3.021h.53v1.266h1.47v-1.266h.531v3.021h-.53zm1.184-.817c0-.735.817-.94 2.042-1.062v-.082c0-.571-.286-.734-.694-.734-.45 0-.654.245-.694.612h-.531c.04-.653.612-1.02 1.225-1.02.857 0 1.225.407 1.225 1.265v.694c0 .53 0 .857.081 1.143h-.53c0-.122-.041-.245-.041-.408-.205.327-.49.49-1.021.49-.613 0-1.062-.327-1.062-.898zm2.083-.654c-.94.082-1.511.245-1.511.654 0 .285.204.49.572.49.49 0 .939-.205.939-.94v-.204zm3.714-.408h-.449v1.878h-.571v-4.082h.571v1.714h.409l1.388-1.714h.694l-1.592 1.918 1.633 2.164h-.694l-1.389-1.878zm5.187.367c0 1.103-.735 1.593-1.47 1.593s-1.47-.49-1.47-1.593c0-1.102.735-1.592 1.47-1.592s1.47.49 1.47 1.593zm-1.43 1.144c.45 0 .9-.368.9-1.144 0-.816-.45-1.143-.9-1.143-.448 0-.897.286-.897 1.143 0 .817.408 1.144.898 1.144zm5.431.367h-.49v-2.45l-.98 2.45h-.408l-.98-2.409v2.41h-.49v-3.022h.735l.939 2.327.898-2.327h.735v3.021h.041zm4.165 0h-.49v-2.45l-.98 2.45h-.367l-.98-2.409v2.41h-.49v-3.022h.735l.94 2.327.897-2.327h.735v3.021zm.694.572h.204c.327 0 .49-.041.653-.49l.041-.082-1.102-3.021h.572l.775 2.327.735-2.327h.531l-1.102 3.184c-.245.654-.368.858-1.062.858h-.245v-.45zm4.859-.572v-1.306h-1.51v1.306h-.532v-3.021h.531v1.266h1.51v-1.266h.532v3.021h-.531zm3.471-2.286l-1.551 2.286h-.53v-3.021h.53v2.286l1.551-2.286h.531v3.021h-.53v-2.286zm3.878.245h-.53c-.082-.368-.368-.613-.776-.613-.45 0-.858.368-.858 1.103 0 .776.409 1.143.858 1.143s.735-.286.816-.612h.531a1.37 1.37 0 0 1-1.347 1.061c-.858 0-1.43-.653-1.43-1.592 0-.898.572-1.593 1.47-1.593.736.041 1.225.613 1.266 1.103zm1.755-.531v2.572h-.531v-2.572h-1.02v-.45h2.571v.45h-1.02zm3.634.286l-1.552 2.286h-.53v-3.021h.53v2.286l1.552-2.286h.53v3.021h-.53v-2.286zm3.103 2.286v-1.225c-.367.082-.612.123-.898.123-.653 0-.98-.286-.98-.94v-.98h.531v.899c0 .45.204.612.653.612.204 0 .45-.04.735-.081v-1.388h.531v3.02h-.572v-.04zm1.714-1.347c0 .653.49.98.939.98.449 0 .694-.204.816-.49h.531c-.122.53-.612.939-1.347.939-.98 0-1.47-.694-1.47-1.593 0-.98.653-1.592 1.47-1.592.939 0 1.47.776 1.429 1.756h-2.368zm0-.45h1.796c0-.407-.326-.857-.857-.857-.49 0-.898.245-.94.858zm5.472-.244h-.531c-.081-.368-.367-.613-.775-.613-.45 0-.858.368-.858 1.103 0 .776.408 1.143.858 1.143.449 0 .734-.286.816-.612h.531a1.37 1.37 0 0 1-1.347 1.061c-.858 0-1.43-.653-1.43-1.592 0-.898.572-1.593 1.47-1.593.776.041 1.225.613 1.266 1.103zm1.552.694h-.408v1.347h-.531v-3.021h.531v1.225h.367l.98-1.225h.613l-1.144 1.429 1.266 1.592h-.653l-1.021-1.347zm4.776-.163c0 1.102-.735 1.592-1.47 1.592-.694 0-1.47-.49-1.47-1.593 0-1.102.735-1.592 1.47-1.592.694 0 1.47.49 1.47 1.593zm-1.47 1.143c.449 0 .899-.368.899-1.144 0-.816-.45-1.143-.899-1.143s-.898.286-.898 1.143c0 .817.408 1.144.898 1.144zm4.165-1.92l-1.551 2.287h-.531v-3.021h.531v2.286l1.551-2.286h.531v3.021h-.531v-2.286zm.164-1.795c-.041.326-.245.694-.898.694-.613 0-.858-.327-.899-.694h.409c.04.163.163.326.49.326.326 0 .49-.163.49-.326h.408z" fill="#fff"/></svg>