<svg fill="none" height="46" width="127" xmlns="http://www.w3.org/2000/svg" xmlns:xlink="http://www.w3.org/1999/xlink"><linearGradient id="a" gradientUnits="userSpaceOnUse" x1="-3.449" x2="127" y1="29.405" y2="29.405"><stop offset="0" stop-color="#fefb45"/><stop offset=".51" stop-color="#49eba0"/><stop offset="1" stop-color="#19d2fa"/></linearGradient><path d="m125.837 4.024c-1.209-.77-2.784-.262-3.749 1.063-1.489 2.044-4.272 5.675-10.14 5.675-3.503 0-5.822-1.759-5.822-3.586 0-1.047.954-1.75 2.156-1.75 2.334 0 4.842 2.327 5.736 4.034.78.05 2.073-.188 2.905-.7.78-.481 1.621-1.949.725-3.176-.896-1.228-4.599-5.176-9.556-5.176-3.578 0-7.33 2.379-7.33 6.737s4.177 8.633 11.233 8.633c1.827 0 3.569-.373 3.64-.388 0 4.037-3.609 8.996-9.299 8.996-5.689 0-9.278-4.96-9.278-9.155 0-3.537 1.507-5.593 1.507-5.593a2.602 2.602 0 0 0 -.732-3.444 2.592 2.592 0 0 0 -3.617.617c-1.398 1.978-2.523 4.867-2.523 8.216 0 7.5 6.259 14.378 14.644 14.378 8.384 0 14.675-6.879 14.675-14.599 0-.514-.038-1.027-.097-1.537 2.058-1.308 4.102-3.114 5.625-5.514.827-1.302.506-2.96-.703-3.73zm-105.4.921c-1.58-3.888-3.917-4.537-5.927-4.537-2.008 0-4.347.649-5.927 4.537l-8.38 20.64a2.784 2.784 0 0 0 -.203 1.039c0 1.488 1.225 2.78 2.743 2.78a2.79 2.79 0 0 0 2.6-1.737l8.35-21.295c.253-.647.52-.758.817-.758.296 0 .563.11.818.758l8.35 21.295a2.79 2.79 0 0 0 2.599 1.737c1.518 0 2.743-1.292 2.743-2.78 0-.346-.065-.699-.203-1.04l-8.38-20.64zm38.698 14.605c-1.115-.733-2.283-.473-3.343.695s-3.597 3.964-8.673 3.964c-5.204 0-7.708-3.013-8.597-4.641 1.042.205 2.956.425 5.227.425 8.548 0 14.316-4.851 14.316-11.253 0-5.311-4.607-8.335-10.623-8.335-9.032 0-15.303 7.098-15.303 15.222 0 7.9 6.396 13.778 15.145 13.778 7.596 0 11.839-5.279 12.545-6.506.707-1.229.42-2.617-.694-3.35zm-11.933-14.118c3.348 0 5.493 1.296 5.493 3.366 0 3.962-5.658 6.353-10.532 6.353-2.464 0-3.444-.167-4.646-.571.06-4.776 4.32-9.148 9.685-9.148zm40.499-4.554h-23.316a2.506 2.506 0 0 0 -2.504 2.508 2.506 2.506 0 0 0 2.504 2.508h8.975v20.824a2.685 2.685 0 0 0 2.683 2.687 2.685 2.685 0 0 0 2.682-2.687v-20.824h8.976a2.506 2.506 0 0 0 2.504-2.508 2.506 2.506 0 0 0 -2.505-2.508z" fill="url(#a)"/><path d="m17.53 37.885c-.13-.14-.24-.19-.41-.19-.26 0-.47.21-.47.49 0 .12.04.24.14.35l2.23 2.35-2.51 2.82c-.08.09-.11.19-.11.31 0 .27.22.5.49.5.17 0 .31-.08.48-.26l2.63-2.98c.12-.13.17-.24.17-.39 0-.13-.05-.25-.18-.39zm3.42-.19c-.3 0-.53.23-.53.54v5.74c0 .31.23.54.53.54s.53-.23.53-.54v-5.74c0-.31-.22-.54-.53-.54zm4.44 6.01-2.51-2.81 2.23-2.36c.1-.11.15-.23.15-.35 0-.28-.22-.49-.48-.49-.17 0-.28.05-.41.19l-2.47 2.61c-.12.13-.18.26-.18.39s.06.26.17.39l2.65 2.98c.16.18.3.26.47.26a.5.5 0 0 0 .49-.5c0-.12-.03-.22-.11-.31zm6.353-6.01c-.23 0-.35.1-.47.27l-3.49 4.57v-4.3c0-.31-.22-.54-.53-.54-.3 0-.53.23-.53.54v5.76c0 .29.24.52.53.52.18 0 .31-.06.43-.22l3.52-4.59v4.27c0 .31.23.54.53.54.31 0 .53-.23.53-.54v-5.76c0-.29-.23-.52-.52-.52zm6.517.11h-2.95c-.31 0-.55.23-.55.55v.53c0 2.84-.46 4.31-1.45 4.65-.22.08-.36.25-.36.48 0 .27.21.47.48.47.15 0 .28-.04.45-.13 1.26-.5 1.9-2.35 1.92-5.6h1.94v5.22c0 .31.23.54.53.54.31 0 .53-.23.53-.54v-5.62c0-.32-.23-.55-.54-.55zm5.263-.11c-1.94 0-3.46 1.5-3.46 3.41s1.52 3.41 3.46 3.41 3.47-1.5 3.47-3.41c0-1.9-1.53-3.41-3.47-3.41zm.01.97c1.36 0 2.37 1.04 2.37 2.43 0 1.41-1.01 2.45-2.37 2.45-1.37 0-2.37-1.03-2.37-2.45 0-1.4 1-2.43 2.37-2.43zm7.413-1.55c.84 0 1.59-.63 1.59-1.33 0-.24-.17-.43-.42-.43-.19 0-.32.12-.4.35-.11.38-.39.61-.77.61-.36 0-.64-.22-.76-.61-.09-.24-.22-.35-.41-.35-.24 0-.42.19-.42.43 0 .71.76 1.33 1.59 1.33zm2.34.58c-.23 0-.35.1-.47.27l-3.49 4.57v-4.3c0-.31-.22-.54-.53-.54-.3 0-.53.23-.53.54v5.76c0 .29.24.52.53.52.18 0 .31-.06.43-.22l3.52-4.59v4.27c0 .31.23.54.53.54.31 0 .53-.23.53-.54v-5.76c0-.29-.23-.52-.52-.52zm5.51 0c-.31 0-.53.23-.53.54v5.74c0 .31.23.54.53.54s.53-.23.53-.54v-5.74c0-.31-.23-.54-.53-.54zm4.51 5.98-2.57-2.79 2.31-2.32c.13-.14.18-.25.18-.39 0-.27-.21-.48-.48-.48-.15 0-.26.06-.39.19l-2.63 2.65c-.1.11-.16.23-.16.35 0 .13.06.25.16.36l2.83 3.06c.13.14.27.21.43.21.26 0 .49-.22.49-.49 0-.13-.05-.23-.17-.35zm3.967-5.98c-1.94 0-3.46 1.5-3.46 3.41s1.52 3.41 3.46 3.41 3.47-1.5 3.47-3.41c0-1.9-1.53-3.41-3.47-3.41zm.01.97c1.36 0 2.37 1.04 2.37 2.43 0 1.41-1.01 2.45-2.37 2.45-1.37 0-2.37-1.03-2.37-2.45 0-1.4 1-2.43 2.37-2.43zm10.483-.97c-.23 0-.38.1-.58.43l-2.04 3.2-2.04-3.2c-.2-.33-.35-.43-.58-.43-.29 0-.51.23-.51.54v5.74c0 .31.23.54.53.54s.53-.23.53-.54v-4.02l1.54 2.42c.15.25.31.35.53.35s.37-.1.53-.35l1.54-2.42v4.02c0 .31.23.54.53.54s.53-.23.53-.54v-5.74c0-.31-.22-.54-.51-.54zm2.7 6.82c.3 0 .53-.23.53-.54v-5.22h3.08v5.22c0 .31.22.54.53.54.3 0 .53-.23.53-.54v-5.62c0-.32-.24-.55-.55-.55h-4.1a.53.53 0 0 0 -.55.55v5.62c0 .31.23.54.53.54zm10.665-6.71h-2.95c-.31 0-.55.23-.55.55v.53c0 2.84-.46 4.31-1.45 4.65-.22.08-.36.25-.36.48 0 .27.21.47.48.47.15 0 .28-.04.45-.13 1.26-.5 1.9-2.35 1.92-5.6h1.94v5.22c0 .31.23.54.53.54.31 0 .53-.23.53-.54v-5.62c0-.32-.23-.55-.54-.55zm2.713 6.6h3.51c.28 0 .49-.21.49-.48s-.21-.47-.49-.47h-2.96v-2.09h2.05c.27 0 .47-.2.47-.46s-.2-.46-.47-.46h-2.05v-1.69h2.84c.28 0 .49-.2.49-.47s-.21-.48-.49-.48h-3.39a.5.5 0 0 0 -.51.51v5.58c0 .29.22.51.51.51zm5.713-6.71c-.31 0-.53.23-.53.54v5.74c0 .31.23.54.53.54s.53-.23.53-.54v-5.74c0-.31-.23-.54-.53-.54zm4.51 5.98-2.57-2.79 2.31-2.32c.13-.14.18-.25.18-.39 0-.27-.21-.48-.48-.48-.15 0-.26.06-.39.19l-2.63 2.65c-.1.11-.16.23-.16.35 0 .13.06.25.16.36l2.83 3.06c.13.14.27.21.43.21.26 0 .49-.22.49-.49 0-.13-.05-.23-.17-.35zm3.978.84c1.03 0 1.98-.43 2.56-1.15.13-.17.18-.29.18-.42 0-.26-.22-.48-.49-.48-.17 0-.31.07-.43.21-.48.57-1.09.87-1.81.87-1.37 0-2.38-1.04-2.38-2.44s1.01-2.44 2.38-2.44c.73 0 1.34.29 1.82.87.12.14.26.21.42.21.27 0 .49-.22.49-.48 0-.14-.05-.26-.17-.42-.6-.72-1.55-1.15-2.57-1.15-1.95 0-3.47 1.49-3.47 3.41s1.52 3.41 3.47 3.41z" fill="#000"/></svg>