<svg width="496" height="161" viewBox="0 0 496 161" fill="none" xmlns="http://www.w3.org/2000/svg">
<path fill-rule="evenodd" clip-rule="evenodd" d="M28.6184 48.0277C32.1606 48.1709 45.1234 49.1372 59.1116 55.6566L45.0018 86.9283L28.6184 48.0277ZM60.0532 56.1032C70.3256 61.0605 81.047 69.0516 88.9221 81.9331L65.1175 134.691L45.5536 88.2386L60.0532 56.1032ZM89.574 83.0218C91.1184 85.6557 92.545 88.4876 93.8274 91.5326C110.638 131.448 89.9236 177.705 86.3593 185.128L65.6694 136.002L89.574 83.0218ZM85.4875 186.027C80.8415 184.367 33.184 166.587 13.6046 128.985L71.261 152.247L85.4875 186.027ZM12.9089 127.617C12.2112 126.21 11.553 124.777 10.9378 123.316C6.26614 112.224 5.06085 101.895 5.85892 92.6607L54.4167 112.252L70.7091 150.937L12.9089 127.617ZM5.95846 91.6131C8.5208 66.8839 25.3084 50.2398 27.4456 48.2117L53.8648 110.942L5.95846 91.6131Z" fill="#9EE5A6"/>
<path d="M249.467 109.108C250.595 99.5024 260.035 91.5812 261.164 81.9755C263.226 69.1733 251.029 57.8339 249.771 44.1978C249.771 44.1978 249.771 44.1978 248.911 44.9908C248.051 45.7837 248.051 45.7837 247.19 46.5766C246.33 47.3696 245.494 47.3614 244.634 48.1543C243.773 48.9473 242.937 48.9391 242.077 49.732C241.216 50.525 240.38 50.5167 238.684 51.3015C237.824 52.0944 236.152 52.078 235.316 52.0698C234.48 52.0616 232.783 52.8463 231.947 52.8381C231.112 52.8299 229.415 53.6146 228.579 53.6064C227.743 53.5982 226.071 53.5818 225.235 53.5736C224.399 53.5653 223.563 53.5571 222.727 53.5489C221.891 53.5407 221.055 53.5325 220.219 53.5243C219.383 53.5161 218.547 53.5079 218.547 53.5079C217.711 53.4996 216.875 53.4914 216.875 53.4914C216.875 53.4914 217.711 53.4996 218.547 53.5079C219.383 53.5161 221.055 53.5325 222.752 52.7478C223.588 52.756 224.424 52.7642 225.26 52.7724C226.096 52.7806 226.932 52.7888 228.628 52.0041C229.464 52.0123 231.16 51.2276 231.996 51.2358C232.832 51.244 234.529 50.4593 235.365 50.4675C236.201 50.4757 237.897 49.6909 238.733 49.6992C239.569 49.7074 241.265 48.9226 242.101 48.9308C242.962 48.1379 243.798 48.1461 244.658 47.3532C245.518 46.5602 246.354 46.5684 247.215 45.7755C248.075 44.9825 249.747 44.999 250.607 44.206L250.632 43.4049C250.9 34.5921 256.16 26.6298 254.757 17.8006C254.116 11.3832 250.107 5.73398 244.328 3.27301C238.55 0.812048 231.862 0.746347 226.773 3.10055C218.291 7.02422 212.934 18.1912 202.829 20.4961C196.928 22.0409 189.477 19.5635 184.364 22.7189C179.25 25.8742 178.244 31.4741 175.589 36.2565L175.565 37.0576C175.516 38.6599 176.303 40.2705 177.09 41.881C177.066 42.6822 177.853 44.2927 177.829 45.0938C177.78 46.6962 178.591 47.5055 178.543 49.1079C179.33 50.7184 179.305 51.5195 180.092 53.1301C180.88 54.7406 180.855 55.5418 181.642 57.1523C182.43 58.7628 182.405 59.564 183.192 61.1745C183.98 62.785 183.955 63.5862 184.742 65.1967C185.529 66.8073 185.505 67.6084 186.317 68.4178C187.128 69.2272 187.079 70.8295 187.891 71.6389C188.678 73.2494 189.465 74.8599 190.252 76.4705C191.064 77.2798 191.04 78.081 191.04 78.081C191.04 78.081 190.228 77.2716 189.416 76.4622C188.605 75.6529 188.605 75.6529 187.793 74.8435C186.982 74.0341 187.006 73.233 186.195 72.4236C185.383 71.6142 184.571 70.8048 184.62 69.2025C183.809 68.3932 183.022 66.7826 183.046 65.9815C182.259 64.3709 181.447 63.5616 181.496 61.9592C180.709 60.3487 180.733 59.5476 179.946 57.937C179.159 56.3265 179.183 55.5253 178.396 53.9148C177.609 52.3043 177.633 51.5031 177.682 49.9008C177.731 48.2985 176.919 47.4891 176.968 45.8868C177.017 44.2845 176.205 43.4751 176.23 42.6739C176.254 41.8728 176.303 40.2705 176.328 39.4693C176.352 38.6682 176.376 37.867 176.401 37.0658C176.401 37.0658 176.401 37.0658 176.425 36.2647C175.516 38.6599 173.795 40.2458 172.074 41.8317C165.24 46.573 154.495 42.4604 146.849 46.3923C140.899 49.5394 139.032 55.9323 137.165 62.3251C134.462 68.7098 134.266 75.119 129.94 79.8849C123.869 87.0379 112.092 89.3264 108.479 98.1063C105.752 105.292 110.499 114.154 107.771 121.34C104.135 130.921 89.7767 135.588 90.2954 146.012C90.9117 153.23 100.797 158.136 100.577 165.346C100.48 168.551 98.7101 171.739 98.6125 174.944C97.5569 182.146 104.885 188.629 112.36 190.305C118.188 191.164 123.228 190.412 129.104 189.668C132.595 184.894 135.273 179.311 137.952 173.727C137.952 173.727 137.092 174.52 136.256 174.512C135.395 175.305 134.559 175.297 133.724 175.289C132.888 175.28 132.027 176.073 131.191 176.065C130.355 176.057 129.495 176.85 127.823 176.833C126.987 176.825 126.151 176.817 124.455 177.602C123.619 177.593 122.783 177.585 121.111 177.569C120.275 177.561 119.439 177.552 118.603 177.544C117.767 177.536 116.931 177.528 116.095 177.52C115.259 177.511 114.423 177.503 114.447 176.702C113.611 176.694 113.611 176.694 112.8 175.884C111.964 175.876 111.152 175.067 111.152 175.067C111.152 175.067 111.988 175.075 112.824 175.083C113.66 175.091 115.332 175.108 116.168 175.116C117.004 175.124 117.84 175.132 118.676 175.141C119.512 175.149 120.348 175.157 121.184 175.165C122.02 175.174 122.856 175.182 123.692 175.19C124.528 175.198 125.364 175.206 126.224 174.413C127.06 174.422 127.92 173.629 128.756 173.637C129.592 173.645 130.453 172.852 131.289 172.86C132.125 172.869 132.985 172.076 133.821 172.084C134.657 172.092 135.517 171.299 136.353 171.307L137.189 171.316C144.146 162.569 148.594 153.797 153.878 145.033C158.327 136.262 163.587 128.299 168.035 119.528C173.295 111.565 177.743 102.794 182.979 95.6326C188.239 87.6702 192.638 80.5009 197.874 73.3397C198.759 71.7456 199.619 70.9527 200.504 69.3586C200.528 68.5574 199.692 68.5492 198.881 67.7398C198.069 66.9305 198.093 66.1293 197.282 65.3199C196.495 63.7094 194.872 62.0906 194.109 59.679C193.297 58.8696 193.346 57.2673 192.535 56.4579C191.723 55.6485 191.772 54.0462 190.96 53.2368C190.173 51.6263 190.197 50.8251 189.41 49.2146C188.623 47.6041 188.648 46.8029 188.696 45.2006C187.934 42.7889 188.007 40.3854 188.056 38.7831C188.08 37.982 188.104 37.1808 188.129 36.3796C188.153 35.5785 188.178 34.7773 188.202 33.9762C188.226 33.175 188.251 32.3739 188.251 32.3739C188.251 32.3739 189.014 34.7855 189.728 38.7996C189.703 39.6007 190.515 40.4101 190.466 42.0124C190.442 42.8136 191.229 44.4241 191.204 45.2252C191.18 46.0264 191.967 47.6369 191.943 48.4381C191.918 49.2393 192.705 50.8498 193.517 51.6592C194.329 52.4685 194.28 54.0708 195.091 54.8802C195.903 55.6896 195.854 57.2919 196.666 58.1013C197.477 58.9106 197.428 60.513 198.24 61.3223C199.052 62.1317 199.027 62.9329 199.839 63.7422C200.626 65.3528 201.413 66.9633 202.225 67.7727C205.715 62.9986 209.23 57.4233 212.696 53.4504C212.696 53.4504 212.72 52.6492 211.884 52.641C211.884 52.641 211.072 51.8316 211.097 51.0305C210.285 50.2211 210.285 50.2211 209.474 49.4117C208.687 47.8012 207.899 46.1907 206.276 44.5719C205.465 43.7625 205.489 42.9614 204.702 41.3509C203.89 40.5415 203.939 38.9392 203.128 38.1298C203.152 37.3286 202.365 35.7181 202.389 34.9169C202.414 34.1158 201.626 32.5053 201.651 31.7041C200.888 29.2924 200.937 27.6901 200.986 26.0878C201.01 25.2866 201.035 24.4855 201.059 23.6843C201.083 22.8831 201.108 22.082 201.108 22.082C201.132 21.2808 201.157 20.4797 201.157 20.4797C201.157 20.4797 201.132 21.2808 201.944 22.0902C201.919 22.8913 202.707 24.5019 202.658 26.1042C202.633 26.9054 203.445 27.7147 203.42 28.5159C203.396 29.317 204.208 30.1264 204.159 31.7287C204.946 33.3393 205.709 35.751 206.472 38.1626C207.234 40.5743 208.021 42.1849 208.784 44.5966C208.76 45.3977 209.571 46.2071 209.547 47.0082C209.523 47.8094 210.334 48.6188 210.31 49.4199C211.097 51.0305 211.884 52.641 211.86 53.4422L211.835 54.2433C211.835 54.2433 211.835 54.2433 211.86 53.4422C216.21 47.8751 220.561 42.3081 224.051 37.534C227.542 32.7599 231.008 28.7869 233.613 25.6069C236.219 22.4269 238.8 20.0481 239.709 17.6528C241.43 16.0669 242.29 15.274 242.29 15.274C242.29 15.274 241.43 16.0669 239.709 17.6528C237.988 19.2387 236.219 22.4269 233.613 25.6069C231.893 27.1928 230.983 29.5881 229.238 31.9751C230.074 31.9833 230.935 31.1904 231.77 31.1986C232.606 31.2068 233.467 30.4139 235.139 30.4303C235.975 30.4385 237.671 29.6538 238.507 29.662C239.343 29.6702 239.343 29.6702 240.203 28.8772C241.039 28.8855 241.039 28.8855 241.9 28.0925C242.76 27.2996 243.596 27.3078 244.457 26.5148C245.317 25.7219 246.153 25.7301 246.177 24.9289C247.013 24.9371 247.038 24.136 247.038 24.136C247.038 24.136 247.038 24.136 247.013 24.9371C246.989 25.7383 246.129 26.5313 245.293 26.523C244.432 27.316 243.572 28.1089 242.711 28.9019C241.851 29.6948 240.179 29.6784 239.319 30.4713C237.647 30.4549 236.786 31.2479 235.114 31.2314C234.278 31.2232 232.606 31.2068 231.77 31.1986C230.099 31.1822 229.263 31.174 228.427 31.1657C226.706 32.7516 225.797 35.1469 224.051 37.534C220.561 42.3081 216.21 47.8751 212.671 54.2515C208.296 60.6197 203.921 66.9879 199.521 74.1573C195.122 81.3267 189.886 88.4878 185.462 96.4584C181.038 104.429 175.779 112.391 171.33 121.163C166.906 129.133 161.622 137.897 157.174 146.669C149.186 161.817 142.034 176.973 133.235 191.312C131.271 200.909 135.969 211.374 144.158 217.064C153.183 222.762 166.583 222.092 175.162 214.964C180.325 210.206 184.7 203.838 191.436 202.302C196.501 200.749 201.444 203.201 206.533 200.847C211.622 198.493 213.465 192.901 213.611 188.094C213.758 183.287 213.928 177.679 215.747 172.889C222.062 157.724 246.379 155.559 251.023 140.378C256.356 130.012 248.313 119.515 249.467 109.108ZM139.057 164.923C138.221 164.915 136.524 165.699 134.852 165.683C133.18 165.666 131.484 166.451 128.976 166.427C128.14 166.418 126.468 166.402 125.632 166.394C124.796 166.385 123.124 166.369 122.288 166.361C121.452 166.353 119.78 166.336 118.944 166.328C118.108 166.32 116.436 166.303 115.625 165.494C113.117 165.469 111.469 164.652 109.822 163.834C109.01 163.025 107.363 162.207 106.527 162.199C105.691 162.191 104.879 161.381 104.879 161.381C104.879 161.381 105.715 161.39 106.551 161.398C107.387 161.406 109.059 161.422 110.707 162.24C112.379 162.256 114.051 162.273 116.534 163.099C119.042 163.123 120.714 163.14 123.198 163.966C125.705 163.99 127.377 164.007 129.885 164.031C132.393 164.056 134.065 164.072 135.737 164.089C136.573 164.097 138.245 164.113 139.057 164.923C139.917 164.13 140.729 164.939 140.729 164.939C140.729 164.939 140.753 164.138 139.057 164.923ZM140.851 160.933C140.015 160.925 139.179 160.917 138.343 160.909C137.507 160.901 136.671 160.892 135.835 160.884C134.163 160.868 131.679 160.042 129.171 160.017C128.335 160.009 126.688 159.191 125.016 159.175C123.344 159.159 122.532 158.349 120.86 158.333C119.213 157.515 118.377 157.507 116.729 156.689C116.778 155.087 115.106 155.071 114.295 154.261C111.811 153.436 110.188 151.817 108.54 150.999C107.729 150.19 106.893 150.182 106.081 149.372C105.27 148.563 104.434 148.555 104.434 148.555C103.622 147.745 102.786 147.737 102.786 147.737C102.786 147.737 105.27 148.563 108.565 150.198C109.401 150.206 110.212 151.016 111.884 151.032C112.696 151.841 114.368 151.858 115.179 152.667C117.663 153.493 120.146 154.319 122.63 155.145C125.114 155.97 127.597 156.796 130.081 157.622C130.917 157.63 132.564 158.448 133.4 158.456C134.236 158.464 135.884 159.282 136.72 159.29C138.392 159.306 140.039 160.124 140.851 160.933C141.687 160.942 142.523 160.95 142.523 160.95C142.523 160.95 142.523 160.95 140.851 160.933ZM142.718 154.541C141.882 154.532 141.046 154.524 140.234 153.715C139.398 153.707 138.587 152.897 137.751 152.889C136.915 152.881 135.267 152.063 134.431 152.055C133.62 151.246 131.948 151.229 131.136 150.42C130.325 149.61 128.653 149.594 127.841 148.785C125.358 147.959 124.546 147.149 123.734 146.34C122.923 145.531 121.275 144.713 120.464 143.904C119.652 143.094 118.005 142.277 117.193 141.467C115.57 139.849 114.758 139.039 113.947 138.23C113.135 137.421 112.324 136.611 111.512 135.802C110.7 134.992 109.889 134.183 109.913 133.382C109.102 132.573 109.126 131.771 108.29 131.763C107.479 130.954 107.503 130.153 107.503 130.153C107.503 130.153 108.315 130.962 109.126 131.771C109.938 132.581 111.585 133.398 113.208 135.017C114.02 135.826 114.832 136.636 115.643 137.445C115.619 138.246 117.266 139.064 118.078 139.873C118.889 140.683 120.537 141.5 121.349 142.31C122.16 143.119 123.808 143.937 124.619 144.746C125.431 145.555 127.078 146.373 127.89 147.182C128.701 147.992 130.349 148.809 131.185 148.817C131.997 149.627 133.644 150.444 134.48 150.453C135.292 151.262 136.964 151.278 137.775 152.088C140.259 152.914 141.906 153.731 142.718 154.541C144.39 154.557 144.39 154.557 144.39 154.557C144.39 154.557 143.554 154.549 142.718 154.541ZM148.936 142.581C148.124 141.771 146.477 140.954 144.829 140.136C143.182 139.319 140.698 138.493 138.239 136.866C136.591 136.048 135.755 136.04 134.108 135.222C132.46 134.405 131.624 134.397 129.977 133.579C128.329 132.761 127.518 131.952 125.87 131.134C124.198 131.118 123.387 130.309 122.575 129.499C121.763 128.69 120.952 127.881 120.165 126.27C119.353 125.461 118.542 124.651 117.754 123.041C116.107 122.223 115.32 120.613 114.533 119.002C113.721 118.193 113.745 117.392 113.745 117.392C113.745 117.392 114.557 118.201 115.369 119.01C116.18 119.82 117.803 121.438 118.59 123.049C120.214 124.668 121.837 126.286 123.46 127.905C124.271 128.715 125.919 129.532 126.731 130.342C127.542 131.151 129.19 131.968 130.026 131.977C131.673 132.794 132.509 132.802 134.157 133.62C135.804 134.438 136.64 134.446 138.288 135.263C139.935 136.081 140.771 136.089 141.583 136.899C142.394 137.708 144.042 138.526 144.878 138.534C146.501 140.153 148.124 141.771 148.936 142.581C149.772 142.589 149.747 143.39 150.583 143.398L150.559 144.199C150.559 144.199 149.747 143.39 148.936 142.581ZM152.573 133C151.761 132.19 150.113 131.373 148.466 130.555C146.818 129.737 145.195 128.119 142.736 126.492C141.925 125.682 140.277 124.865 139.465 124.055C138.654 123.246 137.006 122.428 136.195 121.619C135.383 120.81 134.572 120 132.924 119.183C132.112 118.373 131.301 117.564 130.489 116.755C128.866 115.136 127.243 113.517 125.62 111.898C123.997 110.28 123.21 108.669 122.398 107.86C121.586 107.05 121.611 106.249 121.611 106.249C121.611 106.249 122.422 107.059 123.234 107.868C124.046 108.677 125.693 109.495 126.48 111.105C128.103 112.724 129.727 114.343 131.35 115.962C132.973 117.58 135.432 119.207 137.055 120.826C138.678 122.445 141.137 124.072 142.76 125.691C144.384 127.309 146.007 128.928 147.63 130.547C150.974 130.58 152.597 132.198 152.573 133C153.384 133.809 154.22 133.817 154.22 133.817C154.22 133.817 154.22 133.817 152.573 133ZM161.225 123.468C160.389 123.46 159.578 122.65 158.742 122.642C157.906 122.634 157.93 121.833 157.094 121.824C156.258 121.816 156.283 121.015 155.447 121.007C154.611 120.999 154.635 120.197 153.799 120.189C152.963 120.181 152.987 119.38 152.151 119.372C150.504 118.554 149.692 117.745 148.045 116.927C146.397 116.11 145.586 115.3 143.963 113.681C142.315 112.864 141.528 111.253 140.716 110.444C139.929 108.833 138.282 108.016 137.494 106.405C136.707 104.795 135.896 103.985 134.273 102.367C133.485 100.756 132.674 99.9468 131.887 98.3362C131.911 97.5351 131.099 96.7257 131.099 96.7257C131.124 95.9245 130.288 95.9163 130.312 95.1152C130.337 94.314 129.501 94.3058 129.525 93.5046C129.55 92.7035 129.55 92.7035 128.738 91.8941C128.762 91.0929 127.951 90.2836 127.975 89.4824C127.188 87.8719 127.212 87.0707 127.212 87.0707C127.212 87.0707 127.188 87.8719 127.975 89.4824C127.951 90.2836 128.762 91.0929 129.574 91.9023C130.386 92.7117 130.361 93.5128 131.148 95.1234C131.96 95.9327 132.747 97.5433 133.559 98.3526C134.37 99.162 135.157 100.773 135.969 101.582C136.78 102.391 137.568 104.002 139.191 105.621C139.978 107.231 141.625 108.049 142.437 108.858C143.249 109.667 144.872 111.286 145.683 112.096C146.495 112.905 148.118 114.524 148.93 115.333C149.741 116.142 151.389 116.96 152.2 117.769C153.012 118.579 154.659 119.396 155.471 120.206C156.283 121.015 157.094 121.824 157.93 121.833C159.602 121.849 160.414 122.658 161.225 123.468C162.897 123.484 163.709 124.294 163.709 124.294C163.709 124.294 162.061 123.476 161.225 123.468ZM167.394 113.11C166.558 113.102 165.747 112.293 164.911 112.284C164.099 111.475 163.263 111.467 162.452 110.657C161.64 109.848 159.993 109.031 159.181 108.221C158.369 107.412 156.722 106.594 155.91 105.785C155.099 104.975 153.451 104.158 152.664 102.547C151.852 101.738 150.229 100.119 149.418 99.3098C148.606 98.5005 146.983 96.8817 146.171 96.0724C145.36 95.263 143.737 93.6442 142.925 92.8349C142.114 92.0255 141.326 90.415 140.515 89.6056C139.703 88.7962 138.916 87.1857 138.105 86.3763C137.293 85.567 136.481 84.7576 136.506 83.9564C134.883 82.3377 134.907 81.5365 134.096 80.7271C133.308 79.1166 133.308 79.1166 133.308 79.1166C133.308 79.1166 134.12 79.926 134.932 80.7354C135.743 81.5447 137.366 83.1635 138.989 84.7822C139.801 85.5916 140.613 86.401 141.4 88.0115C142.211 88.8209 142.998 90.4314 143.81 91.2408C144.622 92.0501 146.245 93.6689 147.056 94.4783C147.868 95.2876 149.491 96.9064 150.303 97.7157C151.114 98.5251 152.737 100.144 153.549 100.953C154.36 101.763 155.984 103.381 156.795 104.191C158.443 105.008 159.254 105.818 160.066 106.627C160.877 107.436 162.525 108.254 163.336 109.063C164.96 110.682 166.607 111.5 167.394 113.11C169.042 113.928 169.042 113.928 169.042 113.928C169.042 113.928 169.042 113.928 167.394 113.11ZM174.375 103.562C173.539 103.554 172.727 102.744 171.916 101.935C171.104 101.126 170.268 101.117 169.457 100.308C168.645 99.4987 166.998 98.6811 166.186 97.8718C165.375 97.0624 163.727 96.2448 162.94 94.6343C162.128 93.8249 160.505 92.2062 159.694 91.3968C158.882 90.5874 157.259 88.9687 156.472 87.3582C155.684 85.7476 154.873 84.9383 153.25 83.3195C152.463 81.709 151.651 80.8996 150.864 79.2891C150.077 77.6786 149.265 76.8692 148.478 75.2587C147.691 73.6481 147.715 72.847 146.904 72.0376C146.092 71.2282 146.141 69.6259 146.165 68.8247C146.19 68.0236 145.378 67.2142 145.403 66.4131C145.451 64.8107 144.64 64.0014 144.64 64.0014C144.64 64.0014 144.615 64.8025 145.427 65.6119C145.403 66.4131 146.214 67.2224 146.19 68.0236C147.001 68.833 146.977 69.6341 147.764 71.2447C148.576 72.054 149.363 73.6645 149.338 74.4657C150.15 75.2751 150.937 76.8856 151.724 78.4961C152.511 80.1067 153.323 80.916 154.11 82.5266C154.897 84.1371 155.709 84.9465 157.332 86.5652C158.955 88.184 159.767 88.9933 161.39 90.6121C162.201 91.4214 163.825 93.0402 164.636 93.8496C165.448 94.6589 167.071 96.2777 167.882 97.087C168.694 97.8964 169.506 98.7058 171.153 99.5234C171.965 100.333 172.776 101.142 173.588 101.951C173.563 102.753 174.399 102.761 174.375 103.562C176.023 104.38 176.023 104.38 176.023 104.38C176.023 104.38 175.187 104.371 174.375 103.562ZM178.207 87.5717C176.608 85.1518 175.01 82.7319 173.411 80.312C172.624 78.7015 171.812 77.8921 171.025 76.2816C169.402 74.6628 168.615 73.0523 167.827 71.4418C167.04 69.8312 166.253 68.2207 165.442 67.4113C164.654 65.8008 163.867 64.1903 163.056 63.3809C162.269 61.7704 161.457 60.961 160.67 59.3505C159.883 57.7399 159.071 56.9306 159.12 55.3282C158.333 53.7177 158.357 52.9165 158.382 52.1154C158.406 51.3142 158.455 49.7119 158.455 49.7119C158.479 48.9107 158.504 48.1096 158.504 48.1096L158.528 47.3084C158.528 47.3084 158.528 47.3084 158.504 48.1096C158.504 48.1096 158.479 48.9107 158.455 49.7119C158.406 51.3142 159.193 52.9248 159.956 55.3364C161.555 57.7563 163.153 60.1762 164.752 62.5962C165.539 64.2067 166.351 65.0161 167.138 66.6266C167.925 68.2371 168.712 69.8476 169.524 70.657C170.311 72.2675 171.098 73.8781 171.91 74.6874C172.697 76.298 173.484 77.9085 174.296 78.7179C175.894 81.1378 177.469 84.3588 178.256 85.9694C180.617 90.801 182.216 93.2209 182.216 93.2209C182.216 93.2209 181.429 91.6103 178.207 87.5717ZM223.215 37.5257C223.215 37.5257 222.428 35.9152 221.666 33.5035C221.69 32.7024 220.903 31.0918 220.952 29.4895C221 27.8872 220.213 26.2767 220.262 24.6743C219.45 23.865 219.499 22.2627 219.548 20.6603C219.573 19.8592 219.597 19.058 219.621 18.2569C219.646 17.4557 219.67 16.6545 219.695 15.8534C219.719 15.0522 219.743 14.2511 220.579 14.2593C220.604 13.4581 221.44 13.4663 221.44 13.4663L222.276 13.4746C222.276 13.4746 221.44 13.4663 221.415 14.2675C221.415 14.2675 221.391 15.0687 220.555 15.0604C220.555 15.0604 220.531 15.8616 220.506 16.6628C220.482 17.4639 221.269 19.0744 221.22 20.6768C221.171 22.2791 221.958 23.8896 221.91 25.4919C221.861 27.0942 222.648 28.7048 222.599 30.3071C222.55 31.9094 222.502 33.5117 223.313 34.3211C223.264 35.9234 223.215 37.5257 223.215 37.5257ZM163.038 201.221L162.202 201.213C161.366 201.205 161.39 200.404 160.554 200.395C159.718 200.387 159.743 199.586 158.907 199.578C157.259 198.76 156.472 197.15 154.849 195.531C154.037 194.722 153.226 193.912 153.25 193.111C152.438 192.302 152.463 191.501 151.651 190.691C150.84 189.882 150.864 189.081 150.913 187.478C150.937 186.677 150.126 185.868 150.175 184.266C149.387 182.655 149.461 180.252 149.509 178.649C147.935 175.428 147.984 173.826 147.984 173.826C147.984 173.826 147.96 174.627 148.771 175.436C148.747 176.238 149.534 177.848 150.345 178.657C151.133 180.268 151.084 181.87 151.871 183.481C151.847 184.282 152.658 185.091 152.634 185.892C152.609 186.694 153.421 187.503 153.396 188.304C154.208 189.114 154.184 189.915 154.995 190.724C155.782 192.335 155.758 193.136 156.57 193.945C157.381 194.754 157.357 195.556 158.168 196.365C158.98 197.174 158.955 197.976 159.791 197.984C160.603 198.793 160.603 198.793 161.415 199.603C161.39 200.404 162.226 200.412 163.038 201.221C163.038 201.221 163.874 201.229 163.038 201.221C163.874 201.229 163.038 201.221 163.038 201.221ZM182.412 196.603C181.576 196.595 180.764 195.786 180.764 195.786C179.928 195.777 179.116 194.968 178.305 194.159C176.657 193.341 174.198 191.714 171.739 190.087C170.928 189.278 169.28 188.46 168.468 187.651C167.657 186.841 166.009 186.024 165.198 185.215C164.386 184.405 162.739 183.588 161.951 181.977C161.14 181.168 160.328 180.358 158.705 178.74C157.082 177.121 155.483 174.701 153.86 173.082C153.049 172.273 152.237 171.463 152.261 170.662C152.261 170.662 152.261 170.662 151.45 169.853C150.638 169.044 150.663 168.242 150.663 168.242C150.663 168.242 151.474 169.052 152.286 169.861C153.097 170.67 154.721 172.289 155.532 173.099C156.344 173.908 157.155 174.717 157.967 175.527C158.778 176.336 159.59 177.145 160.402 177.955C162.025 179.574 164.484 181.201 166.083 183.62C168.542 185.247 170.165 186.866 172.624 188.493C173.435 189.302 174.247 190.112 175.895 190.929C176.706 191.739 177.518 192.548 178.329 193.357C180.813 194.183 181.624 194.993 182.412 196.603C183.248 196.611 184.059 197.421 184.059 197.421C184.059 197.421 184.084 196.62 182.412 196.603ZM193.523 188.698C193.523 188.698 192.687 188.69 191.851 188.682C191.015 188.674 190.179 188.666 189.368 187.856C188.532 187.848 187.72 187.039 186.048 187.022C183.565 186.196 181.917 185.379 179.458 183.752C178.647 182.942 176.999 182.125 176.187 181.315C175.376 180.506 173.728 179.689 172.917 178.879C172.105 178.07 170.458 177.252 169.671 175.642C168.859 174.832 168.072 173.222 166.424 172.404C164.825 169.984 163.202 168.366 161.579 166.747C159.169 163.518 157.57 161.098 157.57 161.098C157.57 161.098 158.382 161.907 159.193 162.716C160.005 163.526 161.628 165.144 162.415 166.755C164.038 168.374 165.661 169.993 167.285 171.611C168.096 172.421 168.908 173.23 170.531 174.849C171.342 175.658 172.99 176.476 173.802 177.285C174.613 178.094 176.261 178.912 177.072 179.721C177.884 180.531 179.531 181.348 180.343 182.158C181.155 182.967 182.802 183.785 183.638 183.793C184.45 184.602 186.122 184.619 186.933 185.428C187.745 186.237 188.581 186.246 189.392 187.055C190.228 187.063 191.04 187.873 191.876 187.881C193.523 188.698 193.523 188.698 193.523 188.698ZM207.265 176.812C207.265 176.812 206.429 176.804 205.593 176.796C204.757 176.788 203.921 176.78 203.085 176.771C202.249 176.763 202.249 176.763 201.413 176.755C200.577 176.747 200.577 176.747 199.741 176.738C197.258 175.913 194.774 175.087 191.479 173.452C189.832 172.634 189.02 171.825 187.372 171.007C185.725 170.19 184.913 169.38 183.266 168.563C181.618 167.745 180.807 166.936 179.184 165.317C177.536 164.499 176.724 163.69 175.937 162.079C173.478 160.453 171.879 158.033 169.396 157.207C167.797 154.787 166.15 153.969 165.338 153.16C164.526 152.351 163.715 151.541 163.715 151.541C163.715 151.541 163.715 151.541 164.551 151.549C164.551 151.549 165.387 151.558 166.198 152.367C167.846 153.185 169.494 154.002 171.141 154.82C173.6 156.447 175.223 158.065 177.682 159.692C178.494 160.502 180.142 161.319 181.789 162.137C183.437 162.955 184.248 163.764 185.871 165.383C187.519 166.2 188.33 167.01 189.978 167.827C191.626 168.645 192.437 169.454 194.085 170.272C195.732 171.089 196.544 171.899 198.216 171.915C199.027 172.724 200.699 172.741 201.511 173.55C202.322 174.36 203.994 174.376 204.83 174.384C205.666 174.392 206.478 175.202 207.314 175.21C206.454 176.003 207.265 176.812 207.265 176.812C208.101 176.821 208.101 176.821 207.265 176.812C208.101 176.821 208.101 176.821 207.265 176.812ZM217.663 164.894C217.663 164.894 216.827 164.885 215.991 164.877C215.155 164.869 214.319 164.861 213.483 164.853C212.647 164.844 210.975 164.828 210.139 164.82C207.631 164.795 204.312 163.961 201.828 163.135C200.181 162.318 198.509 162.301 196.861 161.484C195.214 160.666 193.566 159.848 191.918 159.031C190.271 158.213 188.623 157.396 187.812 156.586C186.164 155.769 185.353 154.959 183.705 154.142C181.246 152.515 178.787 150.888 177.164 149.269C173.081 146.023 170.647 143.595 170.647 143.595C170.647 143.595 171.458 144.405 172.27 145.214C173.917 146.032 175.565 146.849 177.188 148.468C179.647 150.095 181.27 151.714 184.566 153.349C186.213 154.166 187.025 154.976 188.672 155.793C190.32 156.611 191.131 157.42 192.779 158.238C194.426 159.056 196.074 159.873 196.886 160.682C198.533 161.5 200.181 162.318 201.017 162.326C202.664 163.143 203.5 163.152 205.148 163.969C206.82 163.986 207.631 164.795 209.303 164.811C210.139 164.82 211.787 165.637 212.623 165.645C213.459 165.654 214.295 165.662 215.131 165.67C216.827 164.885 217.663 164.894 217.663 164.894ZM226.389 152.958C226.389 152.958 225.528 153.751 224.692 153.743C224.692 153.743 223.856 153.735 223.832 154.536C222.996 154.528 222.996 154.528 222.16 154.52C221.324 154.511 219.652 154.495 218.816 154.487C216.308 154.462 212.989 153.628 209.694 151.993C208.858 151.985 208.046 151.175 207.21 151.167C206.374 151.159 205.563 150.35 204.727 150.341C203.079 149.524 201.431 148.706 199.784 147.889C198.136 147.071 196.489 146.253 195.677 145.444C194.03 144.626 193.218 143.817 191.571 142.999C189.111 141.373 186.652 139.746 184.193 138.119C182.57 136.5 180.947 134.881 179.299 134.064C178.488 133.254 177.676 132.445 177.676 132.445C177.676 132.445 180.971 134.08 185.078 136.525C185.89 137.334 187.537 138.151 188.349 138.961C189.996 139.778 190.808 140.588 192.455 141.405C194.103 142.223 194.915 143.032 196.562 143.85C198.21 144.668 199.857 145.485 200.669 146.294C202.316 147.112 203.964 147.93 204.775 148.739C205.611 148.747 206.423 149.557 207.259 149.565C208.095 149.573 208.906 150.382 209.742 150.391C212.202 152.018 215.521 152.852 218.029 152.876C218.865 152.884 220.537 152.901 221.373 152.909C222.209 152.917 222.209 152.917 223.045 152.925C223.881 152.934 223.881 152.934 223.881 152.934C224.692 153.743 225.553 152.95 226.389 152.958ZM233.638 134.597C232.802 134.589 231.966 134.581 231.13 134.573C230.294 134.565 230.294 134.565 229.458 134.556C228.622 134.548 228.622 134.548 227.786 134.54C226.114 134.523 225.278 134.515 223.606 134.499C221.934 134.482 220.262 134.466 218.59 134.45C216.918 134.433 215.246 134.417 213.599 133.599C211.927 133.583 210.279 132.765 208.607 132.749C206.96 131.931 205.288 131.915 203.64 131.097C201.993 130.279 200.321 130.263 198.673 129.445C197.026 128.628 195.354 128.611 194.542 127.802C192.895 126.985 192.083 126.175 190.411 126.159C189.6 125.349 187.952 124.532 187.116 124.524C186.305 123.714 185.469 123.706 184.657 122.897C183.845 122.087 183.034 121.278 183.034 121.278C183.034 121.278 183.87 121.286 185.517 122.104C186.353 122.112 187.165 122.921 188.001 122.929C188.812 123.739 189.648 123.747 191.296 124.565C192.108 125.374 193.779 125.39 195.427 126.208C197.075 127.026 197.911 127.034 199.558 127.851C201.206 128.669 202.878 128.685 204.525 129.503C206.173 130.321 207.845 130.337 209.492 131.155C211.164 131.171 212.812 131.989 214.484 132.005C216.156 132.021 217.803 132.839 219.475 132.855C221.147 132.872 222.795 133.689 224.467 133.706C226.139 133.722 226.975 133.731 228.646 133.747C230.318 133.763 231.154 133.772 231.99 133.78C231.966 134.581 232.802 134.589 233.638 134.597C235.334 133.813 236.17 133.821 236.17 133.821C236.17 133.821 235.31 134.614 233.638 134.597ZM234.077 120.177C233.241 120.168 232.405 120.16 231.569 120.152C230.733 120.144 230.733 120.144 229.897 120.135C229.061 120.127 229.061 120.127 228.225 120.119C226.553 120.103 225.717 120.094 224.046 120.078C222.374 120.062 220.702 120.045 219.866 120.037C218.194 120.02 216.522 120.004 214.874 119.186C213.202 119.17 211.555 118.352 209.883 118.336C208.235 117.518 206.563 117.502 204.916 116.684C203.268 115.867 201.596 115.85 200.785 115.041C199.137 114.223 198.325 113.414 196.654 113.398C195.006 112.58 194.194 111.771 193.358 111.762C192.547 110.953 191.735 110.144 190.899 110.136C190.088 109.326 189.252 109.318 188.44 108.509C187.653 106.898 186.817 106.89 186.817 106.89C186.817 106.89 187.653 106.898 188.465 107.707C189.301 107.716 190.112 108.525 190.948 108.533C191.76 109.343 192.596 109.351 194.243 110.168C195.055 110.978 196.727 110.994 197.538 111.804C199.186 112.621 200.022 112.629 201.669 113.447C203.317 114.265 204.989 114.281 205.8 115.09C207.448 115.908 209.12 115.924 210.767 116.742C212.439 116.758 214.087 117.576 215.759 117.592C217.431 117.609 219.078 118.426 220.75 118.443C222.422 118.459 224.07 119.277 224.906 119.285C226.578 119.301 227.414 119.31 229.086 119.326C229.922 119.334 231.594 119.351 232.43 119.359C232.405 120.16 233.241 120.168 234.077 120.177C235.774 119.392 236.585 120.201 236.585 120.201C236.585 120.201 235.749 120.193 234.077 120.177ZM243.761 104.244C242.925 104.235 242.065 105.028 241.229 105.02C240.393 105.012 240.393 105.012 239.557 105.004C238.721 104.996 238.721 104.996 237.885 104.987C237.049 104.979 236.213 104.971 236.213 104.971C235.377 104.963 234.541 104.954 233.705 104.946C232.033 104.93 230.361 104.913 229.525 104.905C227.853 104.889 226.181 104.872 224.509 104.856C222.837 104.84 221.165 104.823 219.518 104.006C217.846 103.989 216.198 103.171 214.526 103.155C212.854 103.139 211.207 102.321 209.535 102.305C207.887 101.487 206.215 101.471 205.404 100.661C203.756 99.8437 202.92 99.8355 201.273 99.0179C200.437 99.0097 200.461 98.2085 199.625 98.2003C198.789 98.1921 198.814 97.3909 197.978 97.3827C197.166 96.5733 196.33 96.5651 195.518 95.7557C194.707 94.9464 193.895 94.137 193.895 94.137C193.895 94.137 194.731 94.1452 196.379 94.9628C197.215 94.971 198.026 95.7804 198.862 95.7886C199.698 95.7968 200.51 96.6062 202.182 96.6226C203.018 96.6308 204.665 97.4484 206.337 97.4648C207.985 98.2824 208.821 98.2906 210.493 98.307C212.165 98.3235 213.812 99.1411 215.484 99.1575C217.156 99.1739 218.804 99.9915 220.476 100.008C222.148 100.024 223.795 100.842 225.467 100.858C227.139 100.875 228.811 100.891 230.483 100.908C232.155 100.924 233.827 100.94 234.663 100.949C236.335 100.965 237.171 100.973 238.843 100.99C239.679 100.998 241.351 101.014 242.187 101.023C242.089 104.227 242.925 104.235 243.761 104.244C245.457 103.459 246.293 103.467 246.293 103.467C246.293 103.467 245.433 104.26 243.761 104.244ZM246.068 83.43C245.232 83.4217 244.371 84.2147 243.535 84.2065C242.699 84.1983 241.839 84.9912 240.167 84.9748C239.331 84.9666 237.635 85.7513 236.799 85.7431C235.127 85.7267 234.266 86.5196 232.594 86.5032C230.922 86.4868 230.086 86.4786 228.414 86.4621C226.743 86.4457 225.071 86.4293 224.235 86.4211C222.563 86.4046 220.891 86.3882 220.055 86.38C218.383 86.3636 217.547 86.3554 215.875 86.3389C214.203 86.3225 213.367 86.3143 211.719 85.4967C210.047 85.4803 209.236 84.6709 208.4 84.6627C207.564 84.6545 206.752 83.8451 205.08 83.8287C204.244 83.8205 203.433 83.0111 202.597 83.0029C201.785 82.1935 200.949 82.1853 200.949 82.1853C200.949 82.1853 201.785 82.1935 202.621 82.2017C204.293 82.2182 205.941 83.0358 207.613 83.0522C208.449 83.0604 210.121 83.0768 210.957 83.085C211.793 83.0932 213.465 83.1097 215.136 83.1261C216.808 83.1425 217.644 83.1507 219.316 83.1672C220.988 83.1836 221.824 83.1918 223.496 83.2082C225.168 83.2246 226.004 83.2329 227.676 83.2493C229.348 83.2657 230.184 83.2739 231.856 83.2903C233.528 83.3068 234.364 83.315 236.036 83.3314C236.872 83.3396 238.544 83.356 239.38 83.3643C242.724 83.3971 244.396 83.4135 246.068 83.43C246.928 82.637 247.764 82.6452 247.764 82.6452C247.764 82.6452 246.928 82.637 246.068 83.43ZM248.179 69.0255C247.343 69.0173 247.319 69.8185 246.483 69.8103C245.647 69.802 245.622 70.6032 244.786 70.595C243.926 71.3879 242.254 71.3715 240.557 72.1563C238.886 72.1398 238.025 72.9328 236.353 72.9163C234.681 72.8999 232.985 73.6847 232.149 73.6764C230.477 73.66 228.805 73.6436 227.969 73.6354C226.297 73.619 224.625 73.6025 223.789 73.5943C222.117 73.5779 221.281 73.5697 219.634 72.7521C218.798 72.7439 217.962 72.7357 217.962 72.7357C217.126 72.7275 217.126 72.7275 216.314 71.9181C215.478 71.9099 215.478 71.9099 214.667 71.1005C213.831 71.0923 213.831 71.0923 213.019 70.2829C212.183 70.2747 211.371 69.4653 210.536 69.4571C209.724 68.6477 208.888 68.6395 208.888 68.6395C208.888 68.6395 209.724 68.6477 210.536 69.4571C211.371 69.4653 212.207 69.4735 213.019 70.2829C213.855 70.2911 214.691 70.2993 216.339 71.1169C217.175 71.1251 218.846 71.1416 219.682 71.1498C220.518 71.158 222.19 71.1744 223.862 71.1908C225.534 71.2073 226.37 71.2155 228.042 71.2319C229.714 71.2483 230.55 71.2565 232.222 71.273C233.894 71.2894 234.73 71.2976 236.426 70.5129C238.098 70.5293 238.959 69.7363 240.631 69.7528C241.467 69.761 242.303 69.7692 242.327 68.968C243.163 68.9763 243.999 68.9845 244.023 68.1833C244.859 68.1915 246.556 67.4068 247.392 67.415C248.228 67.4232 249.088 66.6303 249.924 66.6385C250.76 66.6467 251.62 65.8537 252.456 65.862C253.317 65.069 254.153 65.0772 254.153 65.0772C254.153 65.0772 253.292 65.8702 252.432 66.6631C251.572 67.4561 251.572 67.4561 250.711 68.249L249.851 69.042C249.039 68.2326 249.039 68.2326 248.179 69.0255Z" fill="#F8CA6E"/>
<path d="M296.068 144.909C297.575 146.516 299.734 147.37 301.994 147.37C303.802 147.37 303.802 144.708 301.994 144.708C300.437 144.708 299.082 144.156 298.077 143.051C296.872 141.745 294.863 143.654 296.068 144.909Z" fill="#F2AAC5"/>
<path d="M313.344 138.632C313.344 140.54 311.686 142.248 309.627 142.348C307.82 142.398 307.82 145.06 309.627 145.01C313.243 144.859 316.206 142.047 316.206 138.632C316.156 136.924 313.344 136.924 313.344 138.632Z" fill="#F2AAC5"/>
<path d="M308.523 127.684C310.381 128.739 311.486 130.547 311.536 132.606C311.586 134.313 314.398 134.313 314.398 132.606C314.348 129.643 312.691 126.931 309.979 125.374C308.372 124.47 306.966 126.78 308.523 127.684Z" fill="#F2AAC5"/>
<path d="M300.99 126.228C298.931 127.333 297.475 129.09 296.772 131.149C296.219 132.807 298.981 133.51 299.534 131.852C300.036 130.396 301.04 129.241 302.446 128.488C304.003 127.684 302.597 125.374 300.99 126.228Z" fill="#F2AAC5"/>
<path d="M304.154 135.418C304.405 136.623 302.497 137.326 301.994 136.121C301.693 135.468 301.04 134.966 300.237 135.167C299.584 135.317 298.931 136.121 299.232 136.824C300.036 138.632 302.045 139.837 304.154 139.285C306.263 138.732 307.318 136.623 306.866 134.715C306.514 133.057 303.802 133.761 304.154 135.418Z" fill="#F2AAC5"/>
<path d="M257.4 126.278C259.158 127.232 261.016 127.784 263.025 127.885C264.832 127.985 264.832 125.324 263.025 125.223C261.518 125.123 260.112 124.721 258.806 123.968C257.249 123.114 255.843 125.424 257.4 126.278Z" fill="#F2AAC5"/>
<path d="M275.378 118.745C274.876 120.704 273.671 122.311 271.813 123.315C270.206 124.169 271.662 126.479 273.269 125.625C275.73 124.319 277.488 122.11 278.14 119.498C278.542 117.791 275.78 117.088 275.378 118.745Z" fill="#F2AAC5"/>
<path d="M269.854 107.848C271.612 108.952 272.616 110.71 272.667 112.669C272.717 114.376 275.529 114.376 275.529 112.669C275.479 109.756 273.922 107.145 271.311 105.538C269.754 104.634 268.348 106.893 269.854 107.848Z" fill="#F2AAC5"/>
<path d="M263.778 104.232C259.811 105.136 256.496 107.396 254.236 110.61C253.232 112.066 255.693 113.372 256.697 111.966C258.555 109.354 261.317 107.597 264.531 106.843C266.289 106.391 265.535 103.83 263.778 104.232Z" fill="#F2AAC5"/>
<path d="M258.304 118.042C260.212 120.704 263.678 121.557 266.791 120.252C268.448 119.549 266.992 117.239 265.335 117.942C263.728 118.595 261.719 118.042 260.765 116.686C259.76 115.28 257.3 116.636 258.304 118.042Z" fill="#F2AAC5"/>
<path d="M263.828 111.212C262.071 111.715 262.824 114.276 264.582 113.773C265.335 113.573 266.189 114.025 266.339 114.828C266.49 115.531 267.394 115.933 268.097 115.782C268.9 115.581 269.252 114.828 269.101 114.125C268.649 111.915 266.088 110.559 263.828 111.212Z" fill="#F2AAC5"/>
<path d="M302.245 104.634C305.66 106.643 309.778 107.145 313.595 105.889C315.302 105.337 314.549 102.776 312.842 103.328C309.678 104.332 306.514 104.031 303.702 102.324C302.145 101.42 300.689 103.73 302.245 104.634Z" fill="#F2AAC5"/>
<path d="M319.269 91.4262C319.922 93.7363 319.721 96.0966 318.566 98.256C317.763 99.7625 320.173 101.118 321.027 99.6119C322.534 96.7996 322.885 93.7865 322.031 90.7734C321.529 89.066 318.767 89.769 319.269 91.4262Z" fill="#F2AAC5"/>
<path d="M308.674 85.6008C311.134 85.6511 313.394 86.8563 314.65 88.8651C315.604 90.3214 318.065 88.9655 317.11 87.5092C315.302 84.6969 312.139 83.0397 308.674 82.9393C306.816 82.889 306.816 85.5506 308.674 85.6008Z" fill="#F2AAC5"/>
<path d="M303.099 88.212C299.282 90.1705 298.479 94.9915 301.09 98.1051C302.245 99.461 304.204 97.5527 303.099 96.1968C301.542 94.3889 302.446 91.5264 304.505 90.4718C306.112 89.7185 304.706 87.4085 303.099 88.212Z" fill="#F2AAC5"/>
<path d="M309.477 91.7776C311.335 93.1335 311.034 95.5942 309.125 96.699C307.569 97.603 308.975 99.913 310.582 99.0091C314.449 96.7493 314.499 91.9785 310.933 89.4675C309.477 88.4129 308.071 90.7732 309.477 91.7776Z" fill="#F2AAC5"/>
<path d="M357.837 160.678C358.49 163.189 357.536 165.901 355.276 167.457C353.82 168.462 355.226 170.772 356.733 169.768C360.047 167.508 361.604 163.741 360.599 159.975C360.148 158.318 357.436 159.021 357.837 160.678Z" fill="#F2AAC5"/>
<path d="M349.15 151.237C351.159 151.839 352.716 153.145 353.62 154.953C354.423 156.509 356.884 155.154 356.08 153.597C354.875 151.186 352.615 149.479 349.903 148.675C348.146 148.123 347.392 150.734 349.15 151.237Z" fill="#F2AAC5"/>
<path d="M341.165 151.337C338.353 152.894 336.645 155.505 336.344 158.569C336.143 160.276 339.006 160.276 339.207 158.569C339.407 156.51 340.713 154.702 342.621 153.647C344.178 152.743 342.772 150.433 341.165 151.337Z" fill="#F2AAC5"/>
<path d="M343.927 158.669C343.023 160.176 345.484 161.481 346.388 160.025C347.392 158.368 349.652 159.221 349.551 161.029C349.401 162.737 352.263 162.737 352.414 161.029C352.565 159.121 351.209 157.162 349.25 156.61C347.141 156.058 344.931 157.012 343.927 158.669Z" fill="#F2AAC5"/>
<path d="M354.423 123.566C352.967 125.424 350.154 125.926 347.995 124.872C346.388 124.068 344.932 126.378 346.539 127.182C350.154 128.99 354.423 127.985 356.833 124.922C357.988 123.516 355.528 122.21 354.423 123.566Z" fill="#F2AAC5"/>
<path d="M358.892 113.522C359.294 114.878 359.194 116.234 358.541 117.49C357.737 118.996 360.198 120.352 361.001 118.846C362.006 116.937 362.257 114.878 361.654 112.819C361.102 111.162 358.39 111.865 358.892 113.522Z" fill="#F2AAC5"/>
<path d="M351.158 103.278C353.217 104.734 354.925 106.492 356.281 108.501C357.285 109.957 359.746 108.601 358.742 107.145C357.084 104.734 355.025 102.675 352.565 100.968C351.108 99.9634 349.702 102.273 351.158 103.278Z" fill="#F2AAC5"/>
<path d="M344.279 104.433C341.366 104.985 338.955 107.245 338.403 110.007C338.051 111.664 340.763 112.417 341.165 110.71C341.567 108.802 343.023 107.396 345.082 106.994C346.789 106.693 346.036 104.081 344.279 104.433Z" fill="#F2AAC5"/>
<path d="M340.562 117.741C342.722 119.599 345.484 120.653 348.447 120.553C350.255 120.503 350.255 117.841 348.447 117.891C346.237 117.942 344.228 117.289 342.571 115.832C341.215 114.728 339.207 116.586 340.562 117.741Z" fill="#F2AAC5"/>
<path d="M348.396 110.057C347.693 110.309 347.191 110.961 347.392 111.715C347.593 112.367 348.396 112.92 349.15 112.669C350.606 112.116 352.263 113.02 351.862 114.627C351.46 116.285 354.222 116.988 354.624 115.33C355.427 111.916 352.012 108.752 348.396 110.057Z" fill="#F2AAC5"/>
<path d="M424.127 144.909C425.633 146.516 427.792 147.37 430.052 147.37C431.86 147.37 431.86 144.708 430.052 144.708C428.496 144.708 427.14 144.156 426.135 143.051C424.93 141.745 422.921 143.654 424.127 144.909Z" fill="#F2AAC5"/>
<path d="M441.402 138.632C441.402 140.54 439.744 142.248 437.685 142.348C435.878 142.398 435.878 145.06 437.685 145.01C441.301 144.859 444.264 142.047 444.264 138.632C444.214 136.924 441.351 136.924 441.402 138.632Z" fill="#F2AAC5"/>
<path d="M436.581 127.684C438.439 128.739 439.544 130.546 439.594 132.605C439.644 134.313 442.456 134.313 442.456 132.605C442.406 129.643 440.749 126.931 438.037 125.374C436.43 124.47 435.024 126.78 436.581 127.684Z" fill="#F2AAC5"/>
<path d="M429.048 126.228C426.989 127.332 425.533 129.09 424.829 131.149C424.277 132.806 427.039 133.509 427.592 131.852C428.094 130.396 429.098 129.241 430.504 128.487C432.061 127.684 430.655 125.374 429.048 126.228Z" fill="#F2AAC5"/>
<path d="M432.212 135.418C432.463 136.623 430.554 137.326 430.052 136.121C429.751 135.468 429.098 134.966 428.295 135.167C427.642 135.317 426.989 136.121 427.29 136.824C428.094 138.632 430.102 139.837 432.212 139.285C434.321 138.732 435.375 136.623 434.923 134.715C434.572 133.057 431.86 133.761 432.212 135.418Z" fill="#F2AAC5"/>
<path d="M377.473 144.106C379.231 145.06 381.089 145.612 383.098 145.713C384.905 145.813 384.905 143.151 383.098 143.051C381.591 142.951 380.185 142.549 378.879 141.795C377.322 140.942 375.866 143.252 377.473 144.106Z" fill="#F2AAC5"/>
<path d="M395.451 136.623C394.949 138.582 393.744 140.189 391.886 141.193C390.279 142.047 391.735 144.357 393.342 143.503C395.803 142.197 397.561 139.988 398.213 137.376C398.565 135.619 395.853 134.916 395.451 136.623Z" fill="#F2AAC5"/>
<path d="M389.928 125.726C391.685 126.83 392.69 128.588 392.74 130.547C392.79 132.254 395.602 132.254 395.602 130.547C395.552 127.634 393.995 125.023 391.384 123.416C389.827 122.461 388.421 124.771 389.928 125.726Z" fill="#F2AAC5"/>
<path d="M383.851 122.06C379.884 122.963 376.569 125.223 374.31 128.437C373.305 129.894 375.766 131.199 376.77 129.793C378.628 127.182 381.39 125.424 384.604 124.671C386.362 124.219 385.609 121.658 383.851 122.06Z" fill="#F2AAC5"/>
<path d="M378.377 135.87C380.285 138.531 383.751 139.385 386.864 138.079C388.521 137.376 387.065 135.066 385.408 135.769C383.801 136.422 381.792 135.87 380.838 134.514C379.833 133.108 377.373 134.464 378.377 135.87Z" fill="#F2AAC5"/>
<path d="M383.901 129.04C382.144 129.542 382.897 132.103 384.655 131.601C385.408 131.4 386.262 131.852 386.412 132.656C386.563 133.359 387.467 133.761 388.17 133.61C388.973 133.409 389.325 132.656 389.174 131.953C388.672 129.793 386.111 128.437 383.901 129.04Z" fill="#F2AAC5"/>
<path d="M430.303 104.634C433.718 106.643 437.836 107.145 441.653 105.889C443.36 105.337 442.607 102.776 440.899 103.328C437.736 104.332 434.572 104.031 431.76 102.324C430.203 101.42 428.746 103.73 430.303 104.634Z" fill="#F2AAC5"/>
<path d="M447.277 91.4262C447.93 93.7363 447.729 96.0966 446.574 98.256C445.771 99.7625 448.181 101.118 449.035 99.6119C450.541 96.7996 450.893 93.7865 450.039 90.7734C449.587 89.066 446.825 89.769 447.277 91.4262Z" fill="#F2AAC5"/>
<path d="M436.681 85.6008C439.142 85.6511 441.402 86.8563 442.657 88.8651C443.611 90.3214 446.072 88.9655 445.118 87.5092C443.31 84.6969 440.146 83.0397 436.681 82.9393C434.873 82.889 434.873 85.5506 436.681 85.6008Z" fill="#F2AAC5"/>
<path d="M431.107 88.212C427.29 90.1705 426.486 94.9915 429.098 98.1051C430.253 99.461 432.211 97.5527 431.107 96.1968C429.55 94.3889 430.454 91.5264 432.513 90.4718C434.17 89.7185 432.714 87.4085 431.107 88.212Z" fill="#F2AAC5"/>
<path d="M437.535 91.7776C439.393 93.1335 439.091 95.5942 437.183 96.699C435.626 97.603 437.032 99.913 438.639 99.0091C442.506 96.7493 442.556 91.9785 438.991 89.4675C437.535 88.4129 436.128 90.7732 437.535 91.7776Z" fill="#F2AAC5"/>
<path d="M479.869 159.372C480.522 161.883 479.568 164.595 477.308 166.152C475.852 167.156 477.258 169.466 478.764 168.462C482.079 166.202 483.636 162.435 482.631 158.669C482.129 157.012 479.417 157.715 479.869 159.372Z" fill="#F2AAC5"/>
<path d="M471.131 149.931C473.14 150.533 474.697 151.839 475.601 153.647C476.404 155.204 478.865 153.848 478.061 152.291C476.856 149.881 474.596 148.173 471.885 147.37C470.127 146.817 469.374 149.429 471.131 149.931Z" fill="#F2AAC5"/>
<path d="M463.146 150.031C460.334 151.588 458.627 154.2 458.325 157.263C458.124 158.97 460.987 158.97 461.188 157.263C461.389 155.204 462.694 153.396 464.603 152.341C466.159 151.438 464.753 149.127 463.146 150.031Z" fill="#F2AAC5"/>
<path d="M465.908 157.363C465.004 158.87 467.465 160.176 468.369 158.719C469.374 157.062 471.633 157.916 471.533 159.724C471.382 161.431 474.245 161.431 474.395 159.724C474.546 157.815 473.19 155.857 471.232 155.304C469.122 154.752 466.913 155.656 465.908 157.363Z" fill="#F2AAC5"/>
<path d="M395.251 94.841C394.146 96.1969 392.74 97.2013 391.032 97.7537C389.325 98.3061 390.078 100.917 391.786 100.315C393.945 99.6118 395.853 98.4065 397.259 96.6991C397.711 96.1467 397.862 95.3934 397.259 94.7908C396.757 94.389 395.703 94.2886 395.251 94.841Z" fill="#F2AAC5"/>
<path d="M395.954 84.1445C396.606 85.9021 396.657 87.6598 396.104 89.4677C395.602 91.1249 398.364 91.8279 398.866 90.1707C399.519 87.9611 399.519 85.651 398.716 83.4414C398.113 81.8344 395.401 82.5375 395.954 84.1445Z" fill="#F2AAC5"/>
<path d="M383.449 77.2142C381.641 77.5658 382.395 80.1269 384.202 79.7754C386.563 79.3234 388.973 79.926 390.781 81.4828C392.137 82.6378 394.146 80.7797 392.79 79.5745C390.229 77.4151 386.864 76.5614 383.449 77.2142Z" fill="#F2AAC5"/>
<path d="M379.582 84.1445C378.729 85.4502 378.026 86.9066 377.523 88.3629C376.971 90.0201 379.733 90.7232 380.285 89.066C380.687 87.8105 381.29 86.6053 382.043 85.5005C382.997 84.0441 380.536 82.6882 379.582 84.1445Z" fill="#F2AAC5"/>
<path d="M381.541 94.5899C384.152 95.996 387.115 96.0463 389.827 94.841C391.484 94.0877 390.028 91.8279 388.371 92.531C386.613 93.3345 384.604 93.1838 382.947 92.2799C381.39 91.4261 379.934 93.7362 381.541 94.5899Z" fill="#F2AAC5"/>
<path d="M387.115 84.8473C386.764 85.3998 386.914 86.4041 387.617 86.6552C388.722 87.1072 389.274 87.9609 389.124 89.0657C389.023 89.7688 389.827 90.4216 390.53 90.4216C391.384 90.4216 391.886 89.819 391.936 89.0657C392.137 87.1574 390.932 85.1487 389.023 84.3452C388.371 84.0941 387.567 84.1945 387.115 84.8473Z" fill="#F2AAC5"/>
<path d="M482.481 123.566C481.024 125.424 478.212 125.926 476.053 124.872C474.446 124.068 472.989 126.378 474.596 127.182C478.212 128.99 482.481 127.985 484.891 124.922C485.996 123.516 483.535 122.21 482.481 123.566Z" fill="#F2AAC5"/>
<path d="M486.95 113.522C487.352 114.878 487.251 116.234 486.599 117.49C485.795 118.996 488.256 120.352 489.059 118.846C490.064 116.937 490.315 114.878 489.712 112.819C489.16 111.162 486.448 111.865 486.95 113.522Z" fill="#F2AAC5"/>
<path d="M479.216 103.278C481.275 104.734 482.983 106.492 484.339 108.501C485.343 109.957 487.804 108.601 486.799 107.145C485.142 104.734 483.083 102.675 480.622 100.968C479.166 99.9634 477.76 102.273 479.216 103.278Z" fill="#F2AAC5"/>
<path d="M472.336 104.433C469.424 104.985 467.013 107.245 466.461 110.007C466.109 111.664 468.821 112.417 469.223 110.71C469.625 108.802 471.081 107.396 473.14 106.994C474.847 106.693 474.094 104.081 472.336 104.433Z" fill="#F2AAC5"/>
<path d="M468.62 117.741C470.779 119.599 473.541 120.653 476.504 120.553C478.312 120.503 478.312 117.841 476.504 117.891C474.295 117.942 472.286 117.289 470.629 115.832C469.273 114.728 467.264 116.586 468.62 117.741Z" fill="#F2AAC5"/>
<path d="M476.454 110.057C475.751 110.309 475.249 110.961 475.45 111.715C475.651 112.367 476.454 112.92 477.208 112.669C478.664 112.116 480.321 113.02 479.919 114.627C479.518 116.285 482.28 116.988 482.681 115.33C483.485 111.916 480.07 108.752 476.454 110.057Z" fill="#F2AAC5"/>
<path d="M378.126 99.662C379.08 101.52 381.239 102.675 383.449 102.524C385.257 102.424 385.257 99.7624 383.449 99.8629C382.194 99.9633 381.139 99.4109 380.587 98.3061C379.783 96.7995 377.322 98.1554 378.126 99.662Z" fill="#F2AAC5"/>
</svg>
