<svg width="1366" height="768" viewBox="0 0 1366 768" fill="none" xmlns="http://www.w3.org/2000/svg">
<g clip-path="url(#clip0)">
<rect width="1366" height="768" fill="white"/>
<rect width="33" height="3" rx="1.5" transform="matrix(-0.707107 -0.707107 -0.707107 0.707107 1315.46 74.3345)" fill="white"/>
<rect x="1290" y="74.3345" width="33" height="3" rx="1.5" transform="rotate(-45 1290 74.3345)" fill="white"/>
<path d="M452.72 196.8C452.667 193.04 454.013 189.813 456.76 187.12C459.507 184.427 462.773 183.107 466.56 183.16C470.32 183.107 473.587 184.427 476.36 187.12C479.16 189.813 480.52 193.04 480.44 196.8C480.52 200.56 479.16 203.787 476.36 206.48C473.587 209.173 470.32 210.493 466.56 210.44C462.773 210.493 459.493 209.173 456.72 206.48C453.973 203.787 452.64 200.56 452.72 196.8ZM476.08 196.76C476.08 193.987 475.173 191.68 473.36 189.84C471.547 187.973 469.293 187.04 466.6 187.04C463.88 187.04 461.613 187.96 459.8 189.8C458.013 191.64 457.12 193.96 457.12 196.76C457.12 199.587 458.013 201.933 459.8 203.8C461.587 205.64 463.853 206.56 466.6 206.56C469.293 206.56 471.547 205.627 473.36 203.76C475.173 201.893 476.08 199.56 476.08 196.76ZM491.145 210V187.4H482.265V183.6H504.305V187.4H495.385V210H491.145ZM508.265 210V183.6H529.625V210H525.385V187.4H512.505V210H508.265ZM536.312 210V183.6H545.952C548.619 183.6 550.779 184.36 552.432 185.88C554.086 187.373 554.912 189.307 554.912 191.68C554.912 194.053 554.072 196 552.392 197.52C550.739 199.04 548.592 199.8 545.952 199.8H540.552V210H536.312ZM540.552 196.04H545.872C547.339 196.04 548.486 195.653 549.312 194.88C550.139 194.107 550.552 193.053 550.552 191.72C550.552 190.387 550.139 189.333 549.312 188.56C548.486 187.76 547.339 187.36 545.872 187.36H540.552V196.04ZM574.149 210L572.269 205.6H560.389L558.509 210H553.989L565.629 183.16H567.069L578.709 210H574.149ZM570.749 201.96L566.349 191.04L561.909 201.96H570.749ZM602.794 202.32C602.794 204.56 602.007 206.4 600.434 207.84C598.86 209.28 596.794 210 594.234 210H582.914V183.6H592.154C594.527 183.6 596.434 184.267 597.874 185.6C599.34 186.907 600.074 188.587 600.074 190.64C600.074 192.693 599.34 194.347 597.874 195.6C599.42 196.107 600.62 196.947 601.474 198.12C602.354 199.293 602.794 200.693 602.794 202.32ZM591.754 187.32H587.074V194.44H591.754C593.034 194.44 594.034 194.12 594.754 193.48C595.474 192.84 595.834 191.96 595.834 190.84C595.834 189.747 595.474 188.893 594.754 188.28C594.06 187.64 593.06 187.32 591.754 187.32ZM598.514 202.2C598.514 200.92 598.1 199.92 597.274 199.2C596.447 198.453 595.314 198.08 593.874 198.08H587.074V206.28H593.874C595.34 206.28 596.474 205.92 597.274 205.2C598.1 204.453 598.514 203.453 598.514 202.2ZM628.24 183.16H629.72V210H625.48V191.56L609.12 210.44H607.64V183.6H611.88V202L628.24 183.16ZM642.551 210V187.4H633.671V183.6H655.711V187.4H646.791V210H642.551ZM659.672 210V183.6H663.912V193.36H669.232C671.952 193.36 674.165 194.133 675.872 195.68C677.605 197.227 678.472 199.227 678.472 201.68C678.472 204.133 677.618 206.133 675.912 207.68C674.205 209.227 671.978 210 669.232 210H659.672ZM663.912 206.24H669.192C670.712 206.24 671.912 205.827 672.792 205C673.672 204.173 674.112 203.067 674.112 201.68C674.112 200.293 673.672 199.187 672.792 198.36C671.912 197.533 670.712 197.12 669.192 197.12H663.912V206.24ZM711.939 202.28C711.939 204.68 711.019 206.64 709.179 208.16C707.365 209.68 705.032 210.44 702.179 210.44C699.939 210.44 697.925 209.92 696.139 208.88C694.352 207.813 692.965 206.36 691.979 204.52L694.979 202.32C696.845 205.147 699.232 206.56 702.139 206.56C703.739 206.56 705.059 206.147 706.099 205.32C707.139 204.493 707.659 203.413 707.659 202.08C707.659 200.853 707.205 199.88 706.299 199.16C705.419 198.44 704.125 198.08 702.419 198.08H699.179V194.44H702.299C703.579 194.44 704.579 194.12 705.299 193.48C706.019 192.813 706.379 191.933 706.379 190.84C706.379 189.667 706.005 188.747 705.259 188.08C704.512 187.387 703.459 187.04 702.099 187.04C699.619 187.04 697.632 188.227 696.139 190.6L693.139 188.4C695.032 184.907 698.059 183.16 702.219 183.16C704.779 183.16 706.819 183.827 708.339 185.16C709.885 186.493 710.659 188.28 710.659 190.52C710.659 192.733 709.699 194.52 707.779 195.88C710.552 197.213 711.939 199.347 711.939 202.28ZM734.306 210L732.426 205.6H720.546L718.666 210H714.146L725.786 183.16H727.226L738.866 210H734.306ZM730.906 201.96L726.506 191.04L722.066 201.96H730.906ZM752.39 183.6H761.43V210H757.19V200.48H752.83L746.03 210H741.39L748.59 199.84C746.803 199.2 745.39 198.187 744.35 196.8C743.31 195.413 742.79 193.813 742.79 192C742.79 189.52 743.67 187.507 745.43 185.96C747.217 184.387 749.537 183.6 752.39 183.6ZM757.19 196.68V187.36H752.31C750.737 187.36 749.483 187.787 748.55 188.64C747.617 189.493 747.15 190.627 747.15 192.04C747.15 193.453 747.617 194.587 748.55 195.44C749.51 196.267 750.763 196.68 752.31 196.68H757.19ZM787.989 202.32C787.989 204.56 787.202 206.4 785.629 207.84C784.056 209.28 781.989 210 779.429 210H768.109V183.6H777.349C779.722 183.6 781.629 184.267 783.069 185.6C784.536 186.907 785.269 188.587 785.269 190.64C785.269 192.693 784.536 194.347 783.069 195.6C784.616 196.107 785.816 196.947 786.669 198.12C787.549 199.293 787.989 200.693 787.989 202.32ZM776.949 187.32H772.269V194.44H776.949C778.229 194.44 779.229 194.12 779.949 193.48C780.669 192.84 781.029 191.96 781.029 190.84C781.029 189.747 780.669 188.893 779.949 188.28C779.256 187.64 778.256 187.32 776.949 187.32ZM783.709 202.2C783.709 200.92 783.296 199.92 782.469 199.2C781.642 198.453 780.509 198.08 779.069 198.08H772.269V206.28H779.069C780.536 206.28 781.669 205.92 782.469 205.2C783.296 204.453 783.709 203.453 783.709 202.2ZM792.836 210V183.6H797.076V210H792.836ZM802.516 195.96L814.676 210H809.436L797.196 195.96L808.276 183.6H813.476L802.516 195.96ZM836.45 183.6H840.89L831.61 203.56C830.41 206.12 829.277 207.893 828.21 208.88C827.144 209.867 825.584 210.387 823.53 210.44C822.784 210.44 821.93 210.293 820.97 210V206.36C821.53 206.467 822.224 206.52 823.05 206.52C824.73 206.52 826.024 205.773 826.93 204.28L816.73 183.6H821.49L829.25 199.52L836.45 183.6Z" fill="white"/>
<rect x="451" y="245" width="465" height="51" fill="white" fill-opacity="0.2"/>
<rect x="451" y="316" width="465" height="51" fill="white" fill-opacity="0.2"/>
<rect x="451" y="387" width="465" height="126" fill="white" fill-opacity="0.2"/>
<rect x="451" y="553" width="206" height="41" rx="20.5" fill="#FFFF00"/>
<path d="M480.915 573.72C480.893 572.216 481.432 570.925 482.531 569.848C483.629 568.771 484.936 568.243 486.451 568.264C487.955 568.243 489.261 568.771 490.371 569.848C491.491 570.925 492.035 572.216 492.003 573.72C492.035 575.224 491.491 576.515 490.371 577.592C489.261 578.669 487.955 579.197 486.451 579.176C484.936 579.197 483.624 578.669 482.515 577.592C481.416 576.515 480.883 575.224 480.915 573.72ZM490.259 573.704C490.259 572.595 489.896 571.672 489.171 570.936C488.445 570.189 487.544 569.816 486.467 569.816C485.379 569.816 484.472 570.184 483.747 570.92C483.032 571.656 482.675 572.584 482.675 573.704C482.675 574.835 483.032 575.773 483.747 576.52C484.461 577.256 485.368 577.624 486.467 577.624C487.544 577.624 488.445 577.251 489.171 576.504C489.896 575.757 490.259 574.824 490.259 573.704ZM493.399 573.72C493.367 572.216 493.906 570.925 495.015 569.848C496.124 568.771 497.436 568.243 498.951 568.264C499.911 568.264 500.791 568.483 501.591 568.92C502.391 569.357 503.02 569.949 503.479 570.696L502.199 571.64C501.42 570.424 500.343 569.816 498.967 569.816C497.879 569.816 496.972 570.189 496.247 570.936C495.522 571.672 495.159 572.6 495.159 573.72C495.159 574.84 495.522 575.773 496.247 576.52C496.972 577.256 497.879 577.624 498.967 577.624C500.343 577.624 501.42 577.016 502.199 575.8L503.479 576.744C503.02 577.501 502.391 578.099 501.591 578.536C500.802 578.963 499.922 579.176 498.951 579.176C497.436 579.197 496.124 578.669 495.015 577.592C493.906 576.515 493.367 575.224 493.399 573.72ZM507.988 579V569.96H504.436V568.44H513.252V569.96H509.684V579H507.988ZM520.721 579L519.969 577.24H515.217L514.465 579H512.657L517.313 568.264H517.889L522.545 579H520.721ZM519.361 575.784L517.601 571.416L515.825 575.784H519.361ZM532.178 575.928C532.178 576.824 531.864 577.56 531.234 578.136C530.605 578.712 529.778 579 528.754 579H524.226V568.44H527.922C528.872 568.44 529.634 568.707 530.21 569.24C530.797 569.763 531.09 570.435 531.09 571.256C531.09 572.077 530.797 572.739 530.21 573.24C530.829 573.443 531.309 573.779 531.65 574.248C532.002 574.717 532.178 575.277 532.178 575.928ZM527.762 569.928H525.89V572.776H527.762C528.274 572.776 528.674 572.648 528.962 572.392C529.25 572.136 529.394 571.784 529.394 571.336C529.394 570.899 529.25 570.557 528.962 570.312C528.685 570.056 528.285 569.928 527.762 569.928ZM530.466 575.88C530.466 575.368 530.301 574.968 529.97 574.68C529.64 574.381 529.186 574.232 528.61 574.232H525.89V577.512H528.61C529.197 577.512 529.65 577.368 529.97 577.08C530.301 576.781 530.466 576.381 530.466 575.88ZM542.357 568.264H542.949V579H541.253V571.624L534.709 579.176H534.117V568.44H535.813V575.8L542.357 568.264ZM548.081 579V569.96H544.529V568.44H553.345V569.96H549.777V579H548.081ZM554.93 579V568.44H556.626V572.344H558.754C559.842 572.344 560.727 572.653 561.41 573.272C562.103 573.891 562.45 574.691 562.45 575.672C562.45 576.653 562.108 577.453 561.426 578.072C560.743 578.691 559.852 579 558.754 579H554.93ZM556.626 577.496H558.738C559.346 577.496 559.826 577.331 560.178 577C560.53 576.669 560.706 576.227 560.706 575.672C560.706 575.117 560.53 574.675 560.178 574.344C559.826 574.013 559.346 573.848 558.738 573.848H556.626V577.496ZM575.836 575.912C575.836 576.872 575.468 577.656 574.732 578.264C574.007 578.872 573.074 579.176 571.932 579.176C571.036 579.176 570.231 578.968 569.516 578.552C568.802 578.125 568.247 577.544 567.852 576.808L569.052 575.928C569.799 577.059 570.754 577.624 571.916 577.624C572.556 577.624 573.084 577.459 573.5 577.128C573.916 576.797 574.124 576.365 574.124 575.832C574.124 575.341 573.943 574.952 573.58 574.664C573.228 574.376 572.711 574.232 572.028 574.232H570.732V572.776H571.98C572.492 572.776 572.892 572.648 573.18 572.392C573.468 572.125 573.612 571.773 573.612 571.336C573.612 570.867 573.463 570.499 573.164 570.232C572.866 569.955 572.444 569.816 571.9 569.816C570.908 569.816 570.114 570.291 569.516 571.24L568.316 570.36C569.074 568.963 570.284 568.264 571.948 568.264C572.972 568.264 573.788 568.531 574.396 569.064C575.015 569.597 575.324 570.312 575.324 571.208C575.324 572.093 574.94 572.808 574.172 573.352C575.282 573.885 575.836 574.739 575.836 575.912ZM584.783 579L584.031 577.24H579.279L578.527 579H576.719L581.375 568.264H581.951L586.607 579H584.783ZM583.423 575.784L581.663 571.416L579.887 575.784H583.423ZM592.017 568.44H595.633V579H593.937V575.192H592.193L589.473 579H587.617L590.497 574.936C589.782 574.68 589.217 574.275 588.801 573.72C588.385 573.165 588.177 572.525 588.177 571.8C588.177 570.808 588.529 570.003 589.233 569.384C589.948 568.755 590.876 568.44 592.017 568.44ZM593.937 573.672V569.944H591.985C591.356 569.944 590.854 570.115 590.481 570.456C590.108 570.797 589.921 571.251 589.921 571.816C589.921 572.381 590.108 572.835 590.481 573.176C590.865 573.507 591.366 573.672 591.985 573.672H593.937ZM606.257 575.928C606.257 576.824 605.942 577.56 605.313 578.136C604.683 578.712 603.857 579 602.833 579H598.305V568.44H602.001C602.95 568.44 603.713 568.707 604.289 569.24C604.875 569.763 605.169 570.435 605.169 571.256C605.169 572.077 604.875 572.739 604.289 573.24C604.907 573.443 605.387 573.779 605.729 574.248C606.081 574.717 606.257 575.277 606.257 575.928ZM601.841 569.928H599.969V572.776H601.841C602.353 572.776 602.753 572.648 603.041 572.392C603.329 572.136 603.473 571.784 603.473 571.336C603.473 570.899 603.329 570.557 603.041 570.312C602.763 570.056 602.363 569.928 601.841 569.928ZM604.545 575.88C604.545 575.368 604.379 574.968 604.049 574.68C603.718 574.381 603.265 574.232 602.689 574.232H599.969V577.512H602.689C603.275 577.512 603.729 577.368 604.049 577.08C604.379 576.781 604.545 576.381 604.545 575.88ZM608.195 579V568.44H609.891V579H608.195ZM612.067 573.384L616.931 579H614.835L609.939 573.384L614.371 568.44H616.451L612.067 573.384ZM625.641 568.44H627.417L623.705 576.424C623.225 577.448 622.772 578.157 622.345 578.552C621.918 578.947 621.294 579.155 620.473 579.176C620.174 579.176 619.833 579.117 619.449 579V577.544C619.673 577.587 619.95 577.608 620.281 577.608C620.953 577.608 621.47 577.309 621.833 576.712L617.753 568.44H619.657L622.761 574.808L625.641 568.44Z" fill="black"/>
<path d="M481.782 263.922H482.286V276H480.882V266.784L473.142 276.198H472.638V264.12H474.042V273.336L481.782 263.922ZM485.362 276V267.036H485.866L490.024 271.968L494.164 267.036H494.65V276H493.264V270.078L490.276 273.642H489.736L486.748 270.078V276H485.362ZM500.6 267.234H504.092V276H502.706V272.796H501.05L498.638 276H497.018L499.574 272.616C498.926 272.424 498.416 272.106 498.044 271.662C497.684 271.206 497.504 270.666 497.504 270.042C497.504 269.19 497.786 268.512 498.35 268.008C498.914 267.492 499.664 267.234 500.6 267.234ZM502.706 271.572V268.476H500.69C500.138 268.476 499.706 268.614 499.394 268.89C499.082 269.166 498.926 269.544 498.926 270.024C498.926 270.492 499.082 270.87 499.394 271.158C499.718 271.434 500.156 271.572 500.708 271.572H502.706Z" fill="white"/>
<path d="M475.518 346V335.38H471.342V334.12H481.116V335.38H476.922V346H475.518ZM489.375 342.04H482.445C482.529 342.904 482.871 343.6 483.471 344.128C484.071 344.656 484.803 344.92 485.667 344.92C486.663 344.92 487.557 344.524 488.349 343.732L489.159 344.668C488.175 345.688 487.005 346.198 485.649 346.198C484.341 346.198 483.237 345.76 482.337 344.884C481.449 343.996 481.005 342.91 481.005 341.626C481.005 340.354 481.437 339.274 482.301 338.386C483.177 337.486 484.239 337.036 485.487 337.036C486.627 337.036 487.575 337.408 488.331 338.152C489.099 338.896 489.483 339.844 489.483 340.996C489.483 341.332 489.447 341.68 489.375 342.04ZM482.499 340.816H488.061C488.049 340.048 487.797 339.436 487.305 338.98C486.813 338.524 486.195 338.296 485.451 338.296C484.719 338.296 484.083 338.53 483.543 338.998C483.003 339.454 482.655 340.06 482.499 340.816ZM492.603 337.234H498.543V346H497.157V338.476H493.899L493.863 339.556C493.779 341.92 493.539 343.588 493.143 344.56C492.747 345.532 492.045 346.036 491.037 346.072C490.857 346.072 490.701 346.048 490.569 346V344.83C490.761 344.854 490.881 344.866 490.929 344.866C491.481 344.866 491.877 344.44 492.117 343.588C492.369 342.736 492.513 341.38 492.549 339.52L492.603 337.234ZM509.344 342.04H502.414C502.498 342.904 502.84 343.6 503.44 344.128C504.04 344.656 504.772 344.92 505.636 344.92C506.632 344.92 507.526 344.524 508.318 343.732L509.128 344.668C508.144 345.688 506.974 346.198 505.618 346.198C504.31 346.198 503.206 345.76 502.306 344.884C501.418 343.996 500.974 342.91 500.974 341.626C500.974 340.354 501.406 339.274 502.27 338.386C503.146 337.486 504.208 337.036 505.456 337.036C506.596 337.036 507.544 337.408 508.3 338.152C509.068 338.896 509.452 339.844 509.452 340.996C509.452 341.332 509.416 341.68 509.344 342.04ZM502.468 340.816H508.03C508.018 340.048 507.766 339.436 507.274 338.98C506.782 338.524 506.164 338.296 505.42 338.296C504.688 338.296 504.052 338.53 503.512 338.998C502.972 339.454 502.624 340.06 502.468 340.816ZM517.593 346.198V349.24H516.207V346.198C514.743 346.138 513.549 345.7 512.625 344.884C511.713 344.056 511.257 342.97 511.257 341.626C511.257 340.294 511.719 339.22 512.643 338.404C513.567 337.576 514.755 337.132 516.207 337.072V332.5H517.593V337.072C519.057 337.132 520.245 337.576 521.157 338.404C522.081 339.22 522.543 340.3 522.543 341.644C522.543 342.988 522.081 344.068 521.157 344.884C520.245 345.7 519.057 346.138 517.593 346.198ZM516.225 344.974V338.296C515.133 338.344 514.269 338.662 513.633 339.25C512.997 339.838 512.679 340.636 512.679 341.644C512.679 342.64 512.997 343.432 513.633 344.02C514.269 344.608 515.133 344.926 516.225 344.974ZM521.121 341.626C521.121 340.63 520.803 339.838 520.167 339.25C519.531 338.662 518.667 338.344 517.575 338.296V344.974C518.667 344.926 519.531 344.608 520.167 344.02C520.803 343.432 521.121 342.634 521.121 341.626ZM524.336 341.608C524.312 340.36 524.756 339.28 525.668 338.368C526.592 337.456 527.678 337.012 528.926 337.036C530.186 337.012 531.272 337.456 532.184 338.368C533.096 339.28 533.54 340.36 533.516 341.608C533.54 342.844 533.09 343.924 532.166 344.848C531.242 345.76 530.156 346.204 528.908 346.18C527.66 346.204 526.58 345.76 525.668 344.848C524.756 343.924 524.312 342.844 524.336 341.608ZM532.094 341.626C532.094 340.69 531.788 339.904 531.176 339.268C530.576 338.632 529.826 338.314 528.926 338.314C528.026 338.314 527.27 338.632 526.658 339.268C526.058 339.892 525.758 340.678 525.758 341.626C525.758 342.55 526.058 343.33 526.658 343.966C527.27 344.59 528.02 344.902 528.908 344.902C529.796 344.902 530.546 344.584 531.158 343.948C531.782 343.312 532.094 342.538 532.094 341.626ZM535.952 346V337.234H537.338V340.726H541.64V337.234H543.026V346H541.64V341.95H537.338V346H535.952Z" fill="white"/>
<path d="M471.864 410.06C471.828 408.368 472.422 406.916 473.646 405.704C474.882 404.492 476.346 403.898 478.038 403.922C479.082 403.922 480.036 404.15 480.9 404.606C481.776 405.062 482.466 405.686 482.97 406.478L481.926 407.306C480.954 405.914 479.664 405.218 478.056 405.218C476.712 405.218 475.584 405.68 474.672 406.604C473.772 407.528 473.322 408.68 473.322 410.06C473.322 411.44 473.772 412.592 474.672 413.516C475.584 414.44 476.712 414.902 478.056 414.902C479.664 414.902 480.954 414.206 481.926 412.814L482.97 413.642C482.466 414.434 481.776 415.058 480.9 415.514C480.036 415.97 479.082 416.198 478.038 416.198C476.346 416.222 474.882 415.628 473.646 414.416C472.422 413.204 471.828 411.752 471.864 410.06ZM484.591 411.608C484.567 410.36 485.011 409.28 485.923 408.368C486.847 407.456 487.933 407.012 489.181 407.036C490.441 407.012 491.527 407.456 492.439 408.368C493.351 409.28 493.795 410.36 493.771 411.608C493.795 412.844 493.345 413.924 492.421 414.848C491.497 415.76 490.411 416.204 489.163 416.18C487.915 416.204 486.835 415.76 485.923 414.848C485.011 413.924 484.567 412.844 484.591 411.608ZM492.349 411.626C492.349 410.69 492.043 409.904 491.431 409.268C490.831 408.632 490.081 408.314 489.181 408.314C488.281 408.314 487.525 408.632 486.913 409.268C486.313 409.892 486.013 410.678 486.013 411.626C486.013 412.55 486.313 413.33 486.913 413.966C487.525 414.59 488.275 414.902 489.163 414.902C490.051 414.902 490.801 414.584 491.413 413.948C492.037 413.312 492.349 412.538 492.349 411.626ZM495.578 411.608C495.554 410.36 495.998 409.28 496.91 408.368C497.834 407.456 498.92 407.012 500.168 407.036C501.428 407.012 502.514 407.456 503.426 408.368C504.338 409.28 504.782 410.36 504.758 411.608C504.782 412.844 504.332 413.924 503.408 414.848C502.484 415.76 501.398 416.204 500.15 416.18C498.902 416.204 497.822 415.76 496.91 414.848C495.998 413.924 495.554 412.844 495.578 411.608ZM503.336 411.626C503.336 410.69 503.03 409.904 502.418 409.268C501.818 408.632 501.068 408.314 500.168 408.314C499.268 408.314 498.512 408.632 497.9 409.268C497.3 409.892 497 410.678 497 411.626C497 412.55 497.3 413.33 497.9 413.966C498.512 414.59 499.262 414.902 500.15 414.902C501.038 414.902 501.788 414.584 502.4 413.948C503.024 413.312 503.336 412.538 503.336 411.626ZM515.834 411.77C515.858 412.97 515.414 414.014 514.502 414.902C513.59 415.778 512.51 416.204 511.262 416.18C509.918 416.18 508.826 415.724 507.986 414.812C507.158 413.9 506.744 412.712 506.744 411.248V409.718C506.744 408.35 506.876 407.246 507.14 406.406C507.716 404.606 509.384 403.472 512.144 403.004C513.62 402.74 514.604 402.506 515.096 402.302V403.634C514.532 403.874 513.602 404.09 512.306 404.282C511.07 404.462 510.14 404.78 509.516 405.236C508.892 405.692 508.502 406.22 508.346 406.82C508.178 407.432 508.094 408.2 508.094 409.124C508.466 408.572 508.946 408.14 509.534 407.828C510.134 407.516 510.776 407.36 511.46 407.36C512.636 407.336 513.662 407.774 514.538 408.674C515.426 409.562 515.858 410.594 515.834 411.77ZM513.494 414.002C514.106 413.39 514.412 412.646 514.412 411.77C514.412 410.894 514.106 410.156 513.494 409.556C512.894 408.944 512.156 408.638 511.28 408.638C510.416 408.638 509.678 408.944 509.066 409.556C508.454 410.168 508.148 410.906 508.148 411.77C508.148 412.622 508.454 413.36 509.066 413.984C509.69 414.596 510.428 414.902 511.28 414.902C512.156 414.902 512.894 414.602 513.494 414.002ZM529.824 418.538V416H518.268V407.234H519.654V414.776H523.326V407.234H524.712V414.776H528.402V407.234H529.788V414.776H531.21V418.538H529.824ZM540.95 412.04H534.02C534.104 412.904 534.446 413.6 535.046 414.128C535.646 414.656 536.378 414.92 537.242 414.92C538.238 414.92 539.132 414.524 539.924 413.732L540.734 414.668C539.75 415.688 538.58 416.198 537.224 416.198C535.916 416.198 534.812 415.76 533.912 414.884C533.024 413.996 532.58 412.91 532.58 411.626C532.58 410.354 533.012 409.274 533.876 408.386C534.752 407.486 535.814 407.036 537.062 407.036C538.202 407.036 539.15 407.408 539.906 408.152C540.674 408.896 541.058 409.844 541.058 410.996C541.058 411.332 541.022 411.68 540.95 412.04ZM534.074 410.816H539.636C539.624 410.048 539.372 409.436 538.88 408.98C538.388 408.524 537.77 408.296 537.026 408.296C536.294 408.296 535.658 408.53 535.118 408.998C534.578 409.454 534.23 410.06 534.074 410.816ZM543.493 416V407.234H544.879V410.726H549.181V407.234H550.567V416H549.181V411.95H544.879V416H543.493ZM560.332 407.036H560.836V416H559.45V409.808L554.104 416.198H553.6V407.234H554.986V413.444L560.332 407.036ZM571.624 412.04H564.694C564.778 412.904 565.12 413.6 565.72 414.128C566.32 414.656 567.052 414.92 567.916 414.92C568.912 414.92 569.806 414.524 570.598 413.732L571.408 414.668C570.424 415.688 569.254 416.198 567.898 416.198C566.59 416.198 565.486 415.76 564.586 414.884C563.698 413.996 563.254 412.91 563.254 411.626C563.254 410.354 563.686 409.274 564.55 408.386C565.426 407.486 566.488 407.036 567.736 407.036C568.876 407.036 569.824 407.408 570.58 408.152C571.348 408.896 571.732 409.844 571.732 410.996C571.732 411.332 571.696 411.68 571.624 412.04ZM564.748 410.816H570.31C570.298 410.048 570.046 409.436 569.554 408.98C569.062 408.524 568.444 408.296 567.7 408.296C566.968 408.296 566.332 408.53 565.792 408.998C565.252 409.454 564.904 410.06 564.748 410.816Z" fill="white"/>
<path d="M688.001 563V555.74H688.859V558.732H692.929V555.74H693.787V563H692.929V559.502H688.859V563H688.001ZM699.684 559.7V563H698.892V562.307C698.482 562.85 697.88 563.121 697.088 563.121C696.531 563.121 696.08 562.985 695.735 562.714C695.391 562.435 695.218 562.069 695.218 561.614C695.218 561.159 695.394 560.796 695.746 560.525C696.098 560.254 696.564 560.118 697.143 560.118H698.837V559.656C698.837 559.223 698.72 558.89 698.485 558.655C698.258 558.42 697.943 558.303 697.539 558.303C696.938 558.303 696.417 558.589 695.977 559.161L695.416 558.699C695.893 557.914 696.619 557.522 697.594 557.522C698.24 557.522 698.749 557.713 699.123 558.094C699.497 558.468 699.684 559.003 699.684 559.7ZM698.837 560.943V560.811H697.242C696.472 560.811 696.087 561.064 696.087 561.57C696.087 561.834 696.19 562.043 696.395 562.197C696.608 562.344 696.876 562.417 697.198 562.417C697.646 562.417 698.031 562.274 698.353 561.988C698.676 561.702 698.837 561.354 698.837 560.943ZM700.975 557.643H702.031L704.242 560.096L701.8 563H700.766L703.219 560.096L700.975 557.643ZM704.352 563V557.643H705.199V563H704.352ZM706.343 560.074L708.807 563H707.751L705.309 560.096L707.52 557.643H708.565L706.343 560.074ZM714.092 557.522H714.4V563H713.553V559.216L710.286 563.121H709.978V557.643H710.825V561.438L714.092 557.522ZM716.262 563V557.522H716.57L719.111 560.536L721.641 557.522H721.938V563H721.091V559.381L719.265 561.559H718.935L717.109 559.381V563H716.262ZM727.818 559.7V563H727.026V562.307C726.615 562.85 726.014 563.121 725.222 563.121C724.665 563.121 724.214 562.985 723.869 562.714C723.524 562.435 723.352 562.069 723.352 561.614C723.352 561.159 723.528 560.796 723.88 560.525C724.232 560.254 724.698 560.118 725.277 560.118H726.971V559.656C726.971 559.223 726.854 558.89 726.619 558.655C726.392 558.42 726.076 558.303 725.673 558.303C725.072 558.303 724.551 558.589 724.111 559.161L723.55 558.699C724.027 557.914 724.753 557.522 725.728 557.522C726.373 557.522 726.883 557.713 727.257 558.094C727.631 558.468 727.818 559.003 727.818 559.7ZM726.971 560.943V560.811H725.376C724.606 560.811 724.221 561.064 724.221 561.57C724.221 561.834 724.324 562.043 724.529 562.197C724.742 562.344 725.009 562.417 725.332 562.417C725.779 562.417 726.164 562.274 726.487 561.988C726.81 561.702 726.971 561.354 726.971 560.943ZM731.386 557.643H733.52V563H732.673V561.042H731.661L730.187 563H729.197L730.759 560.932C730.363 560.815 730.051 560.62 729.824 560.349C729.604 560.07 729.494 559.74 729.494 559.359C729.494 558.838 729.666 558.424 730.011 558.116C730.355 557.801 730.814 557.643 731.386 557.643ZM732.673 560.294V558.402H731.441C731.103 558.402 730.839 558.486 730.649 558.655C730.458 558.824 730.363 559.055 730.363 559.348C730.363 559.634 730.458 559.865 730.649 560.041C730.847 560.21 731.114 560.294 731.452 560.294H732.673ZM738.477 563V557.643H739.324V563H738.477ZM740.468 560.074L742.987 563H741.92L739.434 560.096L741.689 557.643H742.745L740.468 560.074ZM744.138 563V557.643H744.985V559.777H747.614V557.643H748.461V563H747.614V560.525H744.985V563H744.138ZM749.93 560.316C749.915 559.553 750.187 558.893 750.744 558.336C751.309 557.779 751.972 557.507 752.735 557.522C753.505 557.507 754.169 557.779 754.726 558.336C755.283 558.893 755.555 559.553 755.54 560.316C755.555 561.071 755.28 561.731 754.715 562.296C754.15 562.853 753.487 563.125 752.724 563.11C751.961 563.125 751.301 562.853 750.744 562.296C750.187 561.731 749.915 561.071 749.93 560.316ZM754.671 560.327C754.671 559.755 754.484 559.275 754.11 558.886C753.743 558.497 753.285 558.303 752.735 558.303C752.185 558.303 751.723 558.497 751.349 558.886C750.982 559.267 750.799 559.748 750.799 560.327C750.799 560.892 750.982 561.368 751.349 561.757C751.723 562.138 752.181 562.329 752.724 562.329C753.267 562.329 753.725 562.135 754.099 561.746C754.48 561.357 754.671 560.884 754.671 560.327ZM757.029 563V557.643H761.308V563H760.45V558.402H757.876V563H757.029ZM763.163 563V557.643H764.01V563H763.163ZM765.154 560.074L767.673 563H766.606L764.12 560.096L766.375 557.643H767.431L765.154 560.074ZM772.63 557.643H773.532L770.892 563.748C770.496 564.65 769.891 565.101 769.077 565.101C768.791 565.101 768.516 565.064 768.252 564.991V564.276C768.56 564.313 768.776 564.331 768.901 564.331C769.194 564.331 769.436 564.265 769.627 564.133C769.817 564.008 769.979 563.788 770.111 563.473L770.397 562.835L768.175 557.643H769.088L770.859 561.911L772.63 557.643ZM777.451 560.316C777.437 559.553 777.708 558.893 778.265 558.336C778.83 557.779 779.494 557.507 780.256 557.522C781.026 557.507 781.69 557.779 782.247 558.336C782.805 558.893 783.076 559.553 783.061 560.316C783.076 561.071 782.801 561.731 782.236 562.296C781.672 562.853 781.008 563.125 780.245 563.11C779.483 563.125 778.823 562.853 778.265 562.296C777.708 561.731 777.437 561.071 777.451 560.316ZM782.192 560.327C782.192 559.755 782.005 559.275 781.631 558.886C781.265 558.497 780.806 558.303 780.256 558.303C779.706 558.303 779.244 558.497 778.87 558.886C778.504 559.267 778.32 559.748 778.32 560.327C778.32 560.892 778.504 561.368 778.87 561.757C779.244 562.138 779.703 562.329 780.245 562.329C780.788 562.329 781.246 562.135 781.62 561.746C782.002 561.357 782.192 560.884 782.192 560.327ZM785.553 563V558.402H783.749V557.643H788.193V558.402H786.389V563H785.553ZM789.363 563V557.643H793.642V563H792.784V558.402H790.21V563H789.363ZM800.205 558.325C800.711 558.86 800.964 559.524 800.964 560.316C800.964 561.108 800.707 561.775 800.194 562.318C799.688 562.853 799.061 563.121 798.313 563.121C797.469 563.121 796.813 562.824 796.344 562.23V564.98H795.497V557.643H796.289V558.501C796.494 558.193 796.776 557.955 797.136 557.786C797.495 557.61 797.887 557.522 798.313 557.522C799.075 557.522 799.706 557.79 800.205 558.325ZM799.545 561.768C799.911 561.387 800.095 560.906 800.095 560.327C800.095 559.748 799.911 559.267 799.545 558.886C799.185 558.497 798.734 558.303 798.192 558.303C797.678 558.303 797.238 558.479 796.872 558.831C796.512 559.183 796.333 559.678 796.333 560.316C796.333 560.969 796.509 561.471 796.861 561.823C797.22 562.168 797.664 562.34 798.192 562.34C798.734 562.34 799.185 562.149 799.545 561.768ZM806.462 559.7V563H805.67V562.307C805.259 562.85 804.658 563.121 803.866 563.121C803.308 563.121 802.857 562.985 802.513 562.714C802.168 562.435 801.996 562.069 801.996 561.614C801.996 561.159 802.172 560.796 802.524 560.525C802.876 560.254 803.341 560.118 803.921 560.118H805.615V559.656C805.615 559.223 805.497 558.89 805.263 558.655C805.035 558.42 804.72 558.303 804.317 558.303C803.715 558.303 803.195 558.589 802.755 559.161L802.194 558.699C802.67 557.914 803.396 557.522 804.372 557.522C805.017 557.522 805.527 557.713 805.901 558.094C806.275 558.468 806.462 559.003 806.462 559.7ZM805.615 560.943V560.811H804.02C803.25 560.811 802.865 561.064 802.865 561.57C802.865 561.834 802.967 562.043 803.173 562.197C803.385 562.344 803.653 562.417 803.976 562.417C804.423 562.417 804.808 562.274 805.131 561.988C805.453 561.702 805.615 561.354 805.615 560.943ZM812.647 561.383C812.647 561.867 812.471 562.259 812.119 562.56C811.775 562.853 811.316 563 810.744 563H808.258V557.643H810.469C810.997 557.643 811.415 557.771 811.723 558.028C812.039 558.285 812.196 558.629 812.196 559.062C812.196 559.509 812.009 559.854 811.635 560.096C812.31 560.331 812.647 560.76 812.647 561.383ZM809.105 558.402V559.832H810.48C811.067 559.832 811.36 559.59 811.36 559.106C811.36 558.637 811.067 558.402 810.48 558.402H809.105ZM811.8 561.383C811.8 561.134 811.701 560.939 811.503 560.8C811.313 560.653 811.041 560.58 810.689 560.58H809.105V562.252H810.689C811.034 562.252 811.305 562.175 811.503 562.021C811.701 561.86 811.8 561.647 811.8 561.383ZM818.356 557.522H818.664V563H817.817V559.216L814.55 563.121H814.242V557.643H815.089V561.438L818.356 557.522ZM821.615 563V558.402H819.811V557.643H824.255V558.402H822.451V563H821.615ZM825.424 563V557.643H826.271V559.491H827.547C828.156 559.491 828.64 559.652 828.999 559.975C829.366 560.29 829.549 560.712 829.549 561.24C829.549 561.768 829.366 562.193 828.999 562.516C828.64 562.839 828.156 563 827.547 563H825.424ZM826.271 562.252H827.503C827.87 562.252 828.156 562.164 828.361 561.988C828.574 561.805 828.68 561.559 828.68 561.251C828.68 560.943 828.574 560.697 828.361 560.514C828.149 560.331 827.859 560.239 827.492 560.239H826.271V562.252ZM831.087 564.969L831.23 562.01H832.231L831.78 564.969H831.087ZM841.587 561.383C841.587 561.867 841.411 562.259 841.059 562.56C840.714 562.853 840.256 563 839.684 563H837.198V557.643H839.409C839.937 557.643 840.355 557.771 840.663 558.028C840.978 558.285 841.136 558.629 841.136 559.062C841.136 559.509 840.949 559.854 840.575 560.096C841.249 560.331 841.587 560.76 841.587 561.383ZM838.045 558.402V559.832H839.42C840.006 559.832 840.3 559.59 840.3 559.106C840.3 558.637 840.006 558.402 839.42 558.402H838.045ZM840.74 561.383C840.74 561.134 840.641 560.939 840.443 560.8C840.252 560.653 839.981 560.58 839.629 560.58H838.045V562.252H839.629C839.973 562.252 840.245 562.175 840.443 562.021C840.641 561.86 840.74 561.647 840.74 561.383ZM843.181 563V557.643H844.028V559.491H845.304C845.905 559.491 846.389 559.652 846.756 559.975C847.123 560.29 847.306 560.712 847.306 561.24C847.306 561.775 847.123 562.204 846.756 562.527C846.397 562.842 845.913 563 845.304 563H843.181ZM848.087 563V557.643H848.934V563H848.087ZM844.028 562.252H845.26C845.641 562.252 845.931 562.168 846.129 561.999C846.334 561.823 846.437 561.574 846.437 561.251C846.437 560.928 846.334 560.679 846.129 560.503C845.924 560.327 845.63 560.239 845.249 560.239H844.028V562.252ZM853.88 563V557.643H858.159V563H857.301V558.402H854.727V563H853.88ZM864.722 558.325C865.228 558.86 865.481 559.524 865.481 560.316C865.481 561.108 865.224 561.775 864.711 562.318C864.205 562.853 863.578 563.121 862.83 563.121C861.987 563.121 861.33 562.824 860.861 562.23V564.98H860.014V557.643H860.806V558.501C861.011 558.193 861.294 557.955 861.653 557.786C862.012 557.61 862.405 557.522 862.83 557.522C863.593 557.522 864.223 557.79 864.722 558.325ZM864.062 561.768C864.429 561.387 864.612 560.906 864.612 560.327C864.612 559.748 864.429 559.267 864.062 558.886C863.703 558.497 863.252 558.303 862.709 558.303C862.196 558.303 861.756 558.479 861.389 558.831C861.03 559.183 860.85 559.678 860.85 560.316C860.85 560.969 861.026 561.471 861.378 561.823C861.737 562.168 862.181 562.34 862.709 562.34C863.252 562.34 863.703 562.149 864.062 561.768ZM871.078 557.522H871.386V563H870.539V559.216L867.272 563.121H866.964V557.643H867.811V561.438L871.078 557.522ZM873.248 563V557.643H874.095V559.777H876.724V557.643H877.571V563H876.724V560.525H874.095V563H873.248ZM883.539 557.522H883.847V563H883V559.216L879.733 563.121H879.425V557.643H880.272V561.438L883.539 557.522ZM885.709 563V557.522H886.017L888.558 560.536L891.088 557.522H891.385V563H890.538V559.381L888.712 561.559H888.382L886.556 559.381V563H885.709ZM897.265 559.7V563H896.473V562.307C896.063 562.85 895.461 563.121 894.669 563.121C894.112 563.121 893.661 562.985 893.316 562.714C892.972 562.435 892.799 562.069 892.799 561.614C892.799 561.159 892.975 560.796 893.327 560.525C893.679 560.254 894.145 560.118 894.724 560.118H896.418V559.656C896.418 559.223 896.301 558.89 896.066 558.655C895.839 558.42 895.524 558.303 895.12 558.303C894.519 558.303 893.998 558.589 893.558 559.161L892.997 558.699C893.474 557.914 894.2 557.522 895.175 557.522C895.821 557.522 896.33 557.713 896.704 558.094C897.078 558.468 897.265 559.003 897.265 559.7ZM896.418 560.943V560.811H894.823C894.053 560.811 893.668 561.064 893.668 561.57C893.668 561.834 893.771 562.043 893.976 562.197C894.189 562.344 894.457 562.417 894.779 562.417C895.227 562.417 895.612 562.274 895.934 561.988C896.257 561.702 896.418 561.354 896.418 560.943ZM903.792 560.58H899.557C899.608 561.108 899.817 561.533 900.184 561.856C900.551 562.179 900.998 562.34 901.526 562.34C902.135 562.34 902.681 562.098 903.165 561.614L903.66 562.186C903.059 562.809 902.344 563.121 901.515 563.121C900.716 563.121 900.041 562.853 899.491 562.318C898.948 561.775 898.677 561.112 898.677 560.327C898.677 559.55 898.941 558.89 899.469 558.347C900.004 557.797 900.653 557.522 901.416 557.522C902.113 557.522 902.692 557.749 903.154 558.204C903.623 558.659 903.858 559.238 903.858 559.942C903.858 560.147 903.836 560.36 903.792 560.58ZM899.59 559.832H902.989C902.982 559.363 902.828 558.989 902.527 558.71C902.226 558.431 901.849 558.292 901.394 558.292C900.947 558.292 900.558 558.435 900.228 558.721C899.898 559 899.685 559.37 899.59 559.832ZM906.349 563V558.402H904.545V557.643H908.989V558.402H907.185V563H906.349ZM914.878 560.58H910.643C910.694 561.108 910.903 561.533 911.27 561.856C911.637 562.179 912.084 562.34 912.612 562.34C913.221 562.34 913.767 562.098 914.251 561.614L914.746 562.186C914.145 562.809 913.43 563.121 912.601 563.121C911.802 563.121 911.127 562.853 910.577 562.318C910.034 561.775 909.763 561.112 909.763 560.327C909.763 559.55 910.027 558.89 910.555 558.347C911.09 557.797 911.739 557.522 912.502 557.522C913.199 557.522 913.778 557.749 914.24 558.204C914.709 558.659 914.944 559.238 914.944 559.942C914.944 560.147 914.922 560.36 914.878 560.58ZM910.676 559.832H914.075C914.068 559.363 913.914 558.989 913.613 558.71C913.312 558.431 912.935 558.292 912.48 558.292C912.033 558.292 911.644 558.435 911.314 558.721C910.984 559 910.771 559.37 910.676 559.832ZM687.935 577V571.643H688.782V573.777H691.411V571.643H692.258V577H691.411V574.525H688.782V577H687.935ZM698.127 573.7V577H697.335V576.307C696.924 576.85 696.323 577.121 695.531 577.121C694.973 577.121 694.522 576.985 694.178 576.714C693.833 576.435 693.661 576.069 693.661 575.614C693.661 575.159 693.837 574.796 694.189 574.525C694.541 574.254 695.006 574.118 695.586 574.118H697.28V573.656C697.28 573.223 697.162 572.89 696.928 572.655C696.7 572.42 696.385 572.303 695.982 572.303C695.38 572.303 694.86 572.589 694.42 573.161L693.859 572.699C694.335 571.914 695.061 571.522 696.037 571.522C696.682 571.522 697.192 571.713 697.566 572.094C697.94 572.468 698.127 573.003 698.127 573.7ZM697.28 574.943V574.811H695.685C694.915 574.811 694.53 575.064 694.53 575.57C694.53 575.834 694.632 576.043 694.838 576.197C695.05 576.344 695.318 576.417 695.641 576.417C696.088 576.417 696.473 576.274 696.796 575.988C697.118 575.702 697.28 575.354 697.28 574.943ZM699.923 577V571.643H700.77V576.252H703.014V571.643H703.861V576.252H706.116V571.643H706.963V577H699.923ZM712.932 571.522H713.24V577H712.393V573.216L709.126 577.121H708.818V571.643H709.665V575.438L712.932 571.522ZM723.3 569.74H724.169L721.562 575.295C721.247 575.962 720.946 576.428 720.66 576.692C720.359 576.971 719.971 577.11 719.494 577.11C719.289 577.11 719.091 577.073 718.9 577V576.252C719.098 576.296 719.289 576.318 719.472 576.318C719.721 576.318 719.93 576.259 720.099 576.142C720.268 576.017 720.429 575.808 720.583 575.515L717.69 569.74H718.658L721.056 574.525L723.3 569.74ZM724.385 574.316C724.37 573.553 724.642 572.893 725.199 572.336C725.756 571.779 726.42 571.507 727.19 571.522C727.652 571.522 728.074 571.625 728.455 571.83C728.836 572.035 729.152 572.321 729.401 572.688L728.796 573.172C728.371 572.593 727.839 572.303 727.201 572.303C726.651 572.303 726.189 572.501 725.815 572.897C725.441 573.286 725.254 573.759 725.254 574.316C725.254 574.881 725.441 575.361 725.815 575.757C726.189 576.146 726.651 576.34 727.201 576.34C727.832 576.34 728.36 576.054 728.785 575.482L729.39 575.955C728.862 576.732 728.129 577.121 727.19 577.121C726.413 577.121 725.749 576.85 725.199 576.307C724.656 575.757 724.385 575.093 724.385 574.316ZM731.247 571.643H734.877V577H734.03V572.402H732.039L732.017 573.062C731.965 574.507 731.819 575.526 731.577 576.12C731.335 576.714 730.906 577.022 730.29 577.044C730.18 577.044 730.084 577.029 730.004 577V576.285C730.121 576.3 730.194 576.307 730.224 576.307C730.561 576.307 730.803 576.047 730.95 575.526C731.104 575.005 731.192 574.177 731.214 573.04L731.247 571.643ZM736.363 574.316C736.348 573.553 736.619 572.893 737.177 572.336C737.741 571.779 738.405 571.507 739.168 571.522C739.938 571.507 740.601 571.779 741.159 572.336C741.716 572.893 741.987 573.553 741.973 574.316C741.987 575.071 741.712 575.731 741.148 576.296C740.583 576.853 739.919 577.125 739.157 577.11C738.394 577.125 737.734 576.853 737.177 576.296C736.619 575.731 736.348 575.071 736.363 574.316ZM741.104 574.327C741.104 573.755 740.917 573.275 740.543 572.886C740.176 572.497 739.718 572.303 739.168 572.303C738.618 572.303 738.156 572.497 737.782 572.886C737.415 573.267 737.232 573.748 737.232 574.327C737.232 574.892 737.415 575.368 737.782 575.757C738.156 576.138 738.614 576.329 739.157 576.329C739.699 576.329 740.158 576.135 740.532 575.746C740.913 575.357 741.104 574.884 741.104 574.327ZM747.85 575.383C747.85 575.867 747.674 576.259 747.322 576.56C746.978 576.853 746.519 577 745.947 577H743.461V571.643H745.672C746.2 571.643 746.618 571.771 746.926 572.028C747.242 572.285 747.399 572.629 747.399 573.062C747.399 573.509 747.212 573.854 746.838 574.096C747.513 574.331 747.85 574.76 747.85 575.383ZM744.308 572.402V573.832H745.683C746.27 573.832 746.563 573.59 746.563 573.106C746.563 572.637 746.27 572.402 745.683 572.402H744.308ZM747.003 575.383C747.003 575.134 746.904 574.939 746.706 574.8C746.516 574.653 746.244 574.58 745.892 574.58H744.308V576.252H745.892C746.237 576.252 746.508 576.175 746.706 576.021C746.904 575.86 747.003 575.647 747.003 575.383ZM753.559 571.522H753.867V577H753.02V573.216L749.753 577.121H749.445V571.643H750.292V575.438L753.559 571.522ZM757.5 571.643H759.634V577H758.787V575.042H757.775L756.301 577H755.311L756.873 574.932C756.477 574.815 756.165 574.62 755.938 574.349C755.718 574.07 755.608 573.74 755.608 573.359C755.608 572.838 755.78 572.424 756.125 572.116C756.47 571.801 756.928 571.643 757.5 571.643ZM758.787 574.294V572.402H757.555C757.218 572.402 756.954 572.486 756.763 572.655C756.572 572.824 756.477 573.055 756.477 573.348C756.477 573.634 756.572 573.865 756.763 574.041C756.961 574.21 757.229 574.294 757.566 574.294H758.787ZM768.705 571.522H769.013V577H768.166V573.216L764.899 577.121H764.591V571.643H765.438V575.438L768.705 571.522ZM770.49 574.316C770.476 573.553 770.747 572.893 771.304 572.336C771.862 571.779 772.525 571.507 773.295 571.522C773.757 571.522 774.179 571.625 774.56 571.83C774.942 572.035 775.257 572.321 775.506 572.688L774.901 573.172C774.476 572.593 773.944 572.303 773.306 572.303C772.756 572.303 772.294 572.501 771.92 572.897C771.546 573.286 771.359 573.759 771.359 574.316C771.359 574.881 771.546 575.361 771.92 575.757C772.294 576.146 772.756 576.34 773.306 576.34C773.937 576.34 774.465 576.054 774.89 575.482L775.495 575.955C774.967 576.732 774.234 577.121 773.295 577.121C772.518 577.121 771.854 576.85 771.304 576.307C770.762 575.757 770.49 575.093 770.49 574.316ZM776.934 577V571.643H781.213V577H780.355V572.402H777.781V577H776.934ZM782.683 574.316C782.668 573.553 782.939 572.893 783.497 572.336C784.061 571.779 784.725 571.507 785.488 571.522C786.258 571.507 786.921 571.779 787.479 572.336C788.036 572.893 788.307 573.553 788.293 574.316C788.307 575.071 788.032 575.731 787.468 576.296C786.903 576.853 786.239 577.125 785.477 577.11C784.714 577.125 784.054 576.853 783.497 576.296C782.939 575.731 782.668 575.071 782.683 574.316ZM787.424 574.327C787.424 573.755 787.237 573.275 786.863 572.886C786.496 572.497 786.038 572.303 785.488 572.303C784.938 572.303 784.476 572.497 784.102 572.886C783.735 573.267 783.552 573.748 783.552 574.327C783.552 574.892 783.735 575.368 784.102 575.757C784.476 576.138 784.934 576.329 785.477 576.329C786.019 576.329 786.478 576.135 786.852 575.746C787.233 575.357 787.424 574.884 787.424 574.327ZM790.2 571.643H793.83V577H792.983V572.402H790.992L790.97 573.062C790.918 574.507 790.772 575.526 790.53 576.12C790.288 576.714 789.859 577.022 789.243 577.044C789.133 577.044 789.037 577.029 788.957 577V576.285C789.074 576.3 789.147 576.307 789.177 576.307C789.514 576.307 789.756 576.047 789.903 575.526C790.057 575.005 790.145 574.177 790.167 573.04L790.2 571.643ZM795.701 577V571.643H796.548V573.491H797.824C798.432 573.491 798.916 573.652 799.276 573.975C799.642 574.29 799.826 574.712 799.826 575.24C799.826 575.768 799.642 576.193 799.276 576.516C798.916 576.839 798.432 577 797.824 577H795.701ZM796.548 576.252H797.78C798.146 576.252 798.432 576.164 798.638 575.988C798.85 575.805 798.957 575.559 798.957 575.251C798.957 574.943 798.85 574.697 798.638 574.514C798.425 574.331 798.135 574.239 797.769 574.239H796.548V576.252ZM804.842 575.46C804.842 575.966 804.655 576.369 804.281 576.67C803.914 576.971 803.426 577.121 802.818 577.121C801.952 577.121 801.267 576.776 800.761 576.087L801.333 575.581C801.714 576.087 802.205 576.34 802.807 576.34C803.173 576.34 803.459 576.256 803.665 576.087C803.87 575.918 803.973 575.691 803.973 575.405C803.973 575.141 803.87 574.932 803.665 574.778C803.459 574.617 803.173 574.536 802.807 574.536H802.224V573.788H802.796C803.419 573.788 803.731 573.539 803.731 573.04C803.731 572.813 803.646 572.633 803.478 572.501C803.316 572.369 803.082 572.303 802.774 572.303C802.238 572.303 801.791 572.523 801.432 572.963L800.86 572.457C801.314 571.834 801.963 571.522 802.807 571.522C803.342 571.522 803.767 571.654 804.083 571.918C804.405 572.175 804.567 572.53 804.567 572.985C804.567 573.491 804.354 573.876 803.929 574.14C804.537 574.382 804.842 574.822 804.842 575.46ZM805.961 574.316C805.946 573.553 806.218 572.893 806.775 572.336C807.34 571.779 808.003 571.507 808.766 571.522C809.536 571.507 810.2 571.779 810.757 572.336C811.314 572.893 811.586 573.553 811.571 574.316C811.586 575.071 811.311 575.731 810.746 576.296C810.181 576.853 809.518 577.125 808.755 577.11C807.992 577.125 807.332 576.853 806.775 576.296C806.218 575.731 805.946 575.071 805.961 574.316ZM810.702 574.327C810.702 573.755 810.515 573.275 810.141 572.886C809.774 572.497 809.316 572.303 808.766 572.303C808.216 572.303 807.754 572.497 807.38 572.886C807.013 573.267 806.83 573.748 806.83 574.327C806.83 574.892 807.013 575.368 807.38 575.757C807.754 576.138 808.212 576.329 808.755 576.329C809.298 576.329 809.756 576.135 810.13 575.746C810.511 575.357 810.702 574.884 810.702 574.327ZM817.449 575.383C817.449 575.867 817.273 576.259 816.921 576.56C816.576 576.853 816.118 577 815.546 577H813.06V571.643H815.271C815.799 571.643 816.217 571.771 816.525 572.028C816.84 572.285 816.998 572.629 816.998 573.062C816.998 573.509 816.811 573.854 816.437 574.096C817.112 574.331 817.449 574.76 817.449 575.383ZM813.907 572.402V573.832H815.282C815.869 573.832 816.162 573.59 816.162 573.106C816.162 572.637 815.869 572.402 815.282 572.402H813.907ZM816.602 575.383C816.602 575.134 816.503 574.939 816.305 574.8C816.114 574.653 815.843 574.58 815.491 574.58H813.907V576.252H815.491C815.836 576.252 816.107 576.175 816.305 576.021C816.503 575.86 816.602 575.647 816.602 575.383ZM823.058 573.7V577H822.266V576.307C821.856 576.85 821.254 577.121 820.462 577.121C819.905 577.121 819.454 576.985 819.109 576.714C818.765 576.435 818.592 576.069 818.592 575.614C818.592 575.159 818.768 574.796 819.12 574.525C819.472 574.254 819.938 574.118 820.517 574.118H822.211V573.656C822.211 573.223 822.094 572.89 821.859 572.655C821.632 572.42 821.317 572.303 820.913 572.303C820.312 572.303 819.791 572.589 819.351 573.161L818.79 572.699C819.267 571.914 819.993 571.522 820.968 571.522C821.614 571.522 822.123 571.713 822.497 572.094C822.871 572.468 823.058 573.003 823.058 573.7ZM822.211 574.943V574.811H820.616C819.846 574.811 819.461 575.064 819.461 575.57C819.461 575.834 819.564 576.043 819.769 576.197C819.982 576.344 820.25 576.417 820.572 576.417C821.02 576.417 821.405 576.274 821.727 575.988C822.05 575.702 822.211 575.354 822.211 574.943ZM824.855 577V571.643H825.702V573.777H828.331V571.643H829.178V577H828.331V574.525H825.702V577H824.855ZM835.146 571.522H835.454V577H834.607V573.216L831.34 577.121H831.032V571.643H831.879V575.438L835.146 571.522ZM839.087 571.643H841.221V577H840.374V575.042H839.362L837.888 577H836.898L838.46 574.932C838.064 574.815 837.752 574.62 837.525 574.349C837.305 574.07 837.195 573.74 837.195 573.359C837.195 572.838 837.367 572.424 837.712 572.116C838.057 571.801 838.515 571.643 839.087 571.643ZM840.374 574.294V572.402H839.142C838.805 572.402 838.541 572.486 838.35 572.655C838.159 572.824 838.064 573.055 838.064 573.348C838.064 573.634 838.159 573.865 838.35 574.041C838.548 574.21 838.816 574.294 839.153 574.294H840.374ZM850.292 571.522H850.6V577H849.753V573.216L846.486 577.121H846.178V571.643H847.025V575.438L850.292 571.522ZM855.611 577V569.74H861.287V577H860.429V570.51H856.469V577H855.611ZM862.787 574.316C862.773 573.553 863.044 572.893 863.601 572.336C864.166 571.779 864.83 571.507 865.592 571.522C866.362 571.507 867.026 571.779 867.583 572.336C868.141 572.893 868.412 573.553 868.397 574.316C868.412 575.071 868.137 575.731 867.572 576.296C867.008 576.853 866.344 577.125 865.581 577.11C864.819 577.125 864.159 576.853 863.601 576.296C863.044 575.731 862.773 575.071 862.787 574.316ZM867.528 574.327C867.528 573.755 867.341 573.275 866.967 572.886C866.601 572.497 866.142 572.303 865.592 572.303C865.042 572.303 864.58 572.497 864.206 572.886C863.84 573.267 863.656 573.748 863.656 574.327C863.656 574.892 863.84 575.368 864.206 575.757C864.58 576.138 865.039 576.329 865.581 576.329C866.124 576.329 866.582 576.135 866.956 575.746C867.338 575.357 867.528 574.884 867.528 574.327ZM870.304 571.643H873.934V577H873.087V572.402H871.096L871.074 573.062C871.023 574.507 870.876 575.526 870.634 576.12C870.392 576.714 869.963 577.022 869.347 577.044C869.237 577.044 869.142 577.029 869.061 577V576.285C869.179 576.3 869.252 576.307 869.281 576.307C869.619 576.307 869.861 576.047 870.007 575.526C870.161 575.005 870.249 574.177 870.271 573.04L870.304 571.643ZM879.919 571.522H880.227V577H879.38V573.216L876.113 577.121H875.805V571.643H876.652V575.438L879.919 571.522ZM883.178 577V572.402H881.374V571.643H885.818V572.402H884.014V577H883.178ZM891.102 571.522H891.41V577H890.563V573.216L887.296 577.121H886.988V571.643H887.835V575.438L891.102 571.522ZM893.272 577V571.643H894.119V577H893.272ZM895.263 574.074L897.782 577H896.715L894.229 574.096L896.484 571.643H897.54L895.263 574.074ZM902.739 571.643H903.641L901.001 577.748C900.605 578.65 900 579.101 899.186 579.101C898.9 579.101 898.625 579.064 898.361 578.991V578.276C898.669 578.313 898.885 578.331 899.01 578.331C899.303 578.331 899.545 578.265 899.736 578.133C899.927 578.008 900.088 577.788 900.22 577.473L900.506 576.835L898.284 571.643H899.197L900.968 575.911L902.739 571.643ZM687.935 591V585.643H688.782V591H687.935ZM689.926 588.074L692.445 591H691.378L688.892 588.096L691.147 585.643H692.203L689.926 588.074ZM693.05 588.316C693.035 587.553 693.307 586.893 693.864 586.336C694.429 585.779 695.092 585.507 695.855 585.522C696.625 585.507 697.289 585.779 697.846 586.336C698.403 586.893 698.675 587.553 698.66 588.316C698.675 589.071 698.4 589.731 697.835 590.296C697.27 590.853 696.607 591.125 695.844 591.11C695.081 591.125 694.421 590.853 693.864 590.296C693.307 589.731 693.035 589.071 693.05 588.316ZM697.791 588.327C697.791 587.755 697.604 587.275 697.23 586.886C696.863 586.497 696.405 586.303 695.855 586.303C695.305 586.303 694.843 586.497 694.469 586.886C694.102 587.267 693.919 587.748 693.919 588.327C693.919 588.892 694.102 589.368 694.469 589.757C694.843 590.138 695.301 590.329 695.844 590.329C696.387 590.329 696.845 590.135 697.219 589.746C697.6 589.357 697.791 588.884 697.791 588.327ZM700.149 591V585.643H700.996V587.777H703.625V585.643H704.472V591H703.625V588.525H700.996V591H700.149ZM709.813 591.121V592.98H708.966V591.121C708.071 591.084 707.341 590.817 706.777 590.318C706.219 589.812 705.941 589.148 705.941 588.327C705.941 587.513 706.223 586.857 706.788 586.358C707.352 585.852 708.078 585.581 708.966 585.544V582.75H709.813V585.544C710.707 585.581 711.433 585.852 711.991 586.358C712.555 586.857 712.838 587.517 712.838 588.338C712.838 589.159 712.555 589.819 711.991 590.318C711.433 590.817 710.707 591.084 709.813 591.121ZM708.977 590.373V586.292C708.309 586.321 707.781 586.516 707.393 586.875C707.004 587.234 706.81 587.722 706.81 588.338C706.81 588.947 707.004 589.431 707.393 589.79C707.781 590.149 708.309 590.344 708.977 590.373ZM711.969 588.327C711.969 587.718 711.774 587.234 711.386 586.875C710.997 586.516 710.469 586.321 709.802 586.292V590.373C710.469 590.344 710.997 590.149 711.386 589.79C711.774 589.431 711.969 588.943 711.969 588.327ZM718.432 585.522H718.74V591H717.893V587.216L714.626 591.121H714.318V585.643H715.165V589.438L718.432 585.522ZM724.76 590.252H725.629V592.551H724.782V591H720.569V592.551H719.722V590.252H720.327C720.767 589.797 721.002 588.763 721.031 587.15L721.064 585.643H724.76V590.252ZM721.218 590.252H723.913V586.402H721.867L721.834 587.161C721.797 588.694 721.592 589.724 721.218 590.252ZM731.584 588.58H727.349C727.4 589.108 727.609 589.533 727.976 589.856C728.343 590.179 728.79 590.34 729.318 590.34C729.927 590.34 730.473 590.098 730.957 589.614L731.452 590.186C730.851 590.809 730.136 591.121 729.307 591.121C728.508 591.121 727.833 590.853 727.283 590.318C726.74 589.775 726.469 589.112 726.469 588.327C726.469 587.55 726.733 586.89 727.261 586.347C727.796 585.797 728.445 585.522 729.208 585.522C729.905 585.522 730.484 585.749 730.946 586.204C731.415 586.659 731.65 587.238 731.65 587.942C731.65 588.147 731.628 588.36 731.584 588.58ZM727.382 587.832H730.781C730.774 587.363 730.62 586.989 730.319 586.71C730.018 586.431 729.641 586.292 729.186 586.292C728.739 586.292 728.35 586.435 728.02 586.721C727.69 587 727.477 587.37 727.382 587.832ZM733.138 591V585.643H733.985V587.777H736.614V585.643H737.461V591H736.614V588.525H733.985V591H733.138ZM743.605 592.551V591H739.315V585.643H740.162V590.252H742.736V585.643H743.583V590.252H744.452V592.551H743.605ZM749.896 585.522H750.204V591H749.357V587.216L746.09 591.121H745.782V585.643H746.629V589.438L749.896 585.522ZM756.081 587.7V591H755.289V590.307C754.878 590.85 754.277 591.121 753.485 591.121C752.928 591.121 752.477 590.985 752.132 590.714C751.787 590.435 751.615 590.069 751.615 589.614C751.615 589.159 751.791 588.796 752.143 588.525C752.495 588.254 752.961 588.118 753.54 588.118H755.234V587.656C755.234 587.223 755.117 586.89 754.882 586.655C754.655 586.42 754.339 586.303 753.936 586.303C753.335 586.303 752.814 586.589 752.374 587.161L751.813 586.699C752.29 585.914 753.016 585.522 753.991 585.522C754.636 585.522 755.146 585.713 755.52 586.094C755.894 586.468 756.081 587.003 756.081 587.7ZM755.234 588.943V588.811H753.639C752.869 588.811 752.484 589.064 752.484 589.57C752.484 589.834 752.587 590.043 752.792 590.197C753.005 590.344 753.272 590.417 753.595 590.417C754.042 590.417 754.427 590.274 754.75 589.988C755.073 589.702 755.234 589.354 755.234 588.943ZM758.295 585.643H761.925V591H761.078V586.402H759.087L759.065 587.062C759.014 588.507 758.867 589.526 758.625 590.12C758.383 590.714 757.954 591.022 757.338 591.044C757.228 591.044 757.133 591.029 757.052 591V590.285C757.17 590.3 757.243 590.307 757.272 590.307C757.61 590.307 757.852 590.047 757.998 589.526C758.152 589.005 758.24 588.177 758.262 587.04L758.295 585.643ZM763.796 591V585.643H764.643V587.491H765.919C766.528 587.491 767.012 587.652 767.371 587.975C767.738 588.29 767.921 588.712 767.921 589.24C767.921 589.768 767.738 590.193 767.371 590.516C767.012 590.839 766.528 591 765.919 591H763.796ZM764.643 590.252H765.875C766.242 590.252 766.528 590.164 766.733 589.988C766.946 589.805 767.052 589.559 767.052 589.251C767.052 588.943 766.946 588.697 766.733 588.514C766.521 588.331 766.231 588.239 765.864 588.239H764.643V590.252ZM769.404 591V585.643H770.251V587.777H772.88V585.643H773.727V591H772.88V588.525H770.251V591H769.404ZM775.196 588.316C775.181 587.553 775.452 586.893 776.01 586.336C776.574 585.779 777.238 585.507 778.001 585.522C778.771 585.507 779.434 585.779 779.992 586.336C780.549 586.893 780.82 587.553 780.806 588.316C780.82 589.071 780.545 589.731 779.981 590.296C779.416 590.853 778.752 591.125 777.99 591.11C777.227 591.125 776.567 590.853 776.01 590.296C775.452 589.731 775.181 589.071 775.196 588.316ZM779.937 588.327C779.937 587.755 779.75 587.275 779.376 586.886C779.009 586.497 778.551 586.303 778.001 586.303C777.451 586.303 776.989 586.497 776.615 586.886C776.248 587.267 776.065 587.748 776.065 588.327C776.065 588.892 776.248 589.368 776.615 589.757C776.989 590.138 777.447 590.329 777.99 590.329C778.532 590.329 778.991 590.135 779.365 589.746C779.746 589.357 779.937 588.884 779.937 588.327ZM781.909 588.316C781.895 587.553 782.166 586.893 782.723 586.336C783.281 585.779 783.944 585.507 784.714 585.522C785.176 585.522 785.598 585.625 785.979 585.83C786.361 586.035 786.676 586.321 786.925 586.688L786.32 587.172C785.895 586.593 785.363 586.303 784.725 586.303C784.175 586.303 783.713 586.501 783.339 586.897C782.965 587.286 782.778 587.759 782.778 588.316C782.778 588.881 782.965 589.361 783.339 589.757C783.713 590.146 784.175 590.34 784.725 590.34C785.356 590.34 785.884 590.054 786.309 589.482L786.914 589.955C786.386 590.732 785.653 591.121 784.714 591.121C783.937 591.121 783.273 590.85 782.723 590.307C782.181 589.757 781.909 589.093 781.909 588.316ZM789.442 591V586.402H787.638V585.643H792.082V586.402H790.278V591H789.442ZM797.365 585.522H797.673V591H796.826V587.216L793.559 591.121H793.251V585.643H794.098V589.438L797.365 585.522ZM799.646 590.923C799.514 590.791 799.448 590.626 799.448 590.428C799.448 590.23 799.514 590.065 799.646 589.933C799.785 589.801 799.95 589.735 800.141 589.735C800.331 589.735 800.493 589.801 800.625 589.933C800.764 590.065 800.834 590.23 800.834 590.428C800.834 590.626 800.764 590.791 800.625 590.923C800.493 591.055 800.331 591.121 800.141 591.121C799.95 591.121 799.785 591.055 799.646 590.923Z" fill="white"/>
<rect width="1366" height="768" fill="url(#paint0_linear)"/>
<path opacity="0.5" d="M1121 481C1121 534.572 1164.43 578 1218 578C1271.57 578 1315 534.572 1315 481C1315 427.428 1271.57 384 1218 384C1164.43 384 1121 427.428 1121 481Z" fill="url(#paint1_radial)"/>
<path opacity="0.5" d="M-85 582C-85 666.5 -16.4996 735 68 735C152.5 735 221 666.5 221 582C221 497.5 152.5 429 68 429C-16.4996 429 -85 497.5 -85 582Z" fill="url(#paint2_radial)"/>
<path opacity="0.5" d="M47 403C47 451.049 85.9512 490 134 490C182.049 490 221 451.049 221 403C221 354.951 182.049 316 134 316C85.9512 316 47 354.951 47 403Z" fill="url(#paint3_radial)"/>
<path opacity="0.5" d="M1032 61C1032 171.457 1121.54 261 1232 261C1342.46 261 1432 171.457 1432 61C1432 -49.457 1342.46 -139 1232 -139C1121.54 -139 1032 -49.457 1032 61Z" fill="url(#paint4_radial)"/>
</g>
<defs>
<linearGradient id="paint0_linear" x1="-9.9343" y1="26.4204" x2="1458.32" y2="370.499" gradientUnits="userSpaceOnUse">
<stop stop-color="#FF8200"/>
<stop offset="1" stop-color="#FE0999"/>
</linearGradient>
<radialGradient id="paint1_radial" cx="0" cy="0" r="1" gradientUnits="userSpaceOnUse" gradientTransform="translate(1217.96 480.975) scale(97.002)">
<stop offset="0.459333" stop-color="white" stop-opacity="0"/>
<stop offset="0.822917" stop-color="white" stop-opacity="0.44"/>
<stop offset="1" stop-color="white" stop-opacity="0.74"/>
</radialGradient>
<radialGradient id="paint2_radial" cx="0" cy="0" r="1" gradientUnits="userSpaceOnUse" gradientTransform="translate(67.9404 581.96) scale(153.003)">
<stop offset="0.459333" stop-color="white" stop-opacity="0"/>
<stop offset="0.822917" stop-color="white" stop-opacity="0.44"/>
<stop offset="1" stop-color="white" stop-opacity="0.74"/>
</radialGradient>
<radialGradient id="paint3_radial" cx="0" cy="0" r="1" gradientUnits="userSpaceOnUse" gradientTransform="translate(133.978 402.984) scale(86.9946 86.9957)">
<stop stop-color="#FFFF00" stop-opacity="0"/>
<stop offset="1" stop-color="#FFFF00" stop-opacity="0.6"/>
</radialGradient>
<radialGradient id="paint4_radial" cx="0" cy="0" r="1" gradientUnits="userSpaceOnUse" gradientTransform="translate(1231.95 60.9638) scale(199.988 199.99)">
<stop stop-color="#FFFF00" stop-opacity="0"/>
<stop offset="1" stop-color="#FFFF00" stop-opacity="0.6"/>
</radialGradient>
<clipPath id="clip0">
<rect width="1366" height="768" fill="white"/>
</clipPath>
</defs>
</svg>
