<svg width="46" height="45" viewBox="0 0 46 45" fill="none" xmlns="http://www.w3.org/2000/svg">
<path d="M46 22.5C46 34.9264 35.9264 45 23.5 45H22.5C10.0736 45 0 34.9264 0 22.5C0 10.0736 10.0736 0 22.5 0H23.5C35.9264 0 46 10.0736 46 22.5Z" fill="#66B027"/>
<path d="M17.9333 14.402C14.8165 17.2136 17.1217 19.0444 20.336 18.6847V23.1309C15.3684 23.6213 11.245 24.7656 7.70605 26.4002C17.6736 22.5752 28.0957 22.4117 39.0373 26.4002C34.7516 24.4713 30.336 23.3925 25.758 23.0656V17.3117C28.9399 16.1674 33.1931 11.2308 26.9269 10.9693C31.0503 11.9174 29.0373 14.3039 25.758 16.2001V8.97503L23.5178 10.7731V17.1155L23.1282 17.279V6L20.336 7.96156V17.8347C16.1152 18.1944 16.245 16.6251 17.9333 14.402ZM23.1282 18.1617L23.5178 18.0309V23.0329H23.1282V18.1617Z" fill="#FEFEFE"/>
<path d="M8.71173 32.4158C8.71173 32.4485 8.67926 32.4812 8.67926 32.5139C8.67926 32.4812 8.64679 32.4485 8.64679 32.4158L7.7377 30.3235H6.76367L8.22471 33.3966C8.09484 33.6254 7.99744 33.8216 7.86757 33.9197C7.6403 34.1158 7.34809 34.0831 7.08835 33.9197L6.95848 33.8543V34.737L7.02341 34.7697C7.18575 34.8351 7.38056 34.8678 7.60783 34.8678C7.90004 34.8678 8.15978 34.7697 8.41952 34.5408C8.64679 34.3447 8.90653 33.9524 9.13381 33.4293L10.4974 30.3562H9.58835L8.71173 32.4158Z" fill="#FEFEFE"/>
<path d="M13.4526 32.1216H11.6344V30.3235H10.7578V34.7697H11.6344V32.9062H13.4526V34.7697H14.3292V30.3235H13.4526V32.1216Z" fill="#FEFEFE"/>
<path d="M16.0492 33.4293C16.0492 33.3312 16.0492 33.2331 16.0492 33.1351V30.3235H15.2051V34.737H16.1142L18.1272 31.6312C18.1272 31.6966 18.1272 31.762 18.1272 31.8273V34.737H18.9713V30.3235H18.0298L16.0492 33.4293Z" fill="#FEFEFE"/>
<path d="M21.8616 30.2581C21.2122 30.2581 20.6603 30.4869 20.2382 30.9119C19.8161 31.3369 19.5889 31.9254 19.5889 32.6119C19.5889 33.2658 19.7837 33.7889 20.1733 34.2139C20.5629 34.6062 21.0824 34.835 21.6993 34.835C22.1863 34.835 22.6084 34.7369 22.933 34.5735L22.9655 34.5408V33.6908L22.8356 33.7889C22.5434 33.985 22.2187 34.0504 21.8291 34.0504C21.4071 34.0504 21.0824 33.9196 20.8551 33.6581C20.5954 33.3965 20.4655 33.0369 20.4655 32.5792C20.4655 32.1215 20.5954 31.7292 20.8551 31.4677C21.1148 31.2061 21.472 31.0427 21.9265 31.0427C22.2512 31.0427 22.5434 31.1081 22.8356 31.2715L22.9655 31.3369V30.4215L22.9006 30.3888C22.6408 30.3234 22.2837 30.2581 21.8616 30.2581Z" fill="#FEFEFE"/>
<path d="M23.1924 31.1081H24.3937V34.7697H25.2703V31.1081H26.5041V30.3235H23.1924V31.1081Z" fill="#FEFEFE"/>
<path d="M27.8041 31.0754H28.2262C28.7457 31.0754 29.0054 31.3043 29.0054 31.762C29.0054 31.9908 28.9405 32.187 28.8106 32.285C28.6807 32.4158 28.4535 32.4812 28.1613 32.4812H27.7717L27.8041 31.0754ZM28.3236 30.3235H26.96V34.737H27.8366V33.2004H28.3236C28.8106 33.2004 29.2327 33.0697 29.5249 32.7754C29.8171 32.5139 29.9794 32.1543 29.9794 31.6966C29.9794 31.2716 29.8496 30.912 29.5574 30.6831C29.2002 30.4543 28.8106 30.3235 28.3236 30.3235Z" fill="#FEFEFE"/>
<path d="M33.1933 33.6581C32.966 33.9196 32.6738 34.0504 32.2842 34.0504C31.9271 34.0504 31.6349 33.9196 31.4076 33.6581C31.1803 33.3965 31.0829 33.0042 31.0829 32.5792C31.0829 32.1215 31.1803 31.7619 31.4401 31.4677C31.6673 31.2061 31.9595 31.0754 32.3167 31.0754C32.7063 31.0754 32.966 31.2061 33.1933 31.4677C33.4206 31.7292 33.518 32.1215 33.518 32.6119C33.518 33.0369 33.4206 33.3965 33.1933 33.6581ZM32.3492 30.2581C31.6998 30.2581 31.1479 30.4869 30.7582 30.9119C30.3686 31.3369 30.1738 31.8927 30.1738 32.6119C30.1738 33.2658 30.3686 33.8216 30.7582 34.2139C31.1479 34.6389 31.6349 34.835 32.2842 34.835C32.9336 34.835 33.4531 34.6062 33.8427 34.2139C34.2323 33.7889 34.4271 33.2331 34.4271 32.5138C34.4271 31.86 34.2323 31.3042 33.8751 30.9119C33.4855 30.4869 32.966 30.2581 32.3492 30.2581Z" fill="#FEFEFE"/>
<path d="M36.082 29.8329C36.3093 30.0291 36.6015 30.0945 36.9262 30.0945C37.2508 30.0945 37.543 29.9964 37.7703 29.8329C37.9976 29.6368 38.1275 29.4079 38.1599 29.081V28.9829H37.4132V29.0483C37.3807 29.2118 37.3482 29.3098 37.2508 29.4079C37.1534 29.4733 37.056 29.5387 36.9262 29.5387C36.6015 29.5387 36.4716 29.3752 36.4391 29.081V29.0156H35.6924V29.1137C35.7249 29.4079 35.8547 29.6368 36.082 29.8329Z" fill="#FEFEFE"/>
<path d="M37.8354 30.3235L35.8549 33.4293C35.8549 33.3312 35.8549 33.2331 35.8549 33.1351V30.3235H35.0107V34.737H35.9198L37.9328 31.6312C37.9328 31.6966 37.9328 31.762 37.9328 31.8273V34.737H38.777V30.3235H37.8354Z" fill="#FEFEFE"/>
</svg>
