<svg width="1440" height="299" viewBox="0 0 1440 299" fill="none" xmlns="http://www.w3.org/2000/svg">
<path d="M1117.98 352.011C1124.05 351.819 1129.75 352.906 1135.41 355.066C1136.8 355.591 1138.14 356.15 1139.51 356.805C1134.9 351.205 1129.97 345.898 1124.68 341.011C1122.68 339.181 1120.62 337.427 1118.49 335.752C1114.1 341.142 1107.42 345.227 1101.36 348.313C1096.27 350.933 1088.7 351.344 1083.97 347.754C1078.79 343.795 1079.7 336.439 1084.39 332.56C1088.9 328.869 1095.5 327.434 1101.1 327.368C1102.79 327.367 1104.55 327.427 1106.29 327.574C1104.51 326.56 1102.72 325.59 1100.92 324.706C1097 322.735 1092.95 320.919 1088.89 319.19C1082.45 322.151 1075.74 324.33 1068.79 325.51C1061.81 326.681 1054.19 326.858 1047.54 323.986C1042.83 321.981 1036.39 316.85 1039.61 310.937C1042.8 305.154 1050.71 305.673 1056.15 306.116C1057.46 306.215 1058.76 306.358 1060.1 306.51C1056.51 304.655 1053.01 302.593 1049.59 300.324C1047.69 299.058 1045.9 297.724 1044.11 296.346C1043.76 296.724 1043.26 296.979 1042.68 297.034C1034.65 297.666 1026.73 299.044 1018.66 298.671C1011.28 298.356 1001.72 296.261 1000.07 287.589C999.551 284.855 1000 281.922 1002.21 280.089C1004.15 278.47 1006.7 278.157 1009.13 278.224C1016.13 278.414 1023.3 281.17 1029.62 283.926C1030.18 284.183 1030.79 284.449 1031.36 284.706C1030.27 283.569 1029.24 282.397 1028.2 281.226C1021.98 274.06 1017.88 265.494 1011.97 258.123C1011.86 258.235 1011.75 258.303 1011.61 258.362C1006 261.366 999.361 262.159 993.118 262.133C986.475 262.111 979.27 261.201 973.602 257.454C969.636 254.66 964.859 247.17 970.303 243.272C974.696 240.144 981.655 241.589 986.535 242.183C990.94 242.72 995.117 243.705 999.036 245.268C996.116 242.969 993.014 240.903 989.898 239.105C985.83 236.786 981.594 234.839 977.358 232.891C976.916 232.887 976.417 232.734 975.955 232.409C975.761 232.278 975.535 232.093 975.341 231.961C971.133 229.884 966.977 227.773 963.11 225.135C960.286 223.219 957.695 221.036 955.34 218.587C953.92 217.559 952.528 216.402 951.343 215.108C947.75 211.399 944.771 206.691 942.539 202.007C940.554 197.829 939.17 190.84 945.448 189.879C953.371 188.682 959.554 196.021 963.061 202.199C965.536 206.573 967.42 211.227 969.491 215.831C970.425 217.885 971.392 219.991 972.626 221.884C974.101 224.099 976.041 226.007 977.939 227.906C978.014 227.967 978.09 228.028 978.156 228.133C982.316 230.019 986.486 231.862 990.455 234.024C994.744 236.345 998.855 239.08 1002.72 242.124C999.785 237.018 995.174 232.684 991.724 228.101C987.466 222.531 983.1 215.4 985.041 207.994C985.761 205.254 987.309 202.375 990.385 202.084C992.872 201.849 995.169 203.335 996.962 204.895C1001.08 208.445 1004.51 213.296 1007.12 218.104C1012.21 227.425 1013.5 239.188 1010.97 249.544C1011.52 250.112 1012.06 250.681 1012.6 251.249C1018.75 257.903 1022.75 265.949 1028.17 273.124C1026.54 268.932 1025.25 264.587 1024.1 260.451C1022.56 255.012 1021.35 248.874 1022.04 243.188C1022.36 240.678 1023.24 238.018 1025.48 236.644C1028.19 234.964 1031.65 235.977 1034.04 237.664C1040.6 242.19 1041.84 252.314 1042.47 259.729C1042.87 264.473 1042.95 269.282 1042.72 274.072C1042.54 278.42 1042.21 282.871 1040.88 287.017C1043.67 289.513 1046.53 291.89 1049.52 294.068C1056.76 299.372 1064.67 303.374 1072.86 306.938C1071.54 305.66 1070.16 304.459 1068.88 303.19C1067.24 301.528 1065.77 299.72 1064.4 297.843C1061.92 294.509 1059.7 291.004 1057.95 287.192C1054.97 280.811 1052.76 271.068 1058.06 265.149C1066.29 255.923 1076.36 277.571 1078 283.575C1079.25 288.275 1080.03 293.143 1080.37 297.965C1080.62 301.771 1080.81 306.019 1079.2 309.608C1088.36 313.423 1097.52 317.195 1106.23 321.82C1101.7 316.508 1097.12 311.186 1093.5 305.12C1089.63 298.592 1086.58 290.703 1089.14 283.068C1089.62 281.678 1090.3 280.151 1091.25 278.817C1091.42 278.446 1091.7 278.146 1092.02 277.898C1092.78 277.064 1093.67 276.441 1094.76 276.087C1097.24 275.262 1099.72 276.517 1101.48 278.25C1105.93 282.504 1108.55 288.899 1110.69 294.604C1114.36 304.57 1113.93 315.466 1113.8 326.019C1113.79 326.062 1113.78 326.105 1113.77 326.148C1117.36 328.41 1120.86 330.922 1124.16 333.71C1129.83 338.496 1135.16 343.799 1140.14 349.524C1138.9 346.635 1137.62 343.693 1136.39 340.761C1135.83 339.872 1135.26 338.983 1134.84 338.077C1133.11 334.361 1131.72 330.491 1130.76 326.487C1128.93 318.68 1128.36 308.744 1135.59 303.512C1136.38 302.956 1137.52 303.019 1138.27 303.633C1144.71 309.172 1145.32 319.975 1146.29 327.869C1146.79 332.319 1147.71 336.721 1147.5 341.242C1147.37 344.334 1146.85 347.388 1146.11 350.396C1146.11 350.804 1146.03 351.193 1145.84 351.468C1145.53 352.713 1145.18 353.905 1144.79 355.132C1147.65 358.73 1150.36 362.43 1152.91 366.233L1106.85 356.365C1109.09 353.18 1114.14 352.138 1117.98 352.011ZM995.384 212.877C995.715 213.401 996.098 213.89 996.481 214.379C996.107 213.846 995.767 213.366 995.384 212.877ZM1026.81 243.893C1026.78 244.022 1026.79 244.161 1026.78 244.248C1026.76 244.516 1026.75 244.785 1026.69 245.044C1026.75 244.785 1026.85 244.534 1026.99 244.293C1026.93 244.145 1026.86 244.04 1026.81 243.893ZM1059.64 274.124C1059.62 274.436 1059.6 274.705 1059.63 274.982C1059.69 274.905 1059.8 274.836 1059.86 274.759C1059.77 274.559 1059.69 274.315 1059.64 274.124ZM1134.57 322.374C1134.93 324.396 1135.45 326.316 1135.97 328.011C1135.54 326.109 1135.05 324.242 1134.57 322.374Z" fill="white" fill-opacity="0.1"/>
<path d="M1229.33 283.409C1208.55 251.755 1190.48 218.113 1166.36 188.68C1152.3 171.436 1125.91 138.776 1100.19 143.432C1106.96 146.129 1113.55 149.778 1118.92 154.678C1148.73 181.805 1163.51 223.233 1175.99 247.362C1192.8 279.788 1214.18 309.005 1241.75 333.692C1246.69 338.136 1251.94 342.463 1257.18 346.528C1259.66 348.434 1262.09 350.185 1264.57 352.091C1268.7 348.686 1272.88 345.174 1277.02 341.769C1271.97 337.277 1267.23 332.407 1262.64 327.478C1250.22 313.693 1239.38 298.696 1229.33 283.409Z" fill="white" fill-opacity="0.1"/>
<path d="M1306.77 203.403C1302.05 169.108 1300.73 171.475 1302.33 140.187C1303.95 123.015 1300.25 92.4568 1301.31 85.329C1302.53 76.9874 1299.81 68.5252 1296.74 60.5483C1297.9 75.2636 1294.77 88.9257 1290.85 102.616C1287.45 114.607 1283.31 126.52 1280.76 138.901C1275.6 164.662 1275.14 191.41 1281.6 217.435C1284.43 229.044 1287.37 240.702 1290.42 252.408C1291.33 255.789 1292.13 259.121 1292.99 262.609C1295.31 271.401 1307.89 319.717 1310.25 328.402L1336.48 323.951C1330.01 287.489 1311.27 236.153 1306.77 203.403Z" fill="white" fill-opacity="0.1"/>
<path d="M1227.98 342.118C1214.56 328.265 1202.72 312.937 1188.23 300.015C1175.04 288.201 1159.95 278.872 1144.07 270.989C1130.59 264.332 1115.78 256.936 1101.15 253.104C1096.11 251.71 1091.18 250.627 1086.14 248.971C1080.4 247.13 1072.82 248.191 1067.6 246.068C1089.81 254.773 1102.53 269.597 1117.39 287.075C1126.71 298.03 1136.39 308.5 1146.78 318.523C1167.17 338.007 1190.01 355.25 1215.9 366.921C1222.31 369.841 1229.02 372.383 1235.71 374.4C1239.63 372.578 1243.45 370.707 1247.21 368.681C1249.79 367.276 1252.25 365.821 1254.56 364.163C1253.86 363.715 1253.16 363.268 1252.57 362.869C1243.48 357.052 1235.34 349.73 1227.98 342.118Z" fill="white" fill-opacity="0.1"/>
<path d="M1269.11 253.564C1265.47 244.295 1261.78 235.132 1257.98 225.921C1248.03 201.912 1237.2 178.407 1222.5 156.617C1221.83 155.539 1221.12 154.567 1220.34 153.439C1219.51 152.156 1218.56 150.825 1217.62 149.493C1212.98 142.991 1207.95 136.188 1202.34 130.403C1200.21 128.274 1198.09 126.145 1195.71 124.287C1194.79 123.48 1193.71 122.732 1192.74 122.031C1188.1 118.627 1183.6 114.641 1178.76 111.664C1177.05 110.623 1175.39 109.738 1173.69 109.221C1172.94 108.88 1172.25 108.695 1171.45 108.461C1167.74 107.282 1163.99 106.735 1160.05 105.196C1163.03 106.297 1165.71 107.776 1168.24 109.575C1170.66 111.326 1172.89 113.241 1174.96 115.477C1186.43 127.668 1192.77 146.293 1198.78 159.993C1205.93 176.278 1212 192.97 1218.11 209.555C1230.22 242.414 1242.96 275.565 1263.7 304.49L1263.76 304.645C1271 314.782 1279.37 324.144 1288.6 332.476C1289.01 332.147 1289.53 331.865 1289.93 331.536C1290.7 330.983 1291.58 330.479 1292.45 329.974L1304.75 330.496C1299.68 320.963 1287.88 299.26 1283.53 289.281C1278.59 277.485 1273.85 265.524 1269.11 253.564Z" fill="white" fill-opacity="0.1"/>
<path d="M760.745 293.148C762.251 294.755 764.411 295.608 766.67 295.608C768.478 295.608 768.478 292.947 766.67 292.947C765.114 292.947 763.758 292.394 762.753 291.29C761.548 289.984 759.539 291.892 760.745 293.148Z" fill="white" fill-opacity="0.1"/>
<path d="M778.019 286.87C778.019 288.779 776.362 290.486 774.303 290.586C772.495 290.637 772.495 293.298 774.303 293.248C777.919 293.097 780.882 290.285 780.882 286.87C780.832 285.163 778.019 285.163 778.019 286.87Z" fill="white" fill-opacity="0.1"/>
<path d="M773.197 275.923C775.056 276.977 776.16 278.785 776.211 280.844C776.261 282.552 779.073 282.552 779.073 280.844C779.023 277.881 777.366 275.169 774.654 273.613C773.047 272.709 771.641 275.019 773.197 275.923Z" fill="white" fill-opacity="0.1"/>
<path d="M765.666 274.466C763.607 275.571 762.151 277.329 761.448 279.388C760.895 281.045 763.657 281.748 764.21 280.091C764.712 278.635 765.716 277.48 767.122 276.726C768.679 275.923 767.273 273.613 765.666 274.466Z" fill="white" fill-opacity="0.1"/>
<path d="M768.829 283.656C769.08 284.862 767.172 285.565 766.67 284.359C766.368 283.706 765.716 283.204 764.912 283.405C764.259 283.556 763.606 284.359 763.908 285.062C764.711 286.87 766.72 288.076 768.829 287.523C770.938 286.971 771.993 284.862 771.541 282.953C771.189 281.296 768.478 281.999 768.829 283.656Z" fill="white" fill-opacity="0.1"/>
<path d="M722.076 274.516C723.834 275.471 725.692 276.023 727.7 276.123C729.508 276.224 729.508 273.562 727.7 273.462C726.194 273.361 724.788 272.96 723.482 272.206C721.925 271.353 720.519 273.663 722.076 274.516Z" fill="white" fill-opacity="0.1"/>
<path d="M740.055 266.984C739.553 268.942 738.347 270.549 736.489 271.554C734.882 272.407 736.339 274.717 737.946 273.864C740.406 272.558 742.164 270.348 742.817 267.737C743.219 266.029 740.456 265.326 740.055 266.984Z" fill="white" fill-opacity="0.1"/>
<path d="M734.531 256.086C736.288 257.191 737.293 258.949 737.343 260.907C737.393 262.615 740.206 262.615 740.206 260.907C740.155 257.994 738.599 255.383 735.987 253.776C734.43 252.872 733.024 255.132 734.531 256.086Z" fill="white" fill-opacity="0.1"/>
<path d="M728.454 252.47C724.486 253.374 721.172 255.634 718.912 258.848C717.908 260.305 720.368 261.61 721.373 260.204C723.231 257.593 725.993 255.835 729.207 255.082C730.965 254.63 730.211 252.069 728.454 252.47Z" fill="white" fill-opacity="0.1"/>
<path d="M722.98 266.281C724.889 268.942 728.354 269.796 731.467 268.49C733.125 267.787 731.668 265.477 730.011 266.18C728.404 266.833 726.395 266.281 725.441 264.925C724.437 263.519 721.976 264.875 722.98 266.281Z" fill="white" fill-opacity="0.1"/>
<path d="M728.504 259.451C726.747 259.953 727.5 262.514 729.258 262.012C730.011 261.811 730.865 262.263 731.015 263.067C731.166 263.77 732.07 264.171 732.773 264.021C733.576 263.82 733.928 263.067 733.777 262.364C733.325 260.154 730.764 258.798 728.504 259.451Z" fill="white" fill-opacity="0.1"/>
<path d="M766.92 252.872C770.335 254.881 774.453 255.383 778.27 254.128C779.977 253.575 779.224 251.014 777.516 251.567C774.353 252.571 771.189 252.27 768.376 250.562C766.82 249.658 765.363 251.968 766.92 252.872Z" fill="white" fill-opacity="0.1"/>
<path d="M783.945 239.665C784.598 241.975 784.397 244.335 783.242 246.495C782.438 248.001 784.849 249.357 785.702 247.85C787.209 245.038 787.56 242.025 786.707 239.012C786.205 237.304 783.443 238.008 783.945 239.665Z" fill="white" fill-opacity="0.1"/>
<path d="M773.349 233.839C775.809 233.89 778.069 235.095 779.325 237.104C780.279 238.56 782.74 237.204 781.785 235.748C779.978 232.935 776.814 231.278 773.349 231.178C771.491 231.128 771.491 233.789 773.349 233.839Z" fill="white" fill-opacity="0.1"/>
<path d="M767.776 236.451C763.959 238.409 763.156 243.23 765.767 246.344C766.922 247.7 768.881 245.791 767.776 244.435C766.219 242.627 767.123 239.765 769.182 238.71C770.789 237.957 769.383 235.647 767.776 236.451Z" fill="white" fill-opacity="0.1"/>
<path d="M774.152 240.016C776.011 241.372 775.709 243.833 773.801 244.938C772.244 245.841 773.65 248.152 775.257 247.248C779.124 244.988 779.174 240.217 775.609 237.706C774.152 236.651 772.746 239.012 774.152 240.016Z" fill="white" fill-opacity="0.1"/>
<path d="M813.827 299.475C815.835 300.078 817.392 301.383 818.296 303.191C819.1 304.748 821.56 303.392 820.757 301.835C819.552 299.425 817.292 297.717 814.58 296.914C812.822 296.361 812.069 298.973 813.827 299.475Z" fill="white" fill-opacity="0.1"/>
<path d="M805.841 299.576C803.029 301.132 801.321 303.744 801.02 306.807C800.819 308.515 803.681 308.515 803.882 306.807C804.083 304.748 805.389 302.94 807.297 301.886C808.854 300.982 807.448 298.672 805.841 299.576Z" fill="white" fill-opacity="0.1"/>
<path d="M819.098 271.805C817.642 273.663 814.83 274.165 812.67 273.11C811.063 272.307 809.607 274.617 811.214 275.42C814.83 277.228 819.098 276.224 821.509 273.161C822.664 271.754 820.203 270.449 819.098 271.805Z" fill="white" fill-opacity="0.1"/>
<path d="M823.567 261.761C823.969 263.117 823.869 264.473 823.216 265.728C822.412 267.235 824.873 268.591 825.676 267.084C826.681 265.176 826.932 263.117 826.329 261.058C825.777 259.401 823.065 260.104 823.567 261.761Z" fill="white" fill-opacity="0.1"/>
<path d="M815.835 251.516C817.893 252.973 819.601 254.73 820.957 256.739C821.961 258.195 824.422 256.84 823.418 255.383C821.76 252.973 819.701 250.914 817.241 249.206C815.784 248.202 814.378 250.512 815.835 251.516Z" fill="white" fill-opacity="0.1"/>
<path d="M808.954 252.671C806.041 253.224 803.631 255.483 803.078 258.245C802.727 259.903 805.439 260.656 805.84 258.949C806.242 257.04 807.698 255.634 809.757 255.232C811.465 254.931 810.711 252.32 808.954 252.671Z" fill="white" fill-opacity="0.1"/>
<path d="M805.238 265.979C807.397 267.837 810.159 268.892 813.122 268.792C814.93 268.741 814.93 266.08 813.122 266.13C810.912 266.18 808.904 265.527 807.246 264.071C805.891 262.966 803.882 264.824 805.238 265.979Z" fill="white" fill-opacity="0.1"/>
<path d="M813.072 258.296C812.369 258.547 811.867 259.2 812.068 259.953C812.269 260.606 813.072 261.158 813.826 260.907C815.282 260.355 816.939 261.259 816.538 262.866C816.136 264.523 818.898 265.226 819.3 263.569C820.103 260.154 816.688 256.99 813.072 258.296Z" fill="white" fill-opacity="0.1"/>
<path d="M888.801 293.148C890.308 294.755 892.467 295.608 894.727 295.608C896.535 295.608 896.535 292.947 894.727 292.947C893.17 292.947 891.814 292.394 890.81 291.29C889.605 289.984 887.596 291.892 888.801 293.148Z" fill="white" fill-opacity="0.1"/>
<path d="M906.078 286.87C906.078 288.779 904.421 290.486 902.362 290.586C900.554 290.637 900.554 293.298 902.362 293.248C905.978 293.097 908.94 290.285 908.94 286.87C908.89 285.163 906.028 285.163 906.078 286.87Z" fill="white" fill-opacity="0.1"/>
<path d="M901.256 275.923C903.114 276.977 904.219 278.785 904.269 280.844C904.319 282.551 907.132 282.551 907.132 280.844C907.081 277.881 905.424 275.169 902.712 273.612C901.105 272.708 899.699 275.019 901.256 275.923Z" fill="white" fill-opacity="0.1"/>
<path d="M893.723 274.466C891.664 275.571 890.207 277.329 889.504 279.388C888.952 281.045 891.714 281.748 892.266 280.091C892.768 278.634 893.773 277.479 895.179 276.726C896.736 275.922 895.33 273.612 893.723 274.466Z" fill="white" fill-opacity="0.1"/>
<path d="M896.888 283.656C897.139 284.862 895.23 285.565 894.728 284.359C894.427 283.706 893.774 283.204 892.971 283.405C892.318 283.556 891.665 284.359 891.966 285.062C892.77 286.87 894.779 288.076 896.888 287.523C898.997 286.971 900.051 284.862 899.6 282.953C899.248 281.296 896.536 281.999 896.888 283.656Z" fill="white" fill-opacity="0.1"/>
<path d="M842.149 292.344C843.907 293.298 845.765 293.851 847.773 293.951C849.581 294.052 849.581 291.39 847.773 291.289C846.267 291.189 844.861 290.787 843.555 290.034C841.998 289.18 840.542 291.49 842.149 292.344Z" fill="white" fill-opacity="0.1"/>
<path d="M860.127 284.862C859.625 286.82 858.42 288.427 856.561 289.431C854.954 290.285 856.411 292.595 858.018 291.742C860.479 290.436 862.236 288.226 862.889 285.615C863.241 283.857 860.529 283.154 860.127 284.862Z" fill="white" fill-opacity="0.1"/>
<path d="M854.603 273.964C856.361 275.069 857.365 276.827 857.415 278.785C857.466 280.493 860.278 280.493 860.278 278.785C860.228 275.872 858.671 273.261 856.059 271.654C854.503 270.7 853.096 273.01 854.603 273.964Z" fill="white" fill-opacity="0.1"/>
<path d="M848.526 270.298C844.559 271.202 841.244 273.462 838.984 276.676C837.98 278.132 840.441 279.438 841.445 278.032C843.303 275.42 846.065 273.663 849.279 272.909C851.037 272.457 850.284 269.896 848.526 270.298Z" fill="white" fill-opacity="0.1"/>
<path d="M843.053 284.108C844.961 286.77 848.426 287.624 851.54 286.318C853.197 285.615 851.741 283.305 850.083 284.008C848.476 284.661 846.468 284.108 845.513 282.752C844.509 281.346 842.048 282.702 843.053 284.108Z" fill="white" fill-opacity="0.1"/>
<path d="M848.577 277.278C846.819 277.781 847.572 280.342 849.33 279.84C850.083 279.639 850.937 280.091 851.088 280.894C851.238 281.597 852.142 281.999 852.845 281.848C853.649 281.648 854 280.894 853.85 280.191C853.347 278.032 850.786 276.676 848.577 277.278Z" fill="white" fill-opacity="0.1"/>
<path d="M894.979 252.872C898.394 254.881 902.512 255.383 906.328 254.128C908.036 253.575 907.282 251.014 905.575 251.567C902.411 252.571 899.247 252.27 896.435 250.562C894.878 249.658 893.422 251.968 894.979 252.872Z" fill="white" fill-opacity="0.1"/>
<path d="M911.953 239.665C912.605 241.975 912.405 244.335 911.249 246.495C910.446 248.001 912.856 249.357 913.71 247.85C915.217 245.038 915.568 242.025 914.715 239.012C914.263 237.304 911.501 238.008 911.953 239.665Z" fill="white" fill-opacity="0.1"/>
<path d="M901.356 233.839C903.817 233.89 906.076 235.095 907.332 237.104C908.286 238.56 910.747 237.204 909.793 235.748C907.985 232.935 904.821 231.278 901.356 231.178C899.548 231.128 899.548 233.789 901.356 233.839Z" fill="white" fill-opacity="0.1"/>
<path d="M895.782 236.451C891.965 238.409 891.162 243.23 893.773 246.344C894.928 247.7 896.886 245.791 895.782 244.435C894.225 242.627 895.129 239.765 897.188 238.71C898.845 237.957 897.389 235.647 895.782 236.451Z" fill="white" fill-opacity="0.1"/>
<path d="M902.211 240.016C904.069 241.372 903.768 243.833 901.86 244.938C900.303 245.841 901.709 248.152 903.316 247.248C907.183 244.988 907.233 240.217 903.667 237.706C902.211 236.651 900.805 239.012 902.211 240.016Z" fill="white" fill-opacity="0.1"/>
<path d="M935.807 298.169C937.816 298.772 939.373 300.078 940.277 301.886C941.08 303.442 943.541 302.086 942.737 300.53C941.532 298.119 939.272 296.412 936.56 295.608C934.803 295.056 934.049 297.667 935.807 298.169Z" fill="white" fill-opacity="0.1"/>
<path d="M927.821 298.27C925.009 299.827 923.302 302.438 923 305.501C922.799 307.209 925.662 307.209 925.863 305.501C926.064 303.442 927.369 301.635 929.278 300.58C930.834 299.676 929.428 297.366 927.821 298.27Z" fill="white" fill-opacity="0.1"/>
<path d="M859.927 243.08C858.822 244.435 857.416 245.44 855.709 245.992C854.001 246.545 854.754 249.156 856.462 248.553C858.621 247.85 860.53 246.645 861.936 244.938C862.388 244.385 862.538 243.632 861.936 243.029C861.433 242.628 860.379 242.527 859.927 243.08Z" fill="white" fill-opacity="0.1"/>
<path d="M860.628 232.383C861.281 234.141 861.332 235.898 860.779 237.706C860.277 239.363 863.039 240.066 863.541 238.409C864.194 236.2 864.194 233.89 863.39 231.68C862.788 230.073 860.076 230.776 860.628 232.383Z" fill="white" fill-opacity="0.1"/>
<path d="M848.124 225.453C846.317 225.804 847.07 228.365 848.878 228.014C851.238 227.562 853.648 228.165 855.456 229.721C856.812 230.876 858.821 229.018 857.465 227.813C854.904 225.654 851.539 224.8 848.124 225.453Z" fill="white" fill-opacity="0.1"/>
<path d="M844.259 232.383C843.405 233.689 842.702 235.145 842.2 236.601C841.647 238.259 844.409 238.962 844.962 237.305C845.363 236.049 845.966 234.844 846.719 233.739C847.673 232.283 845.213 230.927 844.259 232.383Z" fill="white" fill-opacity="0.1"/>
<path d="M846.217 242.828C848.829 244.235 851.791 244.285 854.503 243.08C856.161 242.326 854.704 240.066 853.047 240.769C851.289 241.573 849.281 241.422 847.623 240.518C846.067 239.665 844.61 241.975 846.217 242.828Z" fill="white" fill-opacity="0.1"/>
<path d="M851.792 233.086C851.44 233.638 851.591 234.643 852.294 234.894C853.399 235.346 853.951 236.199 853.801 237.304C853.7 238.007 854.504 238.66 855.207 238.66C856.06 238.66 856.563 238.058 856.613 237.304C856.814 235.396 855.608 233.387 853.7 232.584C853.047 232.333 852.244 232.433 851.792 233.086Z" fill="white" fill-opacity="0.1"/>
<path d="M947.157 271.805C945.7 273.663 942.888 274.165 940.729 273.11C939.122 272.307 937.665 274.617 939.272 275.42C942.888 277.228 947.157 276.224 949.567 273.161C950.672 271.754 948.211 270.449 947.157 271.805Z" fill="white" fill-opacity="0.1"/>
<path d="M951.626 261.761C952.028 263.117 951.927 264.473 951.274 265.728C950.471 267.235 952.932 268.591 953.735 267.084C954.739 265.176 954.991 263.117 954.388 261.058C953.835 259.401 951.124 260.104 951.626 261.761Z" fill="white" fill-opacity="0.1"/>
<path d="M943.893 251.516C945.952 252.973 947.66 254.73 949.015 256.739C950.02 258.195 952.481 256.84 951.476 255.383C949.819 252.973 947.76 250.914 945.299 249.206C943.843 248.202 942.437 250.512 943.893 251.516Z" fill="white" fill-opacity="0.1"/>
<path d="M937.012 252.671C934.1 253.224 931.689 255.483 931.137 258.245C930.785 259.903 933.497 260.656 933.899 258.949C934.301 257.04 935.757 255.634 937.816 255.232C939.523 254.931 938.77 252.32 937.012 252.671Z" fill="white" fill-opacity="0.1"/>
<path d="M933.296 265.979C935.456 267.837 938.218 268.892 941.181 268.792C942.989 268.741 942.989 266.08 941.181 266.13C938.971 266.18 936.962 265.527 935.305 264.071C933.949 262.966 931.94 264.824 933.296 265.979Z" fill="white" fill-opacity="0.1"/>
<path d="M941.131 258.296C940.428 258.547 939.926 259.2 940.127 259.953C940.328 260.606 941.131 261.158 941.884 260.907C943.341 260.355 944.998 261.259 944.596 262.866C944.194 264.523 946.956 265.226 947.358 263.569C948.162 260.154 944.747 256.99 941.131 258.296Z" fill="white" fill-opacity="0.1"/>
<path d="M842.802 247.9C843.756 249.759 845.915 250.914 848.125 250.763C849.933 250.663 849.933 248.001 848.125 248.101C846.869 248.202 845.815 247.649 845.262 246.545C844.459 245.038 841.998 246.394 842.802 247.9Z" fill="white" fill-opacity="0.1"/>
<path fill-rule="evenodd" clip-rule="evenodd" d="M52.8439 68.0563C59.0942 70.1514 81.7357 78.6487 103.207 98.0758L61.0843 149.359L52.8439 68.0563ZM104.648 99.3979C120.322 113.981 135.159 134.478 142.265 162.663L71.2018 249.181L66.2997 200.816L66.3 200.816L66.2997 200.815L61.3618 152.097L104.648 99.3979ZM142.841 165.039C144.177 170.768 145.195 176.807 145.84 183.171C154.295 266.595 92.2655 342.533 81.8856 354.591L71.4793 251.92L142.841 165.039ZM79.8416 355.823C72.4306 350.312 -3.10367 292.431 -17.7572 211.918L72.6864 285.227L79.8416 355.823ZM-18.2603 208.997C-18.7467 206.003 -19.148 202.978 -19.4575 199.924C-21.8071 176.742 -18.376 156.779 -11.9572 139.898L64.2143 201.639L72.4088 282.488L-18.2603 208.997ZM-11.213 137.988C6.73565 93.0024 45.7288 70.4947 50.6488 67.7967L63.9368 198.9L-11.213 137.988Z" fill="white" fill-opacity="0.1"/>
<path fill-rule="evenodd" clip-rule="evenodd" d="M692.657 231.753C694.055 234.943 698.759 246.82 698.771 262.115L663.755 263.817L692.657 231.753ZM698.764 263.148C698.616 274.457 695.855 287.535 687.342 300.315L628.268 303.186L645.462 284.111L662.781 264.897L698.764 263.148ZM686.617 301.383C684.848 303.938 682.845 306.479 680.583 308.989C650.926 341.89 599.199 344.545 590.795 344.759L627.294 304.266L686.617 301.383ZM589.587 344.397C589.115 339.545 584.978 289.442 611.299 255.145L614.684 316.554L589.587 344.397ZM612.264 253.912C613.264 252.659 614.305 251.43 615.391 250.226C623.632 241.082 632.664 235.344 641.549 231.869L644.4 283.587L615.658 315.474L612.264 253.912ZM642.561 231.483C666.538 222.551 689.181 229.833 691.981 230.801L645.374 282.507L642.561 231.483Z" fill="white" fill-opacity="0.1"/>
<path d="M225.255 289.5C225.805 288.35 226.117 287.113 226.195 285.59C226.37 278.571 219.353 271.855 212.492 271.805C208.377 271.06 204.507 273.372 201.348 276.142C197.037 280.048 196.338 285.529 198.153 290.029C193.113 292.592 187.206 292.886 181.319 292.379C173.909 291.793 166.477 290.524 159.216 288.778C165.356 280.744 171.462 272.428 177.449 264.07C180.26 265.625 183.344 265.862 186.543 266.343C191.064 266.897 195.851 268.019 200.441 267.451C206.119 266.67 211.069 262.86 215.543 258.878C220.514 262.293 227.792 261.752 232.666 257.78C235.452 255.481 237.457 252.361 236.907 248.655C236.248 244.505 233.035 239.77 229.437 237.593C225.324 235.163 220.763 236.213 217.365 238.898C211.852 241.088 208.68 247.631 211.375 253.798C211.795 254.691 212.295 255.547 212.838 256.283C209.474 259.249 205.789 262.167 201.83 263.232C198.152 264.264 194.319 263.486 190.519 262.991C187.12 262.505 182.985 262.562 179.773 260.997C180.356 260.129 181.059 259.304 181.643 258.435C190.164 246.608 198.528 234.656 206.735 222.581C212.843 225.462 220.472 226.936 227.133 226.981C230.102 226.975 232.724 226.438 235.237 225.457C235.504 226.026 235.809 226.676 236.276 227.249C239.027 231.21 245.163 234.574 250.021 232.889C250.628 232.703 251.158 232.355 251.688 232.007C254.749 231.562 257.617 229.225 259.129 226.534C261.731 221.943 260.706 216.38 257.516 212.327C254.674 208.805 250.508 206.896 246.305 208.075C238.956 208.253 233.73 215.066 234.286 221.742C232.18 222.532 229.959 223.079 227.471 223.057C221.613 223.031 214.256 221.925 208.901 219.384C214.358 211.373 219.815 203.362 225.114 195.227C228.869 197.528 233.294 198.721 237.66 197.466C243.238 195.839 246.267 190.256 245.724 184.664C245.729 184.463 245.734 184.263 245.739 184.062C245.65 177.96 238.223 171.635 232.886 169.977C227.349 168.314 220.987 170.804 218.131 175.91C215.102 181.493 216.752 187.755 221.14 192.038C212.612 205.751 203.096 218.838 193.346 231.638C189.57 226.969 186.725 221.962 187.849 215.488C188.786 210.094 190.033 205.149 190.526 199.864C196.475 199.45 202.175 196.181 202.736 189.774C203.431 187.664 203.648 185.382 202.906 182.956C201.978 179.923 200.467 177.758 198.578 176.266C196.223 172.515 191.041 169.497 186.754 169.23C179.138 168.839 169.772 180.766 174.09 187.856C174.232 188.582 174.456 189.27 174.842 189.882C175.889 192.958 178.106 195.782 181.27 197.667C182.93 198.671 184.839 199.361 186.921 199.573C186.727 202.538 186.332 205.498 185.617 208.41C184.802 212.162 183.547 215.823 183.772 219.681C184.109 225.468 187.441 230.247 191.065 234.591C183.391 244.633 175.846 254.318 168.697 264.213C166.248 259.416 163.799 254.62 161.957 249.638C160.452 245.587 160.009 240.841 159.684 236.137C165.347 235.957 171.009 232.607 170.882 226.423C170.826 225.459 170.688 224.532 170.551 223.606C170.505 222.24 170.177 220.908 169.572 219.408C166.19 211.779 155.885 208.191 149.661 214.778C144.097 220.659 146.231 230.063 152.787 234.32C153.774 234.947 154.886 235.416 156.003 235.684C156.323 240.588 156.68 245.573 158.175 250.025C160.192 256.015 163.337 261.872 166.244 267.643C158.392 278.363 150.779 289.17 143.404 300.063C140.254 294.406 135.914 289.803 131.627 284.68C126.716 278.859 125.921 272.097 126.101 264.878C130.053 265.699 134.251 264.72 137.364 260.583C141.72 254.873 139.714 246.796 134.405 242.45C128.818 237.937 122.08 239.414 117.457 244.557C112.585 250.014 112.992 257.849 119.396 261.781C119.792 261.992 120.188 262.202 120.584 262.413C121.175 262.829 121.729 263.164 122.282 263.498C122.079 270.035 122.191 276.82 125.499 282.601C127.691 286.428 130.987 289.44 133.834 292.761C136.681 296.083 139.122 299.595 140.989 303.574C140.865 303.732 140.697 304.008 140.573 304.166C138.282 307.52 136.073 310.836 133.782 314.19C132.491 316.084 130.674 318.126 130.299 320.284C129.823 323.282 132.571 325.758 135.375 324.343C136.187 323.962 136.446 323.246 136.423 322.563C142.269 311.793 149.456 301.979 156.763 292.208C156.763 292.208 156.763 292.208 156.882 292.252C165.818 294.4 175.084 296.196 184.227 296.464C189.761 296.642 195.277 295.937 200.035 293.406C201.785 295.657 204.309 297.446 207.416 298.366C214.471 300.307 224.631 296.828 225.255 289.5Z" fill="white" fill-opacity="0.1"/>
<path d="M559.966 236.664C552.046 226.99 553.03 211.587 545.11 201.913C535.047 188.534 513.748 188.923 499.979 177.686C499.979 177.686 499.979 177.686 499.955 179.154C499.931 180.623 499.931 180.623 499.908 182.091C499.884 183.559 499.138 184.281 499.114 185.749C499.09 187.217 498.344 187.939 498.321 189.407C498.297 190.876 497.551 191.598 496.781 193.788C496.757 195.256 495.265 196.7 494.52 197.423C493.774 198.145 493.004 200.335 492.258 201.057C491.512 201.779 490.742 203.97 489.996 204.692C489.25 205.414 487.758 206.858 487.012 207.58C486.266 208.303 485.521 209.025 484.775 209.747C484.029 210.469 483.283 211.191 482.537 211.913C481.791 212.635 481.045 213.358 481.045 213.358C480.299 214.08 479.553 214.802 479.553 214.802C479.553 214.802 480.299 214.08 481.045 213.358C481.791 212.635 483.283 211.191 484.052 209.001C484.798 208.279 485.544 207.557 486.29 206.834C487.036 206.112 487.782 205.39 488.552 203.2C489.298 202.478 490.068 200.287 490.814 199.565C491.56 198.843 492.329 196.653 493.075 195.931C493.821 195.208 494.591 193.018 495.337 192.296C496.083 191.574 496.853 189.384 497.598 188.661C497.622 187.193 498.368 186.471 498.392 185.003C498.416 183.535 499.162 182.813 499.186 181.345C499.209 179.877 500.701 178.432 500.725 176.964L500.003 176.218C492.059 168.013 489.313 156.22 479.878 149.459C473.354 144.214 464.569 142.603 457.181 145.42C449.793 148.237 443.826 154.015 441.516 160.586C437.668 171.537 443.302 186.313 436.517 197.217C432.74 203.764 423.86 208.026 422.273 215.342C420.686 222.659 424.995 228.603 427.09 235.245L427.812 235.991C429.257 237.483 431.447 238.253 433.637 239.022C434.359 239.768 436.55 240.538 437.272 241.284C438.716 242.776 440.184 242.8 441.629 244.292C443.819 245.061 444.541 245.807 446.731 246.577C448.921 247.347 449.644 248.093 451.834 248.862C454.024 249.632 454.746 250.378 456.937 251.148C459.127 251.918 459.849 252.664 462.039 253.433C464.23 254.203 464.952 254.949 466.42 254.973C467.888 254.997 469.332 256.488 470.8 256.512C472.991 257.282 475.181 258.052 477.371 258.821C478.839 258.845 479.561 259.591 479.561 259.591C479.561 259.591 478.093 259.567 476.625 259.544C475.157 259.52 475.157 259.52 473.689 259.496C472.221 259.472 471.499 258.726 470.031 258.702C468.563 258.679 467.094 258.655 465.65 257.163C464.182 257.139 461.992 256.369 461.27 255.624C459.079 254.854 457.611 254.83 456.167 253.338C453.977 252.568 453.254 251.822 451.064 251.053C448.874 250.283 448.152 249.537 445.961 248.767C443.771 247.998 443.049 247.252 441.605 245.76C440.16 244.268 438.692 244.244 437.248 242.752C435.804 241.26 434.336 241.236 433.613 240.49C432.891 239.745 431.447 238.253 430.725 237.507C430.003 236.761 429.28 236.015 428.558 235.269C428.558 235.269 428.558 235.269 427.836 234.523C429.257 237.483 429.209 240.419 429.161 243.355C427.527 253.608 414.219 259.267 411.116 269.496C408.783 277.535 413.068 284.947 417.354 292.359C420.893 300.493 426.67 306.46 427.274 314.547C428.551 326.315 420.275 338.663 425.235 349.758C429.496 358.638 441.916 362.51 446.177 371.39C451.859 383.23 443.511 399.982 453.645 408.958C460.891 414.949 474.175 410.759 480.674 417.472C483.563 420.456 484.96 424.884 487.848 427.868C493.602 435.304 506.093 434.772 514.251 429.764C520.194 425.455 523.948 420.376 528.447 414.575C527.098 407.211 524.281 399.823 521.464 392.435C521.464 392.435 521.44 393.903 520.694 394.625C520.67 396.093 519.924 396.815 519.178 397.537C518.432 398.259 518.409 399.728 517.663 400.45C516.917 401.172 516.893 402.64 515.401 404.084C514.655 404.806 513.909 405.529 513.139 407.719C512.393 408.441 511.647 409.163 510.156 410.608C509.41 411.33 508.664 412.052 507.918 412.774C507.172 413.496 506.426 414.218 505.68 414.941C504.934 415.663 504.188 416.385 503.466 415.639C502.72 416.361 502.72 416.361 501.252 416.337C500.506 417.059 499.038 417.036 499.038 417.036C499.038 417.036 499.784 416.313 500.53 415.591C501.276 414.869 502.767 413.425 503.513 412.703C504.259 411.981 505.005 411.258 505.751 410.536C506.497 409.814 507.243 409.092 507.989 408.37C508.735 407.648 509.481 406.925 510.227 406.203C510.973 405.481 511.719 404.759 511.743 403.291C512.489 402.569 512.512 401.101 513.258 400.378C514.004 399.656 514.028 398.188 514.774 397.466C515.52 396.744 515.544 395.276 516.29 394.554C517.036 393.831 517.059 392.363 517.805 391.641L518.551 390.919C516.575 376.936 512.361 365.12 508.893 352.582C504.679 340.765 501.933 328.973 497.719 317.157C494.973 305.364 490.759 293.548 488.735 282.501C485.99 270.709 483.22 260.385 481.196 249.338C480.498 247.124 480.522 245.656 479.823 243.442C479.101 242.696 478.355 243.418 476.887 243.394C475.419 243.371 474.697 242.625 473.229 242.601C471.038 241.831 468.102 241.784 465.19 240.268C463.722 240.244 462.277 238.752 460.809 238.728C459.341 238.705 457.897 237.213 456.429 237.189C454.238 236.419 453.516 235.673 451.326 234.903C449.136 234.134 448.413 233.388 446.969 231.896C444.057 230.38 441.89 228.142 440.446 226.65C439.724 225.905 439.002 225.159 438.279 224.413C437.557 223.667 436.835 222.921 436.113 222.175C435.391 221.429 434.669 220.683 434.669 220.683C434.669 220.683 437.581 222.199 441.938 225.206C442.66 225.952 444.128 225.976 445.572 227.468C446.295 228.214 448.485 228.983 449.207 229.729C449.929 230.475 452.119 231.245 452.842 231.991C453.564 232.737 455.754 233.507 457.222 233.531C458.69 233.554 460.134 235.046 461.603 235.07C463.071 235.094 464.515 236.586 465.983 236.609C467.451 236.633 468.896 238.125 470.364 238.149C471.832 238.173 472.554 238.919 474.022 238.942C476.212 239.712 478.403 240.482 479.871 240.506C478.522 233.141 476.45 225.031 475.823 218.413C475.823 218.413 475.101 217.667 474.355 218.389C474.355 218.389 472.887 218.365 472.165 217.619C470.697 217.595 470.697 217.595 469.229 217.572C467.038 216.802 464.848 216.032 461.912 215.985C460.444 215.961 459.722 215.215 457.531 214.445C456.063 214.421 454.619 212.929 453.151 212.906C452.429 212.16 450.238 211.39 449.516 210.644C448.794 209.898 446.604 209.128 445.882 208.382C442.969 206.867 441.525 205.375 440.081 203.883C439.358 203.137 438.636 202.391 437.914 201.645C437.192 200.899 436.47 200.153 436.47 200.153C435.748 199.407 435.025 198.661 435.025 198.661C435.025 198.661 435.748 199.407 437.216 199.431C437.938 200.177 440.128 200.947 441.572 202.439C442.295 203.185 443.763 203.208 444.485 203.954C445.207 204.7 446.675 204.724 448.119 206.216C450.31 206.986 453.222 208.501 456.135 210.017C459.047 211.533 461.237 212.302 464.15 213.818C464.872 214.564 466.34 214.588 467.062 215.334C467.784 216.08 469.252 216.104 469.975 216.849C472.165 217.619 474.355 218.389 475.077 219.135L475.799 219.881C475.799 219.881 475.799 219.881 475.077 219.135C473.752 210.302 472.427 201.47 471.077 194.106C469.728 186.741 469.101 180.123 468.45 174.973C467.8 169.822 467.871 165.418 466.45 162.458C466.498 159.522 466.522 158.054 466.522 158.054C466.522 158.054 466.498 159.522 466.45 162.458C466.403 165.394 467.8 169.822 468.45 174.973C468.403 177.909 469.823 180.869 470.498 184.551C471.244 183.829 471.268 182.361 472.014 181.639C472.76 180.916 472.783 179.448 474.275 178.004C475.021 177.282 475.791 175.092 476.537 174.369C477.283 173.647 477.283 173.647 477.307 172.179C478.053 171.457 478.053 171.457 478.076 169.989C478.1 168.521 478.846 167.799 478.87 166.331C478.894 164.862 479.64 164.14 478.917 163.394C479.663 162.672 478.941 161.926 478.941 161.926C478.941 161.926 478.941 161.926 479.663 162.672C480.386 163.418 480.362 164.886 479.616 165.608C479.592 167.076 479.568 168.545 479.544 170.013C479.521 171.481 478.029 172.925 478.005 174.393C476.513 175.838 476.489 177.306 474.997 178.75C474.251 179.472 472.76 180.916 472.014 181.639C470.522 183.083 469.776 183.805 469.03 184.527C468.982 187.464 470.403 190.424 471.077 194.106C472.427 201.47 473.752 210.302 476.545 219.159C478.593 228.737 480.64 238.315 483.41 248.64C486.18 258.964 488.204 270.011 491.695 281.081C495.187 292.151 497.933 303.944 502.147 315.76C505.639 326.83 509.107 339.369 513.321 351.185C520.329 371.857 528.082 391.808 533.622 412.456C540.796 422.852 554.659 428.216 567.174 426.216C580.435 423.494 591.648 411.194 592.608 397.259C592.75 388.45 590.703 378.872 595.226 371.602C598.257 365.778 604.9 363.682 607.209 357.112C609.518 350.541 605.955 343.875 601.622 339.399C597.289 334.923 592.234 329.702 589.393 323.782C580.893 304.554 600.359 281.373 590.368 263.589C585.456 249.559 568.608 247.083 559.966 236.664ZM514.266 383.507C513.52 384.229 512.75 386.419 511.258 387.864C509.766 389.308 508.997 391.498 506.759 393.665C506.013 394.387 504.521 395.831 503.775 396.553C503.029 397.276 501.537 398.72 500.791 399.442C500.045 400.164 498.553 401.609 497.807 402.331C497.062 403.053 495.57 404.497 494.102 404.473C491.864 406.64 489.65 407.338 487.436 408.037C485.967 408.013 483.753 408.711 483.007 409.433C482.262 410.156 480.793 410.132 480.793 410.132C480.793 410.132 481.539 409.41 482.285 408.687C483.031 407.965 484.523 406.521 486.737 405.823C488.229 404.378 489.721 402.934 492.681 401.513C494.919 399.347 496.411 397.903 499.371 396.482C501.609 394.316 503.101 392.871 505.338 390.705C507.576 388.538 509.068 387.094 510.56 385.65C511.306 384.928 512.798 383.483 514.266 383.507C514.29 382.039 515.758 382.063 515.758 382.063C515.758 382.063 515.036 381.317 514.266 383.507ZM512.147 378.333C511.401 379.055 510.655 379.777 509.909 380.499C509.163 381.222 508.417 381.944 507.671 382.666C506.179 384.11 503.219 385.531 500.982 387.697C500.236 388.419 498.022 389.118 496.53 390.562C495.038 392.006 493.57 391.983 492.078 393.427C489.864 394.125 489.118 394.847 486.904 395.546C485.459 394.054 483.968 395.498 482.499 395.474C479.539 396.895 476.603 396.847 474.389 397.546C472.921 397.522 472.175 398.244 470.707 398.22C469.239 398.197 468.493 398.919 468.493 398.919C467.025 398.895 466.279 399.617 466.279 399.617C466.279 399.617 469.239 398.197 473.667 396.8C474.413 396.078 475.881 396.102 477.373 394.657C478.841 394.681 480.333 393.237 481.801 393.26C484.761 391.84 487.721 390.419 490.681 388.999C493.641 387.578 496.601 386.158 499.561 384.737C500.307 384.015 502.521 383.317 503.267 382.595C504.013 381.872 506.227 381.174 506.973 380.452C508.465 379.008 510.679 378.309 512.147 378.333C512.893 377.611 513.639 376.889 513.639 376.889C513.639 376.889 513.639 376.889 512.147 378.333ZM507.862 370.921C507.116 371.643 506.37 372.365 504.902 372.342C504.156 373.064 502.688 373.04 501.942 373.762C501.196 374.484 498.982 375.183 498.236 375.905C496.768 375.881 495.276 377.325 493.808 377.302C492.339 377.278 490.848 378.722 489.379 378.698C486.419 380.119 484.951 380.095 483.483 380.071C482.015 380.047 479.801 380.746 478.333 380.722C476.865 380.698 474.651 381.397 473.183 381.373C470.246 381.325 468.778 381.301 467.31 381.278C465.842 381.254 464.374 381.23 462.906 381.206C461.438 381.183 459.97 381.159 459.248 380.413C457.779 380.389 457.057 379.643 456.311 380.365C454.843 380.341 454.121 379.595 454.121 379.595C454.121 379.595 455.589 379.619 457.057 379.643C458.525 379.667 460.739 378.968 463.676 379.016C465.144 379.04 466.612 379.064 468.08 379.087C468.802 379.833 471.016 379.135 472.484 379.159C473.952 379.183 476.166 378.484 477.635 378.508C479.103 378.532 481.317 377.833 482.785 377.857C484.253 377.881 486.467 377.183 487.935 377.206C489.403 377.23 491.617 376.532 492.363 375.81C493.831 375.833 496.045 375.135 496.791 374.413C498.259 374.437 499.751 372.992 501.219 373.016C504.179 371.596 506.394 370.897 507.862 370.921C509.354 369.477 509.354 369.477 509.354 369.477C509.354 369.477 508.608 370.199 507.862 370.921ZM502.251 354.677C500.783 354.653 498.569 355.351 496.355 356.05C494.141 356.748 491.181 358.169 487.498 358.843C485.284 359.542 484.538 360.264 482.324 360.962C480.11 361.66 479.364 362.383 477.15 363.081C474.936 363.779 473.468 363.756 471.254 364.454C469.762 365.898 468.294 365.874 466.826 365.851C465.358 365.827 463.89 365.803 461.699 365.033C460.231 365.01 458.763 364.986 456.573 364.216C454.359 364.914 452.169 364.145 449.978 363.375C448.51 363.351 447.788 362.605 447.788 362.605C447.788 362.605 449.256 362.629 450.724 362.653C452.192 362.677 455.129 362.724 457.319 363.494C460.255 363.541 463.191 363.589 466.128 363.637C467.596 363.66 469.81 362.962 471.278 362.986C472.746 363.01 474.96 362.311 475.706 361.589C477.92 360.891 478.666 360.169 480.88 359.47C483.094 358.772 483.84 358.05 486.054 357.351C488.268 356.653 489.014 355.931 490.482 355.954C491.95 355.978 494.164 355.28 494.91 354.558C497.847 354.605 500.783 354.653 502.251 354.677C502.997 353.955 503.719 354.7 504.465 353.978L505.187 354.724C505.187 354.724 503.719 354.7 502.251 354.677ZM496.569 342.837C495.101 342.813 492.887 343.511 490.673 344.21C488.458 344.908 485.522 344.86 481.84 345.535C480.372 345.511 478.158 346.21 476.69 346.186C475.222 346.162 473.008 346.86 471.54 346.837C470.071 346.813 468.603 346.789 466.389 347.487C464.921 347.464 463.453 347.44 461.985 347.416C459.049 347.368 456.113 347.321 453.176 347.273C450.24 347.226 448.05 346.456 446.582 346.432C445.114 346.408 444.391 345.662 444.391 345.662C444.391 345.662 445.86 345.686 447.328 345.71C448.796 345.734 451.01 345.035 453.2 345.805C456.136 345.853 459.073 345.9 462.009 345.948C464.945 345.995 468.627 345.321 471.563 345.368C474.5 345.416 478.182 344.741 481.118 344.789C484.054 344.837 486.99 344.884 489.927 344.932C492.91 342.043 495.847 342.091 496.569 342.837C498.037 342.86 498.783 342.138 498.783 342.138C498.783 342.138 498.783 342.138 496.569 342.837ZM495.362 326.664C494.616 327.386 493.148 327.362 492.402 328.084C491.656 328.806 490.934 328.06 490.188 328.783C489.442 329.505 488.72 328.759 487.974 329.481C487.228 330.203 486.506 329.457 485.76 330.179C485.014 330.901 484.292 330.156 483.546 330.878C481.332 331.576 479.864 331.552 477.65 332.251C475.436 332.949 473.968 332.925 471.031 332.878C468.817 333.576 466.627 332.806 465.159 332.783C462.969 332.013 460.755 332.711 458.564 331.941C456.374 331.172 454.906 331.148 451.97 331.1C449.78 330.331 448.311 330.307 446.121 329.537C445.399 328.791 443.931 328.767 443.931 328.767C443.209 328.021 442.463 328.744 441.741 327.998C441.019 327.252 440.273 327.974 439.55 327.228C438.828 326.482 438.828 326.482 437.36 326.458C436.638 325.712 435.17 325.688 434.448 324.942C432.257 324.173 431.535 323.427 431.535 323.427C431.535 323.427 432.257 324.173 434.448 324.942C435.17 325.688 436.638 325.712 438.106 325.736C439.574 325.76 440.296 326.506 442.487 327.275C443.955 327.299 446.145 328.069 447.613 328.093C449.081 328.116 451.271 328.886 452.74 328.91C454.208 328.934 456.398 329.704 459.334 329.751C461.524 330.521 463.739 329.822 465.207 329.846C466.675 329.87 469.611 329.918 471.079 329.941C472.547 329.965 475.483 330.013 476.952 330.037C478.42 330.06 480.634 329.362 482.102 329.386C483.57 329.41 485.784 328.711 487.252 328.735C488.72 328.759 490.188 328.783 490.934 328.06C492.426 326.616 493.894 326.64 495.362 326.664C496.854 325.219 498.322 325.243 498.322 325.243C498.322 325.243 496.108 325.942 495.362 326.664ZM491.196 311.911C490.45 312.633 488.982 312.61 488.236 313.332C486.768 313.308 486.022 314.03 484.554 314.006C483.086 313.983 480.872 314.681 479.403 314.657C477.935 314.633 475.721 315.332 474.253 315.308C472.785 315.284 470.571 315.983 468.381 315.213C466.913 315.189 463.976 315.141 462.508 315.118C461.04 315.094 458.104 315.046 456.636 315.022C455.168 314.999 452.232 314.951 450.763 314.927C449.295 314.904 447.105 314.134 445.637 314.11C444.169 314.086 441.979 313.316 440.51 313.293C439.042 313.269 437.574 313.245 436.852 312.499C433.916 312.452 433.194 311.706 431.726 311.682C429.535 310.912 429.535 310.912 429.535 310.912C429.535 310.912 431.003 310.936 432.472 310.96C433.94 310.983 436.876 311.031 439.812 311.079C441.28 311.102 442.748 311.126 444.939 311.896C446.407 311.92 448.597 312.689 450.065 312.713C451.533 312.737 454.469 312.785 455.937 312.808C457.406 312.832 460.342 312.88 461.81 312.904C463.278 312.927 466.214 312.975 467.682 312.999C469.15 313.023 472.087 313.07 473.555 313.094C475.769 312.396 477.237 312.419 478.705 312.443C480.173 312.467 482.387 311.768 483.855 311.792C486.792 311.84 489.006 311.141 491.196 311.911C493.41 311.213 493.41 311.213 493.41 311.213C493.41 311.213 493.41 311.213 491.196 311.911ZM488.498 297.183C487.752 297.905 486.284 297.881 484.815 297.857C483.347 297.833 482.601 298.556 481.133 298.532C479.665 298.508 477.451 299.206 475.983 299.183C474.515 299.159 472.301 299.857 470.111 299.087C468.642 299.064 465.706 299.016 464.238 298.992C462.77 298.968 459.834 298.921 457.643 298.151C455.453 297.381 453.985 297.358 451.049 297.31C448.859 296.54 447.391 296.516 445.2 295.747C443.01 294.977 441.542 294.953 439.352 294.183C437.161 293.414 436.439 292.668 434.971 292.644C433.503 292.62 432.059 291.128 431.336 290.382C430.614 289.636 429.146 289.613 428.424 288.867C426.98 287.375 425.512 287.351 425.512 287.351C425.512 287.351 426.234 288.097 427.702 288.121C428.424 288.867 429.892 288.89 430.614 289.636C432.082 289.66 432.805 290.406 434.995 291.176C436.463 291.2 438.653 291.969 439.375 292.715C440.844 292.739 443.034 293.509 445.224 294.279C447.414 295.048 448.882 295.072 451.073 295.842C453.263 296.612 454.731 296.635 457.667 296.683C460.603 296.731 462.072 296.754 465.008 296.802C466.476 296.826 469.412 296.873 470.88 296.897C472.348 296.921 475.285 296.968 476.753 296.992C478.221 297.016 479.689 297.04 481.903 296.341C483.371 296.365 484.839 296.389 486.307 296.413C487.029 297.159 487.775 296.437 488.498 297.183C490.712 296.484 490.712 296.484 490.712 296.484C490.712 296.484 489.966 297.206 488.498 297.183ZM477.038 279.375C473.38 278.581 469.721 277.788 466.063 276.994C463.873 276.225 462.405 276.201 460.214 275.431C457.278 275.384 455.088 274.614 452.898 273.844C450.707 273.074 448.517 272.305 447.049 272.281C444.859 271.511 442.668 270.741 441.2 270.718C439.01 269.948 437.542 269.924 435.352 269.154C433.161 268.385 431.693 268.361 430.249 266.869C428.059 266.099 427.337 265.353 426.614 264.607C425.892 263.861 424.448 262.369 424.448 262.369C423.726 261.623 423.004 260.877 423.004 260.877L422.281 260.132C422.281 260.132 422.281 260.131 423.004 260.877C423.004 260.877 423.726 261.623 424.448 262.369C425.892 263.861 428.083 264.631 430.995 266.147C434.653 266.94 438.312 267.734 441.97 268.527C444.16 269.297 445.628 269.321 447.819 270.091C450.009 270.86 452.199 271.63 453.667 271.654C455.858 272.424 458.048 273.193 459.516 273.217C461.706 273.987 463.897 274.757 465.365 274.78C469.023 275.574 473.404 277.113 475.594 277.883C482.165 280.192 485.823 280.986 485.823 280.986C485.823 280.986 483.633 280.216 477.038 279.375ZM470.331 194.828C470.331 194.828 468.141 194.058 465.229 192.542C464.507 191.796 462.316 191.027 460.872 189.535C459.428 188.043 457.237 187.273 455.793 185.781C454.325 185.758 452.881 184.266 451.436 182.774C450.714 182.028 449.992 181.282 449.27 180.536C448.548 179.79 447.825 179.044 447.103 178.298C446.381 177.552 445.659 176.806 446.405 176.084C445.683 175.338 446.429 174.616 446.429 174.616L447.175 173.894C447.175 173.894 446.429 174.616 447.151 175.362C447.151 175.362 447.873 176.108 447.127 176.83C447.127 176.83 447.849 177.576 448.571 178.322C449.294 179.068 451.484 179.837 452.928 181.329C454.373 182.821 456.563 183.591 458.007 185.083C459.451 186.575 461.642 187.345 463.086 188.836C464.53 190.328 465.975 191.82 467.443 191.844C468.887 193.336 470.331 194.828 470.331 194.828ZM569.142 395.41L568.396 396.132C567.65 396.854 566.928 396.108 566.182 396.83C565.436 397.553 564.714 396.807 563.968 397.529C561.754 398.227 559.563 397.457 556.627 397.41C555.159 397.386 553.691 397.362 552.969 396.616C551.501 396.593 550.778 395.847 549.31 395.823C547.842 395.799 547.12 395.053 545.676 393.561C544.954 392.815 543.485 392.791 542.041 391.3C539.851 390.53 537.684 388.292 536.24 386.8C531.859 385.261 530.415 383.769 530.415 383.769C530.415 383.769 531.137 384.515 532.605 384.538C533.328 385.284 535.518 386.054 536.986 386.078C539.176 386.848 540.621 388.34 542.811 389.109C543.533 389.855 545.001 389.879 545.723 390.625C546.445 391.371 547.914 391.395 548.636 392.141C550.104 392.164 550.826 392.91 552.294 392.934C554.484 393.704 555.206 394.45 556.675 394.474C558.143 394.497 558.865 395.243 560.333 395.267C561.801 395.291 562.523 396.037 563.269 395.315C564.737 395.339 564.737 395.339 566.205 395.362C566.928 396.108 567.674 395.386 569.142 395.41C569.142 395.41 569.888 394.688 569.142 395.41C569.888 394.688 569.142 395.41 569.142 395.41ZM581.965 374.325C581.22 375.047 579.751 375.023 579.751 375.023C579.005 375.745 577.537 375.721 576.069 375.697C573.855 376.396 570.173 377.07 566.491 377.745C565.023 377.721 562.809 378.42 561.341 378.396C559.872 378.372 557.658 379.07 556.19 379.047C554.722 379.023 552.508 379.721 550.318 378.951C548.85 378.928 547.382 378.904 544.445 378.856C541.509 378.809 537.851 378.015 534.915 377.968C533.447 377.944 531.978 377.92 531.256 377.174C531.256 377.174 531.256 377.174 529.788 377.15C528.32 377.127 527.598 376.381 527.598 376.381C527.598 376.381 529.066 376.404 530.534 376.428C532.002 376.452 534.938 376.5 536.407 376.523C537.875 376.547 539.343 376.571 540.811 376.595C542.279 376.618 543.747 376.642 545.215 376.666C548.151 376.714 551.834 376.039 555.492 376.833C559.174 376.158 562.11 376.206 565.792 375.531C567.261 375.555 568.729 375.579 570.943 374.88C572.411 374.904 573.879 374.928 575.347 374.952C578.307 373.531 579.775 373.555 581.965 374.325C582.711 373.602 584.18 373.626 584.18 373.626C584.18 373.626 583.457 372.88 581.965 374.325ZM584.441 357.477C584.441 357.477 583.695 358.199 582.949 358.921C582.203 359.643 581.457 360.366 579.989 360.342C579.243 361.064 577.775 361.04 576.283 362.485C573.323 363.905 571.109 364.603 567.427 365.278C565.959 365.254 563.745 365.953 562.277 365.929C560.809 365.905 558.595 366.603 557.127 366.58C555.658 366.556 553.444 367.254 551.254 366.484C549.786 366.461 547.596 365.691 545.382 366.389C541.723 365.596 538.787 365.548 535.851 365.501C530.724 364.683 527.066 363.89 527.066 363.89C527.066 363.89 528.534 363.914 530.002 363.937C531.47 363.961 534.407 364.009 536.597 364.778C539.533 364.826 542.469 364.874 545.405 364.921C546.874 364.945 548.342 364.969 551.278 365.016C552.746 365.04 554.96 364.342 556.428 364.366C557.896 364.389 560.11 363.691 561.578 363.715C563.047 363.739 565.261 363.04 566.729 363.064C568.197 363.088 570.411 362.389 571.157 361.667C572.625 361.691 574.117 360.247 575.585 360.27C577.053 360.294 577.799 359.572 579.267 359.596C580.013 358.874 581.481 358.898 582.227 358.175C584.441 357.477 584.441 357.477 584.441 357.477ZM585.544 334.733C585.544 334.733 584.798 335.455 584.052 336.178C583.306 336.9 582.56 337.622 581.814 338.344C581.068 339.066 581.068 339.066 580.322 339.788C579.576 340.51 579.576 340.51 578.83 341.233C575.87 342.653 572.91 344.074 568.482 345.47C566.268 346.169 564.8 346.145 562.586 346.843C560.372 347.542 558.904 347.518 556.69 348.216C554.476 348.915 553.008 348.891 550.071 348.843C547.857 349.542 546.389 349.518 544.199 348.748C540.517 349.423 536.858 348.629 533.898 350.05C530.24 349.256 528.026 349.955 526.558 349.931C525.09 349.907 523.622 349.883 523.622 349.883C523.622 349.883 523.622 349.883 524.368 349.161C524.368 349.161 525.114 348.439 526.582 348.463C528.796 347.764 531.01 347.066 533.224 346.368C536.906 345.693 539.842 345.741 543.524 345.066C544.993 345.09 547.207 344.391 549.421 343.693C551.635 342.995 553.103 343.018 556.039 343.066C558.253 342.368 559.721 342.391 561.935 341.693C564.149 340.995 565.617 341.019 567.832 340.32C570.046 339.622 571.514 339.646 573.006 338.201C574.474 338.225 575.966 336.781 577.434 336.805C578.902 336.828 580.394 335.384 581.14 334.662C581.886 333.94 583.354 333.963 584.1 333.241C584.076 334.709 585.544 334.733 585.544 334.733C586.29 334.011 586.29 334.011 585.544 334.733C586.29 334.011 586.29 334.011 585.544 334.733ZM583.663 314.878C583.663 314.878 582.917 315.6 582.171 316.322C581.425 317.045 580.679 317.767 579.933 318.489C579.187 319.211 577.695 320.655 576.949 321.377C574.712 323.544 571.006 325.687 568.046 327.107C565.832 327.806 564.34 329.25 562.126 329.948C559.912 330.647 557.697 331.345 555.483 332.043C553.269 332.742 551.055 333.44 549.587 333.416C547.373 334.115 545.905 334.091 543.691 334.789C540.009 335.464 536.327 336.138 533.39 336.091C526.772 336.718 522.368 336.646 522.368 336.646C522.368 336.646 523.836 336.67 525.304 336.694C527.518 335.996 529.732 335.297 532.668 335.345C536.35 334.67 539.287 334.718 543.715 333.321C545.929 332.623 547.397 332.647 549.611 331.948C551.825 331.25 553.293 331.274 555.507 330.575C557.721 329.877 559.935 329.178 561.403 329.202C563.618 328.504 565.832 327.806 566.578 327.083C568.792 326.385 569.538 325.663 571.752 324.964C573.243 323.52 574.712 323.544 576.203 322.1C576.949 321.377 579.163 320.679 579.909 319.957C580.655 319.235 581.401 318.513 582.147 317.79C582.917 315.6 583.663 314.878 583.663 314.878ZM580.29 296.467C580.29 296.467 580.266 297.935 579.52 298.657C579.52 298.657 578.774 299.38 579.497 300.126C578.751 300.848 578.751 300.848 578.005 301.57C577.259 302.292 575.767 303.736 575.021 304.459C572.783 306.625 569.077 308.768 564.649 310.164C563.903 310.887 562.435 310.863 561.689 311.585C560.943 312.307 559.475 312.283 558.729 313.006C556.515 313.704 554.301 314.402 552.087 315.101C549.873 315.799 547.659 316.497 546.19 316.474C543.976 317.172 542.508 317.148 540.294 317.847C536.612 318.521 532.93 319.196 529.248 319.87C526.312 319.823 523.375 319.775 521.161 320.473C519.693 320.45 518.225 320.426 518.225 320.426C518.225 320.426 522.653 319.029 528.549 317.656C530.018 317.68 532.232 316.982 533.7 317.005C535.914 316.307 537.382 316.331 539.596 315.632C541.81 314.934 543.278 314.958 545.492 314.26C547.706 313.561 549.92 312.863 551.388 312.887C553.602 312.188 555.816 311.49 557.285 311.514C558.031 310.791 559.499 310.815 560.245 310.093C560.991 309.371 562.459 309.395 563.205 308.673C566.887 307.998 570.593 305.855 572.831 303.689C573.577 302.967 575.068 301.522 575.814 300.8C576.56 300.078 576.56 300.078 577.306 299.356C578.052 298.634 578.052 298.634 578.052 298.634C579.52 298.657 579.544 297.189 580.29 296.467ZM569.648 273.533C568.902 274.255 568.156 274.977 567.41 275.7C566.664 276.422 566.664 276.422 565.918 277.144C565.172 277.866 565.172 277.866 564.426 278.588C562.934 280.033 562.188 280.755 560.697 282.199C559.205 283.643 557.713 285.088 556.221 286.532C554.729 287.976 553.237 289.421 551.023 290.119C549.531 291.563 547.317 292.262 545.825 293.706C543.611 294.404 542.119 295.849 539.905 296.547C537.691 297.245 536.199 298.69 533.985 299.388C531.771 300.086 530.279 301.531 528.811 301.507C526.597 302.205 525.129 302.182 523.637 303.626C522.169 303.602 519.955 304.301 519.209 305.023C517.741 304.999 516.995 305.721 515.527 305.697C514.059 305.673 512.591 305.65 512.591 305.65C512.591 305.65 513.336 304.928 515.551 304.229C516.296 303.507 517.765 303.531 518.511 302.809C519.979 302.832 520.725 302.11 522.939 301.412C524.407 301.436 525.899 299.991 528.113 299.293C530.327 298.595 531.073 297.872 533.287 297.174C535.501 296.476 536.993 295.031 539.207 294.333C541.421 293.635 542.913 292.19 545.127 291.492C546.619 290.048 548.833 289.349 550.325 287.905C551.817 286.461 554.031 285.762 555.523 284.318C557.014 282.874 559.228 282.175 560.72 280.731C562.212 279.287 562.958 278.564 564.45 277.12C565.942 275.676 566.688 274.954 567.434 274.231C568.156 274.977 568.902 274.255 569.648 273.533C570.418 271.343 571.164 270.621 571.164 270.621C571.164 270.621 571.14 272.089 569.648 273.533ZM556.649 260.106C555.903 260.828 555.157 261.55 554.411 262.272C553.665 262.995 553.665 262.995 552.919 263.717C552.173 264.439 552.173 264.439 551.427 265.161C549.936 266.605 549.19 267.328 547.698 268.772C546.206 270.216 544.714 271.661 543.968 272.383C542.476 273.827 540.984 275.271 538.77 275.97C537.278 277.414 535.064 278.112 533.572 279.557C531.358 280.255 529.866 281.699 527.652 282.398C525.438 283.096 523.946 284.541 522.478 284.517C520.264 285.215 518.796 285.191 517.304 286.636C515.09 287.334 513.622 287.31 512.876 288.032C511.408 288.009 509.94 287.985 509.194 288.707C507.726 288.683 506.98 289.405 505.512 289.382C503.321 288.612 502.575 289.334 502.575 289.334C502.575 289.334 503.321 288.612 504.789 288.636C505.535 287.913 507.004 287.937 507.75 287.215C509.218 287.239 509.964 286.517 512.178 285.818C513.646 285.842 515.138 284.398 516.606 284.422C518.82 283.723 519.566 283.001 521.78 282.303C523.994 281.604 525.486 280.16 526.954 280.184C529.168 279.485 530.66 278.041 532.874 277.343C534.366 275.898 536.58 275.2 538.072 273.756C539.564 272.311 541.778 271.613 543.27 270.169C544.761 268.724 546.976 268.026 547.721 267.304C549.213 265.859 549.959 265.137 551.451 263.693C552.197 262.971 553.689 261.527 554.435 260.804C555.157 261.55 555.903 260.828 556.649 260.106C557.419 257.916 558.887 257.94 558.887 257.94C558.887 257.94 558.141 258.662 556.649 260.106ZM550.411 237.243C549.665 237.965 549.642 239.434 548.896 240.156C548.15 240.878 548.15 240.878 547.404 241.6C546.658 242.322 546.658 242.322 545.912 243.044C545.166 243.767 544.42 244.489 544.42 244.489C543.674 245.211 542.928 245.933 542.182 246.655C540.69 248.099 539.198 249.544 538.452 250.266C536.96 251.71 535.469 253.155 533.977 254.599C532.485 256.043 530.993 257.488 528.779 258.186C527.287 259.63 525.073 260.329 523.581 261.773C522.089 263.217 519.875 263.916 518.383 265.36C516.169 266.058 514.677 267.503 513.209 267.479C510.995 268.177 510.249 268.899 508.035 269.598C507.289 270.32 506.567 269.574 505.821 270.296C505.075 271.018 504.353 270.272 503.607 270.994C502.139 270.971 501.393 271.693 499.925 271.669C498.457 271.645 496.988 271.621 496.988 271.621C496.988 271.621 497.734 270.899 499.948 270.201C500.694 269.479 502.163 269.503 502.908 268.78C503.654 268.058 505.123 268.082 506.614 266.638C507.36 265.916 509.574 265.217 511.066 263.773C513.28 263.075 514.026 262.352 515.518 260.908C517.01 259.464 519.224 258.765 520.716 257.321C522.208 255.877 524.422 255.178 525.914 253.734C527.406 252.29 529.62 251.591 531.112 250.147C532.604 248.703 534.096 247.258 535.588 245.814C537.079 244.37 538.571 242.925 539.317 242.203C540.809 240.759 541.555 240.037 543.047 238.592C543.793 237.87 545.285 236.426 546.031 235.704C548.919 238.688 549.665 237.965 550.411 237.243C551.181 235.053 551.927 234.331 551.927 234.331C551.927 234.331 551.903 235.799 550.411 237.243ZM533.127 216.404C532.381 217.126 532.357 218.595 531.611 219.317C530.865 220.039 530.842 221.507 529.35 222.951C528.604 223.673 527.834 225.864 527.088 226.586C525.596 228.03 525.572 229.498 524.081 230.943C522.589 232.387 521.843 233.109 520.351 234.553C518.859 235.998 517.367 237.442 516.621 238.164C515.129 239.609 513.637 241.053 512.891 241.775C511.399 243.219 510.653 243.942 509.162 245.386C507.67 246.83 506.924 247.552 504.71 248.251C503.218 249.695 501.75 249.671 501.004 250.393C500.258 251.116 498.79 251.092 497.298 252.536C496.552 253.258 495.084 253.234 494.338 253.957C492.87 253.933 492.124 254.655 492.124 254.655C492.124 254.655 492.87 253.933 493.616 253.211C495.107 251.766 497.321 251.068 498.813 249.624C499.559 248.901 501.051 247.457 501.797 246.735C502.543 246.013 504.035 244.569 505.527 243.124C507.019 241.68 507.765 240.958 509.257 239.513C510.749 238.069 511.495 237.347 512.986 235.903C514.478 234.458 515.224 233.736 516.716 232.292C518.208 230.847 518.954 230.125 520.446 228.681C521.938 227.237 522.684 226.515 524.176 225.07C524.922 224.348 526.414 222.904 527.159 222.182C530.143 219.293 531.635 217.849 533.127 216.404C533.151 214.936 533.897 214.214 533.897 214.214C533.897 214.214 533.151 214.936 533.127 216.404ZM521.62 201.533C520.874 202.255 521.596 203.001 520.85 203.723C520.104 204.445 520.827 205.191 520.081 205.913C520.057 207.382 518.565 208.826 517.795 211.016C516.303 212.46 516.279 213.929 514.788 215.373C513.296 216.817 512.526 219.007 511.78 219.73C510.288 221.174 508.796 222.618 508.05 223.34C506.558 224.785 505.066 226.229 504.321 226.951C502.829 228.396 502.083 229.118 499.869 229.816C499.123 230.538 498.377 231.26 498.377 231.26C497.631 231.983 497.631 231.983 496.163 231.959C495.417 232.681 495.417 232.681 493.949 232.657C493.203 233.379 493.203 233.379 491.735 233.356C490.989 234.078 489.52 234.054 488.775 234.776C487.306 234.752 486.56 235.474 486.56 235.474C486.56 235.474 487.306 234.752 488.775 234.776C489.52 234.054 490.266 233.332 491.735 233.356C492.48 232.633 493.226 231.911 495.44 231.213C496.186 230.491 497.678 229.046 498.424 228.324C499.17 227.602 500.662 226.158 502.154 224.713C503.646 223.269 504.392 222.547 505.884 221.103C507.376 219.658 508.122 218.936 509.614 217.492C511.105 216.047 511.851 215.325 512.621 213.135C514.113 211.691 514.137 210.223 515.629 208.778C516.375 208.056 517.121 207.334 516.398 206.588C517.144 205.866 517.89 205.144 517.168 204.398C517.914 203.676 518.684 201.485 519.43 200.763C520.176 200.041 520.2 198.573 520.945 197.851C521.691 197.129 521.715 195.66 522.461 194.938C522.485 193.47 523.231 192.748 523.231 192.748C523.231 192.748 523.207 194.216 523.183 195.684C523.16 197.152 523.16 197.152 523.136 198.62L523.112 200.089C521.644 200.065 521.644 200.065 521.62 201.533Z" fill="white" fill-opacity="0.1"/>
<path d="M338.141 234.686C338.094 234.686 338.002 234.732 337.955 234.732C338.558 234.086 339.161 233.439 339.717 232.747C340.645 231.639 339.81 230.023 338.234 230.347C336.332 230.716 334.524 231.224 332.762 231.916C331.093 232.562 329.238 233.993 327.429 233.993C325.482 233.947 325.482 236.855 327.429 236.855C329.377 236.902 330.814 235.932 332.53 235.147C332.994 234.917 333.504 234.732 333.968 234.547C333.318 235.147 332.716 235.701 332.02 236.255C330.814 237.225 332.113 238.979 333.504 238.656L338.975 237.455C340.784 237.04 339.996 234.27 338.141 234.686Z" fill="white" fill-opacity="0.1"/>
<path d="M280.78 254.904C279.481 251.627 278.183 248.349 276.885 245.072C276.375 243.779 274.844 243.825 274.242 244.656C273.5 243.918 271.97 244.241 271.691 245.303C271.32 246.872 271.32 248.395 271.413 249.965C270.671 247.841 269.976 245.672 269.373 243.502C268.863 241.702 265.941 242.487 266.498 244.287C267.935 249.272 269.651 254.119 271.691 258.874C272.201 259.982 274.334 260.443 274.566 258.874C274.891 257.027 274.705 255.135 274.566 253.288C275.076 254.996 275.494 256.751 275.772 258.551C276.004 260.028 278.322 259.843 278.647 258.551C278.693 258.366 278.739 258.182 278.786 257.997C278.971 258.412 279.11 258.828 279.296 259.243C279.806 260.49 281.243 260.582 282.032 259.566C282.913 258.458 283.237 257.397 283.237 256.012C283.237 254.673 281.661 254.304 280.78 254.904Z" fill="white" fill-opacity="0.1"/>
<path d="M307.581 241.748C307.488 242.072 307.396 242.441 307.256 242.764C307.164 241.795 307.117 240.825 307.025 239.856C306.885 238.009 303.871 238.009 304.011 239.856C304.474 246.595 304.984 253.335 305.448 260.074C305.587 261.921 308.601 261.921 308.462 260.074C308.416 259.197 308.323 258.274 308.277 257.397C308.972 257.166 309.575 256.566 309.436 255.643C308.601 251.165 308.972 246.826 310.456 242.533C311.105 240.733 308.184 239.994 307.581 241.748Z" fill="white" fill-opacity="0.1"/>
<path d="M354.137 252.273C350.242 252.365 346.347 252.873 342.591 253.843C342.684 252.873 341.988 251.858 340.829 252.319C335.775 254.304 330.813 256.474 325.944 258.92C324.229 259.797 325.759 262.29 327.475 261.413C329.051 260.628 330.628 259.843 332.251 259.105C332.158 259.151 332.112 259.197 332.065 259.29C331.138 260.213 330.21 261.09 329.283 262.013C327.892 263.352 329.932 265.152 331.416 264.044C331.926 263.675 332.436 263.306 332.946 262.982C333.781 263.306 334.94 262.798 335.033 261.828C337.537 260.674 340.226 259.982 343.055 259.797C344.956 259.659 345.002 256.797 343.055 256.935C342.637 256.981 342.22 256.981 341.849 257.028C342.591 256.797 343.333 256.612 344.121 256.428C347.414 255.643 350.799 255.227 354.183 255.135C356.085 255.135 356.085 252.227 354.137 252.273Z" fill="white" fill-opacity="0.1"/>
<path d="M374.401 238.563C370.46 235.424 366.843 231.962 363.597 228.177C362.392 226.746 360.259 228.777 361.464 230.208C362.531 231.454 363.644 232.655 364.756 233.855C364.664 233.762 364.617 233.716 364.525 233.624C364.339 233.439 364.154 233.301 363.922 233.255C362.392 232.054 360.908 230.762 359.378 229.516C357.894 228.315 355.761 230.347 357.245 231.547C359.053 233.024 360.815 234.547 362.67 235.932C365.174 238.563 368.281 242.902 372.407 242.625C373.474 242.533 373.938 241.61 373.845 240.825C374.819 240.456 375.375 239.348 374.401 238.563Z" fill="white" fill-opacity="0.1"/>
<path d="M264.783 272.261C264.551 271.753 264.134 271.568 263.67 271.568C263.206 270.645 261.908 270.461 261.213 271.199C261.073 269.722 258.569 269.26 258.291 270.876C257.596 274.477 256.947 278.031 256.251 281.632C255.973 283.155 257.967 283.94 258.801 283.063C259.404 283.109 259.961 282.832 260.192 282.139C260.471 282.555 261.027 282.786 261.537 282.739C261.954 283.663 263.531 284.124 264.227 282.97C266.22 279.6 266.36 275.861 264.783 272.261Z" fill="white" fill-opacity="0.1"/>
<path d="M284.999 270.368C284.35 269.168 282.82 269.63 282.356 270.553C281.985 270.137 281.614 269.814 281.058 269.63C278.925 268.845 276.421 271.568 278.461 273.184C279.157 273.738 279.992 273.6 280.548 273.138C280.78 273.553 281.058 273.969 281.29 274.338C281.846 275.261 282.449 276.231 283.006 277.154C283.608 278.169 284.953 278.031 285.602 277.154C287.132 275.031 286.112 272.445 284.999 270.368Z" fill="white" fill-opacity="0.1"/>
<path d="M290.378 236.809C289.45 234.409 288.662 232.008 287.92 229.608C287.503 228.177 285.231 228.315 284.999 229.7C284.906 229.654 284.86 229.608 284.767 229.608C284.674 229.239 284.721 228.869 284.86 228.454C285.463 226.7 282.588 225.915 281.985 227.669C281.336 229.469 281.938 231.547 283.376 232.839C283.932 234.363 284.582 235.886 285.323 237.317C285.787 238.194 286.9 238.194 287.596 237.64C288.245 239.256 291.027 238.517 290.378 236.809Z" fill="white" fill-opacity="0.1"/>
<path d="M313.518 275.308C313.1 275.446 312.637 275.631 312.219 275.815C312.776 274.892 313.332 273.969 313.889 273C314.677 271.661 313.147 270.415 311.848 271.015C309.576 272.03 308.417 274.477 307.072 276.369C305.496 278.631 303.919 280.893 302.389 283.109C301.74 283.524 301.508 283.986 301.508 284.817C301.508 286.294 303.409 286.663 304.244 285.602C304.846 285.879 305.681 285.786 306.145 285.094C306.469 284.586 306.84 284.124 307.165 283.617C308.371 282.001 309.762 280.57 311.431 279.462C311.292 279.924 311.106 280.432 310.967 280.893C310.411 282.693 313.286 283.432 313.842 281.678C314.352 280.108 314.862 278.539 315.326 276.969C315.697 276.092 314.63 274.938 313.518 275.308Z" fill="white" fill-opacity="0.1"/>
<path d="M371.803 264.737C371.664 263.814 371.525 262.936 371.34 262.013C371.061 260.536 368.882 260.767 368.465 262.013C367.955 263.537 367.723 265.106 367.537 266.676C367.445 265.152 367.352 263.629 367.352 262.059C367.352 260.213 364.338 260.213 364.338 262.059C364.338 267.599 364.987 273.046 366.285 278.4C366.61 279.831 368.789 279.739 369.16 278.4C369.439 277.477 369.624 276.508 369.763 275.538C370.505 276.462 372.406 276.185 372.499 274.661L372.916 266.029C373.009 265.291 372.453 264.829 371.803 264.737Z" fill="white" fill-opacity="0.1"/>
<path d="M258.337 238.425C258.337 238.24 258.337 238.102 258.337 237.917C258.337 237.502 258.198 237.179 257.966 236.948L258.059 235.794C258.198 233.947 255.184 233.947 255.045 235.794L253.839 251.258C253.7 253.012 256.251 253.058 256.761 251.581C257.503 251.673 258.337 251.35 258.476 250.565C259.079 247.103 259.636 243.641 260.238 240.179C260.47 239.025 259.265 238.286 258.337 238.425Z" fill="white" fill-opacity="0.1"/>
<path d="M389.379 233.808C387.524 233.162 386.087 231.87 385.113 230.208C384.185 228.592 381.589 230.023 382.516 231.685C382.562 231.731 382.562 231.777 382.609 231.823C381.496 232.1 380.893 233.762 382.192 234.501C383.397 235.193 384.603 235.886 385.762 236.532C386.504 236.947 387.199 236.717 387.617 236.209C387.941 236.347 388.266 236.486 388.591 236.578C390.399 237.224 391.187 234.455 389.379 233.808Z" fill="white" fill-opacity="0.1"/>
<path d="M395.453 246.318C395.174 245.21 393.737 244.98 392.949 245.672C387.894 250.242 384.509 256.058 383.025 262.567C382.747 263.721 383.814 264.46 384.741 264.367C385.437 264.783 386.457 264.783 386.967 263.952C388.172 261.828 389.378 259.751 390.584 257.628C391.326 256.705 392.16 255.827 393.041 255.043C393.69 254.443 393.598 253.704 393.134 253.196C394.479 251.027 396.102 248.811 395.453 246.318Z" fill="white" fill-opacity="0.1"/>
<path d="M394.897 273.6C393.506 274.2 392.393 275.077 391.466 276.092C388.962 277.939 386.458 279.739 383.954 281.586C383.258 282.093 382.795 283.201 383.629 283.847C384.649 284.632 385.669 284.678 386.69 283.801C387.061 283.478 387.2 283.155 387.153 282.832C387.478 282.601 387.803 282.37 388.127 282.139C388.081 283.063 388.869 283.847 389.982 283.617C390.399 283.524 390.77 283.432 391.187 283.34C392.486 283.063 392.486 281.678 391.79 280.939C392.3 279.924 392.903 278.954 393.599 278.123C394.526 277.431 395.453 276.785 396.381 276.092C397.957 274.984 396.705 272.861 394.897 273.6Z" fill="white" fill-opacity="0.1"/>
<path d="M386.179 301.112C386.411 301.62 386.828 301.804 387.292 301.804C387.755 302.727 389.054 302.912 389.749 302.173C389.888 303.651 392.392 304.112 392.671 302.497C393.366 298.896 394.015 295.342 394.711 291.741C394.989 290.218 392.995 289.433 392.161 290.31C391.558 290.264 391.001 290.541 390.769 291.233C390.491 290.818 389.935 290.587 389.425 290.633C389.007 289.71 387.431 289.248 386.735 290.402C384.741 293.772 384.602 297.557 386.179 301.112Z" fill="white" fill-opacity="0.1"/>
<path d="M365.962 303.051C366.611 304.251 368.141 303.789 368.605 302.866C368.976 303.281 369.347 303.605 369.903 303.789C372.036 304.574 374.54 301.85 372.5 300.235C371.804 299.681 370.97 299.819 370.413 300.281C370.181 299.865 369.903 299.45 369.671 299.081C369.115 298.157 368.512 297.188 367.956 296.265C367.353 295.249 366.008 295.388 365.359 296.265C363.782 298.342 364.802 300.973 365.962 303.051Z" fill="white" fill-opacity="0.1"/>
<path d="M338.557 286.986C338.974 286.848 339.438 286.663 339.855 286.479C339.299 287.402 338.743 288.325 338.186 289.294C337.398 290.633 338.928 291.879 340.226 291.279C342.499 290.264 343.658 287.817 345.002 285.925C346.579 283.663 348.156 281.401 349.686 279.185C350.335 278.77 350.567 278.308 350.567 277.477C350.567 276 348.666 275.631 347.831 276.692C347.228 276.415 346.394 276.508 345.93 277.2C345.605 277.708 345.234 278.17 344.91 278.677C343.704 280.293 342.313 281.724 340.644 282.832C340.783 282.37 340.968 281.862 341.107 281.401C341.664 279.601 338.789 278.862 338.233 280.616C337.722 282.186 337.212 283.755 336.749 285.325C336.424 286.202 337.491 287.402 338.557 286.986Z" fill="white" fill-opacity="0.1"/>
<path d="M308.833 300.05C310.827 299.496 312.543 299.496 314.537 300.004C315.603 300.281 316.623 299.265 316.391 298.296C318.617 297.834 320.843 298.065 323.069 299.034C324.831 299.819 326.361 297.326 324.599 296.541C321.075 294.972 317.458 294.741 313.748 296.034C313.331 296.172 313.006 296.449 312.821 296.772C311.198 296.634 309.621 296.772 307.998 297.234C306.19 297.788 306.978 300.558 308.833 300.05Z" fill="white" fill-opacity="0.1"/>
<path d="M284.352 308.913C284.491 309.836 284.63 310.713 284.815 311.637C285.093 313.114 287.273 312.883 287.69 311.637C288.2 310.113 288.432 308.544 288.618 306.974C288.71 308.498 288.803 310.021 288.803 311.59C288.803 313.437 291.817 313.437 291.817 311.59C291.817 306.051 291.168 300.604 289.87 295.249C289.545 293.818 287.366 293.911 286.995 295.249C286.716 296.173 286.531 297.142 286.392 298.111C285.65 297.188 283.749 297.465 283.656 298.988L283.239 307.621C283.146 308.359 283.702 308.821 284.352 308.913Z" fill="white" fill-opacity="0.1"/>
<path d="M256.064 299.773C257.455 299.173 258.568 298.296 259.496 297.28C262 295.434 264.503 293.633 267.007 291.787C267.703 291.279 268.167 290.171 267.332 289.525C266.312 288.74 265.292 288.694 264.272 289.571C263.901 289.894 263.762 290.218 263.808 290.541C263.483 290.771 263.159 291.002 262.834 291.233C262.881 290.31 262.092 289.525 260.979 289.756C260.562 289.848 260.191 289.941 259.774 290.033C258.475 290.31 258.475 291.695 259.171 292.433C258.661 293.449 258.058 294.418 257.363 295.249C256.435 295.942 255.508 296.588 254.58 297.28C253.004 298.434 254.256 300.512 256.064 299.773Z" fill="white" fill-opacity="0.1"/>
<path d="M1438.24 198.557C1437.89 198.548 1437.66 198.726 1437.53 198.892C1435.42 198.534 1433.31 198.983 1431.99 201.049C1429.91 204.361 1431.43 210.02 1434.68 211.955C1442.96 216.973 1448.07 198.665 1438.24 198.557ZM1434.43 209.015C1433.16 207.151 1432.27 203.884 1433.86 201.987C1435.72 199.758 1439.27 201.305 1441.24 202.684C1441.3 202.728 1441.3 202.728 1441.35 202.722C1441.93 204.264 1441.77 206.345 1441.13 207.729C1439.88 210.44 1436.49 211.944 1434.43 209.015Z" fill="white" fill-opacity="0.1"/>
<path d="M1449.26 229.52C1450.05 227.617 1449.74 224.583 1448.11 223.566C1448.11 223.517 1448.05 223.473 1448.05 223.473C1446.46 221.092 1442.05 220.803 1440.54 223.345C1438.98 225.942 1439.79 229.823 1442.25 231.498C1444.65 233.079 1448.12 232.269 1449.26 229.52ZM1442.61 229.04C1441.72 227.886 1441.52 226.149 1442.07 224.777C1442.53 223.615 1444.26 223.362 1445.48 223.874C1445.31 224.548 1445.92 225.483 1446.8 225.279C1447.73 225.02 1447.83 227.172 1447.7 227.79C1447.6 228.608 1447.24 229.405 1446.53 229.839C1445.27 230.641 1443.51 230.243 1442.61 229.04Z" fill="white" fill-opacity="0.1"/>
<path d="M1446.75 259.248C1448.61 256.213 1448.42 252.058 1446.18 249.604C1446.33 249.234 1446.28 248.787 1445.89 248.43C1442.37 245.471 1436.98 244.542 1433.82 248.533C1431.01 252.032 1432.36 258.365 1435.38 261.383C1438.86 264.95 1444.29 263.208 1446.75 259.248ZM1436.02 259.144C1434.17 256.644 1433.31 251.914 1435.6 249.533C1437.49 247.602 1439.96 247.615 1442.18 248.562C1441.98 249.038 1442.1 249.578 1442.68 249.812C1446.35 251.093 1446.92 255.505 1444.8 258.52C1442.69 261.534 1438.42 262.436 1436.02 259.144Z" fill="white" fill-opacity="0.1"/>
<path d="M1432.24 224.216C1432.42 218.861 1426.51 217.438 1422.64 217.036C1421.88 216.974 1421.46 217.677 1421.53 218.273C1419.71 219.04 1418.28 220.615 1417.74 222.892C1416.77 227.081 1419.57 231.232 1423.65 231.71C1427.48 232.168 1432.12 228.355 1432.24 224.216ZM1419.54 224.09C1419.87 220.882 1422.97 219.01 1425.85 219.981C1426.22 220.089 1426.51 220.005 1426.74 219.827C1428.16 220.315 1429.42 221.174 1430 222.766C1431.21 225.794 1427.41 229.409 1424.77 229.667C1421.79 229.966 1419.2 227.199 1419.54 224.09Z" fill="white" fill-opacity="0.1"/>
<path d="M1428.66 193.237C1429.84 189.527 1428.18 186.551 1425.67 184.38C1425.81 183.86 1425.58 183.183 1424.95 183.004C1424.22 182.788 1423.49 182.571 1422.77 182.405C1421.59 181.788 1420.37 181.276 1419.22 180.907C1418.49 180.691 1417.95 181.257 1417.87 181.82C1414.56 181.906 1411.59 183.159 1410.12 186.954C1408.26 191.749 1409.92 199.002 1415.09 200.611C1420.05 202.194 1427.06 198.456 1428.66 193.237ZM1415.62 198.688C1411.29 197.383 1410.3 190.656 1412.29 187.002C1414.31 183.193 1418.51 183.456 1422.15 184.389C1425.1 185.956 1427.65 188.425 1426.93 192.132C1426.03 196.563 1419.63 199.879 1415.62 198.688Z" fill="white" fill-opacity="0.1"/>
<path d="M1418.76 246.672C1419.74 246.81 1420.3 245.184 1419.24 244.705C1416.2 243.249 1411.98 242.484 1409.69 245.621C1407.78 248.259 1408.55 252.295 1410.64 254.617C1415.98 260.684 1422.53 250.459 1418.76 246.672ZM1410.81 250.973C1410.3 249.122 1410.6 247.023 1412.3 246.02C1413.47 245.329 1414.84 245.42 1416.14 245.771C1415.59 246.189 1415.63 247.441 1416.52 247.69C1419.64 248.582 1416.99 253.471 1415.17 254.237C1413.16 255.077 1411.38 252.819 1410.81 250.973Z" fill="white" fill-opacity="0.1"/>
<path d="M1409.61 218.309C1410.62 214.87 1409.51 212.333 1407.44 210.512C1407.6 210.191 1407.66 209.832 1407.36 209.415C1404.32 205.392 1396.73 205.828 1393.39 209.087C1388.87 213.49 1393.26 220.021 1397.4 222.756C1402.05 225.936 1407.95 223.887 1409.61 218.309ZM1398.84 221.329C1395.71 219.482 1391.27 214.215 1394.69 210.746C1395.9 209.498 1398.17 208.728 1400.43 208.666C1400.42 209.019 1400.61 209.299 1401.03 209.451C1404.16 210.443 1408.26 211.976 1408.05 216.127C1407.76 221.04 1402.85 223.729 1398.84 221.329Z" fill="white" fill-opacity="0.1"/>
<path d="M1434.89 283.428C1438.06 278.73 1436.65 271.851 1431.36 269.652C1430.78 269.418 1430.32 269.724 1430.11 270.15C1427.56 267.229 1422 266.621 1419.29 269.203C1417.34 271.041 1416.56 274.301 1416.42 276.984C1416.31 279.866 1417.33 282.564 1419.59 284.312C1423.63 287.412 1431.75 288.021 1434.89 283.428ZM1422.64 283.703C1418.21 281.908 1417.59 277.099 1419.27 272.928C1420.28 270.395 1422.09 269.529 1424.64 269.834C1426.73 270.043 1429.71 270.953 1429.53 273.741C1429.43 275.06 1431.38 275.386 1431.48 274.066C1431.53 273.254 1431.39 272.466 1431.11 271.794C1434.44 273.569 1435.54 277.817 1433.79 281.343C1431.84 285.295 1426.29 285.189 1422.64 283.703Z" fill="white" fill-opacity="0.1"/>
<path d="M1440.82 173.299C1441.43 171.165 1440.83 169.022 1439.58 167.406C1439.99 167.007 1440.15 166.283 1439.59 165.795C1436.5 163.037 1431.46 163.375 1429.22 167.058C1427.11 170.475 1428.19 175.43 1431.65 177.441C1435.27 179.584 1439.74 177.4 1440.82 173.299ZM1432.33 175.5C1429.98 173.913 1429.4 170.258 1431.09 167.947C1431.74 167.065 1432.58 166.514 1433.51 166.255C1433.63 166.442 1433.84 166.518 1434.09 166.538C1436.88 166.716 1439.65 169.26 1439.01 172.454C1438.37 175.598 1434.95 177.257 1432.33 175.5Z" fill="white" fill-opacity="0.1"/>
<path d="M1420.34 168.097C1421.11 165.19 1421.18 161.558 1419.19 159.125C1418.77 158.57 1418.27 158.126 1417.72 157.737C1417.65 155.027 1414.79 153.753 1412.72 152.887C1410.07 151.738 1407.55 151.631 1405 153.086C1400.56 155.618 1397.73 161.081 1398.4 166.386C1399.06 171.543 1403.19 175.939 1408.07 176.728C1413.76 177.672 1418.86 173.553 1420.34 168.097ZM1404.12 172.661C1400.11 169.357 1399.39 163.654 1401.89 159.186C1403.22 156.816 1405.61 154.474 1408.28 154.061C1409.72 153.843 1413.19 154.695 1414.87 156.208C1413.93 155.866 1412.99 155.573 1412.05 155.33C1410.81 155.023 1410.54 157.017 1411.74 157.38C1413.92 157.98 1416.58 158.726 1417.97 160.776C1419.67 163.244 1418.88 167.211 1417.66 169.669C1415 174.911 1408.63 176.36 1404.12 172.661Z" fill="white" fill-opacity="0.1"/>
<path d="M1400.15 188.623C1401.75 185.115 1401.15 179.5 1397.13 178.761C1394.12 176.649 1390 176.275 1387.51 179.535C1384.85 183.016 1386.66 188.993 1389.86 191.436C1393.57 194.274 1398.23 192.823 1400.15 188.623ZM1389.65 188.341C1388.07 186.011 1387.4 182.013 1389.8 180.123C1391.41 178.877 1393.24 179.016 1394.89 179.829C1394.96 180.375 1395.32 180.886 1395.97 180.81C1396.11 180.793 1396.26 180.775 1396.42 180.808C1396.7 181.076 1397.03 181.339 1397.27 181.614C1397.61 181.976 1398.01 181.979 1398.34 181.74C1399.71 183.542 1398.86 187.466 1397.59 189.123C1395.45 191.889 1391.54 191.14 1389.65 188.341Z" fill="white" fill-opacity="0.1"/>
<path d="M1398.59 244.102C1400.88 242.626 1401.41 239.797 1400.81 237.251C1401.66 237.654 1402.75 236.622 1401.99 235.754C1400.06 233.464 1396.55 231.862 1393.81 233.39C1391.26 234.795 1391.05 239.449 1392 242.004C1393.09 244.796 1396.2 245.639 1398.59 244.102ZM1393.66 240.653C1393.26 238.989 1393.3 235.915 1395.03 235.16C1396.08 234.734 1397.26 234.898 1398.32 235.378C1398.2 235.594 1398.18 235.898 1398.32 236.233C1399.12 237.901 1399.55 240.266 1398.22 241.78C1396.71 243.517 1394.18 243.007 1393.66 240.653Z" fill="white" fill-opacity="0.1"/>
<path d="M1407.01 274.815C1409.07 272.159 1412.26 261.572 1406.35 261.86C1406.25 261.872 1406.15 261.883 1406.06 261.945C1405.07 261.205 1403.76 260.805 1402.43 260.608C1399.61 260.133 1396.41 259.854 1393.81 261.315C1391.31 262.714 1390.35 265.292 1390.38 268.156C1390.36 270.926 1390.69 274.208 1392.59 276.3C1396.05 280.022 1404.13 278.573 1407.01 274.815ZM1393.5 274.131C1391.77 271.365 1391.52 265.406 1394.25 263.376C1396.01 262.064 1398.38 262.138 1400.42 262.353C1402.36 262.579 1405.6 262.703 1405.95 265.279C1406.11 266.266 1407.23 266.386 1407.67 265.832C1407.68 265.931 1407.7 266.03 1407.65 266.086C1407.65 266.488 1407.55 266.953 1407.5 267.361C1407.39 268.129 1407.23 268.952 1407.07 269.726C1406.62 271.489 1405.88 273.337 1404.45 274.46C1401.83 276.577 1395.6 277.458 1393.5 274.131Z" fill="white" fill-opacity="0.1"/>
<path d="M1411.89 300.609C1413.61 299.401 1414.45 297.139 1415.13 295.149C1415.79 293.108 1415.85 291.038 1414.49 289.286C1414.08 288.781 1413.53 288.795 1413.11 289.095C1411.34 286.837 1408.65 285.39 1405.75 286.384C1403.81 287.013 1402.59 288.665 1402.02 290.644C1401.45 292.623 1401.07 295.434 1401.9 297.35C1403.32 300.857 1408.91 302.668 1411.89 300.609ZM1403.45 295.558C1403.09 292.934 1403.88 288.917 1406.78 288.326C1409.73 287.73 1411.93 290.189 1412.94 292.788C1413.08 293.124 1413.3 293.299 1413.56 293.37C1413.4 295.451 1412.22 297.804 1410.97 298.754C1408.61 300.49 1403.81 298.636 1403.45 295.558Z" fill="white" fill-opacity="0.1"/>
<path d="M1384.77 173.265C1386.39 171.213 1386.5 167.879 1384.63 166.086C1382.85 163.778 1379.66 163.598 1377.46 165.415C1375.08 167.405 1374.84 171.004 1376.98 173.371C1379.18 175.83 1382.76 175.865 1384.77 173.265ZM1378.08 171.582C1376.02 168.602 1379.42 165.387 1382.01 166.493C1382.09 166.735 1382.27 166.966 1382.59 167.08C1382.85 167.2 1383.07 167.325 1383.23 167.457C1383.35 167.594 1383.47 167.781 1383.54 167.924C1383.66 168.111 1383.77 168.199 1383.88 168.286C1385.05 170.967 1380.98 175.72 1378.08 171.582Z" fill="white" fill-opacity="0.1"/>
<path d="M1388.16 202.655C1388.33 199.817 1385.91 197.635 1383.34 197.633C1383.09 197.612 1382.9 197.735 1382.76 197.852C1381.09 197.745 1379.43 199.046 1379 200.909C1378.35 203.6 1380.16 206.559 1382.74 207.112C1385.31 207.566 1387.97 205.393 1388.16 202.655ZM1383.56 205.055C1382.25 205.057 1381.05 203.838 1380.85 202.554C1380.55 200.828 1382.18 198.926 1383.72 200.407C1384.23 200.9 1384.85 200.626 1385.09 200.145C1386.81 201.454 1386.27 205.039 1383.56 205.055Z" fill="white" fill-opacity="0.1"/>
<path d="M1367.85 194.213C1370.77 191.254 1372.61 185.002 1369.5 181.692C1368.25 177.411 1366.11 173.787 1361.25 173.55C1358.82 173.432 1356.04 173.707 1354.11 175.291C1352.27 176.764 1351.15 179.26 1350.57 181.542C1349.2 186.683 1350.54 192.514 1355.06 195.457C1359.14 198.099 1364.43 197.682 1367.85 194.213ZM1352.46 188.667C1351.04 183.852 1352.96 176.633 1358.19 175.72C1360.55 175.292 1363.47 175.303 1365.3 177.202C1366.16 178.108 1366.75 179.247 1367.19 180.453C1366.58 180.776 1366.36 181.909 1367.21 182.362C1367.48 182.482 1367.7 182.657 1367.87 182.838C1367.96 183.18 1368.05 183.522 1368.1 183.869C1368.2 184.36 1368.59 184.617 1368.95 184.725C1369.37 186.185 1369.13 187.975 1368.68 189.285C1367.84 191.597 1366.11 193.561 1363.96 194.517C1359.36 196.514 1353.89 193.631 1352.46 188.667Z" fill="white" fill-opacity="0.1"/>
<path d="M1374.7 224.858C1378.22 222.282 1378.76 217.439 1376.69 213.858C1376.56 208.892 1370.26 207.113 1366.28 208.383C1361.29 209.974 1360.4 217.474 1362.67 221.787C1365.06 226.288 1370.67 227.845 1374.7 224.858ZM1364.85 221.532C1362.97 218.783 1362.79 212.918 1365.72 210.864C1367.81 209.412 1372.23 209.751 1373.99 211.909C1373.59 212.309 1373.47 213.027 1373.98 213.521C1374.26 213.79 1374.5 214.064 1374.74 214.388C1374.75 214.488 1374.71 214.593 1374.72 214.692C1374.6 215.36 1375.05 215.761 1375.56 215.852C1376.56 218.401 1375.92 221.495 1373.56 223.231C1370.73 225.273 1366.86 224.467 1364.85 221.532Z" fill="white" fill-opacity="0.1"/>
<path d="M1382.4 245.895C1382.52 243.968 1381.82 242.289 1380.67 241.065C1380.7 240.861 1380.67 240.563 1380.44 240.338C1377.96 237.207 1373.32 237.095 1371.05 240.481C1368.69 243.977 1370.21 248.83 1373.89 250.613C1377.58 252.446 1382.06 250.312 1382.4 245.895ZM1374.69 248.81C1372.39 247.669 1371.15 244.796 1372.32 242.344C1372.72 241.492 1373.3 240.87 1374.02 240.535C1374.08 241.032 1374.48 241.438 1375.07 241.318C1377.48 240.885 1380.25 242.171 1380.44 245.068C1380.67 248.311 1377.4 250.102 1374.69 248.81Z" fill="white" fill-opacity="0.1"/>
<path d="M1375.98 277.489C1378.19 275.318 1379.4 271.051 1378.25 268.116C1377.63 263.257 1372.72 259.053 1368.15 260.895C1363.01 262.956 1361.98 270.07 1364.05 274.909C1366.2 279.941 1372.19 281.253 1375.98 277.489ZM1365.24 272.104C1364.53 268.615 1365.37 264.189 1368.87 262.773C1371.28 261.837 1373.59 263.126 1374.99 265.177C1374.84 265.145 1374.63 265.118 1374.47 265.036C1373.24 264.828 1372.92 266.828 1374.16 267.086C1375.14 267.273 1375.79 267.7 1376.21 268.255C1376.25 268.652 1376.29 268.999 1376.28 269.352C1376.29 269.805 1376.52 270.08 1376.79 270.199C1376.84 272.81 1374.82 276.166 1372.91 277.093C1369.2 278.936 1366.04 275.935 1365.24 272.104Z" fill="white" fill-opacity="0.1"/>
<path d="M1386.86 301.676C1389.46 299.862 1390.13 296.513 1389.42 293.477C1389.56 293.36 1389.68 293.144 1389.7 292.84C1389.81 290.362 1388.45 288.659 1386.37 287.595C1384.44 286.563 1381.69 285.475 1379.54 286.431C1375.62 288.198 1375.67 295.538 1377.18 298.984C1378.8 302.92 1383.56 304.024 1386.86 301.676ZM1379.47 299.169C1377.85 296.943 1377.83 292.468 1378.95 289.972C1379.99 287.687 1382.11 288.144 1383.95 288.834C1384.68 289.1 1385.53 289.454 1386.24 289.924C1385.93 290.263 1385.78 290.733 1386.14 291.244C1387.86 293.458 1388.42 296.965 1386.52 299.2C1384.75 301.318 1381.15 301.488 1379.47 299.169Z" fill="white" fill-opacity="0.1"/>
<path d="M1342.36 183.659C1344.28 181.573 1345.46 177.46 1344.32 174.575C1344.84 174.313 1345.17 173.671 1344.7 173.072C1341.85 169.38 1336.36 168.059 1332.63 171.011C1329.13 173.786 1328.32 179.767 1331.4 183.331C1334.19 186.527 1339.51 186.811 1342.36 183.659ZM1332.31 181.162C1330.63 178.391 1331.51 174.362 1334.06 172.504C1336.01 171.069 1338.58 171.12 1340.67 172.234C1340.28 172.733 1340.27 173.539 1341.01 173.805C1344.39 175.171 1342.6 180.965 1340.48 182.671C1338.05 184.667 1333.94 183.94 1332.31 181.162Z" fill="white" fill-opacity="0.1"/>
<path d="M1348.81 213.446C1351.66 212.005 1352.38 208.248 1350.85 205.459C1350.79 205.366 1350.73 205.272 1350.61 205.185C1351.16 205.071 1351.7 204.555 1351.46 203.778C1350.37 200.484 1345.13 199.99 1342.7 201.632C1339.95 203.464 1339.49 207.694 1340.93 210.594C1342.39 213.544 1345.96 214.886 1348.81 213.446ZM1342.5 209.354C1341.75 207.681 1341.87 205.302 1343.12 203.948C1344.41 202.489 1348.8 202.176 1349.58 204.551C1349.66 204.743 1349.78 204.93 1349.89 205.018C1349.31 205.187 1348.79 205.951 1349.23 206.655C1350.25 208.498 1349.43 210.959 1347.55 211.682C1345.59 212.515 1343.34 211.369 1342.5 209.354Z" fill="white" fill-opacity="0.1"/>
<path d="M1359.63 241.816C1361.16 237.712 1360.18 231.438 1356.72 228.522C1354.05 224.254 1348.47 223.801 1344.73 226.704C1341 229.656 1339.55 234.857 1340.8 239.591C1341.98 244.082 1345.5 247.494 1350.01 247.771C1354.01 247.958 1358.14 245.815 1359.63 241.816ZM1346.25 244.438C1342.53 241.854 1341.36 236.204 1343.14 232.072C1344.92 227.939 1350.01 225.382 1353.47 227.895C1353.23 228.376 1353.3 229.021 1353.93 229.25C1354.46 229.44 1354.89 229.691 1355.33 230.042C1355.45 230.179 1355.57 230.316 1355.72 230.349C1358.77 233.162 1359.3 239.39 1357.01 242.626C1354.63 245.923 1349.54 246.72 1346.25 244.438Z" fill="white" fill-opacity="0.1"/>
<path d="M1355.43 273C1357.21 270.627 1356.73 267.816 1355.27 265.622C1355.53 265.289 1355.58 264.831 1355.28 264.413C1353.6 262.094 1350.07 261.651 1348.17 263.837C1346.07 266.144 1345.85 270.699 1347.8 273.188C1349.7 275.682 1353.55 275.483 1355.43 273ZM1349.07 271.58C1348.03 269.991 1348.26 267.197 1349.24 265.674C1349.88 264.693 1350.99 264.361 1351.98 264.598C1351.96 264.852 1352.09 265.138 1352.32 265.363C1354 266.827 1355.3 268.889 1354.2 271.131C1353.29 273.2 1350.36 273.542 1349.07 271.58Z" fill="white" fill-opacity="0.1"/>
<path d="M1362.8 307.207C1365.54 304.824 1366.49 300.889 1365.58 297.423C1365.97 297.277 1366.28 296.938 1366.16 296.398C1364.41 286.088 1348.67 283.602 1345.85 294.397C1344.6 299.123 1346.45 304.642 1350.31 307.561C1354 310.249 1359.33 310.229 1362.8 307.207ZM1348.51 302.036C1346.41 297.451 1347.64 291.572 1352.46 289.75C1356.07 288.372 1360.59 290.007 1362.88 293.26C1362.13 293.298 1361.47 294.13 1362.11 294.86C1365.26 298.567 1364.25 304.522 1359.97 306.633C1355.59 308.805 1350.54 306.527 1348.51 302.036Z" fill="white" fill-opacity="0.1"/>
</svg>
