<svg width="300" height="79" viewBox="0 0 300 79" fill="none" xmlns="http://www.w3.org/2000/svg">
<path fill-rule="evenodd" clip-rule="evenodd" d="M283.213 12.6028C280.987 12.6928 272.84 13.3002 264.049 17.3974L272.917 37.0513L283.213 12.6028ZM263.457 17.6781C257.001 20.7937 250.262 25.8161 245.313 33.9121L260.274 67.0707L266.399 52.5261L266.399 52.5259L266.4 52.5259L272.57 37.8749L263.457 17.6781ZM244.903 34.5963C243.932 36.2519 243.035 38.032 242.229 39.946C231.664 65.0329 244.682 94.1052 246.923 98.7712L259.927 67.8943L244.903 34.5963ZM247.471 99.3365C250.39 98.2937 280.345 87.1186 292.651 63.4841L256.413 78.1048L247.471 99.3365ZM293.088 62.6241C293.526 61.7405 293.94 60.8399 294.326 59.9222C297.262 52.9502 298.02 46.4583 297.518 40.6543L266.999 52.9675L256.759 77.2812L293.088 62.6241ZM297.456 39.9959C295.845 24.4533 285.293 13.9925 283.951 12.7183L267.346 52.1439L297.456 39.9959Z" fill="#9EE5A6"/>
<path d="M157.303 59.8625C156.683 54.5923 151.504 50.2463 150.885 44.9761C149.753 37.9522 156.446 31.7308 157.135 24.2493C157.135 24.2493 157.135 24.2493 157.607 24.6843C158.079 25.1194 158.079 25.1194 158.551 25.5544C159.024 25.9895 159.482 25.985 159.954 26.42C160.426 26.8551 160.885 26.8506 161.357 27.2856C161.829 27.7207 162.288 27.7162 163.218 28.1467C163.691 28.5818 164.608 28.5728 165.066 28.5683C165.525 28.5638 166.456 28.9943 166.915 28.9898C167.373 28.9853 168.304 29.4158 168.763 29.4113C169.221 29.4068 170.139 29.3978 170.597 29.3933C171.056 29.3888 171.515 29.3843 171.973 29.3798C172.432 29.3753 172.891 29.3708 173.349 29.3663C173.808 29.3618 174.267 29.3573 174.267 29.3573C174.725 29.3528 175.184 29.3483 175.184 29.3483C175.184 29.3483 174.725 29.3528 174.267 29.3573C173.808 29.3618 172.891 29.3708 171.96 28.9402C171.501 28.9447 171.042 28.9492 170.584 28.9537C170.125 28.9583 169.666 28.9628 168.736 28.5322C168.277 28.5367 167.346 28.1062 166.888 28.1107C166.429 28.1152 165.498 27.6846 165.04 27.6891C164.581 27.6936 163.65 27.2631 163.192 27.2676C162.733 27.2721 161.802 26.8416 161.344 26.8461C160.872 26.411 160.413 26.4155 159.941 25.9805C159.469 25.5454 159.01 25.5499 158.538 25.1149C158.066 24.6798 157.149 24.6888 156.677 24.2538L156.663 23.8142C156.516 18.9791 153.63 14.6105 154.4 9.76638C154.752 6.2454 156.951 3.14597 160.122 1.79575C163.292 0.445533 166.961 0.409486 169.754 1.70113C174.407 3.85386 177.347 9.98064 182.891 11.2452C186.128 12.0928 190.216 10.7336 193.021 12.4648C195.827 14.196 196.379 17.2684 197.836 19.8922L197.849 20.3318C197.876 21.2109 197.444 22.0945 197.012 22.9781C197.026 23.4177 196.594 24.3013 196.607 24.7409C196.634 25.62 196.189 26.0641 196.215 26.9432C195.783 27.8268 195.797 28.2664 195.365 29.15C194.933 30.0336 194.946 30.4732 194.515 31.3568C194.083 32.2404 194.096 32.68 193.664 33.5636C193.232 34.4472 193.246 34.8868 192.814 35.7704C192.382 36.654 192.395 37.0936 191.95 37.5377C191.505 37.9817 191.532 38.8608 191.086 39.3049C190.654 40.1885 190.223 41.0721 189.791 41.9558C189.345 42.3998 189.359 42.8394 189.359 42.8394C189.359 42.8394 189.804 42.3953 190.249 41.9513C190.695 41.5072 190.695 41.5072 191.14 41.0631C191.585 40.6191 191.572 40.1795 192.017 39.7354C192.462 39.2914 192.908 38.8473 192.881 37.9682C193.326 37.5241 193.758 36.6405 193.745 36.2009C194.176 35.3173 194.622 34.8733 194.595 33.9941C195.027 33.1105 195.013 32.671 195.445 31.7873C195.877 30.9037 195.864 30.4642 196.296 29.5805C196.728 28.6969 196.714 28.2574 196.687 27.3782C196.661 26.4991 197.106 26.0551 197.079 25.1759C197.052 24.2968 197.498 23.8528 197.484 23.4132C197.471 22.9736 197.444 22.0945 197.431 21.655C197.417 21.2154 197.404 20.7759 197.39 20.3363C197.39 20.3363 197.39 20.3363 197.377 19.8967C197.876 21.2109 198.82 22.081 199.764 22.9511C203.514 25.5524 209.409 23.296 213.604 25.4533C216.868 27.18 217.893 30.6874 218.917 34.1949C220.4 37.6978 220.508 41.2143 222.881 43.8291C226.212 47.7536 232.674 49.0092 234.656 53.8263C236.152 57.7688 233.548 62.631 235.044 66.5735C237.039 71.8302 244.917 74.391 244.632 80.1097C244.294 84.0703 238.871 86.7617 238.991 90.7177C239.045 92.4759 240.016 94.2252 240.069 95.9834C240.648 99.9349 236.628 103.492 232.526 104.412C229.329 104.883 226.564 104.47 223.34 104.062C221.425 101.443 219.955 98.3794 218.485 95.316C218.485 95.316 218.957 95.7511 219.416 95.7466C219.888 96.1816 220.347 96.1771 220.805 96.1726C221.264 96.1681 221.736 96.6032 222.195 96.5987C222.653 96.5942 223.126 97.0292 224.043 97.0202C224.502 97.0157 224.96 97.0112 225.891 97.4417C226.35 97.4372 226.808 97.4327 227.726 97.4237C228.184 97.4192 228.643 97.4147 229.102 97.4102C229.56 97.4057 230.019 97.4012 230.478 97.3967C230.936 97.3922 231.395 97.3877 231.381 96.9481C231.84 96.9436 231.84 96.9436 232.285 96.4995C232.744 96.495 233.189 96.051 233.189 96.051C233.189 96.051 232.731 96.0555 232.272 96.06C231.813 96.0645 230.896 96.0735 230.437 96.078C229.979 96.0825 229.52 96.087 229.061 96.0915C228.603 96.096 228.144 96.1005 227.685 96.105C227.227 96.1096 226.768 96.1141 226.309 96.1186C225.851 96.1231 225.392 96.1276 224.92 95.6925C224.461 95.697 223.989 95.262 223.531 95.2665C223.072 95.271 222.6 94.8359 222.141 94.8404C221.683 94.8449 221.211 94.4099 220.752 94.4144C220.293 94.4189 219.821 93.9839 219.363 93.9884L218.904 93.9929C215.087 89.1938 212.647 84.3812 209.747 79.5731C207.307 74.7604 204.421 70.3919 201.98 65.5793C199.094 61.2107 196.654 56.3981 193.781 52.4691C190.895 48.1006 188.482 44.1671 185.609 40.2381C185.124 39.3635 184.652 38.9284 184.166 38.0538C184.153 37.6143 184.611 37.6097 185.057 37.1657C185.502 36.7216 185.489 36.2821 185.934 35.838C186.366 34.9544 187.256 34.0662 187.675 32.7431C188.12 32.299 188.093 31.4199 188.539 30.9758C188.984 30.5317 188.957 29.6526 189.402 29.2086C189.834 28.3249 189.821 27.8854 190.253 27.0018C190.685 26.1181 190.671 25.6786 190.644 24.7995C191.063 23.4763 191.023 22.1576 190.996 21.2785C190.983 20.8389 190.969 20.3994 190.956 19.9598C190.942 19.5203 190.929 19.0807 190.916 18.6411C190.902 18.2016 190.889 17.762 190.889 17.762C190.889 17.762 190.47 19.0852 190.079 21.2875C190.092 21.7271 189.647 22.1711 189.674 23.0502C189.687 23.4898 189.255 24.3734 189.268 24.813C189.282 25.2525 188.85 26.1362 188.863 26.5757C188.877 27.0153 188.445 27.8989 188 28.343C187.554 28.787 187.581 29.6661 187.136 30.1102C186.691 30.5543 186.717 31.4334 186.272 31.8775C185.827 32.3215 185.854 33.2006 185.408 33.6447C184.963 34.0888 184.976 34.5283 184.531 34.9724C184.099 35.856 183.667 36.7396 183.222 37.1837C181.307 34.5644 179.379 31.5055 177.477 29.3257C177.477 29.3257 177.464 28.8862 177.922 28.8817C177.922 28.8817 178.368 28.4376 178.354 27.998C178.8 27.554 178.8 27.554 179.245 27.1099C179.677 26.2263 180.109 25.3427 180.999 24.4545C181.444 24.0105 181.431 23.5709 181.863 22.6873C182.308 22.2432 182.281 21.3641 182.727 20.92C182.713 20.4805 183.145 19.5969 183.132 19.1573C183.118 18.7177 183.55 17.8341 183.537 17.3946C183.955 16.0714 183.929 15.1923 183.902 14.3131C183.888 13.8736 183.875 13.434 183.862 12.9945C183.848 12.5549 183.835 12.1153 183.835 12.1153C183.821 11.6758 183.808 11.2362 183.808 11.2362C183.808 11.2362 183.821 11.6758 183.376 12.1199C183.39 12.5594 182.958 13.443 182.984 14.3222C182.998 14.7617 182.553 15.2058 182.566 15.6453C182.579 16.0849 182.134 16.529 182.161 17.4081C181.729 18.2917 181.311 19.6149 180.892 20.9381C180.474 22.2612 180.042 23.1449 179.623 24.468C179.637 24.9076 179.191 25.3517 179.205 25.7912C179.218 26.2308 178.773 26.6749 178.786 27.1144C178.354 27.998 177.922 28.8817 177.936 29.3212L177.949 29.7608C177.949 29.7608 177.949 29.7608 177.936 29.3212C175.549 26.2668 173.162 23.2125 171.247 20.5931C169.332 17.9738 167.43 15.794 166.001 14.0493C164.571 12.3046 163.155 10.9994 162.656 9.68527C161.712 8.81517 161.24 8.38011 161.24 8.38011C161.24 8.38011 161.712 8.81517 162.656 9.68527C163.6 10.5554 164.571 12.3046 166.001 14.0493C166.945 14.9194 167.444 16.2336 168.401 17.5433C167.942 17.5478 167.47 17.1127 167.012 17.1172C166.553 17.1217 166.081 16.6867 165.164 16.6957C164.705 16.7002 163.774 16.2696 163.316 16.2741C162.857 16.2786 162.857 16.2786 162.385 15.8436C161.926 15.8481 161.926 15.8481 161.454 15.4131C160.982 14.978 160.523 14.9825 160.051 14.5474C159.579 14.1124 159.121 14.1169 159.107 13.6773C158.649 13.6818 158.635 13.2423 158.635 13.2423C158.635 13.2423 158.635 13.2423 158.649 13.6818C158.662 14.1214 159.134 14.5565 159.593 14.552C160.065 14.987 160.537 15.4221 161.009 15.8571C161.481 16.2922 162.398 16.2832 162.87 16.7182C163.788 16.7092 164.26 17.1442 165.177 17.1352C165.636 17.1307 166.553 17.1217 167.012 17.1172C167.929 17.1082 168.388 17.1037 168.846 17.0992C169.79 17.9693 170.289 19.2835 171.247 20.5931C173.162 23.2125 175.549 26.2668 177.491 29.7653C179.891 33.2592 182.291 36.7532 184.705 40.6867C187.119 44.6201 189.992 48.5491 192.419 52.9222C194.846 57.2953 197.732 61.6638 200.172 66.4764C202.6 70.8495 205.499 75.6576 207.94 80.4702C212.322 88.7812 216.246 97.0968 221.073 104.964C222.151 110.229 219.573 115.971 215.08 119.093C210.129 122.219 202.777 121.852 198.07 117.941C195.238 115.33 192.837 111.837 189.141 110.993C186.362 110.141 183.65 111.487 180.858 110.195C178.066 108.904 177.055 105.836 176.975 103.199C176.894 100.561 176.801 97.4843 175.803 94.856C172.338 86.5359 158.997 85.3479 156.449 77.0188C153.523 71.3316 157.935 65.5723 157.303 59.8625ZM217.879 90.4854C218.338 90.4809 219.269 90.9115 220.186 90.9024C221.103 90.8934 222.034 91.324 223.41 91.3105C223.869 91.3059 224.786 91.2969 225.245 91.2924C225.703 91.2879 226.621 91.2789 227.079 91.2744C227.538 91.2699 228.455 91.2609 228.914 91.2564C229.373 91.2519 230.29 91.2429 230.735 90.7988C232.111 90.7853 233.015 90.3367 233.919 89.8881C234.364 89.4441 235.268 88.9955 235.727 88.991C236.186 88.9865 236.631 88.5424 236.631 88.5424C236.631 88.5424 236.172 88.5469 235.714 88.5514C235.255 88.556 234.338 88.565 233.434 89.0135C232.516 89.0226 231.599 89.0316 230.236 89.4846C228.86 89.4982 227.943 89.5072 226.581 89.9602C225.205 89.9738 224.287 89.9828 222.911 89.9963C221.535 90.0098 220.618 90.0188 219.701 90.0278C219.242 90.0323 218.325 90.0413 217.879 90.4854C217.407 90.0504 216.962 90.4944 216.962 90.4944C216.962 90.4944 216.949 90.0549 217.879 90.4854ZM216.895 88.2966C217.354 88.2921 217.812 88.2876 218.271 88.2831C218.73 88.2786 219.188 88.2741 219.647 88.2696C220.564 88.2606 221.927 87.8075 223.303 87.794C223.762 87.7895 224.666 87.3409 225.583 87.3319C226.5 87.3229 226.945 86.8788 227.863 86.8698C228.767 86.4212 229.225 86.4167 230.129 85.9682C230.103 85.089 231.02 85.08 231.465 84.636C232.828 84.1829 233.718 83.2948 234.622 82.8462C235.067 82.4021 235.526 82.3976 235.971 81.9536C236.417 81.5095 236.875 81.505 236.875 81.505C237.321 81.0609 237.779 81.0564 237.779 81.0564C237.779 81.0564 236.417 81.5095 234.609 82.4066C234.15 82.4112 233.705 82.8552 232.788 82.8642C232.342 83.3083 231.425 83.3173 230.98 83.7614C229.617 84.2144 228.255 84.6675 226.892 85.1206C225.529 85.5737 224.167 86.0267 222.804 86.4798C222.345 86.4843 221.442 86.9329 220.983 86.9374C220.524 86.9419 219.62 87.3905 219.162 87.395C218.244 87.404 217.34 87.8526 216.895 88.2966C216.436 88.3011 215.978 88.3056 215.978 88.3056C215.978 88.3056 215.978 88.3056 216.895 88.2966ZM215.871 84.7892C216.329 84.7847 216.788 84.7802 217.233 84.3361C217.692 84.3316 218.137 83.8875 218.596 83.883C219.055 83.8785 219.958 83.4299 220.417 83.4254C220.862 82.9814 221.78 82.9724 222.225 82.5283C222.67 82.0842 223.588 82.0752 224.033 81.6312C225.395 81.1781 225.841 80.734 226.286 80.29C226.731 79.8459 227.635 79.3973 228.08 78.9533C228.526 78.5092 229.43 78.0606 229.875 77.6166C230.765 76.7284 231.211 76.2844 231.656 75.8403C232.101 75.3962 232.547 74.9522 232.992 74.5081C233.437 74.064 233.882 73.62 233.869 73.1804C234.314 72.7364 234.301 72.2968 234.76 72.2923C235.205 71.8482 235.191 71.4087 235.191 71.4087C235.191 71.4087 234.746 71.8527 234.301 72.2968C233.856 72.7409 232.952 73.1894 232.061 74.0776C231.616 74.5216 231.171 74.9657 230.725 75.4098C230.739 75.8493 229.835 76.2979 229.389 76.7419C228.944 77.186 228.04 77.6346 227.595 78.0786C227.15 78.5227 226.246 78.9713 225.801 79.4153C225.355 79.8594 224.451 80.308 224.006 80.752C223.561 81.1961 222.657 81.6447 222.198 81.6492C221.753 82.0932 220.849 82.5418 220.39 82.5463C219.945 82.9904 219.028 82.9994 218.582 83.4435C217.22 83.8965 216.316 84.3451 215.871 84.7892C214.953 84.7982 214.953 84.7982 214.953 84.7982C214.953 84.7982 215.412 84.7937 215.871 84.7892ZM212.459 78.2273C212.904 77.7833 213.808 77.3347 214.712 76.8861C215.616 76.4376 216.979 75.9845 218.328 75.0918C219.232 74.6433 219.691 74.6388 220.595 74.1902C221.499 73.7416 221.957 73.7371 222.861 73.2886C223.765 72.84 224.21 72.3959 225.114 71.9474C226.032 71.9383 226.477 71.4943 226.922 71.0502C227.367 70.6061 227.813 70.1621 228.245 69.2785C228.69 68.8344 229.135 68.3903 229.567 67.5067C230.471 67.0581 230.903 66.1745 231.335 65.2909C231.78 64.8468 231.767 64.4073 231.767 64.4073C231.767 64.4073 231.321 64.8513 230.876 65.2954C230.431 65.7395 229.54 66.6276 229.108 67.5112C228.218 68.3994 227.327 69.2875 226.437 70.1756C225.991 70.6197 225.087 71.0682 224.642 71.5123C224.197 71.9564 223.293 72.4049 222.834 72.4094C221.93 72.858 221.472 72.8625 220.568 73.3111C219.664 73.7597 219.205 73.7642 218.301 74.2127C217.397 74.6613 216.939 74.6658 216.493 75.1099C216.048 75.5539 215.144 76.0025 214.686 76.007C213.795 76.8951 212.904 77.7833 212.459 78.2273C212.001 78.2318 212.014 78.6714 211.555 78.6759L211.569 79.1155C211.569 79.1155 212.014 78.6714 212.459 78.2273ZM210.464 72.9707C210.909 72.5266 211.813 72.078 212.717 71.6295C213.621 71.1809 214.511 70.2928 215.861 69.4001C216.306 68.9561 217.21 68.5075 217.655 68.0634C218.1 67.6194 219.004 67.1708 219.45 66.7267C219.895 66.2827 220.34 65.8386 221.244 65.39C221.689 64.946 222.135 64.5019 222.58 64.0578C223.47 63.1697 224.361 62.2816 225.252 61.3935C226.142 60.5053 226.574 59.6217 227.019 59.1776C227.464 58.7336 227.451 58.294 227.451 58.294C227.451 58.294 227.006 58.7381 226.561 59.1821C226.115 59.6262 225.211 60.0748 224.779 60.9584C223.889 61.8465 222.998 62.7347 222.108 63.6228C221.217 64.5109 219.868 65.4035 218.978 66.2917C218.087 67.1798 216.738 68.0724 215.847 68.9606C214.957 69.8487 214.066 70.7368 213.176 71.6249C211.341 71.643 210.45 72.5311 210.464 72.9707C210.019 73.4147 209.56 73.4192 209.56 73.4192C209.56 73.4192 209.56 73.4192 210.464 72.9707ZM205.717 67.741C206.175 67.7365 206.62 67.2924 207.079 67.2879C207.538 67.2834 207.524 66.8439 207.983 66.8394C208.442 66.8349 208.428 66.3953 208.887 66.3908C209.346 66.3863 209.332 65.9467 209.791 65.9422C210.25 65.9377 210.236 65.4982 210.695 65.4937C211.599 65.0451 212.044 64.601 212.948 64.1525C213.852 63.7039 214.297 63.2598 215.188 62.3717C216.092 61.9231 216.524 61.0395 216.969 60.5954C217.401 59.7118 218.305 59.2632 218.737 58.3796C219.168 57.496 219.614 57.0519 220.504 56.1638C220.936 55.2802 221.381 54.8361 221.813 53.9525C221.8 53.5129 222.245 53.0689 222.245 53.0689C222.232 52.6293 222.69 52.6248 222.677 52.1853C222.664 51.7457 223.122 51.7412 223.109 51.3016C223.095 50.8621 223.095 50.8621 223.541 50.418C223.527 49.9785 223.973 49.5344 223.959 49.0948C224.391 48.2112 224.378 47.7716 224.378 47.7716C224.378 47.7716 224.391 48.2112 223.959 49.0948C223.973 49.5344 223.527 49.9785 223.082 50.4225C222.637 50.8666 222.65 51.3061 222.218 52.1898C221.773 52.6338 221.341 53.5174 220.896 53.9615C220.451 54.4056 220.019 55.2892 219.574 55.7333C219.128 56.1773 218.696 57.0609 217.806 57.9491C217.374 58.8327 216.47 59.2813 216.025 59.7253C215.579 60.1694 214.689 61.0575 214.244 61.5016C213.798 61.9457 212.908 62.8338 212.463 63.2778C212.017 63.7219 211.113 64.1705 210.668 64.6145C210.223 65.0586 209.319 65.5072 208.874 65.9512C208.428 66.3953 207.983 66.8394 207.524 66.8439C206.607 66.8529 206.162 67.297 205.717 67.741C204.799 67.75 204.354 68.1941 204.354 68.1941C204.354 68.1941 205.258 67.7455 205.717 67.741ZM202.332 62.0583C202.79 62.0538 203.236 61.6097 203.694 61.6052C204.14 61.1612 204.598 61.1567 205.044 60.7126C205.489 60.2685 206.393 59.82 206.838 59.3759C207.283 58.9318 208.187 58.4833 208.633 58.0392C209.078 57.5951 209.982 57.1466 210.414 56.2629C210.859 55.8189 211.749 54.9307 212.195 54.4867C212.64 54.0426 213.531 53.1545 213.976 52.7104C214.421 52.2664 215.312 51.3782 215.757 50.9342C216.202 50.4901 216.634 49.6065 217.079 49.1624C217.525 48.7183 217.956 47.8347 218.402 47.3907C218.847 46.9466 219.292 46.5025 219.279 46.063C220.169 45.1748 220.156 44.7353 220.601 44.2912C221.033 43.4076 221.033 43.4076 221.033 43.4076C221.033 43.4076 220.588 43.8517 220.143 44.2957C219.697 44.7398 218.807 45.6279 217.916 46.516C217.471 46.9601 217.026 47.4042 216.594 48.2878C216.149 48.7319 215.717 49.6155 215.271 50.0596C214.826 50.5036 213.936 51.3917 213.49 51.8358C213.045 52.2799 212.155 53.168 211.709 53.6121C211.264 54.0561 210.373 54.9443 209.928 55.3883C209.483 55.8324 208.592 56.7205 208.147 57.1646C207.243 57.6132 206.798 58.0572 206.353 58.5013C205.907 58.9453 205.003 59.3939 204.558 59.838C203.668 60.7261 202.764 61.1747 202.332 62.0583C201.428 62.5069 201.428 62.5069 201.428 62.5069C201.428 62.5069 201.428 62.5069 202.332 62.0583ZM198.502 56.8196C198.961 56.8151 199.406 56.3711 199.851 55.927C200.296 55.4829 200.755 55.4784 201.2 55.0344C201.646 54.5903 202.549 54.1417 202.995 53.6977C203.44 53.2536 204.344 52.805 204.776 51.9214C205.221 51.4774 206.112 50.5892 206.557 50.1452C207.002 49.7011 207.893 48.813 208.325 47.9293C208.756 47.0457 209.202 46.6017 210.092 45.7135C210.524 44.8299 210.969 44.3858 211.401 43.5022C211.833 42.6186 212.278 42.1745 212.71 41.2909C213.142 40.4073 213.129 39.9677 213.574 39.5237C214.019 39.0796 213.993 38.2005 213.979 37.7609C213.966 37.3214 214.411 36.8773 214.398 36.4377C214.371 35.5586 214.816 35.1146 214.816 35.1146C214.816 35.1146 214.83 35.5541 214.384 35.9982C214.398 36.4377 213.952 36.8818 213.966 37.3214C213.521 37.7654 213.534 38.205 213.102 39.0886C212.657 39.5327 212.225 40.4163 212.238 40.8559C211.793 41.2999 211.361 42.1835 210.929 43.0672C210.497 43.9508 210.052 44.3949 209.62 45.2785C209.188 46.1621 208.743 46.6062 207.853 47.4943C206.962 48.3824 206.517 48.8265 205.626 49.7146C205.181 50.1587 204.29 51.0468 203.845 51.4909C203.4 51.9349 202.509 52.8231 202.064 53.2671C201.619 53.7112 201.173 54.1553 200.27 54.6038C199.824 55.0479 199.379 55.492 198.934 55.936C198.947 56.3756 198.488 56.3801 198.502 56.8196C197.598 57.2682 197.598 57.2682 197.598 57.2682C197.598 57.2682 198.057 57.2637 198.502 56.8196ZM196.399 48.0465C197.277 46.7188 198.154 45.3911 199.031 44.0634C199.463 43.1798 199.908 42.7358 200.34 41.8521C201.23 40.964 201.662 40.0804 202.094 39.1968C202.526 38.3131 202.958 37.4295 203.403 36.9854C203.835 36.1018 204.267 35.2182 204.712 34.7741C205.144 33.8905 205.589 33.4464 206.021 32.5628C206.453 31.6792 206.898 31.2351 206.872 30.356C207.304 29.4724 207.29 29.0328 207.277 28.5933C207.263 28.1537 207.237 27.2746 207.237 27.2746C207.223 26.835 207.21 26.3955 207.21 26.3955L207.196 25.9559C207.196 25.9559 207.196 25.9559 207.21 26.3955C207.21 26.3955 207.223 26.835 207.237 27.2746C207.263 28.1537 206.831 29.0373 206.413 30.3605C205.536 31.6882 204.659 33.0159 203.782 34.3436C203.35 35.2272 202.904 35.6713 202.473 36.5549C202.041 37.4385 201.609 38.3221 201.163 38.7662C200.732 39.6498 200.3 40.5335 199.854 40.9775C199.423 41.8611 198.991 42.7448 198.545 43.1888C197.668 44.5165 196.804 46.2838 196.373 47.1674C195.077 49.8182 194.2 51.1459 194.2 51.1459C194.2 51.1459 194.632 50.2623 196.399 48.0465ZM171.705 20.5886C171.705 20.5886 172.137 19.705 172.556 18.3818C172.542 17.9423 172.974 17.0586 172.947 16.1795C172.921 15.3004 173.353 14.4168 173.326 13.5377C173.771 13.0936 173.744 12.2145 173.717 11.3354C173.704 10.8958 173.691 10.4562 173.677 10.0167C173.664 9.57713 173.651 9.13757 173.637 8.69802C173.624 8.25846 173.61 7.8189 173.152 7.8234C173.138 7.38384 172.68 7.38835 172.68 7.38835L172.221 7.39286C172.221 7.39286 172.68 7.38835 172.693 7.82791C172.693 7.82791 172.706 8.26747 173.165 8.26296C173.165 8.26296 173.178 8.70252 173.192 9.14208C173.205 9.58164 172.773 10.4653 172.8 11.3444C172.827 12.2235 172.395 13.1071 172.422 13.9862C172.449 14.8654 172.017 15.749 172.044 16.6281C172.07 17.5072 172.097 18.3863 171.652 18.8304C171.679 19.7095 171.705 20.5886 171.705 20.5886ZM204.722 110.401L205.181 110.396C205.639 110.392 205.626 109.952 206.085 109.948C206.543 109.943 206.53 109.504 206.989 109.499C207.893 109.051 208.324 108.167 209.215 107.279C209.66 106.835 210.106 106.391 210.092 105.951C210.537 105.507 210.524 105.067 210.969 104.623C211.415 104.179 211.401 103.74 211.374 102.861C211.361 102.421 211.806 101.977 211.78 101.098C212.211 100.214 212.171 98.8956 212.144 98.0165C213.008 96.2492 212.981 95.3701 212.981 95.3701C212.981 95.3701 212.995 95.8097 212.55 96.2537C212.563 96.6933 212.131 97.5769 211.686 98.021C211.254 98.9046 211.281 99.7837 210.849 100.667C210.862 101.107 210.417 101.551 210.43 101.991C210.444 102.43 209.998 102.874 210.012 103.314C209.567 103.758 209.58 104.197 209.135 104.641C208.703 105.525 208.716 105.965 208.271 106.409C207.826 106.853 207.839 107.292 207.394 107.736C206.948 108.18 206.962 108.62 206.503 108.624C206.058 109.069 206.058 109.069 205.613 109.513C205.626 109.952 205.167 109.957 204.722 110.401C204.722 110.401 204.263 110.405 204.722 110.401C204.263 110.405 204.722 110.401 204.722 110.401ZM194.093 107.867C194.551 107.862 194.997 107.418 194.997 107.418C195.455 107.414 195.9 106.97 196.346 106.526C197.25 106.077 198.599 105.185 199.948 104.292C200.393 103.848 201.297 103.399 201.743 102.955C202.188 102.511 203.092 102.063 203.537 101.619C203.982 101.174 204.886 100.726 205.318 99.8423C205.763 99.3982 206.209 98.9542 207.099 98.066C207.99 97.1779 208.867 95.8502 209.757 94.9621C210.203 94.518 210.648 94.074 210.635 93.6344C210.635 93.6344 210.635 93.6344 211.08 93.1903C211.525 92.7463 211.512 92.3067 211.512 92.3067C211.512 92.3067 211.066 92.7508 210.621 93.1949C210.176 93.6389 209.285 94.527 208.84 94.9711C208.395 95.4152 207.95 95.8592 207.504 96.3033C207.059 96.7474 206.614 97.1914 206.168 97.6355C205.278 98.5236 203.929 99.4163 203.052 100.744C201.702 101.637 200.812 102.525 199.463 103.417C199.017 103.861 198.572 104.305 197.668 104.754C197.223 105.198 196.778 105.642 196.332 106.086C194.97 106.539 194.524 106.983 194.093 107.867C193.634 107.872 193.189 108.316 193.189 108.316C193.189 108.316 193.175 107.876 194.093 107.867ZM187.996 103.53C187.996 103.53 188.455 103.525 188.913 103.521C189.372 103.516 189.831 103.512 190.276 103.068C190.735 103.063 191.18 102.619 192.097 102.61C193.46 102.157 194.364 101.709 195.713 100.816C196.158 100.372 197.062 99.9234 197.507 99.4793C197.953 99.0353 198.857 98.5867 199.302 98.1426C199.747 97.6986 200.651 97.25 201.083 96.3664C201.528 95.9223 201.96 95.0387 202.864 94.5901C203.741 93.2624 204.632 92.3743 205.522 91.4862C206.845 89.7144 207.722 88.3867 207.722 88.3867C207.722 88.3867 207.277 88.8308 206.831 89.2749C206.386 89.7189 205.496 90.6071 205.064 91.4907C204.173 92.3788 203.283 93.267 202.392 94.1551C201.947 94.5991 201.501 95.0432 200.611 95.9313C200.166 96.3754 199.262 96.824 198.816 97.268C198.371 97.7121 197.467 98.1607 197.022 98.6047C196.577 99.0488 195.673 99.4974 195.228 99.9414C194.782 100.385 193.878 100.834 193.42 100.839C192.974 101.283 192.057 101.292 191.612 101.736C191.167 102.18 190.708 102.184 190.263 102.628C189.804 102.633 189.359 103.077 188.9 103.081C187.996 103.53 187.996 103.53 187.996 103.53ZM180.457 97.0087C180.457 97.0087 180.915 97.0042 181.374 96.9997C181.833 96.9952 182.291 96.9907 182.75 96.9862C183.209 96.9817 183.209 96.9817 183.667 96.9772C184.126 96.9727 184.126 96.9727 184.585 96.9682C185.947 96.5151 187.31 96.062 189.118 95.1649C190.022 94.7163 190.467 94.2722 191.371 93.8237C192.275 93.3751 192.72 92.931 193.624 92.4825C194.528 92.0339 194.973 91.5898 195.864 90.7017C196.768 90.2531 197.213 89.8091 197.645 88.9254C198.994 88.0328 199.871 86.7051 201.234 86.252C202.111 84.9243 203.015 84.4758 203.46 84.0317C203.905 83.5876 204.351 83.1436 204.351 83.1436C204.351 83.1436 204.351 83.1436 203.892 83.1481C203.892 83.1481 203.433 83.1526 202.988 83.5967C202.084 84.0452 201.18 84.4938 200.276 84.9424C198.927 85.835 198.036 86.7231 196.687 87.6158C196.242 88.0598 195.338 88.5084 194.434 88.957C193.53 89.4055 193.085 89.8496 192.194 90.7377C191.29 91.1863 190.845 91.6304 189.941 92.0789C189.037 92.5275 188.592 92.9716 187.688 93.4201C186.784 93.8687 186.339 94.3128 185.422 94.3218C184.976 94.7659 184.059 94.7749 183.614 95.2189C183.168 95.663 182.251 95.672 181.792 95.6765C181.334 95.681 180.888 96.1251 180.43 96.1296C180.902 96.5646 180.457 97.0087 180.457 97.0087C179.998 97.0132 179.998 97.0132 180.457 97.0087C179.998 97.0132 179.998 97.0132 180.457 97.0087ZM174.752 90.4694C174.752 90.4694 175.21 90.4649 175.669 90.4604C176.128 90.4559 176.586 90.4514 177.045 90.4469C177.504 90.4424 178.421 90.4334 178.88 90.4289C180.256 90.4153 182.077 89.9578 183.44 89.5047C184.344 89.0561 185.261 89.0471 186.165 88.5985C187.069 88.15 187.973 87.7014 188.877 87.2528C189.781 86.8042 190.684 86.3557 191.13 85.9116C192.034 85.463 192.479 85.019 193.383 84.5704C194.732 83.6778 196.081 82.7851 196.972 81.897C199.212 80.1162 200.547 78.7841 200.547 78.7841C200.547 78.7841 200.102 79.2281 199.657 79.6722C198.753 80.1207 197.849 80.5693 196.958 81.4575C195.609 82.3501 194.719 83.2382 192.911 84.1353C192.007 84.5839 191.562 85.028 190.658 85.4766C189.754 85.9251 189.308 86.3692 188.405 86.8178C187.501 87.2663 186.597 87.7149 186.151 88.159C185.247 88.6075 184.344 89.0561 183.885 89.0606C182.981 89.5092 182.522 89.5137 181.618 89.9623C180.701 89.9713 180.256 90.4153 179.338 90.4243C178.88 90.4289 177.976 90.8774 177.517 90.8819C177.059 90.8864 176.6 90.8909 176.141 90.8954C175.21 90.4649 174.752 90.4694 174.752 90.4694ZM169.964 83.9211C169.964 83.9211 170.436 84.3561 170.895 84.3516C170.895 84.3516 171.354 84.3471 171.367 84.7867C171.826 84.7822 171.826 84.7822 172.284 84.7777C172.743 84.7732 173.66 84.7642 174.119 84.7597C175.495 84.7461 177.316 84.2886 179.124 83.3914C179.583 83.3869 180.028 82.9428 180.487 82.9383C180.945 82.9338 181.391 82.4898 181.849 82.4853C182.753 82.0367 183.657 81.5881 184.561 81.1396C185.465 80.691 186.369 80.2424 186.814 79.7983C187.718 79.3498 188.164 78.9057 189.067 78.4571C190.417 77.5645 191.766 76.6719 193.115 75.7792C194.006 74.8911 194.896 74.003 195.8 73.5544C196.245 73.1103 196.691 72.6663 196.691 72.6663C196.691 72.6663 194.883 73.5634 192.63 74.9046C192.184 75.3487 191.28 75.7973 190.835 76.2413C189.931 76.6899 189.486 77.134 188.582 77.5825C187.678 78.0311 187.233 78.4752 186.329 78.9237C185.425 79.3723 184.521 79.8209 184.076 80.2649C183.172 80.7135 182.268 81.1621 181.823 81.6061C181.364 81.6107 180.919 82.0547 180.46 82.0592C180.001 82.0637 179.556 82.5078 179.097 82.5123C177.748 83.4049 175.927 83.8625 174.551 83.876C174.092 83.8805 173.175 83.8895 172.716 83.8941C172.258 83.8986 172.258 83.8986 171.799 83.9031C171.34 83.9076 171.34 83.9076 171.34 83.9076C170.895 84.3516 170.423 83.9166 169.964 83.9211ZM165.987 73.8473C166.446 73.8428 166.904 73.8383 167.363 73.8338C167.822 73.8293 167.822 73.8293 168.28 73.8248C168.739 73.8203 168.739 73.8203 169.198 73.8157C170.115 73.8067 170.574 73.8022 171.491 73.7932C172.408 73.7842 173.326 73.7752 174.243 73.7662C175.16 73.7572 176.078 73.7482 176.982 73.2996C177.899 73.2906 178.803 72.842 179.72 72.833C180.624 72.3844 181.541 72.3754 182.445 71.9268C183.349 71.4783 184.267 71.4693 185.171 71.0207C186.074 70.5721 186.992 70.5631 187.437 70.1191C188.341 69.6705 188.786 69.2264 189.704 69.2174C190.149 68.7733 191.053 68.3248 191.511 68.3203C191.957 67.8762 192.415 67.8717 192.861 67.4276C193.306 66.9836 193.751 66.5395 193.751 66.5395C193.751 66.5395 193.293 66.544 192.389 66.9926C191.93 66.9971 191.485 67.4411 191.026 67.4456C190.581 67.8897 190.122 67.8942 189.218 68.3428C188.773 68.7869 187.856 68.7959 186.952 69.2444C186.048 69.693 185.589 69.6975 184.685 70.1461C183.781 70.5947 182.864 70.6037 181.96 71.0522C181.056 71.5008 180.139 71.5098 179.235 71.9584C178.317 71.9674 177.413 72.416 176.496 72.425C175.579 72.434 174.675 72.8826 173.758 72.8916C172.84 72.9006 171.936 73.3492 171.019 73.3582C170.102 73.3672 169.643 73.3717 168.726 73.3807C167.808 73.3897 167.35 73.3942 166.891 73.3987C166.904 73.8383 166.446 73.8428 165.987 73.8473C165.056 73.4167 164.598 73.4212 164.598 73.4212C164.598 73.4212 165.07 73.8563 165.987 73.8473ZM165.746 65.9352C166.205 65.9307 166.663 65.9262 167.122 65.9217C167.581 65.9172 167.581 65.9172 168.039 65.9127C168.498 65.9082 168.498 65.9082 168.957 65.9037C169.874 65.8947 170.333 65.8902 171.25 65.8812C172.167 65.8722 173.085 65.8631 173.543 65.8586C174.461 65.8496 175.378 65.8406 176.282 65.392C177.199 65.383 178.103 64.9345 179.02 64.9255C179.924 64.4769 180.842 64.4679 181.746 64.0193C182.65 63.5707 183.567 63.5617 184.012 63.1177C184.916 62.6691 185.361 62.225 186.279 62.216C187.183 61.7674 187.628 61.3234 188.087 61.3189C188.532 60.8748 188.977 60.4307 189.436 60.4262C189.881 59.9822 190.34 59.9777 190.785 59.5336C191.217 58.65 191.675 58.6455 191.675 58.6455C191.675 58.6455 191.217 58.65 190.772 59.094C190.313 59.0985 189.868 59.5426 189.409 59.5471C188.964 59.9912 188.505 59.9957 187.601 60.4443C187.156 60.8883 186.239 60.8973 185.793 61.3414C184.889 61.79 184.431 61.7945 183.527 62.243C182.623 62.6916 181.705 62.7006 181.26 63.1447C180.356 63.5933 179.439 63.6023 178.535 64.0508C177.618 64.0599 176.714 64.5084 175.796 64.5174C174.879 64.5264 173.975 64.975 173.058 64.984C172.141 64.993 171.237 65.4416 170.778 65.4461C169.861 65.4551 169.402 65.4596 168.485 65.4686C168.026 65.4731 167.109 65.4822 166.65 65.4867C166.663 65.9262 166.205 65.9307 165.746 65.9352C164.815 65.5047 164.37 65.9488 164.37 65.9488C164.37 65.9488 164.829 65.9442 165.746 65.9352ZM160.433 57.1936C160.892 57.1891 161.364 57.6242 161.822 57.6197C162.281 57.6152 162.281 57.6152 162.74 57.6107C163.198 57.6062 163.198 57.6062 163.657 57.6017C164.116 57.5971 164.574 57.5926 164.574 57.5926C165.033 57.5881 165.492 57.5836 165.95 57.5791C166.868 57.5701 167.785 57.5611 168.244 57.5566C169.161 57.5476 170.078 57.5386 170.996 57.5296C171.913 57.5205 172.83 57.5115 173.734 57.063C174.651 57.054 175.555 56.6054 176.473 56.5964C177.39 56.5874 178.294 56.1388 179.211 56.1298C180.115 55.6812 181.033 55.6722 181.478 55.2281C182.382 54.7796 182.84 54.7751 183.744 54.3265C184.203 54.322 184.19 53.8824 184.648 53.8779C185.107 53.8734 185.094 53.4338 185.552 53.4293C185.997 52.9853 186.456 52.9808 186.901 52.5367C187.347 52.0926 187.792 51.6486 187.792 51.6486C187.792 51.6486 187.333 51.6531 186.429 52.1017C185.971 52.1062 185.525 52.5502 185.067 52.5547C184.608 52.5592 184.163 53.0033 183.246 53.0123C182.787 53.0168 181.883 53.4654 180.966 53.4744C180.062 53.923 179.603 53.9275 178.686 53.9365C177.768 53.9455 176.864 54.3941 175.947 54.4031C175.03 54.4121 174.126 54.8607 173.209 54.8697C172.291 54.8787 171.387 55.3273 170.47 55.3363C169.553 55.3453 168.635 55.3543 167.718 55.3633C166.801 55.3723 165.883 55.3813 165.425 55.3858C164.507 55.3948 164.049 55.3994 163.131 55.4084C162.673 55.4129 161.755 55.4219 161.297 55.4264C161.35 57.1846 160.892 57.1891 160.433 57.1936C159.502 56.7631 159.044 56.7676 159.044 56.7676C159.044 56.7676 159.516 57.2026 160.433 57.1936ZM159.167 45.7741C159.626 45.7696 160.098 46.2047 160.557 46.2002C161.015 46.1957 161.488 46.6307 162.405 46.6217C162.864 46.6172 163.794 47.0477 164.253 47.0432C165.17 47.0342 165.642 47.4693 166.56 47.4603C167.477 47.4513 167.936 47.4467 168.853 47.4377C169.77 47.4287 170.688 47.4197 171.146 47.4152C172.064 47.4062 172.981 47.3972 173.44 47.3927C174.357 47.3837 174.816 47.3792 175.733 47.3701C176.65 47.3611 177.109 47.3566 178.013 46.9081C178.93 46.899 179.375 46.455 179.834 46.4505C180.293 46.446 180.738 46.0019 181.655 45.9929C182.114 45.9884 182.559 45.5443 183.018 45.5398C183.463 45.0958 183.922 45.0912 183.922 45.0912C183.922 45.0912 183.463 45.0958 183.004 45.1003C182.087 45.1093 181.183 45.5578 180.266 45.5669C179.807 45.5714 178.89 45.5804 178.431 45.5849C177.973 45.5894 177.055 45.5984 176.138 45.6074C175.221 45.6164 174.762 45.6209 173.845 45.6299C172.927 45.6389 172.469 45.6435 171.551 45.6525C170.634 45.6615 170.175 45.666 169.258 45.675C168.341 45.684 167.882 45.6885 166.965 45.6975C166.047 45.7065 165.589 45.711 164.671 45.7201C164.213 45.7246 163.295 45.7336 162.837 45.7381C161.002 45.7561 160.085 45.7651 159.167 45.7741C158.695 45.3391 158.237 45.3436 158.237 45.3436C158.237 45.3436 158.695 45.3391 159.167 45.7741ZM158.009 37.8711C158.468 37.8666 158.481 38.3061 158.94 38.3016C159.398 38.2971 159.412 38.7367 159.871 38.7322C160.343 39.1672 161.26 39.1582 162.191 39.5888C163.108 39.5798 163.58 40.0148 164.497 40.0058C165.415 39.9968 166.345 40.4273 166.804 40.4228C167.721 40.4138 168.639 40.4048 169.097 40.4003C170.015 40.3913 170.932 40.3823 171.391 40.3778C172.308 40.3688 172.767 40.3642 173.671 39.9157C174.129 39.9112 174.588 39.9067 174.588 39.9067C175.047 39.9022 175.047 39.9022 175.492 39.4581C175.95 39.4536 175.95 39.4536 176.396 39.0095C176.854 39.005 176.854 39.005 177.3 38.561C177.758 38.5564 178.204 38.1124 178.662 38.1079C179.108 37.6638 179.566 37.6593 179.566 37.6593C179.566 37.6593 179.108 37.6638 178.662 38.1079C178.204 38.1124 177.745 38.1169 177.3 38.561C176.841 38.5655 176.382 38.57 175.478 39.0185C175.02 39.023 174.102 39.0321 173.644 39.0366C173.185 39.0411 172.268 39.0501 171.35 39.0591C170.433 39.0681 169.974 39.0726 169.057 39.0816C168.14 39.0906 167.681 39.0951 166.764 39.1041C165.847 39.1132 165.388 39.1177 164.457 38.6871C163.54 38.6961 163.068 38.2611 162.15 38.2701C161.692 38.2746 161.233 38.2791 161.22 37.8395C160.761 37.8441 160.302 37.8486 160.289 37.409C159.83 37.4135 158.9 36.983 158.441 36.9875C157.982 36.992 157.51 36.5569 157.052 36.5614C156.593 36.5659 156.121 36.1309 155.662 36.1354C155.19 35.7003 154.732 35.7048 154.732 35.7048C154.732 35.7048 155.204 36.1399 155.676 36.5749C156.148 37.01 156.148 37.01 156.62 37.445L157.092 37.8801C157.537 37.436 157.537 37.436 158.009 37.8711Z" fill="#F8CA6E"/>
<path d="M111.369 72.8189C110.527 73.717 109.32 74.1941 108.057 74.1941C107.047 74.1941 107.047 72.7066 108.057 72.7066C108.927 72.7066 109.685 72.3979 110.246 71.7804C110.92 71.0507 112.043 72.1172 111.369 72.8189Z" fill="#F2AAC5"/>
<path d="M101.714 69.3105C101.714 70.377 102.64 71.3312 103.791 71.3874C104.801 71.4154 104.801 72.9029 103.791 72.8749C101.77 72.7907 100.114 71.219 100.114 69.3105C100.143 68.3563 101.714 68.3563 101.714 69.3105Z" fill="#F2AAC5"/>
<path d="M104.408 63.1923C103.37 63.7817 102.752 64.7921 102.724 65.9428C102.696 66.897 101.125 66.897 101.125 65.9428C101.153 64.2869 102.079 62.7714 103.594 61.9013C104.493 61.3961 105.278 62.6872 104.408 63.1923Z" fill="#F2AAC5"/>
<path d="M108.618 62.3784C109.769 62.9958 110.583 63.9781 110.976 65.1288C111.284 66.055 109.741 66.4479 109.432 65.5218C109.151 64.7078 108.59 64.0623 107.804 63.6414C106.934 63.1923 107.72 61.9013 108.618 62.3784Z" fill="#F2AAC5"/>
<path d="M106.85 67.5144C106.71 68.188 107.776 68.5809 108.057 67.9073C108.225 67.5425 108.59 67.2618 109.039 67.3741C109.404 67.4583 109.769 67.9074 109.6 68.3003C109.151 69.3106 108.029 69.9842 106.85 69.6755C105.671 69.3668 105.082 68.188 105.334 67.1215C105.531 66.1953 107.046 66.5883 106.85 67.5144Z" fill="#F2AAC5"/>
<path d="M132.979 62.4065C131.997 62.9398 130.959 63.2485 129.836 63.3046C128.826 63.3607 128.826 61.8733 129.836 61.8171C130.678 61.761 131.464 61.5365 132.193 61.1155C133.064 60.6384 133.849 61.9294 132.979 62.4065Z" fill="#F2AAC5"/>
<path d="M122.932 58.1964C123.212 59.291 123.886 60.1891 124.924 60.7504C125.822 61.2275 125.008 62.5185 124.11 62.0414C122.735 61.3117 121.753 60.0768 121.388 58.6174C121.163 57.6632 122.707 57.2703 122.932 58.1964Z" fill="#F2AAC5"/>
<path d="M126.019 52.1064C125.037 52.7238 124.475 53.7061 124.447 54.8007C124.419 55.7549 122.848 55.7549 122.848 54.8007C122.876 53.1729 123.746 51.7135 125.205 50.8154C126.075 50.3102 126.861 51.5731 126.019 52.1064Z" fill="#F2AAC5"/>
<path d="M129.415 50.0856C131.632 50.5907 133.484 51.8537 134.747 53.6499C135.309 54.4638 133.933 55.1935 133.372 54.4077C132.334 52.9482 130.79 51.966 128.994 51.545C128.012 51.2924 128.433 49.861 129.415 50.0856Z" fill="#F2AAC5"/>
<path d="M132.474 57.8038C131.407 59.2913 129.471 59.7684 127.731 59.0387C126.805 58.6458 127.619 57.3548 128.545 57.7477C129.443 58.1125 130.565 57.8038 131.099 57.046C131.66 56.2602 133.035 57.018 132.474 57.8038Z" fill="#F2AAC5"/>
<path d="M129.387 53.9868C130.369 54.2674 129.948 55.6988 128.966 55.4181C128.545 55.3059 128.068 55.5585 127.983 56.0075C127.899 56.4004 127.394 56.625 127.001 56.5408C126.552 56.4285 126.356 56.0075 126.44 55.6146C126.692 54.3797 128.124 53.6219 129.387 53.9868Z" fill="#F2AAC5"/>
<path d="M107.917 50.3101C106.008 51.4327 103.707 51.7134 101.574 51.0118C100.62 50.703 101.041 49.2717 101.995 49.5804C103.763 50.1417 105.531 49.9733 107.103 49.0191C107.973 48.5139 108.787 49.8049 107.917 50.3101Z" fill="#F2AAC5"/>
<path d="M98.4025 42.9289C98.0377 44.2199 98.1499 45.539 98.7954 46.7458C99.2445 47.5878 97.8973 48.3456 97.4202 47.5036C96.5783 45.9319 96.3818 44.248 96.8589 42.5641C97.1396 41.6098 98.6832 42.0028 98.4025 42.9289Z" fill="#F2AAC5"/>
<path d="M104.324 39.6733C102.949 39.7014 101.686 40.3749 100.984 41.4976C100.451 42.3115 99.0759 41.5537 99.6092 40.7398C100.62 39.1681 102.388 38.242 104.324 38.1858C105.363 38.1578 105.363 39.6452 104.324 39.6733Z" fill="#F2AAC5"/>
<path d="M107.439 41.1326C109.572 42.2272 110.022 44.9215 108.562 46.6615C107.917 47.4193 106.822 46.3528 107.439 45.595C108.31 44.5847 107.804 42.9849 106.654 42.3955C105.756 41.9746 106.541 40.6835 107.439 41.1326Z" fill="#F2AAC5"/>
<path d="M103.875 43.1254C102.837 43.8832 103.005 45.2584 104.071 45.8758C104.941 46.381 104.156 47.672 103.258 47.1669C101.096 45.9039 101.068 43.2377 103.061 41.8344C103.875 41.245 104.661 42.5641 103.875 43.1254Z" fill="#F2AAC5"/>
<path d="M81.7031 76.355C80.5805 76.6918 79.7105 77.4215 79.2053 78.4319C78.7562 79.3019 77.381 78.5441 77.8301 77.6741C78.5036 76.327 79.7666 75.3727 81.2821 74.9237C82.2644 74.615 82.6854 76.0744 81.7031 76.355Z" fill="#F2AAC5"/>
<path d="M86.1658 76.4111C87.7375 77.2811 88.6917 78.7405 88.8601 80.4525C88.9723 81.4068 87.3726 81.4068 87.2603 80.4525C87.1481 79.3018 86.4184 78.2915 85.3519 77.7021C84.4818 77.1969 85.2677 75.9059 86.1658 76.4111Z" fill="#F2AAC5"/>
<path d="M78.7562 60.891C79.5701 61.9294 81.1418 62.2101 82.3486 61.6207C83.2467 61.1716 84.0606 62.4627 83.1625 62.9117C81.1418 63.9221 78.7562 63.3608 77.4091 61.6488C76.7636 60.8629 78.1388 60.1332 78.7562 60.891Z" fill="#F2AAC5"/>
<path d="M76.2586 55.2777C76.034 56.0355 76.0902 56.7932 76.455 57.4949C76.9041 58.3368 75.5289 59.0946 75.0798 58.2526C74.5185 57.1861 74.3782 56.0355 74.715 54.8848C75.0237 53.9586 76.5392 54.3515 76.2586 55.2777Z" fill="#F2AAC5"/>
<path d="M80.5808 49.5524C79.4301 50.3663 78.4759 51.3486 77.7181 52.4712C77.1568 53.2851 75.7816 52.5273 76.3429 51.7134C77.2691 50.3663 78.4197 49.2156 79.795 48.2614C80.6089 47.7 81.3947 48.9911 80.5808 49.5524Z" fill="#F2AAC5"/>
<path d="M84.4259 50.1977C86.0537 50.5064 87.4008 51.7694 87.7095 53.313C87.906 54.2391 86.3904 54.6601 86.1659 53.7059C85.9414 52.6394 85.1275 51.8536 83.9768 51.629C83.0226 51.4606 83.4436 50.0012 84.4259 50.1977Z" fill="#F2AAC5"/>
<path d="M86.5026 57.6353C85.2957 58.6738 83.7521 59.2631 82.0963 59.207C81.0859 59.179 81.0859 57.6915 82.0963 57.7195C83.3311 57.7476 84.4538 57.3828 85.3799 56.5688C86.1377 55.9514 87.2603 56.9898 86.5026 57.6353Z" fill="#F2AAC5"/>
<path d="M82.1242 53.3412C82.5171 53.4815 82.7978 53.8464 82.6855 54.2674C82.5732 54.6322 82.1242 54.941 81.7032 54.8006C80.8893 54.4919 79.9631 54.9971 80.1877 55.8952C80.4122 56.8214 78.8686 57.2143 78.6441 56.2881C78.195 54.3796 80.1035 52.6115 82.1242 53.3412Z" fill="#F2AAC5"/>
<path d="M39.8011 72.8189C38.9591 73.717 37.7523 74.1941 36.4893 74.1941C35.479 74.1941 35.479 72.7066 36.4893 72.7066C37.3594 72.7066 38.1172 72.3979 38.6785 71.7804C39.352 71.0507 40.4747 72.1172 39.8011 72.8189Z" fill="#F2AAC5"/>
<path d="M30.1468 69.3105C30.1468 70.377 31.073 71.3312 32.2237 71.3874C33.234 71.4154 33.234 72.9029 32.2237 72.8749C30.2029 72.7907 28.5471 71.219 28.5471 69.3105C28.5751 68.3563 30.1749 68.3563 30.1468 69.3105Z" fill="#F2AAC5"/>
<path d="M32.841 63.1921C31.8025 63.7815 31.1851 64.7918 31.157 65.9425C31.129 66.8968 29.5573 66.8968 29.5573 65.9425C29.5854 64.2867 30.5115 62.7711 32.0271 61.9011C32.9252 61.3959 33.711 62.6869 32.841 63.1921Z" fill="#F2AAC5"/>
<path d="M37.0506 62.3784C38.2013 62.9958 39.0152 63.9781 39.4081 65.1288C39.7169 66.055 38.1732 66.4479 37.8645 65.5218C37.5839 64.7078 37.0226 64.0623 36.2367 63.6414C35.3667 63.1923 36.1525 61.9013 37.0506 62.3784Z" fill="#F2AAC5"/>
<path d="M35.2825 67.5144C35.1422 68.188 36.2087 68.5809 36.4893 67.9073C36.6577 67.5425 37.0226 67.2618 37.4716 67.3741C37.8365 67.4583 38.2013 67.9074 38.0329 68.3003C37.5839 69.3106 36.4612 69.9842 35.2825 69.6755C34.1037 69.3668 33.5144 68.188 33.7669 67.1215C33.9634 66.1953 35.4789 66.5883 35.2825 67.5144Z" fill="#F2AAC5"/>
<path d="M65.8741 72.3696C64.8918 72.9029 63.8534 73.2116 62.7308 73.2677C61.7204 73.3239 61.7204 71.8364 62.7308 71.7803C63.5727 71.7241 64.3586 71.4996 65.0883 71.0786C65.9583 70.6015 66.7722 71.8925 65.8741 72.3696Z" fill="#F2AAC5"/>
<path d="M55.8266 68.1879C56.1073 69.2824 56.7809 70.1806 57.8193 70.7419C58.7174 71.219 57.9035 72.51 57.0054 72.0329C55.6302 71.3032 54.6479 70.0683 54.283 68.6089C54.0866 67.6266 55.6021 67.2337 55.8266 68.1879Z" fill="#F2AAC5"/>
<path d="M58.914 62.0976C57.9317 62.715 57.3704 63.6973 57.3423 64.7919C57.3142 65.7461 55.7426 65.7461 55.7426 64.7919C55.7706 63.1641 56.6407 61.7047 58.1001 60.8066C58.9701 60.2733 59.7559 61.5643 58.914 62.0976Z" fill="#F2AAC5"/>
<path d="M62.3099 60.0489C64.5271 60.5541 66.3794 61.8171 67.6424 63.6133C68.2037 64.4272 66.8285 65.1569 66.2672 64.371C65.2287 62.9116 63.6851 61.9293 61.8889 61.5083C60.9066 61.2558 61.3276 59.8244 62.3099 60.0489Z" fill="#F2AAC5"/>
<path d="M65.3689 67.7669C64.3024 69.2544 62.3659 69.7315 60.6258 69.0018C59.6997 68.6089 60.5136 67.3179 61.4397 67.7108C62.3378 68.0757 63.4605 67.7669 63.9937 67.0092C64.555 66.2233 65.9302 66.9811 65.3689 67.7669Z" fill="#F2AAC5"/>
<path d="M62.2817 63.9499C63.264 64.2306 62.843 65.6619 61.8607 65.3813C61.4398 65.269 60.9626 65.5216 60.8784 65.9706C60.7943 66.3636 60.2891 66.5881 59.8962 66.5039C59.4471 66.3916 59.2506 65.9706 59.3348 65.5777C59.6155 64.3709 61.0468 63.6131 62.2817 63.9499Z" fill="#F2AAC5"/>
<path d="M36.3493 50.3101C34.4409 51.4327 32.1395 51.7134 30.0065 51.0118C29.0523 50.703 29.4733 49.2717 30.4275 49.5804C32.1956 50.1417 33.9638 49.9733 35.5354 49.0191C36.4055 48.5139 37.2194 49.8049 36.3493 50.3101Z" fill="#F2AAC5"/>
<path d="M26.863 42.9289C26.4981 44.2199 26.6104 45.539 27.2559 46.7458C27.7049 47.5878 26.3578 48.3456 25.8807 47.5036C25.0387 45.9319 24.8422 44.248 25.3194 42.5641C25.572 41.6098 27.1156 42.0028 26.863 42.9289Z" fill="#F2AAC5"/>
<path d="M32.7847 39.6733C31.4095 39.7014 30.1465 40.3749 29.4449 41.4976C28.9116 42.3115 27.5364 41.5537 28.0697 40.7398C29.08 39.1681 30.8482 38.242 32.7847 38.1858C33.7951 38.1578 33.7951 39.6452 32.7847 39.6733Z" fill="#F2AAC5"/>
<path d="M35.9004 41.1326C38.0334 42.2272 38.4824 44.9215 37.023 46.6615C36.3775 47.4193 35.283 46.3528 35.9004 45.595C36.7704 44.5847 36.2653 42.9849 35.1146 42.3955C34.1884 41.9746 35.0023 40.6835 35.9004 41.1326Z" fill="#F2AAC5"/>
<path d="M32.3081 43.1254C31.2697 43.8832 31.4381 45.2584 32.5046 45.8758C33.3746 46.381 32.5887 47.672 31.6906 47.1669C29.5296 45.9039 29.5015 43.2377 31.4942 41.8344C32.3081 41.245 33.0939 42.5641 32.3081 43.1254Z" fill="#F2AAC5"/>
<path d="M13.5317 75.6253C12.4091 75.9621 11.5391 76.6918 11.0339 77.7021C10.5848 78.5722 9.20962 77.8144 9.65867 76.9444C10.3322 75.5972 11.5952 74.643 13.1107 74.1939C14.093 73.8852 14.514 75.3446 13.5317 75.6253Z" fill="#F2AAC5"/>
<path d="M17.9944 75.6814C19.5661 76.5514 20.5203 78.0108 20.6887 79.7228C20.801 80.677 19.2012 80.677 19.089 79.7228C18.9767 78.5721 18.247 77.5617 17.1805 76.9724C16.3105 76.4672 17.0963 75.1762 17.9944 75.6814Z" fill="#F2AAC5"/>
<path d="M16.4509 79.779C16.956 80.6209 15.5808 81.3506 15.0756 80.5367C14.5143 79.6106 13.2514 80.0877 13.3075 81.098C13.3917 82.0523 11.792 82.0523 11.7078 81.098C11.6236 80.0316 12.3813 78.937 13.4759 78.6283C14.6547 78.3196 15.8895 78.8247 16.4509 79.779Z" fill="#F2AAC5"/>
<path d="M55.939 44.8373C56.5564 45.595 57.3423 46.1563 58.2965 46.4651C59.2507 46.7738 58.8297 48.2332 57.8755 47.8964C56.6687 47.5035 55.6022 46.8299 54.8164 45.8757C54.5638 45.567 54.4796 45.146 54.8164 44.8092C55.097 44.5847 55.6864 44.5285 55.939 44.8373Z" fill="#F2AAC5"/>
<path d="M55.5462 38.8594C55.1813 39.8417 55.1533 40.824 55.462 41.8344C55.7426 42.7606 54.199 43.1535 53.9184 42.2273C53.5535 40.9924 53.5535 39.7014 54.0026 38.4665C54.3394 37.5684 55.8549 37.9613 55.5462 38.8594Z" fill="#F2AAC5"/>
<path d="M62.5345 34.9863C63.5449 35.1827 63.1239 36.6141 62.1135 36.4176C60.7944 36.165 59.4473 36.5018 58.4369 37.3718C57.6791 38.0174 56.5565 36.9789 57.3143 36.3053C58.7456 35.0985 60.626 34.6214 62.5345 34.9863Z" fill="#F2AAC5"/>
<path d="M64.6954 38.8595C65.1725 39.5892 65.5655 40.4031 65.8461 41.217C66.1548 42.1431 64.6112 42.5361 64.3025 41.6099C64.078 40.9082 63.7412 40.2347 63.3202 39.6172C62.787 38.8033 64.1622 38.0455 64.6954 38.8595Z" fill="#F2AAC5"/>
<path d="M63.6007 44.6969C62.1413 45.4827 60.4854 45.5108 58.9699 44.8372C58.0437 44.4162 58.8576 43.1533 59.7838 43.5462C60.7661 43.9953 61.8887 43.9111 62.8149 43.4059C63.6849 42.9288 64.4988 44.2198 63.6007 44.6969Z" fill="#F2AAC5"/>
<path d="M60.4859 39.2521C60.6824 39.5609 60.5982 40.1222 60.2053 40.2625C59.5878 40.5151 59.2791 40.9922 59.3633 41.6097C59.4194 42.0026 58.9704 42.3674 58.5775 42.3674C58.1003 42.3674 57.8197 42.0306 57.7916 41.6097C57.6794 40.5432 58.3529 39.4205 59.4194 38.9715C59.7843 38.8312 60.2333 38.8873 60.4859 39.2521Z" fill="#F2AAC5"/>
<path d="M7.18886 60.891C8.00276 61.9294 9.57444 62.2101 10.7813 61.6207C11.6794 61.1716 12.4933 62.4627 11.5952 62.9117C9.57444 63.9221 7.18886 63.3608 5.84171 61.6488C5.22427 60.8629 6.59948 60.1332 7.18886 60.891Z" fill="#F2AAC5"/>
<path d="M4.6912 55.2777C4.46667 56.0355 4.5228 56.7932 4.88765 57.4949C5.3367 58.3368 3.96149 59.0946 3.51244 58.2526C2.95112 57.1861 2.8108 56.0355 3.14759 54.8848C3.45631 53.9586 4.97185 54.3515 4.6912 55.2777Z" fill="#F2AAC5"/>
<path d="M9.01341 49.5524C7.86272 50.3663 6.90849 51.3486 6.15072 52.4712C5.5894 53.2851 4.21419 52.5273 4.7755 51.7134C5.70167 50.3663 6.85236 49.2156 8.22758 48.2614C9.04148 47.7 9.82732 48.9911 9.01341 49.5524Z" fill="#F2AAC5"/>
<path d="M12.8585 50.1977C14.4863 50.5064 15.8334 51.7694 16.1421 53.313C16.3386 54.2391 14.8231 54.6601 14.5985 53.7059C14.374 52.6394 13.5601 51.8536 12.4094 51.629C11.4552 51.4606 11.8762 50.0012 12.8585 50.1977Z" fill="#F2AAC5"/>
<path d="M14.9352 57.6353C13.7284 58.6738 12.1847 59.2631 10.5289 59.207C9.51851 59.179 9.51851 57.6915 10.5289 57.7195C11.7638 57.7476 12.8864 57.3828 13.8126 56.5688C14.5703 55.9514 15.6929 56.9898 14.9352 57.6353Z" fill="#F2AAC5"/>
<path d="M10.5568 53.3412C10.9497 53.4815 11.2304 53.8464 11.1181 54.2674C11.0059 54.6322 10.5568 54.941 10.1358 54.8006C9.32192 54.4919 8.39576 54.9971 8.62028 55.8952C8.84481 56.8214 7.3012 57.2143 7.07667 56.2881C6.62762 54.3796 8.53608 52.6115 10.5568 53.3412Z" fill="#F2AAC5"/>
<path d="M65.5097 47.5316C64.9765 48.57 63.7697 49.2155 62.5348 49.1313C61.5244 49.0752 61.5244 47.5877 62.5348 47.6438C63.2364 47.7 63.8258 47.3913 64.1345 46.7738C64.5836 45.9318 65.9588 46.6896 65.5097 47.5316Z" fill="#F2AAC5"/>
</svg>
