<svg width="70" height="70" fill="none" xmlns="http://www.w3.org/2000/svg"><path d="M34.558 0C15.502 0 0 15.503 0 34.558c0 19.056 15.502 34.559 34.558 34.559 19.055 0 34.558-15.503 34.558-34.559C69.116 15.503 53.613 0 34.558 0zM1.896 34.558c0-8.924 3.599-17.023 9.42-22.924l8.787 8.787c-.222.31-.421.662-.588 1.065l-.439 1.062-1.905 4.614-2.489-.848a1.458 1.458 0 0 0-1.925 1.377v2.422a2.737 2.737 0 0 0 2.135 2.682l-.982 3.05c-.047.147-.07.298-.07.45l.045 14.248c.002.8.656 1.451 1.456 1.451h6.327c.392 0 .76-.153 1.035-.431.276-.279.425-.648.422-1.04l-.033-3.238h23.337v3.254c0 .802.653 1.456 1.456 1.456h3.792l5.806 5.806c-5.901 5.82-14 9.42-22.924 9.42-18.011 0-32.663-14.653-32.663-32.663zm46.08-12.82l2.635 6.805a1.451 1.451 0 0 0 1.747.877l2.454-.68c.05.405.093.905.093 1.444 0 .24-.514.652-1.465.94-.376.115-.684.37-.867.718a1.446 1.446 0 0 0-.097 1.12l1.298 4.057v13.079h-1.313l-8.604-8.605h6.614V36.37h-9.379v2.36l-6.02-6.02h15.105v-1.896h-17l-10.3-10.3a4.134 4.134 0 0 1 1.655-.401h20.347c2.014 0 2.941 1.368 3.098 1.626zm.348 26.904l1.456 1.456h-1.456v-1.456zm-5.335-9.045v-1.332h5.587v1.332h-5.587zm-12.494-8.784H19.52v1.896h12.872l8.701 8.702v.082h.083l3.895 3.895H22.647c-.392 0-.76.154-1.035.432a1.446 1.446 0 0 0-.421 1.039l.032 3.238H15.78l-.043-13.738 1.115-3.462a1.44 1.44 0 0 0-.157-1.221 1.468 1.468 0 0 0-1.063-.668c-.838-.103-.974-.588-.98-.872v-1.83l2.298.784a1.456 1.456 0 0 0 1.815-.821l.031-.075c.39-.943 1.248-3.025 2.033-4.922l.439-1.062c.062-.15.134-.287.21-.416l9.018 9.019zM58.794 56.43l-4.45-4.45a1.453 1.453 0 0 0 1.326-1.442V36.95c0-.15-.023-.3-.069-.444l-1.187-3.709c1.544-.568 2.387-1.486 2.387-2.613 0-.913-.103-1.723-.189-2.242a1.455 1.455 0 0 0-1.825-1.162l-2.551.707-2.503-6.464a1.461 1.461 0 0 0-.098-.207c-.252-.434-1.661-2.6-4.755-2.6H24.55c-.098-.007-1.636-.012-3.07.901l-8.794-8.794c5.794-5.235 13.467-8.427 21.872-8.427 18.01 0 32.662 14.653 32.662 32.662 0 8.405-3.192 16.078-8.426 21.872z" fill="#04CBD8"/></svg>