<svg width="68" height="70" fill="none" xmlns="http://www.w3.org/2000/svg"><path d="M59.435 57.907a5.585 5.585 0 0 0 1.975.362 5.598 5.598 0 0 0 5.592-5.59 5.588 5.588 0 0 0-1.455-3.76c.085-.36.128-.73.128-1.105a4.79 4.79 0 0 0-2.443-4.192 4.824 4.824 0 0 0-4.806-4.494 4.824 4.824 0 0 0-4.802 4.432 4.835 4.835 0 0 0-2.558 4.255c0 .408.05.81.152 1.201a5.61 5.61 0 0 0-1.368 3.663 5.597 5.597 0 0 0 5.591 5.59c.724 0 1.436-.144 2.098-.412v9.364h-3.117v-4.125H43.42v4.125H31.995V53.148h3.929v-1.896h-3.93V0H0v69.116h1.896V1.896H30.1V67.22h-14.77v1.897h51.836V67.22h-7.73v-9.313zm-3.994-1.534a3.699 3.699 0 0 1-3.695-3.695c0-1.028.434-2.019 1.192-2.717l.482-.445-.246-.608a2.9 2.9 0 0 1-.212-1.094 2.93 2.93 0 0 1 1.925-2.747l.665-.241-.042-.706a2.924 2.924 0 0 1 2.915-3.095 2.924 2.924 0 0 1 2.913 3.128l-.048.69.644.256a2.906 2.906 0 0 1 1.844 2.715c0 .357-.064.707-.19 1.04l-.235.614.495.435a3.696 3.696 0 0 1 1.257 2.775 3.699 3.699 0 0 1-3.695 3.695 3.695 3.695 0 0 1-1.975-.576v-7.214H57.54v7.135a3.695 3.695 0 0 1-2.098.655zm-10.125 8.619h7.21v2.228h-7.21v-2.228z" fill="#04CBD8"/><path d="M11.928 7.971h-1.896v6.689h1.896V7.97zm10.703 0h-1.897v6.689h1.897V7.97zM11.928 21.237h-1.896v6.689h1.896v-6.69zm10.703 0h-1.897v6.689h1.897v-6.69zM11.928 34.502h-1.896v6.689h1.896v-6.689zm10.703 0h-1.897v6.689h1.897v-6.689zM11.928 47.768h-1.896v6.689h1.896v-6.689zm10.703 0h-1.897v6.689h1.897v-6.689z" fill="#04CBD8"/></svg>