<svg width="73" height="70" fill="none" xmlns="http://www.w3.org/2000/svg"><path d="M32.05 27.117a5.51 5.51 0 0 0-5.505 5.504 5.51 5.51 0 0 0 5.504 5.505 5.51 5.51 0 0 0 5.505-5.505 5.51 5.51 0 0 0-5.505-5.504zm0 9.113a3.613 3.613 0 0 1-3.61-3.608 3.613 3.613 0 0 1 3.61-3.609 3.613 3.613 0 0 1 3.608 3.608 3.613 3.613 0 0 1-3.609 3.609z" fill="#04CBD8"/><path d="M63.935 60.615c-1.614-1.017-2.398-3.44-3.306-6.247-.563-1.743-1.202-3.718-2.14-5.678-3.304-6.903-13.186-6.438-13.925-6.392h-.92V22.903h5.278L32.05.07 15.176 22.903h5.28v9.905c-5.551.582-9.922 6.21-9.922 13.047V67.38H0v1.896H51.837v-1.896h-6.298V50.586c1.851-.154 6.481.006 7.781 5.175 1.893 7.522 3.96 13.294 11.782 13.516h5.295v-8.144l-.925-.023c-2.649-.063-4.937-.117-5.537-.495zM32.05 3.26l13.114 17.745H18.935L32.05 3.261zm-9.698 39.037V22.923h19.397v19.375H22.35zm-9.92 25.083V45.854c0-5.777 3.52-10.546 8.025-11.14v7.584H18.56V67.38h-6.13zm13.822 0v-5.964a5.97 5.97 0 0 1 5.964-5.963 5.97 5.97 0 0 1 5.964 5.963v5.964H26.253zm13.823 0v-5.964c0-4.333-3.526-7.86-7.86-7.86-4.333 0-7.859 3.527-7.859 7.86v5.964h-3.9V44.215h23.186v23.166h-3.567zm28.426 0h-3.373c-5.973-.17-7.903-3.865-9.97-12.083-1.445-5.745-6.416-6.856-9.62-6.621v-4.498c2.39.027 8.952.55 11.24 5.33.883 1.845 1.474 3.673 2.046 5.443 1.021 3.157 1.903 5.884 4.1 7.267.915.576 2.428.68 5.577.764v4.398zm-5.26-60.6c-2.69 0-5.236 1.2-6.955 3.243a6.089 6.089 0 0 0-2.03-.345 6.205 6.205 0 0 0-6.124 5.345l-.147 1.077h14.738v-1.896H50.307a4.306 4.306 0 0 1 3.95-2.63c.665 0 1.307.153 1.91.454l.729.364.47-.665a7.204 7.204 0 0 1 5.876-3.05c3.342 0 6.234 2.356 6.993 5.527h-.99V16.1h3.136l-.09-1.03c-.404-4.649-4.379-8.29-9.049-8.29z" fill="#04CBD8"/></svg>