<svg width="73" height="70" fill="none" xmlns="http://www.w3.org/2000/svg"><path d="M58.881 48.716c7.474 0 13.554-6.08 13.554-13.553 0-3.678-1.5-7.194-4.137-9.743.355-1.12.536-2.28.536-3.463a11.39 11.39 0 0 0-6.604-10.375v-.13C62.23 5.139 57.094 0 50.779 0 44.466 0 39.33 5.134 39.326 11.445a11.492 11.492 0 0 0-6.904 10.512c0 1.262.205 2.5.609 3.685a13.596 13.596 0 0 0-3.91 9.521c0 7.474 6.08 13.554 13.554 13.554 2.604 0 5.148-.757 7.322-2.153V67.22H33.834v-5.629h5.184v-8.25H0v8.25h6.187v7.524h1.896v-7.524h23.855v5.629h-6.744v1.896h41.804V67.22H51.893V46.77a13.562 13.562 0 0 0 6.988 1.945zM1.896 55.238h35.226v4.458H1.896v-4.458zm40.779-8.418c-6.428 0-11.657-5.23-11.657-11.657 0-3.246 1.37-6.37 3.76-8.573l.483-.445-.246-.608a9.503 9.503 0 0 1-.696-3.58 9.586 9.586 0 0 1 6.298-8.986l.666-.241-.043-.707a9.46 9.46 0 0 1-.018-.57c0-5.27 4.286-9.556 9.556-9.556s9.556 4.286 9.556 9.556c0 .2-.008.414-.026.675l-.048.69.644.257a9.509 9.509 0 0 1 6.033 8.883 9.52 9.52 0 0 1-.624 3.4l-.235.614.495.435a11.664 11.664 0 0 1 3.966 8.757c0 6.428-5.23 11.657-11.657 11.657-2.522 0-4.979-.825-6.989-2.331v-5.314l8.432-8.81-1.37-1.312-7.062 7.38v-7.358l3.718-3.523-1.305-1.376-2.413 2.287v-11.47h-1.896V25.51l-3.837-4.01-1.37 1.312 5.207 5.44v8.339l-3.75-3.556-1.305 1.376 5.055 4.792v5.026a11.661 11.661 0 0 1-7.322 2.592z" fill="#04CBD8"/></svg>