<svg width="145" height="72" viewBox="0 0 145 72" fill="none" xmlns="http://www.w3.org/2000/svg">
<path d="M145 72H70.311V0H145V72Z" fill="#219E33"/>
<path d="M70.3108 72H0V0H70.3108V72Z" fill="#78C635"/>
<path d="M10.1086 19.1829H10.5593C10.6881 19.1829 10.7525 19.1829 10.8168 19.119C10.8812 19.055 10.9456 18.9911 10.9456 18.9272L11.01 18.8632L9.33594 14.8987H10.6237L11.0744 16.3055L11.5251 17.5204H11.5895L11.9758 16.3055L12.4265 14.8987H13.7143L12.2334 18.5435C12.1046 18.7993 12.0402 19.0551 11.9114 19.2469C11.7827 19.4387 11.7183 19.6305 11.5895 19.6945C11.4607 19.8224 11.3319 19.8863 11.2032 19.9503C11.0744 20.0142 10.8812 20.0142 10.6881 20.0142H10.1086V19.1829Z" fill="#F5F5F5"/>
<path d="M17.3847 19.9503V17.9041H15.6462V19.9503H14.4229V14.8348H15.6462V16.881H17.3847V14.8348H18.5436V19.9503H17.3847Z" fill="#F5F5F5"/>
<path d="M19.7031 19.9503V14.8348H20.9265V18.032L22.0211 16.4334L23.18 14.8348H24.1458V19.9503H22.9869V16.881H22.9225L22.1498 18.0959L20.7977 19.9503H19.7031Z" fill="#F5F5F5"/>
<path d="M29.1677 18.7353C29.039 19.119 28.7814 19.4387 28.4595 19.6945C28.1375 19.9502 27.6868 20.0142 27.1717 20.0142C26.8498 20.0142 26.5278 19.9502 26.2703 19.8863C26.0128 19.7584 25.8196 19.6305 25.6264 19.5026C25.4333 19.3108 25.3045 19.119 25.2401 18.8632C25.1113 18.5435 25.1113 18.2877 25.1113 18.0319V16.817C25.1113 16.5613 25.1757 16.3055 25.2401 16.0497C25.3045 15.7939 25.4333 15.6021 25.6264 15.4103C25.8196 15.2184 26.0128 15.0906 26.2703 14.9627C26.5278 14.8348 26.8498 14.7708 27.1717 14.7708C27.6868 14.7708 28.1375 14.8987 28.4595 15.1545C28.7814 15.4103 29.039 15.73 29.1677 16.1137L28.0088 16.4973C27.9444 16.3055 27.88 16.1776 27.7512 16.0497C27.6224 15.9218 27.4293 15.8579 27.1717 15.8579C27.0429 15.8579 26.9142 15.8579 26.7854 15.9218C26.6566 15.9858 26.5922 16.0497 26.5278 16.1137C26.4635 16.1776 26.3991 16.3055 26.3347 16.3694C26.2703 16.4973 26.2703 16.5613 26.2703 16.6891V18.0959C26.2703 18.2238 26.2703 18.2877 26.3347 18.4156C26.3991 18.5435 26.3991 18.6074 26.5278 18.6714C26.5922 18.7353 26.721 18.7993 26.7854 18.8632C26.9142 18.9272 27.0429 18.9272 27.1717 18.9272C27.4293 18.9272 27.6224 18.8632 27.7512 18.7353C27.88 18.6074 28.0088 18.4795 28.0731 18.2877L29.1677 18.7353Z" fill="#F5F5F5"/>
<path d="M32.1936 15.8579V19.9503H31.0346V15.8579H29.5537V14.8348H33.6745V15.8579H32.1936Z" fill="#F5F5F5"/>
<path d="M37.2803 16.4334C37.2803 16.2416 37.2159 16.0497 37.0871 15.9858C36.9584 15.8579 36.7652 15.8579 36.5077 15.8579H35.5418V17.0728H36.572C36.7652 17.0728 36.9584 17.0089 37.0871 16.881C37.2159 16.817 37.2803 16.6252 37.2803 16.4334ZM38.5037 16.4973C38.5037 16.7531 38.4393 16.9449 38.3749 17.1368C38.2461 17.3286 38.1173 17.5204 37.9886 17.6483C37.7954 17.7762 37.6022 17.9041 37.4091 17.968C37.1515 18.032 36.9584 18.0959 36.7008 18.0959H35.6706V19.9503H34.4473V14.8348H36.7008C36.9584 14.8348 37.2159 14.8988 37.4735 14.9627C37.731 15.0266 37.9242 15.1545 38.0529 15.2824C38.2461 15.4103 38.3749 15.6021 38.4393 15.794C38.4393 15.9858 38.5037 16.2416 38.5037 16.4973Z" fill="#F5F5F5"/>
<path d="M41.0146 15.8579C40.8858 15.8579 40.757 15.8579 40.6282 15.9218C40.4995 15.9858 40.4351 16.0497 40.3707 16.1137C40.3063 16.1776 40.2419 16.3055 40.1775 16.3694C40.1131 16.4973 40.1131 16.5613 40.1131 16.6891V18.0959C40.1131 18.2238 40.1131 18.2877 40.1775 18.4156C40.2419 18.5435 40.2419 18.6074 40.3707 18.6714C40.4351 18.7353 40.5638 18.7993 40.6282 18.8632C40.757 18.9272 40.8858 18.9272 41.0146 18.9272C41.2721 18.9272 41.5297 18.8632 41.6584 18.6714C41.7872 18.4795 41.916 18.2877 41.916 18.0319V16.6252C41.916 16.3694 41.8516 16.1776 41.6584 16.0497C41.5297 15.9218 41.3365 15.8579 41.0146 15.8579ZM41.0789 14.7708C41.4009 14.7708 41.7228 14.8348 41.9804 14.8987C42.2379 15.0266 42.4955 15.1545 42.6242 15.3463C42.8174 15.5382 42.9462 15.73 43.0749 15.9858C43.2037 16.2415 43.2037 16.4973 43.2037 16.7531V17.968C43.2037 18.2877 43.1393 18.5435 43.0749 18.7993C42.9462 19.055 42.8174 19.2469 42.6242 19.4387C42.4311 19.6305 42.2379 19.7584 41.9804 19.8224C41.7228 19.8863 41.4009 19.9502 41.0789 19.9502C40.757 19.9502 40.4351 19.8863 40.1775 19.7584C39.92 19.6305 39.7268 19.5026 39.5337 19.3108C39.3405 19.119 39.2117 18.9272 39.1473 18.6714C39.0829 18.4156 39.0186 18.1598 39.0186 17.9041V16.6891C39.0186 16.4334 39.0829 16.1776 39.1473 15.9218C39.2117 15.666 39.3405 15.4742 39.5337 15.2824C39.7268 15.0906 39.92 14.9627 40.1775 14.8348C40.3707 14.8348 40.6926 14.7708 41.0789 14.7708Z" fill="#F5F5F5"/>
<path d="M44.1055 19.9503V14.8348H45.3288V18.032L46.4234 16.4334L47.5824 14.8348H48.5482V19.9503H47.3248V16.881L46.5522 18.0959L45.2001 19.9503H44.1055Z" fill="#F5F5F5"/>
<path d="M53.5059 19.9503V17.5204L52.9908 18.5435L52.6688 19.3108H51.7674L51.3811 18.5435L50.866 17.5204V19.9503H49.707V14.8348H50.7372L51.5099 16.3055L52.1537 17.8401H52.2181L52.862 16.3055L53.5703 14.8348H54.7292V19.9503H53.5059Z" fill="#F5F5F5"/>
<path d="M10.9461 25.3854V29.5417H9.78711V24.3623H13.586V25.3854H10.9461Z" fill="#F5F5F5"/>
<path d="M15.9042 25.3854C15.7754 25.3854 15.6467 25.3854 15.5179 25.4494C15.3891 25.5133 15.3247 25.5772 15.2603 25.6412C15.1959 25.7051 15.1316 25.833 15.0672 25.897C15.0028 26.0248 15.0028 26.0888 15.0028 26.2167V27.6234C15.0028 27.7513 15.0028 27.8153 15.0672 27.9431C15.1316 28.071 15.1316 28.135 15.2603 28.1989C15.3247 28.2629 15.4535 28.3268 15.5179 28.3907C15.6467 28.4547 15.7754 28.4547 15.9042 28.4547C16.1618 28.4547 16.4193 28.3907 16.5481 28.1989C16.6769 28.0071 16.8056 27.8153 16.8056 27.5595V26.2167C16.8056 25.9609 16.7412 25.7691 16.5481 25.6412C16.4193 25.5133 16.2261 25.3854 15.9042 25.3854ZM15.9686 24.3623C16.2905 24.3623 16.6125 24.4263 16.87 24.4902C17.1276 24.6181 17.3207 24.746 17.5139 24.9378C17.707 25.1296 17.8358 25.3215 17.9646 25.5772C18.0934 25.833 18.0934 26.0888 18.0934 26.3446V27.5595C18.0934 27.8792 18.029 28.135 17.9646 28.3907C17.8358 28.6465 17.707 28.8383 17.5139 29.0302C17.3207 29.222 17.1276 29.3499 16.87 29.4138C16.6125 29.4778 16.2905 29.5417 15.9686 29.5417C15.6467 29.5417 15.3247 29.4778 15.0672 29.3499C14.8096 29.222 14.6165 29.0941 14.4233 28.9023C14.2301 28.7105 14.1014 28.5186 14.037 28.2629C13.9726 28.0071 13.9082 27.7513 13.9082 27.4955V26.2806C13.9082 26.0248 13.9726 25.7691 14.037 25.5133C14.1014 25.2575 14.2301 25.0657 14.4233 24.8739C14.6165 24.682 14.8096 24.5542 15.0672 24.4263C15.2603 24.4263 15.5823 24.3623 15.9686 24.3623Z" fill="#F5F5F5"/>
<path d="M21.8916 26.0248C21.8916 25.833 21.8272 25.6412 21.6985 25.5772C21.5697 25.4494 21.3765 25.4494 21.119 25.4494H20.1532V26.6643H21.1834C21.3765 26.6643 21.5697 26.6003 21.6985 26.4724C21.8272 26.3446 21.8916 26.2167 21.8916 26.0248ZM23.115 26.0248C23.115 26.2806 23.0506 26.4724 22.9862 26.6643C22.8574 26.8561 22.7287 27.0479 22.5999 27.1758C22.4067 27.3037 22.2136 27.4316 22.0204 27.4955C21.7629 27.5595 21.5697 27.6234 21.3121 27.6234H20.282V29.4778H19.0586V24.3623H21.3121C21.5697 24.3623 21.8272 24.4263 22.0848 24.4902C22.3423 24.5541 22.5355 24.682 22.6643 24.8099C22.8574 24.9378 22.9862 25.1296 23.0506 25.3215C23.0506 25.5772 23.115 25.7691 23.115 26.0248Z" fill="#F5F5F5"/>
<path d="M25.6268 25.3854C25.498 25.3854 25.3693 25.3854 25.2405 25.4494C25.1117 25.5133 25.0473 25.5772 24.9829 25.6412C24.9185 25.7051 24.8542 25.833 24.7898 25.897C24.7254 26.0248 24.7254 26.0888 24.7254 26.2167V27.6234C24.7254 27.7513 24.7254 27.8153 24.7898 27.9431C24.8542 28.071 24.8542 28.135 24.9829 28.1989C25.0473 28.2629 25.1761 28.3268 25.2405 28.3907C25.3693 28.4547 25.498 28.4547 25.6268 28.4547C25.9487 28.4547 26.1419 28.3907 26.2707 28.1989C26.3994 28.0071 26.5282 27.8153 26.5282 27.5595V26.2167C26.5282 25.9609 26.4638 25.7691 26.2707 25.6412C26.1419 25.5133 25.9487 25.3854 25.6268 25.3854ZM25.6268 24.3623C25.9487 24.3623 26.2707 24.4263 26.5282 24.4902C26.7858 24.6181 27.0433 24.746 27.1721 24.9378C27.3653 25.1296 27.494 25.3215 27.6228 25.5772C27.7516 25.833 27.7516 26.0888 27.7516 26.3446V27.5595C27.7516 27.8792 27.6872 28.135 27.6228 28.3907C27.494 28.6465 27.3653 28.8383 27.1721 29.0302C26.9789 29.222 26.7858 29.3499 26.5282 29.4138C26.2707 29.4778 25.9487 29.5417 25.6268 29.5417C25.3049 29.5417 24.9829 29.4778 24.7254 29.3499C24.4678 29.222 24.2747 29.0941 24.0815 28.9023C23.8883 28.7105 23.7596 28.5186 23.6952 28.2629C23.6308 28.0071 23.5664 27.7513 23.5664 27.4955V26.2806C23.5664 26.0248 23.6308 25.7691 23.6952 25.5133C23.7596 25.2575 23.8883 25.0657 24.0815 24.8739C24.2747 24.682 24.4678 24.5542 24.7254 24.4263C24.9829 24.4263 25.3049 24.3623 25.6268 24.3623Z" fill="#F5F5F5"/>
<path d="M32.0645 25.3854H30.5836L30.5192 26.6003C30.5192 26.7282 30.5192 26.92 30.5192 27.1119C30.5192 27.3037 30.5192 27.4316 30.4549 27.6234C30.4549 27.8153 30.3905 27.9431 30.3261 28.135C30.2617 28.2629 30.1973 28.4547 30.1329 28.5186H32.0645V25.3854ZM33.2235 24.3623V28.5186H33.803V30.6927H32.8372V29.4778H29.3603V30.6927H28.3301V28.5826L28.9096 28.4547C28.974 28.3907 29.1027 28.2629 29.1671 28.1989C29.2315 28.135 29.2959 28.0071 29.2959 27.8792C29.3603 27.7513 29.3603 27.5595 29.4247 27.3676C29.4247 27.1758 29.489 26.8561 29.489 26.5364L29.6178 24.4263L33.2235 24.3623Z" fill="#F5F5F5"/>
<path d="M36.958 26.9201L36.6361 25.897L36.3142 26.9201L36.121 27.4956H37.1512L36.958 26.9201ZM37.9238 29.5418L37.5375 28.5187H35.7347L35.3484 29.5418H34.125L36.1854 24.4263H37.1512L39.2116 29.5418H37.9238Z" fill="#F5F5F5"/>
<path d="M10.4951 58.6998V61.1297C10.4951 61.3854 10.5595 61.6412 10.6883 61.7691C10.817 61.897 11.0102 61.9609 11.2678 61.9609C11.5253 61.9609 11.7185 61.897 11.8472 61.7691C11.976 61.6412 12.1048 61.4494 12.1048 61.1297V58.6998H13.0706V62.7922H12.1048V62.4085C11.976 62.5364 11.7828 62.6643 11.5897 62.7282C11.3965 62.7922 11.2034 62.8561 11.0102 62.8561C10.5595 62.8561 10.2376 62.7282 9.91562 62.4725C9.65807 62.2167 9.5293 61.897 9.5293 61.3854V58.6998H10.4951Z" fill="#F5F5F5"/>
<path d="M16.7405 62.7922V60.3623C16.7405 60.1066 16.6761 59.9147 16.5474 59.7229C16.4186 59.595 16.2254 59.5311 15.9679 59.5311C15.7103 59.5311 15.5172 59.595 15.3884 59.7229C15.2596 59.8508 15.1308 60.0426 15.1308 60.3623V62.7922H14.165V58.6998H15.1308V59.1474C15.2596 59.0195 15.4528 58.8916 15.6459 58.8277C15.8391 58.7638 16.0323 58.6998 16.2254 58.6998C16.6761 58.6998 16.9981 58.8277 17.2556 59.0835C17.5132 59.3392 17.6419 59.659 17.6419 60.1705V62.8561L16.7405 62.7922Z" fill="#F5F5F5"/>
<path d="M18.8008 58.6998H19.7666V62.7922H18.8008V58.6998ZM18.8008 57.0373H19.7666V57.8686H18.8008V57.0373Z" fill="#F5F5F5"/>
<path d="M24.0802 61.5133C24.0802 61.7051 24.0158 61.897 23.9515 62.0249C23.8871 62.2167 23.7583 62.3446 23.5651 62.4085C23.4364 62.5364 23.2432 62.6004 22.9856 62.6643C22.7925 62.7282 22.5349 62.7282 22.2774 62.7282C21.9554 62.7282 21.6335 62.6643 21.3116 62.6004C20.9896 62.5364 20.6677 62.3446 20.4102 62.0888L20.9253 61.4494C21.1184 61.6412 21.3116 61.7691 21.5691 61.833C21.8267 61.897 22.0198 61.9609 22.2774 61.9609C22.4705 61.9609 22.6637 61.897 22.7925 61.833C22.9213 61.7691 22.9856 61.6412 22.9856 61.5133C22.9856 61.3854 22.9213 61.2575 22.7925 61.1936C22.6637 61.1297 22.4705 61.0657 22.213 61.0657C22.0198 61.0657 21.8267 61.0018 21.6335 61.0018C21.4403 60.9378 21.2472 60.9378 21.1184 60.8099C20.9896 60.746 20.8609 60.6181 20.7321 60.4902C20.6033 60.3623 20.6033 60.1705 20.6033 59.9147C20.6033 59.7229 20.6677 59.5311 20.7321 59.3392C20.7965 59.2114 20.9253 59.0195 21.054 58.9556C21.1828 58.8277 21.376 58.7638 21.5691 58.6998C21.7623 58.6359 21.9554 58.6359 22.213 58.6359C22.5349 58.6359 22.8569 58.6998 23.1144 58.7638C23.372 58.8277 23.6295 58.9556 23.8871 59.1474L23.4364 59.8508C23.2432 59.7229 23.05 59.659 22.8569 59.595C22.7281 59.5311 22.5349 59.4671 22.3418 59.4671C22.0842 59.4671 21.9554 59.5311 21.8267 59.595C21.6979 59.659 21.6335 59.7868 21.6335 59.9147C21.6335 60.0426 21.6979 60.1705 21.8911 60.2344C22.0842 60.2984 22.3418 60.3623 22.6637 60.3623C22.8569 60.3623 22.9856 60.4263 23.1788 60.4263C23.372 60.4902 23.5007 60.5542 23.6295 60.6181C23.7583 60.6821 23.8871 60.8099 23.9515 60.9378C24.0158 61.1297 24.0802 61.3215 24.0802 61.5133Z" fill="#F5F5F5"/>
<path d="M26.2054 62.7922C25.8834 62.7922 25.6259 62.7283 25.4327 62.5364C25.2396 62.3446 25.1108 62.0888 25.1108 61.7691V59.4672H24.5957V58.6998H25.1108V57.6128H26.0766V58.6998H26.7205V59.4672H26.0766V61.5133C26.0766 61.6412 26.0766 61.7691 26.141 61.8331C26.2054 61.897 26.2698 61.9609 26.4629 61.9609H26.7849V62.7922H26.2054Z" fill="#F5F5F5"/>
<path d="M29.3605 59.5311C29.1029 59.5311 28.9097 59.595 28.781 59.7229C28.6522 59.8508 28.5234 60.0426 28.5234 60.2984V62.7282H27.5576V58.6359H28.5234V59.1474H28.5878C28.8454 58.7638 29.1673 58.6359 29.618 58.6359C29.8112 58.6359 29.9399 58.6359 30.0687 58.6998C30.1975 58.7638 30.3263 58.7638 30.455 58.8916L30.0687 59.7229C29.9399 59.659 29.8112 59.595 29.7468 59.595C29.6824 59.595 29.4892 59.5311 29.3605 59.5311Z" fill="#F5F5F5"/>
<path d="M32.4513 59.4671C32.2582 59.4671 32.1294 59.5311 32.0006 59.595C31.8719 59.659 31.7431 59.7868 31.6787 59.9147C31.6143 60.0426 31.6143 60.1705 31.5499 60.2984C31.5499 60.4263 31.4855 60.5542 31.4855 60.746C31.4855 60.9378 31.4855 61.0657 31.4855 61.1936C31.4855 61.3215 31.5499 61.4494 31.6143 61.5133C31.6787 61.6412 31.7431 61.7691 31.8719 61.833C32.0006 61.897 32.1294 61.9609 32.3226 61.9609C32.5157 61.9609 32.6445 61.897 32.8377 61.833C32.9664 61.7691 33.0952 61.5773 33.1596 61.3854C33.1596 61.3215 33.224 61.1936 33.224 61.0657C33.224 60.9378 33.224 60.8099 33.224 60.6181C33.224 60.2984 33.1596 60.0426 33.0952 59.9147C33.0308 59.7229 32.9021 59.659 32.7733 59.5311C32.7733 59.5311 32.6445 59.4671 32.4513 59.4671ZM32.5157 58.6359C32.8377 58.6359 33.1596 58.6998 33.3528 58.8277C33.6103 58.9556 33.8035 59.0835 33.9966 59.3392C34.1254 59.5311 34.1898 59.7229 34.2542 59.9147C34.3186 60.1705 34.3186 60.4263 34.3186 60.6821C34.3186 61.0018 34.3186 61.2575 34.2542 61.5133C34.1898 61.7051 34.1254 61.9609 34.061 62.0888C33.8679 62.3446 33.6747 62.5364 33.4172 62.6643C33.1596 62.7922 32.8377 62.8561 32.5157 62.8561C32.1938 62.8561 31.9362 62.7922 31.6787 62.7282C31.4212 62.6003 31.228 62.4725 31.0348 62.2167C30.7773 61.897 30.7129 61.3854 30.7129 60.746C30.7129 60.5542 30.7129 60.2984 30.7773 60.1066C30.7773 59.9147 30.8417 59.7229 30.9704 59.595C31.0992 59.2753 31.3568 59.0835 31.6143 58.8916C31.8075 58.6998 32.1294 58.6359 32.5157 58.6359Z" fill="#F5F5F5"/>
<path d="M36.7009 63.6234C36.5721 63.9432 36.3789 64.135 36.1858 64.2629C35.9926 64.3908 35.7351 64.4547 35.4775 64.4547H35.0912V63.6874H35.3488C35.4775 63.6874 35.6063 63.6234 35.6707 63.5595C35.7351 63.4956 35.7995 63.3677 35.8639 63.2398L36.057 62.6003L34.5117 58.6998H35.5419L36.1214 60.1705L36.5721 61.4494H36.6365L37.0872 60.1705L37.6023 58.6359H38.6325L36.7009 63.6234Z" fill="#F5F5F5"/>
<path d="M40.8859 59.5311C40.6284 59.5311 40.4352 59.595 40.3064 59.7229C40.1777 59.8508 40.1133 60.0426 40.1133 60.2984V62.7282H39.1475V58.6359H40.1133V59.1474H40.1777C40.4352 58.7638 40.7571 58.6359 41.2079 58.6359C41.401 58.6359 41.5298 58.6359 41.6586 58.6998C41.7873 58.7638 41.9161 58.7638 42.0449 58.8916L41.6586 59.7229C41.5298 59.659 41.401 59.595 41.3366 59.595C41.2722 59.595 41.0147 59.5311 40.8859 59.5311Z" fill="#F5F5F5"/>
<path d="M43.5903 59.4671V62.7922H42.6245V59.4671H42.1094V58.6998H42.6245V57.9325C42.6245 57.7407 42.6245 57.5488 42.6889 57.421C42.7532 57.2931 42.8176 57.1652 42.9464 57.1012C43.0752 57.0373 43.204 56.9094 43.3327 56.9094C43.4615 56.8455 43.6547 56.8455 43.7834 56.8455H44.4273V57.6767H43.9766C43.8478 57.6767 43.7191 57.7407 43.6547 57.8046C43.5903 57.8686 43.5903 57.9964 43.5903 58.1243V58.8277H44.4273V59.4671H43.5903Z" fill="#F5F5F5"/>
<path d="M45.1353 61.6412H46.2942V62.7922H45.1353V61.6412Z" fill="#F5F5F5"/>
<path d="M49.1916 59.5311C48.934 59.5311 48.7409 59.595 48.6121 59.7229C48.4833 59.8508 48.4189 60.0426 48.4189 60.2984V62.7282H47.4531V58.6359H48.4189V59.1474H48.4833C48.7409 58.7638 49.0628 58.6359 49.5135 58.6359C49.7067 58.6359 49.8355 58.6359 49.9642 58.6998C50.093 58.7638 50.2218 58.7638 50.3506 58.8916L49.9642 59.7229C49.8355 59.659 49.7067 59.595 49.5779 59.595C49.4491 59.5311 49.3204 59.5311 49.1916 59.5311Z" fill="#F5F5F5"/>
<path d="M51.7031 58.6998V61.1297C51.7031 61.3854 51.7675 61.6412 51.8963 61.7691C52.025 61.897 52.2182 61.9609 52.4758 61.9609C52.7333 61.9609 52.9265 61.897 53.0552 61.7691C53.184 61.6412 53.3128 61.4494 53.3128 61.1297V58.6998H54.2786V62.7922H53.3128V62.4085C53.184 62.5364 52.9909 62.6643 52.7977 62.7282C52.6045 62.7922 52.4114 62.8561 52.2182 62.8561C51.7675 62.8561 51.4456 62.7282 51.1236 62.4725C50.8661 62.2167 50.7373 61.897 50.7373 61.3854V58.6998H51.7031Z" fill="#F5F5F5"/>
<path d="M97.6111 23.7229C91.4299 29.222 96.0014 32.8028 102.376 32.0995V40.7957C92.5245 41.7549 84.3473 43.9929 77.3291 47.1901C97.096 39.7087 117.764 39.389 139.463 47.1901C130.964 43.4174 122.207 41.3073 113.128 40.6678V29.4139C119.438 27.1758 127.873 17.5204 115.446 17.0089C123.623 18.8632 119.631 23.5311 113.128 27.2398V13.1083L108.686 16.6252V29.0302L107.913 29.3499V7.28952L102.376 11.1261V30.4369C94.0054 31.1403 94.2629 28.071 97.6111 23.7229ZM107.913 31.0764L108.686 30.8206V40.6039H107.913V31.0764Z" fill="#FEFEFE"/>
<path d="M79.3251 58.9556C79.3251 59.0195 79.2608 59.0835 79.2608 59.1474C79.2608 59.0835 79.1964 59.0195 79.1964 58.9556L77.3935 54.9272H75.4619L78.3593 60.9378C78.1018 61.3854 77.9086 61.7691 77.6511 61.9609C77.2004 62.3446 76.6209 62.2806 76.1058 61.9609L75.8482 61.833V63.5595L75.977 63.6234C76.2989 63.7513 76.6853 63.8153 77.136 63.8153C77.7155 63.8153 78.2306 63.6235 78.7457 63.1758C79.1964 62.7922 79.7115 62.0249 80.1622 61.0018L82.8664 54.9911H81.0636L79.3251 58.9556Z" fill="#FEFEFE"/>
<path d="M88.7899 58.3801H85.1198V54.8632H83.3813V63.5595H85.1198V59.9147H88.7899V63.5595H90.4639V54.8632H88.7899V58.3801Z" fill="#FEFEFE"/>
<path d="M93.8767 60.9378C93.8767 60.746 93.8767 60.5542 93.8767 60.3623V54.8632H92.2026V63.4956H94.0055L97.9975 57.4209C97.9975 57.5488 97.9975 57.6767 97.9975 57.8046V63.4956H99.6716V54.8632H97.8043L93.8767 60.9378Z" fill="#FEFEFE"/>
<path d="M105.466 54.7354C104.178 54.7354 103.084 55.183 102.247 56.0142C101.41 56.8455 100.959 57.9965 100.959 59.3393C100.959 60.6181 101.345 61.6412 102.118 62.4725C102.891 63.2398 103.921 63.6874 105.144 63.6874C106.11 63.6874 106.947 63.4956 107.591 63.1759L107.655 63.1119V61.4494L107.398 61.6412C106.818 62.0249 106.174 62.1528 105.402 62.1528C104.565 62.1528 103.921 61.897 103.47 61.3854C102.955 60.8739 102.697 60.1705 102.697 59.2753C102.697 58.3801 102.955 57.6128 103.47 57.1013C103.985 56.5258 104.693 56.27 105.595 56.27C106.239 56.27 106.818 56.3979 107.398 56.7815L107.655 56.9094V55.183L107.591 55.119C106.947 54.8632 106.239 54.7354 105.466 54.7354Z" fill="#FEFEFE"/>
<path d="M108.042 56.3979H110.488V63.5595H112.162V56.3979H114.609V54.8632H108.042V56.3979Z" fill="#FEFEFE"/>
<path d="M117.185 56.3339H118.022C119.052 56.3339 119.567 56.7815 119.567 57.6767C119.567 58.1243 119.438 58.508 119.181 58.6998C118.923 58.9556 118.473 59.0835 117.893 59.0835H117.185V56.3339ZM118.215 54.8632H115.511V63.4956H117.249V60.4902H118.215C119.181 60.4902 120.018 60.2344 120.597 59.659C121.177 59.1474 121.499 58.444 121.499 57.5488C121.499 56.6536 121.241 56.0142 120.662 55.5666C120.018 55.119 119.181 54.8632 118.215 54.8632Z" fill="#FEFEFE"/>
<path d="M127.873 61.3854C127.422 61.897 126.843 62.1528 126.07 62.1528C125.362 62.1528 124.782 61.897 124.331 61.3854C123.881 60.8739 123.688 60.1066 123.688 59.2753C123.688 58.3801 123.881 57.6767 124.396 57.1013C124.847 56.5897 125.426 56.27 126.134 56.27C126.907 56.27 127.422 56.5258 127.873 57.0373C128.323 57.5489 128.517 58.3162 128.517 59.2753C128.517 60.1705 128.323 60.8739 127.873 61.3854ZM126.199 54.7354C124.911 54.7354 123.816 55.183 123.044 56.0142C122.271 56.8455 121.885 57.9325 121.885 59.3393C121.885 60.6181 122.271 61.7052 123.044 62.4725C123.816 63.3037 124.782 63.6874 126.07 63.6874C127.358 63.6874 128.388 63.2398 129.161 62.4725C129.933 61.6412 130.319 60.5542 130.319 59.1474C130.319 57.8686 129.933 56.7815 129.225 56.0142C128.452 55.183 127.422 54.7354 126.199 54.7354Z" fill="#FEFEFE"/>
<path d="M133.603 53.9041C134.054 54.2877 134.633 54.4796 135.277 54.4796C135.921 54.4796 136.501 54.2877 136.951 53.968C137.402 53.5844 137.66 53.1368 137.724 52.4973V52.3055H136.243V52.4334C136.179 52.7531 136.114 52.9449 135.921 53.1368C135.728 53.2646 135.535 53.3925 135.277 53.3925C134.633 53.3925 134.376 53.0728 134.311 52.4973V52.3694H132.831V52.5613C132.895 53.0728 133.153 53.5204 133.603 53.9041Z" fill="#FEFEFE"/>
<path d="M137.145 54.8632L133.217 60.9378C133.217 60.746 133.217 60.5542 133.217 60.3623V54.8632H131.543V63.4956H133.346L137.338 57.4209C137.338 57.5488 137.338 57.6767 137.338 57.8046V63.4956H139.012V54.8632H137.145Z" fill="#FEFEFE"/>
</svg>
