<?xml version="1.0" encoding="UTF-8" standalone="no"?>
<svg
   xmlns:dc="http://purl.org/dc/elements/1.1/"
   xmlns:cc="http://creativecommons.org/ns#"
   xmlns:rdf="http://www.w3.org/1999/02/22-rdf-syntax-ns#"
   xmlns:svg="http://www.w3.org/2000/svg"
   xmlns="http://www.w3.org/2000/svg"
   xmlns:sodipodi="http://sodipodi.sourceforge.net/DTD/sodipodi-0.dtd"
   xmlns:inkscape="http://www.inkscape.org/namespaces/inkscape"
   width="207"
   height="180"
   version="1.1"
   id="svg1733"
   sodipodi:docname="scheme_draw.svg"
   inkscape:version="0.92.2 (5c3e80d, 2017-08-06)">
  <metadata
     id="metadata1739">
    <rdf:RDF>
      <cc:Work
         rdf:about="">
        <dc:format>image/svg+xml</dc:format>
        <dc:type
           rdf:resource="http://purl.org/dc/dcmitype/StillImage" />
        <dc:title></dc:title>
      </cc:Work>
    </rdf:RDF>
  </metadata>
  <defs
     id="defs1737" />
  <sodipodi:namedview
     pagecolor="#ffffff"
     bordercolor="#666666"
     borderopacity="1"
     objecttolerance="10"
     gridtolerance="10"
     guidetolerance="10"
     inkscape:pageopacity="0"
     inkscape:pageshadow="2"
     inkscape:window-width="1920"
     inkscape:window-height="1017"
     id="namedview1735"
     showgrid="false"
     showguides="true"
     inkscape:guide-bbox="true"
     inkscape:zoom="8"
     inkscape:cx="116.92006"
     inkscape:cy="134.14703"
     inkscape:window-x="-8"
     inkscape:window-y="-8"
     inkscape:window-maximized="1"
     inkscape:current-layer="g1731" />
  <g
     fill="none"
     fill-rule="evenodd"
     id="g1731">
    <path
       d="M 0.0234375,0.1484375 H 207.02344 V 180.14844 H 0.0234375 Z"
       id="path1601"
       inkscape:connector-curvature="0"
       style="fill:#ffffff" />
    <path
       fill="#ECEEF1"
       d="M91.7072 123.476L65.4088 123.476 60.3889 123.476 60.3889 128.466 60.3889 158.062 60.3889 163.052 65.4088 163.052 73.5006 163.052 73.5006 158.062 65.4088 158.062 65.4088 128.466 91.7072 128.466 91.7072 158.062 86.6872 158.062 86.6872 163.052 91.7072 163.052 96.6821 163.052 96.6821 123.476z"
       id="path1603" />
    <path
       d="M96.832 163.216H86.537v-5.289h5.02v-1.259h5.275v6.548zm-9.995-.299h9.695v-5.949h-4.675v1.258h-5.02v4.691zm9.995-33.042h-5.275v-1.259h-5.02v-5.29h10.295v6.549zm-4.975-.3h4.675v-5.949h-9.695v4.69h5.02v1.259z"
       fill="#78859C"
       fill-rule="nonzero"
       id="path1605" />
    <path
       d="M96.832 156.968h-5.275v-7.073h5.275v7.073zm-4.975-.3h4.675v-6.473h-4.675v6.473z"
       fill="#78859C"
       fill-rule="nonzero"
       id="path1607" />
    <path
       d="M96.832 150.195h-5.275v-7.073h5.275v7.073zm-4.975-.3h4.675v-6.473h-4.675v6.473z"
       fill="#78859C"
       fill-rule="nonzero"
       id="path1609" />
    <path
       d="M96.832 143.421h-5.275v-7.073h5.275v7.073zm-4.975-.299h4.675v-6.474h-4.675v6.474z"
       fill="#78859C"
       fill-rule="nonzero"
       id="path1611" />
    <path
       d="M96.832 136.648h-5.275v-7.073h5.275v7.073zm-4.975-.299h4.675v-6.474h-4.675v6.474zM65.528 154.33h-5.274v-7.567h5.274v7.567zm-4.974-.299h4.675v-6.968h-4.675v6.968z"
       fill="#78859C"
       fill-rule="nonzero"
       id="path1613" />
    <path
       d="M65.528 147.048h-5.274v-7.568h5.274v7.568zm-4.974-.3h4.675v-6.968h-4.675v6.968z"
       fill="#78859C"
       fill-rule="nonzero"
       id="path1615" />
    <path
       d="M65.528 139.78h-5.274v-7.567h5.274v7.567zm-4.974-.3h4.675v-6.968h-4.675v6.968zm12.977-10.894h-6.953v-5.274h6.953v5.274zm-6.654-.3h6.354v-4.675h-6.354v4.675z"
       fill="#78859C"
       fill-rule="nonzero"
       id="path1617" />
    <path
       d="M80.184 128.586H73.23v-5.274h6.953v5.274zm-6.654-.3h6.354v-4.675H73.53v4.675zm.12 34.931h-7.072v-5.275h7.072v5.275zm-6.773-.3h6.474v-4.675h-6.474v4.675z"
       fill="#78859C"
       fill-rule="nonzero"
       id="path1619" />
    <path
       d="M66.877 163.217h-6.623v-9.186h5.26v3.911h1.363v5.275zm-6.323-.3h6.023v-4.675h-1.363v-3.912h-4.66v8.587zm4.96-30.404h-5.26v-9.186h6.623v5.259h-1.363v3.927zm-4.96-.3h4.66v-3.926h1.364v-4.661h-6.024v8.587zm26.283-3.627h-6.953v-5.274h6.953v5.274zm-6.653-.3h6.353v-4.675h-6.353v4.675z"
       fill="#78859C"
       fill-rule="nonzero"
       id="path1621" />
    <path
       fill="#ECEEF1"
       d="M73.8452 67.9722L73.8452 72.9622 73.8452 96.0541 73.8452 101.044 78.8651 101.044 96.6821 101.044 96.6821 96.0541 78.8501 96.0541 78.8501 72.9622 96.6671 72.9622 96.6671 67.9722 78.8501 67.9722z"
       id="path1623" />
    <path
       d="M83.975 101.209h-10.28v-6.564h5.26v1.26h5.02v5.304zm-9.98-.3h9.68v-4.705h-5.02v-1.259h-4.66v5.964z"
       fill="#78859C"
       fill-rule="nonzero"
       id="path1625" />
    <path
       d="M78.97 94.945h-5.275v-7.163h5.275v7.163zm-4.975-.3h4.675v-6.563h-4.675v6.563z"
       fill="#78859C"
       fill-rule="nonzero"
       id="path1627" />
    <path
       d="M78.97 88.097h-5.275v-7.163h5.275v7.163zm-4.975-.3h4.675v-6.563h-4.675v6.563z"
       fill="#78859C"
       fill-rule="nonzero"
       id="path1629" />
    <path
       d="M78.97 81.234h-5.275V74.07h5.275v7.163zm-4.975-.3h4.675V74.37h-4.675v6.563zm22.837 20.26H83.675v-5.29h13.157v5.29zm-12.857-.3h12.557v-4.69H83.975v4.69z"
       fill="#78859C"
       fill-rule="nonzero"
       id="path1631" />
    <path
       d="M78.955 74.37h-5.26v-6.548h10.28v5.29h-5.02v1.259zm-4.96-.299h4.66v-1.259h5.02v-4.69h-9.68v5.949z"
       fill="#78859C"
       fill-rule="nonzero"
       id="path1633" />
    <path
       d="M96.817 73.112H83.66v-5.29h13.157v5.29zm-12.857-.3h12.557v-4.69H83.96v4.69z"
       fill="#78859C"
       fill-rule="nonzero"
       id="path1635" />
    <path
       d="m 184.84415,18.958976 h -17.832 v 4.99 h 17.817 v 23.0919 h -17.817 v 4.99 h 17.817 5.02 v -4.99 -23.0919 -4.99 z"
       id="path1637"
       inkscape:connector-curvature="0"
       style="fill:#eceef1" />
    <path
       d="M148.065 53.706h-8.946v-5.29h3.671v-1.258h5.275v6.548zm-8.647-.3h8.347v-5.949h-4.675v1.26h-3.672v4.69z"
       fill="#78859C"
       fill-rule="nonzero"
       id="path1639" />
    <path
       d="M148.05 47.457h-5.275v-7.163h5.275v7.163zm-4.975-.3h4.675v-6.563h-4.675v6.564z"
       fill="#78859C"
       fill-rule="nonzero"
       id="path1641" />
    <path
       d="M148.05 40.594h-5.275v-7.163h5.275v7.163zm-4.975-.3h4.675v-6.563h-4.675v6.563z"
       fill="#78859C"
       fill-rule="nonzero"
       id="path1643" />
    <path
       d="M148.05 33.746h-5.275v-7.163h5.275v7.163zm-4.975-.3h4.675v-6.563h-4.675v6.563zm-3.672-7.822h-7.387v-5.29h7.387v5.29zm-7.087-.3h6.788v-4.69h-6.788v4.69z"
       fill="#78859C"
       fill-rule="nonzero"
       id="path1645" />
    <path
       d="M132.316 25.624h-7.388v-5.29h7.388v5.29zm-7.088-.3h6.788v-4.69h-6.788v4.69zm14.16 28.397h-7.387v-5.29h7.387v5.29zm-7.087-.3h6.788v-4.69h-6.788v4.69z"
       id="path1647"
       fill-rule="nonzero"
       fill="#78859C" />
    <path
       d="M132.301 53.721h-7.388v-5.29h7.388v5.29zm-7.088-.3h6.788v-4.69h-6.788v4.69zm22.852-26.538h-5.275v-1.259h-3.671v-5.29h8.946v6.549zm-4.975-.3h4.675v-5.949h-8.347v4.69h3.672v1.26z"
       fill="#78859C"
       fill-rule="nonzero"
       id="path1649" />
    <path
       fill="#ECEEF1"
       d="M125.063 67.9722L125.063 72.9622 142.88 72.9622 142.88 96.0541 125.063 96.0541 125.063 101.044 142.88 101.044 147.9 101.044 147.9 96.0541 147.9 72.9622 147.9 67.9722 142.88 67.9722z"
       id="path1651" />
    <path
       d="M148.065 101.209h-8.946v-5.305h3.671v-1.258h5.275v6.563zm-8.647-.3h8.347v-5.964h-4.675v1.259h-3.672v4.705z"
       fill="#78859C"
       fill-rule="nonzero"
       id="path1653" />
    <path
       d="M148.05 94.945h-5.275v-7.163h5.275v7.163zm-4.975-.3h4.675v-6.563h-4.675v6.563z"
       fill="#78859C"
       fill-rule="nonzero"
       id="path1655" />
    <path
       d="M148.05 88.082h-5.275v-7.163h5.275v7.163zm-4.975-.3h4.675V81.22h-4.675v6.563z"
       fill="#78859C"
       fill-rule="nonzero"
       id="path1657" />
    <path
       d="M148.05 81.234h-5.275V74.07h5.275v7.163zm-4.975-.3h4.675V74.37h-4.675v6.563zm-3.672-7.822h-7.387v-5.29h7.387v5.29zm-7.087-.3h6.788v-4.69h-6.788v4.69z"
       fill="#78859C"
       fill-rule="nonzero"
       id="path1659" />
    <path
       d="M132.316 73.112h-7.388v-5.29h7.388v5.29zm-7.088-.3h6.788v-4.69h-6.788v4.69zm14.16 28.397h-7.387v-5.29h7.387v5.29zm-7.087-.3h6.788v-4.69h-6.788v4.69z"
       fill="#78859C"
       fill-rule="nonzero"
       id="path1661" />
    <path
       d="M132.301 101.209h-7.388v-5.29h7.388v5.29zm-7.088-.3h6.788v-4.69h-6.788v4.69zm22.852-26.538h-5.275v-1.259h-3.671v-5.29h8.946v6.549zm-4.975-.3h4.675v-5.949h-8.347v4.69h3.672v1.259z"
       fill="#78859C"
       fill-rule="nonzero"
       id="path1663" />
    <path
       fill="#ECEEF1"
       d="M119.474 70.0698L106.797 70.0698 106.797 78.0868 119.474 78.0868z"
       id="path1675" />
    <path
       d="M119.609 78.237h-12.977V69.92h12.977v8.317zm-12.677-.3h12.377V70.22h-12.377v7.717z"
       fill="#78859C"
       fill-rule="nonzero"
       id="path1677" />
    <path
       fill="#ECEEF1"
       d="M119.474 93.0273L106.797 93.0273 106.797 101.044 119.474 101.044z"
       id="path1679" />
    <path
       d="M119.624 101.194h-12.977v-8.317h12.977v8.317zm-12.677-.3h12.377v-7.717h-12.377v7.717z"
       fill="#78859C"
       fill-rule="nonzero"
       id="path1681" />
    <path
       fill="#ECEEF1"
       d="M118.665 134.895L113.989 134.895 113.989 149.551 118.665 149.551 118.665 146.059 122.875 146.059 122.875 136.783 118.665 136.783z"
       id="path1683" />
    <path
       fill="#ECEEF1"
       d="M176.056 68.0919L173.404 70.7443 169.703 67.043 165.612 71.1189 162.795 68.3017 156.097 74.985 163.214 82.0879 169.703 75.5844 176.521 82.3876 183.429 75.4945z"
       id="path1685" />
    <path
       fill="#ECEEF1"
       d="M53.0462 20.4546L41.3281 21.8032 44.9994 53.6314 56.7175 52.2828z"
       id="path1687" />
    <path
       fill="#ECEEF1"
       d="M57.9762 57.917L46.2581 59.2656 49.9293 91.0938 61.6475 89.7452z"
       id="path1689" />
    <path
       fill="#ECEEF1"
       d="M122.965 4.69043L113.435 4.69043 113.435 9.26086 111.532 9.26086 111.532 13.8013 113.435 13.8013 122.95 13.8013 126.532 13.8013 126.532 9.26086 122.95 9.26086z"
       id="path1691" />
    <path
       d="M37.642 111.219L9.77 0H4.166l27.871 111.204-32.037.09v5.424l34.615-.075c.3.12.63.165.974.165.21 0 .42-.045.674-.09.12-.045.21-.09.33-.12l170.392-.554v-5.41l-169.343.585z"
       fill="#F7F8FA"
       id="path1693" />
    <path
       d="M150.777 0v15.6h-46.003l.075-15.6h-3.492l-.09 15.6-43.486.374L55.818 0h-3.506l1.978 16.154-14.91 1.843c-.674.09-1.259.54-1.439 1.214l-.884 2.862c-.09.255-.09.51-.09.75l10.4 81.083c-.045.12-.045.255-.045.33 0 .255.09.509.165.749l1.139 8.811c.12.884.884 1.514 1.723 1.514h.21c.974-.12 1.648-1.004 1.513-1.933l-.974-7.388h49.585l-.045 7.133v50.769H58.68v-49.78c0-.959-.794-1.768-1.768-1.768s-1.768.794-1.768 1.768v51.563c0 .959.794 1.769 1.768 1.769h45.464c.974 0 1.768-.795 1.768-1.769v-52.537l.045-7.133h46.603v6.294a1.78 1.78 0 0 0 1.768 1.768c.974 0 1.769-.794 1.769-1.768V0h-3.552zM50.664 102.527L40.429 22.792l.465-1.423 13.816-1.724 10.114 82.882h-14.16zm50.094 0H68.316l-4.33-35.694h36.997l-.225 35.694zm.165-39.185H63.521l-.555-4.57h38.002l-.045 4.57zm.09-8.062H62.547L58.17 19.42l43.051-.374-.209 36.234zm49.764 47.247h-46.558l.21-35.694h46.348v35.694zm0-39.185h-46.348l.045-4.57h46.303v4.57zm0-8.062h-46.273l.21-36.234h46.048l.015 36.234z"
       fill="#F7F8FA"
       fill-rule="nonzero"
       id="path1695" />
    <path
       d="M161.896 0c-.675 16.978-.36 50.335.914 51.833 1.678 1.978 17.142 2.608 19.09 1.768 1.978-.839-2.232-26.163 5.904-24.725 8.137 1.469 5.35 7.478 5.904 14.955.555 7.523 2.233 28.007.555 30.615-1.678 2.652-5.05 6.848-5.05 10.204 0 3.357-.555 6.04-4.211 6.384-3.671.33-23.301-4.15-23.466 2.008-.165 6.174-.884 10.669 8.212 10.669H207V0h-45.104zm45.089 119.221c-15.539-.39-32.262-.465-34.3 1.019-3.911 2.817-16.813 14.82-21.863 18.761-5.095 3.911-20.979 7.013-23.137 8.946-2.142 1.978-8.631 16.873-12.002 19.481-3.372 2.607-10.864 4.031-14.416 4.031-3.536 0-45.254.299-47.277 0-2.068-.3-12.722-6.968-14.955-8.392-2.232-1.424-4.765-13.816-6.443-19.78s-4.51-21.923-5.604-23.047c-.585-.57-14.131-.48-26.988-.255v60h206.985v-60.764zM1.439 0H0v106.993c12.512-.524 25.49-1.498 25.684-3.252C26.029 100.879 8.152 27.033 1.439 0z"
       fill="#DDF2DF"
       id="path1697" />
    <path
       d="M74.13 178.007c-7.163.42-15.584-1.214-24.515-2.937-8.167-1.559-16.604-3.192-25.4-3.656-6.158-.3-15.014 1.378-24.2 3.806v3.656c9.186-2.487 18.042-4.241 23.99-3.941 8.602.465 16.888 2.053 24.935 3.566 2.698.525 5.35 1.019 7.957 1.469h31.184c-4.106-1.214-8.677-2.248-13.951-1.963zm92.951-16.244c-14.716-16.408-19.885-18.057-34.72-10.879-7.747 3.776-11.584 11.718-14.91 18.731-1.978 4.121-3.791 7.882-6.099 10.37h4.451c1.798-2.592 3.281-5.694 4.825-8.901 3.281-6.803 6.653-13.861 13.306-17.083 12.767-6.219 16.229-6.009 30.584 10.04 4.795 5.365 13.022 10.924 21.938 15.959h7.268c-10.715-5.634-21.174-12.123-26.643-18.237z"
       fill="#C5D4F0"
       id="path1699" />
    <path
       d="M70.564 112.028h.854l.749 2.143c.12.299.195.599.225.854h.03c.015-.12.06-.27.105-.45.06-.18.33-1.034.854-2.547h.854l-1.574 4.286c-.284.779-.764 1.183-1.438 1.183-.18 0-.345-.015-.51-.06v-.629c.12.03.255.045.405.045.375 0 .644-.225.794-.674l.135-.36-1.483-3.791zm7.252 3.791h-.794v-3.147h-1.02c-.06.81-.149 1.439-.254 1.904-.105.449-.24.794-.42 1.004a.824.824 0 0 1-.659.314c-.165 0-.314-.03-.434-.075v-.629c.075.03.165.045.24.045.224 0 .404-.255.539-.779.135-.525.225-1.319.3-2.398h2.472v3.761h.03zm1.004-.434c0-.165.045-.3.12-.39.09-.09.21-.135.36-.135.164 0 .284.045.374.135.09.09.12.225.12.375a.56.56 0 0 1-.135.389c-.09.09-.21.135-.374.135-.165 0-.285-.045-.36-.135a.62.62 0 0 1-.105-.374z"
       fill="#78859C"
       id="path1701" />
    <path
       d="M85.698 115.819l-.48-1.393H83.36l-.48 1.393h-.838l1.828-5.02h.869l1.828 5.02h-.869zm-.704-2.098l-.45-1.363c-.03-.09-.075-.24-.135-.435a4.25 4.25 0 0 1-.12-.434c-.06.284-.15.584-.27.914l-.434 1.303h1.409v.015z"
       fill="#78859C"
       fill-rule="nonzero"
       id="path1703" />
    <path
       d="M87.916 113.541c.36 0 .614-.045.794-.12.165-.075.255-.209.255-.374 0-.315-.27-.465-.794-.465-.36 0-.72.075-1.094.24l-.255-.599c.435-.18.9-.27 1.424-.27.464 0 .809.09 1.064.255.254.164.374.419.374.734 0 .419-.24.704-.704.839v.03c.3.075.51.195.63.345.134.15.194.344.194.569a.94.94 0 0 1-.45.824c-.3.21-.704.315-1.243.315-.585 0-1.02-.075-1.334-.24v-.689c.405.195.824.3 1.259.3.314 0 .554-.045.72-.135.164-.09.254-.225.254-.405 0-.195-.09-.33-.255-.419-.165-.09-.434-.135-.794-.135h-.45v-.6h.405z"
       fill="#78859C"
       id="path1705" />
    <path
       d="M92.95 115.819l-.149-.525h-.03c-.18.225-.36.39-.54.465-.18.09-.404.12-.689.12-.36 0-.644-.105-.854-.3-.21-.195-.3-.479-.3-.854 0-.39.135-.689.42-.884.285-.195.72-.3 1.289-.33l.644-.015v-.195c0-.239-.06-.419-.165-.539-.105-.12-.284-.18-.51-.18-.194 0-.374.03-.539.09-.18.06-.344.12-.494.195l-.255-.57c.195-.104.42-.194.66-.239.24-.06.464-.09.674-.09.464 0 .824.105 1.064.314.24.21.36.54.36.989v2.548h-.585zm-1.168-.555c.285 0 .51-.074.69-.239.164-.165.254-.39.254-.69v-.329l-.48.015c-.374.015-.644.075-.809.195a.6.6 0 0 0-.254.524c0 .165.045.3.15.39.104.09.254.134.449.134z"
       fill="#78859C"
       fill-rule="nonzero"
       id="path1707" />
    <path
       fill="#78859C"
       d="M97.3712 112.028L97.3712 112.657 96.1724 112.657 96.1724 115.804 95.3782 115.804 95.3782 112.657 94.1794 112.657 94.1794 112.028z"
       id="path1709" />
    <path
       d="M100.398 115.819l-.15-.525h-.03c-.18.225-.36.39-.54.465-.179.09-.404.12-.688.12-.36 0-.645-.105-.855-.3-.21-.195-.3-.479-.3-.854 0-.39.136-.689.42-.884.285-.195.72-.3 1.289-.33l.644-.015v-.195c0-.239-.06-.419-.165-.539-.104-.12-.284-.18-.509-.18-.195 0-.375.03-.54.09-.18.06-.344.12-.494.195l-.255-.57c.195-.104.42-.194.66-.239.24-.06.464-.09.674-.09.464 0 .824.105 1.064.314.24.21.359.54.359.989v2.548h-.584zm-1.169-.555c.285 0 .51-.074.69-.239.164-.165.254-.39.254-.69v-.329l-.48.015c-.374.015-.644.075-.808.195a.6.6 0 0 0-.255.524c0 .165.045.3.15.39.105.09.254.134.45.134zm7.702.555l-.479-1.393h-1.858l-.48 1.393h-.839l1.828-5.02h.869l1.829 5.02h-.87zm-.689-2.098l-.449-1.363c-.03-.09-.075-.24-.135-.435a4.238 4.238 0 0 1-.12-.434c-.06.284-.15.584-.27.914l-.434 1.303h1.408v.015zm1.888-.18c0-.839.135-1.483.42-1.948.285-.464.719-.749 1.334-.869.464-.09.989-.195 1.588-.285l.105.705c-.734.12-1.259.21-1.603.269-.345.06-.6.21-.75.435-.15.225-.239.569-.269 1.034h.044c.12-.195.3-.33.495-.435.21-.104.42-.149.659-.149.45 0 .81.149 1.064.434.255.3.375.704.375 1.244 0 .614-.15 1.079-.465 1.409-.314.329-.734.494-1.273.494-.54 0-.959-.21-1.274-.614-.315-.405-.45-.989-.45-1.724zm1.784 1.679c.584 0 .869-.39.869-1.169 0-.749-.27-1.139-.795-1.139-.149 0-.284.03-.419.09a1.51 1.51 0 0 0-.375.255c-.12.105-.209.209-.269.329 0 .54.089.944.254 1.214.165.285.42.42.735.42zm2.367-1.679c0-.839.135-1.483.42-1.948.285-.464.719-.749 1.333-.869.465-.09.989-.195 1.589-.285l.105.705c-.735.12-1.259.21-1.604.269-.344.06-.599.21-.749.435-.15.225-.24.569-.27 1.034h.045c.12-.195.3-.33.495-.435.21-.104.419-.149.659-.149.45 0 .809.149 1.064.434.255.3.375.704.375 1.244 0 .614-.15 1.079-.465 1.409-.314.329-.734.494-1.273.494-.54 0-.96-.21-1.274-.614-.315-.405-.45-.989-.45-1.724zm1.783 1.679c.585 0 .87-.39.87-1.169 0-.749-.27-1.139-.795-1.139-.149 0-.284.03-.419.09a1.51 1.51 0 0 0-.375.255c-.12.105-.21.209-.27.329 0 .54.09.944.255 1.214.18.285.42.42.734.42zm4.901.599l-.15-.525h-.03c-.18.225-.36.39-.54.465-.18.09-.404.12-.689.12-.36 0-.644-.105-.854-.3-.21-.195-.3-.479-.3-.854 0-.39.135-.689.42-.884.284-.195.719-.3 1.288-.33l.645-.015v-.195c0-.239-.06-.419-.165-.539-.105-.12-.285-.18-.51-.18-.194 0-.374.03-.539.09-.18.06-.345.12-.495.195l-.254-.57c.195-.104.419-.194.659-.239.24-.06.465-.09.674-.09.465 0 .825.105 1.064.314.24.21.36.54.36.989v2.548h-.584zm-1.169-.555c.284 0 .509-.074.689-.239.165-.165.255-.39.255-.69v-.329l-.48.015c-.374.015-.644.075-.809.195a.599.599 0 0 0-.255.524c0 .165.045.3.15.39.105.09.255.134.45.134z"
       fill="#78859C"
       fill-rule="nonzero"
       id="path1711" />
    <path
       d="M122.111 115.879c-.554 0-.989-.165-1.274-.495-.284-.329-.434-.809-.434-1.438 0-.63.15-1.124.449-1.469.3-.344.75-.509 1.319-.509.39 0 .734.075 1.049.225l-.24.644c-.329-.135-.599-.195-.824-.195-.644 0-.959.435-.959 1.304 0 .419.075.749.24.959.165.21.389.315.704.315.345 0 .674-.09.989-.27v.704c-.135.09-.285.15-.449.18-.15.03-.345.045-.57.045z"
       fill="#78859C"
       id="path1713" />
    <path
       d="M127.266 113.916c0 .614-.15 1.094-.465 1.438-.314.345-.734.525-1.288.525-.345 0-.645-.075-.914-.24a1.624 1.624 0 0 1-.615-.689c-.135-.3-.21-.645-.21-1.034 0-.615.15-1.094.465-1.439.3-.344.734-.509 1.304-.509.539 0 .959.18 1.273.524.3.36.45.824.45 1.424zm-2.682 0c0 .869.314 1.304.944 1.304.629 0 .929-.435.929-1.304s-.315-1.289-.944-1.289c-.33 0-.57.105-.72.33-.134.225-.209.539-.209.959zm6.788-.914c0 .449-.255.719-.764.809v.03c.284.03.509.12.659.27.15.15.225.344.225.584 0 .36-.135.63-.405.824-.27.195-.659.285-1.154.285h-1.768v-3.776h1.753c.974 0 1.454.33 1.454.974zm-.779.06a.38.38 0 0 0-.165-.33 1.127 1.127 0 0 0-.51-.105h-.944v.914h.839c.27 0 .465-.03.6-.105.135-.074.18-.179.18-.374zm.089 1.588c0-.18-.074-.314-.209-.389-.135-.075-.345-.12-.615-.12h-.899v1.064h.929c.525.015.794-.18.794-.555zm3.927 1.169l-.15-.525h-.03c-.18.225-.36.39-.54.465-.18.09-.404.12-.689.12-.36 0-.644-.105-.854-.3-.21-.195-.3-.479-.3-.854 0-.39.135-.689.42-.884.284-.195.719-.3 1.288-.33l.645-.015v-.195c0-.239-.06-.419-.165-.539-.105-.12-.285-.18-.51-.18-.194 0-.374.03-.539.09-.18.06-.345.12-.495.195l-.254-.57c.195-.104.419-.194.659-.239.24-.06.465-.09.674-.09.465 0 .825.105 1.064.314.24.21.36.54.36.989v2.548h-.584zm-1.169-.555c.284 0 .509-.074.689-.239.165-.165.255-.39.255-.69v-.329l-.48.015c-.374.015-.644.075-.809.195a.599.599 0 0 0-.255.524c0 .165.045.3.15.39.105.09.255.134.45.134z"
       fill="#78859C"
       fill-rule="nonzero"
       id="path1715" />
    <path
       d="M119.7 141.73a2.03 2.03 0 0 0 .568-1.402c0-.269-.054-.525-.151-.761a.816.816 0 0 0-.315-1.567.818.818 0 0 0-.736.464 2.292 2.292 0 0 0-1.01-.231 2.3 2.3 0 0 0-1.011.231.815.815 0 1 0-1.05 1.102 2.003 2.003 0 0 0-.151.762c0 .539.215 1.03.568 1.402-.619.585-1.612 1.527-1.377 2.468.109.436.393.608.694.624.021-.557.43-1.002.93-1.002.514 0 .931.469.931 1.048 0 .329-.135.622-.346.815h1.624a1.101 1.101 0 0 1-.346-.815c0-.579.416-1.048.931-1.048.5 0 .909.445.93 1.002.301-.016.585-.188.694-.624.235-.941-.758-1.883-1.377-2.468zm-3.475-2.577a.349.349 0 1 1 .419-.438c-.16.126-.302.274-.419.438zm2.762 1a.175.175 0 0 1 0 .35.175.175 0 0 1 0-.35zm-1.862 0a.175.175 0 0 1 0 .35.175.175 0 0 1 0-.35zm.931 2.27c-.771 0-1.397-.417-1.397-.931s.626-.931 1.397-.931 1.397.417 1.397.931-.626.931-1.397.931zm1.411-3.708a.35.35 0 0 1 .684.1c0 .163-.112.3-.264.338a2.125 2.125 0 0 0-.42-.438z"
       fill="#C6CCD6"
       fill-rule="nonzero"
       id="path1717" />
    <path
       d="M116.644 145.333a.408.408 0 1 0 0-.815.408.408 0 0 0 0 .815zm2.823 0a.408.408 0 1 0 0-.815.408.408 0 0 0 0 .815zm-1.411-4.307c-.257 0-.465.027-.465.233 0 .206.208.466.465.466s.466-.26.466-.466c0-.206-.209-.233-.466-.233z"
       fill="#C6CCD6"
       id="path1719" />
    <path
       d="M171.7 73.73c.353-.372.568-.863.568-1.402 0-.269-.054-.526-.151-.761a.815.815 0 1 0-1.051-1.103 2.296 2.296 0 0 0-1.01-.231c-.364 0-.708.083-1.011.23a.814.814 0 1 0-1.05 1.104 1.998 1.998 0 0 0-.151.761c0 .539.215 1.03.568 1.402-.619.585-1.612 1.527-1.377 2.468.109.436.393.608.694.624.021-.557.43-1.002.93-1.002.514 0 .931.47.931 1.048a1.1 1.1 0 0 1-.346.815h1.624a1.1 1.1 0 0 1-.346-.815c0-.579.416-1.048.931-1.048.5 0 .909.445.93 1.002.301-.016.585-.188.694-.624.235-.941-.758-1.883-1.377-2.468zm-3.475-2.577a.349.349 0 1 1 .419-.438c-.16.126-.302.274-.419.438zm2.762 1a.175.175 0 1 1 0 .35.175.175 0 0 1 0-.35zm-1.862 0a.174.174 0 1 1 0 .35.174.174 0 0 1 0-.35zm.931 2.27c-.771 0-1.397-.417-1.397-.93 0-.515.626-.932 1.397-.932s1.397.417 1.397.931-.626.931-1.397.931zm1.411-3.708a.35.35 0 0 1 .684.1c0 .163-.112.3-.264.338a2.13 2.13 0 0 0-.42-.438z"
       fill="#C6CCD6"
       fill-rule="nonzero"
       id="path1721" />
    <path
       d="M168.644 77.333a.408.408 0 1 0 0-.815.408.408 0 0 0 0 .815zm2.823 0a.408.408 0 1 0 0-.815.408.408 0 0 0 0 .815zm-1.411-4.307c-.257 0-.465.028-.465.233 0 .206.208.466.465.466s.466-.26.466-.466c0-.206-.209-.233-.466-.233z"
       fill="#C6CCD6"
       id="path1723" />
    <path
       d="M119.7 8.73c.353-.372.568-.863.568-1.402 0-.269-.054-.525-.151-.762a.815.815 0 1 0-1.051-1.102 2.297 2.297 0 0 0-1.01-.231c-.364 0-.708.083-1.011.23a.814.814 0 1 0-1.05 1.103 1.998 1.998 0 0 0-.151.762c0 .539.215 1.03.568 1.402-.619.585-1.612 1.527-1.377 2.468.109.436.393.608.694.624.021-.557.43-1.002.93-1.002.514 0 .931.47.931 1.048a1.1 1.1 0 0 1-.346.814h1.624a1.1 1.1 0 0 1-.346-.814c0-.579.416-1.048.931-1.048.5 0 .909.445.93 1.002.301-.016.585-.188.694-.624.235-.941-.758-1.883-1.377-2.468zm-3.475-2.577a.349.349 0 1 1 .419-.438c-.16.126-.302.274-.419.438zm2.762 1a.175.175 0 1 1 0 .35.175.175 0 0 1 0-.35zm-1.862 0a.174.174 0 1 1 0 .35.174.174 0 0 1 0-.35zm.931 2.27c-.771 0-1.397-.417-1.397-.93 0-.515.626-.932 1.397-.932s1.397.417 1.397.931-.626.931-1.397.931zm1.411-3.708a.35.35 0 0 1 .684.1c0 .163-.112.3-.264.338a2.13 2.13 0 0 0-.42-.438z"
       fill="#C6CCD6"
       fill-rule="nonzero"
       id="path1725" />
    <path
       d="M116.644 12.333a.408.408 0 1 0 0-.815.408.408 0 0 0 0 .815zm2.823 0a.408.408 0 1 0 0-.815.408.408 0 0 0 0 .815zm-1.411-4.307c-.257 0-.465.027-.465.233 0 .206.208.466.465.466s.466-.26.466-.466c0-.206-.209-.233-.466-.233z"
       fill="#C6CCD6"
       id="path1727" />
    <path
       d="M44.37 34.64c.04 0 .08.005.12.017l.454.128.472-1.18c.133-.333.528-.605.88-.605h4.414c.352 0 .747.272.88.606l.471 1.177.449-.127a.442.442 0 0 1 .12-.017c.214 0 .37.169.37.4v.275c0 .27-.215.491-.478.491h-.052l.076.19c.125.31.226.836.226 1.172v2.342c0 .27-.215.491-.479.491h-.624a.485.485 0 0 1-.479-.49v-.586h-5.374v.585c0 .27-.215.491-.478.491h-.625a.485.485 0 0 1-.478-.49v-2.343c0-.336.1-.861.225-1.172l.076-.19h-.058a.485.485 0 0 1-.478-.49v-.275c0-.232.156-.4.37-.4zm7.349.899l-.714-1.784a.618.618 0 0 0-.528-.363H46.53a.618.618 0 0 0-.528.363l-.713 1.784c-.08.2.027.363.237.363h5.956c.21 0 .317-.164.238-.363zm-1.593 2.255c0 .109.086.197.191.197h1.355a.194.194 0 0 0 .192-.197v-.667a.194.194 0 0 0-.191-.196h-1.356a.194.194 0 0 0-.191.196v.667zm-4.97 0c0 .109.085.197.19.197h1.356a.194.194 0 0 0 .191-.197v-.667a.194.194 0 0 0-.191-.196h-1.355a.194.194 0 0 0-.192.196v.667zM50.37 73.64c.04 0 .08.006.12.017l.454.129.472-1.18c.133-.333.528-.605.88-.605h4.414c.352 0 .747.272.88.606l.471 1.177.449-.127a.442.442 0 0 1 .12-.017c.214 0 .37.169.37.4v.275c0 .27-.215.491-.478.491h-.052l.076.19c.125.31.226.836.226 1.172v2.342c0 .27-.215.491-.479.491h-.624a.485.485 0 0 1-.479-.49v-.586h-5.374v.585c0 .27-.215.491-.478.491h-.625a.485.485 0 0 1-.478-.49v-2.343c0-.336.1-.861.225-1.171l.076-.19h-.058a.485.485 0 0 1-.478-.492v-.274c0-.232.156-.4.37-.4zm7.349.9l-.714-1.784a.618.618 0 0 0-.528-.363H52.53a.618.618 0 0 0-.528.363l-.713 1.784c-.08.2.027.363.237.363h5.956c.21 0 .317-.164.238-.363zm-1.593 2.255c0 .109.086.197.191.197h1.355a.194.194 0 0 0 .192-.197v-.667a.194.194 0 0 0-.191-.196h-1.356a.194.194 0 0 0-.191.196v.668zm-4.97 0c0 .109.085.197.19.197h1.356a.194.194 0 0 0 .191-.197v-.667a.194.194 0 0 0-.191-.196h-1.355a.194.194 0 0 0-.192.196v.668z"
       fill="#C6CCD6"
       fill-rule="nonzero"
       id="path1729" />
    <path
       style="fill:none;stroke:#000000;stroke-width:0.3;stroke-linecap:butt;stroke-linejoin:miter;stroke-opacity:1;stroke-miterlimit:4;stroke-dasharray:none"
       d="m 124.928,20.334 h 7.2725 v 5.2186 h -7.2808 z"
       id="path2325"
       inkscape:connector-curvature="0" />
    <path
       style="fill:none;stroke:#000000;stroke-width:0.3;stroke-linecap:butt;stroke-linejoin:miter;stroke-opacity:1;stroke-miterlimit:4;stroke-dasharray:none"
       d="m 132.2005,20.334 h 7.01115 v 5.2186 h -7.01115 z"
       id="path2327"
       inkscape:connector-curvature="0" />
    <path
       style="fill:none;stroke:#000000;stroke-width:0.3;stroke-linecap:butt;stroke-linejoin:miter;stroke-opacity:1;stroke-miterlimit:4;stroke-dasharray:none"
       d="m 139.21165,20.334 h 8.85335 v 6.36465 h -5.34778 V 25.5526 h -3.50557 z"
       id="path2329"
       inkscape:connector-curvature="0" />
    <path
       style="fill:none;stroke:#000000;stroke-width:0.3;stroke-linecap:butt;stroke-linejoin:miter;stroke-opacity:1;stroke-miterlimit:4;stroke-dasharray:none"
       d="m 142.71722,26.69865 h 5.34778 v 6.8089 h -5.34778 z"
       id="path2331"
       inkscape:connector-curvature="0" />
    <path
       style="fill:none;stroke:#000000;stroke-width:0.3;stroke-linecap:butt;stroke-linejoin:miter;stroke-opacity:1;stroke-miterlimit:4;stroke-dasharray:none"
       d="m 142.71722,33.50755 h 5.34778 v 6.92214 h -5.34778 z"
       id="path2333"
       inkscape:connector-curvature="0" />
    <path
       style="fill:none;stroke:#000000;stroke-width:0.3;stroke-linecap:butt;stroke-linejoin:miter;stroke-opacity:1;stroke-miterlimit:4;stroke-dasharray:none"
       d="m 142.71722,40.42969 h 5.34778 v 6.83049 h -5.34778 z"
       id="path2335"
       inkscape:connector-curvature="0" />
    <path
       style="fill:none;stroke:#000000;stroke-width:0.3;stroke-linecap:butt;stroke-linejoin:miter;stroke-opacity:1;stroke-miterlimit:4;stroke-dasharray:none"
       d="M 142.71722,47.26018 H 148.065 V 53.732 h -5.34778 -3.50557 v -5.32577 h 3.50557 z"
       id="path2337"
       inkscape:connector-curvature="0" />
    <path
       style="fill:none;stroke:#000000;stroke-width:0.3;stroke-linecap:butt;stroke-linejoin:miter;stroke-opacity:1;stroke-miterlimit:4;stroke-dasharray:none"
       d="M 139.21165,53.732 V 48.40623 H 132.2005 V 53.732 Z"
       id="path2339"
       inkscape:connector-curvature="0" />
    <path
       style="fill:none;stroke:#000000;stroke-width:0.3;stroke-linecap:butt;stroke-linejoin:miter;stroke-opacity:1;stroke-miterlimit:4;stroke-dasharray:none"
       d="m 124.9197,48.40623 h 7.2808 V 53.732 l -7.2875,-0.011 z"
       id="path2341"
       inkscape:connector-curvature="0" />
  </g>
</svg>
