<?xml version="1.0" encoding="UTF-8" standalone="no"?>
<svg
   xmlns:dc="http://purl.org/dc/elements/1.1/"
   xmlns:cc="http://creativecommons.org/ns#"
   xmlns:rdf="http://www.w3.org/1999/02/22-rdf-syntax-ns#"
   xmlns:svg="http://www.w3.org/2000/svg"
   xmlns="http://www.w3.org/2000/svg"
   xmlns:sodipodi="http://sodipodi.sourceforge.net/DTD/sodipodi-0.dtd"
   xmlns:inkscape="http://www.inkscape.org/namespaces/inkscape"
   width="194"
   height="194"
   viewBox="0 0 194 194"
   fill="none"
   version="1.1"
   id="svg1449"
   sodipodi:docname="atmos_scheme1.svg"
   inkscape:version="0.92.2 (5c3e80d, 2017-08-06)">
  <metadata
     id="metadata1453">
    <rdf:RDF>
      <cc:Work
         rdf:about="">
        <dc:format>image/svg+xml</dc:format>
        <dc:type
           rdf:resource="http://purl.org/dc/dcmitype/StillImage" />
        <dc:title></dc:title>
      </cc:Work>
    </rdf:RDF>
  </metadata>
  <sodipodi:namedview
     pagecolor="#ffffff"
     bordercolor="#666666"
     borderopacity="1"
     objecttolerance="10"
     gridtolerance="10"
     guidetolerance="10"
     inkscape:pageopacity="0"
     inkscape:pageshadow="2"
     inkscape:window-width="1920"
     inkscape:window-height="1001"
     id="namedview1451"
     showgrid="false"
     inkscape:zoom="1.7203835"
     inkscape:cx="98.097736"
     inkscape:cy="49.753011"
     inkscape:window-x="-9"
     inkscape:window-y="-9"
     inkscape:window-maximized="1"
     inkscape:current-layer="svg1449" />
  <g
     id="g2197">
    <path
       d="m 136.8,193.966 19.3,-23.9 9.7,7.8 -13,16 z"
       id="path1234"
       inkscape:connector-curvature="0"
       style="stroke:#dfdfdf;stroke-width:0.40000001" />
    <path
       d="m 154.1,193.966 12.4,-15.3 9.7,7.8 -6,7.5 z"
       id="path1236"
       inkscape:connector-curvature="0"
       style="stroke:#dfdfdf;stroke-width:0.40000001" />
    <path
       d="m 185.4,193.966 h -13.9 l 5.5,-6.8 z"
       id="path1238"
       inkscape:connector-curvature="0"
       style="stroke:#dfdfdf;stroke-width:0.40000001" />
    <path
       d="m 75,80.0661 -3.8,-4.6 -1.8,1.5 -0.4,-0.4 -1,0.8 0.4,0.5 -1.7,1.4 1.4,1.6 -0.5,0.4 0.8,1 0.5,-0.4 1.6,1.9 z"
       stroke-miterlimit="10"
       id="path1240"
       inkscape:connector-curvature="0"
       style="fill:#f1f1f1;stroke:#dfdfdf;stroke-width:0.30000001;stroke-miterlimit:10" />
    <path
       d="m 79.1001,86.1659 0.9,-0.8 -2.3,-2.8 -2,1.7 1.3,1.6 -0.6,0.5 0.3,0.4 -1.1,0.9 1.8,2.2 2.8,-2.3 z"
       stroke-miterlimit="10"
       id="path1242"
       inkscape:connector-curvature="0"
       style="fill:#f1f1f1;stroke:#dfdfdf;stroke-width:0.30000001;stroke-miterlimit:10" />
    <path
       d="m 90.6001,69.2661 -0.8,-0.9 0.4,-0.3 -1.4,-1.7 -0.4,0.3 -0.8,-0.9 -0.9,0.7 -1.3,-1.6 0.7,-0.6 -0.8,-0.9 0.4,-0.3 -1.4,-1.7 -0.4,0.3 -0.8,-0.9 -1.4,1.1 -0.4,-0.5 -1.6,1.3 0.6,0.7 -1.2,1 1.9,2.3 v 0.3 l 2.9,3.6 0.3,-0.2 1.9,2.3 1.1,-0.9 0.7,0.9 1.6,-1.3 -0.5,-0.8 z"
       stroke-miterlimit="10"
       id="path1244"
       inkscape:connector-curvature="0"
       style="fill:#f1f1f1;stroke:#dfdfdf;stroke-width:0.30000001;stroke-miterlimit:10" />
    <path
       d="m 113.4,45.2659 0.5,-0.7 -5.4,-3.9 -2.9,-2.1 -1.7,2.3 -1.3,-0.9 -4.2,5.8 1.3,0.9 -0.4,0.5 -1.1,-0.8 -4.2,5.7 2.9,2.1 3.4,-4.7 6.4,4.7 3,-4.1 -5.3,-3.9 2.4,-3.3 2.9,2.1 -1.3,1.8 2.5,1.8 1.3,-1.8 z"
       stroke-miterlimit="10"
       id="path1246"
       inkscape:connector-curvature="0"
       style="fill:#f1f1f1;stroke:#dfdfdf;stroke-width:0.30000001;stroke-miterlimit:10" />
    <path
       d="m 113.6,84.4661 -3.6,2.3 1.2,1.9 3.6,-2.3 z"
       id="path1248"
       inkscape:connector-curvature="0"
       style="fill:#f1f1f1" />
    <path
       d="m 137.4,115.866 -0.4,0.7 -3.2,-1.6 0.5,-0.9 -3.1,-1.6 -2.3,4.4 3.1,1.6 0.4,-0.8 3.2,1.6 -0.5,1 3.1,1.6 2.3,-4.4 z"
       stroke-miterlimit="10"
       id="path1250"
       inkscape:connector-curvature="0"
       style="fill:#f1f1f1;stroke:#dfdfdf;stroke-width:0.30000001;stroke-miterlimit:10" />
    <path
       d="m 194,136.166 -2.1,3 -81.7,-45.0999 c -0.3,-0.2 -0.6,-0.4 -0.9,-0.7 l -5.4,-6.5 c 2.8,-2.3 4.8,-3.8 5.7,-4.5 6.5,-4.9 28.8,-11.5 45.1,-16.4 6.2,-1.9 11.5,-3.5 15.2,-4.7 7.7,-2.6 17.1,-5.3 24.1,-7.3 v -4.5 c -7.1,2 -17.2,4.8 -25.5,7.6 -3.6,1.2 -8.9,2.8 -15,4.6 -17.5,5.2 -39.3,11.8 -46.4,17.1 -0.9,0.7 -3,2.3 -5.9,4.6 l -1.3001,-1.5 c -1.4,-1.7 -3.9,-2 -5.6,-0.7 l -18.2,13.8 c -0.6,0.5 -1.5,0.3 -1.9,-0.2 l -16.1,-20 c -0.5,-0.6 -0.4,-1.6 0.2,-2.1 l 22.2,-17.7 c 0.3,-0.2 0.5,-0.5 0.7,-0.7 l 18.2,-24.2 c 1.3001,-1.8 1.0001,-4.2 -0.7,-5.6 l -19,-15.69999 c -0.6,-0.5 -1.3,-0.8 -2.1,-0.9 l -48.2,-5.8 c -1.1,-0.1 -2.2,0.2 -3.1,0.9 l -8.8,7.19999 c -1,0.8 -1.6,2.1 -1.5,3.5 l 1.3,18.1 c 0.1,0.8 0.4,1.6 0.9,2.3 1.6,2 6.9,8.5 13.7,16.7 0.5,0.6 0.4,1.6 -0.2,2.1 l -6.5,5.6 c -0.6,0.5 -1.5,0.6 -2.2,0.1 l -0.4,-0.2 c -0.9,-0.6 -1.1,-1.7 -0.5,-2.5 l 4.7,-6.7 c 0.3,-0.4 0.3,-1 0,-1.4 l -3.7,-5 c -0.5,-0.6 -1.5,-0.6 -1.9,0 l -20.199998,27.9 c -0.4,0.6 -0.2,1.4 0.399998,1.8 l 5.8,2.9 c 0.3,0.1 0.6,0.2 0.9,0.1 l 16,12.3 c 0.2,0.1 0.3,0.3 0.5,0.4 l 3.5,4.2 c 0,0.1 0.1,0.1 0.1,0.2 l 8.1,11.2999 c 0.3,0.4 0.6,0.7 1.1,1 l 9.6,6.4 c 0.2,0.1 0.5,0.4 0.6,0.5 0.8,0.8 1.9,1.2 2.9,1.2 0.9,0 1.8,-0.3 2.5,-0.9 l 11.7,-9.3 c 0.7,-0.6 1.3,-1.4 1.5,-2.3 0.3,-1.2999 0,-2.4999 -0.8,-3.4999 l -0.5,-0.6 1.6,-1.3 c 0.4,-0.3 1,-0.3 1.4,0.1 3.7,4.5 6,7.4999 6.3,7.7999 0.4,0.6 0.4,1.2 0.3,1.7 -3,2.5 -6.2,5 -9.4,7.7 -6.1,2.8 -15.4,4.2 -23.7,3.6 -7.9,-0.6 -15.3,-3 -20.7,-6.5 L -9.76548e-5,84.1661 v 12.9 L 12.6999,112.566 c 2,6.4 2.9,14.5 2.3,22 -0.9,11.2 -5,21.5 -10.9,27.5 -1.4,1.2 -2.8,2.3 -4.199998,3.4 v 5.6 c 6.099998,-5 13.199998,-10.7 20.699998,-16.8 0.5,3.9 2.4,7.5 5.7,10.2 1.1,0.9 2.3,1.6 3.6,2.2 2.2,0.9 4.4,1.4 6.5,1.4 6.2,0 11.8,-3.7 14.4,-9.2 l 29.1,35.3 h 10.6 l -5.3,-6.4 -5.2,-18.4 c -0.8,-2.6 -1.3,-5.4 -1.5,-8.1 l -2.5,-34.4 c -0.4,-5.5 0.4,-11 2.3,-16.2 1.1,-2.9 2.9,-5.5 5.3,-7.4 8,-6.4999 14.8,-11.9999 19.5001,-15.6999 l 1.6,2 c -0.1,0 -0.1,0.1 -0.2,0.1 L 87.7999,102.666 c -0.4,0.3 -0.4,0.8 -0.1,1.1 l 9,8.8 52.1001,53.8 c 0.9,0.9 1,2.4 0.2,3.4 l -19.8,24.4 h 5.6 l 21.1,-26.1 11.2,9.2 c 0.5,0.4 1.1,0.6 1.7,0.5 0.6,-0.1 1.1,-0.4 1.5,-0.9 l 23.7,-33.1 z M 29.2999,36.2661 l 18.8,-15 c 0.4,-0.3 0.7,-0.6 1,-1 l 8.2,-11.19999 c 0.8,-1.1 2.3,-1.3 3.4,-0.4 l 12.3,8.69999 c 1,0.7 1.2,2.1 0.5,3 l -6.5,8.5 c -0.3,0.4 -0.2,0.9 0.2,1.1 l 3,2.1 c 0.4,0.2 0.8,0.2 1.1,-0.2 l 6.9,-8.8 c 0.5,-0.6 1.3,-0.7 1.9,-0.2 l 13.9,9.7 c 0.8,0.6 1,1.7 0.4,2.5 l -14,18.4 c -0.2,0.2 -0.3,0.4 -0.5,0.5 l -22.3,17.8 c -0.6,0.5 -1.6,0.4 -2.1,-0.2 l -11.2,-14 c 0.1,0 0.1,-0.1 0.1,-0.1 l 9.1,-7 c 0.4,-0.3 0.4,-0.8 0.1,-1.1 l -3.4,-4.3 c -0.3,-0.3 -0.8,-0.4 -1.1,-0.1 l -9,7.2 -0.1,0.1 -11,-13.8 c -0.5,-0.7 -0.4,-1.7 0.3,-2.2 z m -3.8,4.9 c -0.6,-0.7 -0.5,-1.8 0.3,-2.4 0.7,-0.6 1.8,-0.4 2.3,0.3 l 26.6,33.1 c 0.5,0.6 0.4,1.6 -0.2,2.1 -0.6,0.5 -1.6,0.4 -2.1,-0.2 -9.2,-11.2 -19.9,-24.3 -26.9,-32.9 z m -15.2,34.5 c -0.7,-0.5 -0.9,-1.5 -0.4,-2.3 l 9.6,-13.7 c 0.6,-0.8 1.6,-1 2.4,-0.5 0.9,0.6 1.1,1.7 0.5,2.5 l -9.7,13.6 c -0.5,0.9 -1.6,1 -2.4,0.4 z m 16.9,13.9 -1.7,-2 c -0.2,-0.2 -0.4,-0.4 -0.6,-0.6 l -11.4,-8.8 c -0.5,-0.4 -0.7,-1.2 -0.3,-1.7 0.4,-0.6 1.2,-0.7 1.8,-0.3 l 14.7,10.7 c 0.9,0.7 0.9,2 0.1,2.7 l -0.2,0.2 c -0.7,0.6 -1.8,0.6 -2.4,-0.2 z m 20.4,19.5999 c -0.5,0.4 -1.1,0.4 -1.6,0.1 l -7.9,-5.2 c -0.3,-0.2 -0.6,-0.5 -0.8,-0.8 l -7.4,-10.2999 c -0.5,-0.7 -0.4,-1.7 0.3,-2.3 l 1.1,-0.9 c 0.6,-0.5 1.6,-0.5 2.2,0 l 14.3,17.3999 c 0.5,0.6 0.4,1.5 -0.2,2 z m 15,-12.0999 -11.9,9.6999 c -0.6,0.5 -1.5,0.4 -1.9,-0.2 l -14.4,-17.4999 c -0.2,-0.3 -0.5,-0.5 -0.8,-0.7 l -19,-13.8 10.2,-14.3 c 0.1,-0.2 0.3,-0.4 0.5,-0.5 l 4.2,-3.6 c 0.6,-0.5 1.4,-0.4 1.9,0.2 l 31.3,38.8 c 0.6,0.5 0.5,1.4 -0.1,1.9 z m 3.1,-2.6 -0.2,0.1 c -0.6,0.5 -1.5,0.4 -2,-0.2 l -31.2,-38.8 c -0.5,-0.6 -0.4,-1.4 0.2,-1.9 0.6,-0.5 1.5,-0.4 1.9,0.2 10.4,12.7 23.2,28.5 31.5,38.7 0.5,0.6 0.4,1.4 -0.2,1.9 z m 5.3,2.6 c -3.8,-4.7 -9.6,-11.9 -16.1,-19.8 -0.5,-0.6 -0.4,-1.6 0.2,-2.1 0.6,-0.5 1.6,-0.4 2.1,0.2 l 16,19.9 c 0.5,0.6 0.4,1.5 -0.2,2 -0.6,0.5 -1.5,0.4 -2,-0.2 z m -29.8,23.2999 c 1.5,0.1 3,0.2 4.5,0.2 3.6,0 7.2,-0.3 10.7,-0.9 -5.4,4.4 -10.9,8.8 -16.4,13.3 l -12.7,-15.4 c 4.3,1.4 9,2.4 13.9,2.8 z m -26.2,32.9 c 2.4,-5.5 3.9,-11.8 4.5,-18.4 0.4,-4.8 0.2,-10 -0.5,-14.8 l 14.8,18 c -6.5,5.2 -12.8,10.3 -18.8,15.2 z m 28.1,8.2 c -2.5,1.8 -5.5,2.5 -8.5,2 -3,-0.5 -5.7,-2.1 -7.5,-4.6 -1.7,-2.4 -2.4,-5.3 -2.1,-8.2 3.7,-3 7.6,-6.1 11.4,-9.3 l 11.1,13.5 c -0.6,2.7 -2.1,5 -4.4,6.6 z m -0.3,-25.2 c 3.2,-2.6 6.4,-5.2 9.5,-7.7 6.3,0 11.4,5.2 11.4,11.5 0,5.4 -3.7,9.9 -8.7,11.1 z m 35.5,43.1 -20.3,-24.7 c 5.9,-2.3 10.1,-8 10.1,-14.7 0,-7.1 -4.7,-13.2 -11.2,-15.1 3.7,-3 7.3,-5.9 10.8,-8.8 0,0 0.1,0 0.1,-0.1 1.9,-1.5 3.8,-3.1 5.6,-4.5 -1.5,5.1 -2.1,10.4 -1.7,15.7 l 2.5,34.4 c 0.2,3.1 0.8,6.1 1.6,9 z m -2.5,-75.5 c -0.1,-0.5 -0.2,-0.9 -0.5,-1.4 -0.1,-0.2 -0.8,-1 -1.8,-2.3 -0.5,-0.5999 -0.4,-1.5999 0.3,-2.0999 l 21.2,-16 c 1.3,-1 3.1,-0.8 4.1,0.5 l 1.3001,1.5 c -5.8001,4.6 -14.5001,11.6 -24.6001,19.7999 z m 22.5,8.6 c -0.5,-0.5 -0.6,-1.4 -0.2,-2 L 107.6,94.9661 c 0.4,-0.6 1.2,-0.8 1.8,-0.3 0.5,0.4 0.6,1 0.3,1.6 l -8.8,15.8999 c -0.5,0.9 -1.8001,1.1 -2.6001,0.3 z m 74.5001,53.4 -3.6,5 c -0.6,0.8 -1.8,1 -2.6,0.3 l -9.6,-7.8 c -0.5,-0.4 -1,-0.5 -1.6,-0.5 -0.6,0.1 -1.1,0.3 -1.5,0.8 l -0.9,1.2 c -1,1.2 -2.8,1.3 -3.9,0.2 l -47.8,-49.4 c -0.4,-0.4 -0.5,-1 -0.2,-1.5 0.3,-0.6 1.1,-0.8 1.7,-0.5 l 3.2,1.7 c 0.3,0.1 0.5,0.3 0.7,0.6 l 34.1,35.7 c 0.7,0.7 1.6,1.1 2.5,1.2 l 11.9,1.3 c 0.4,0 0.8,0.2 1.1,0.4 l 15.9,8.7 c 0.9,0.4 1.2,1.7 0.6,2.6 z m -1.3,-6.3 c -0.5,0.8 -1.5,1.1 -2.3,0.7 l -12.3,-6.8 c -0.5,-0.3 -1,-0.4 -1.5,-0.5 l -1.2,-0.1 c -1.3,-0.1 -1.9,-1.8 -0.9,-2.7 l 3.4,-3.4 c 0.4,-0.4 0.4,-1.1 0,-1.6 l -1.7,-1.7 c -0.4,-0.4 -1.1,-0.4 -1.6,0 l -6.2,6.2 c -0.4,0.4 -1.2,1.1 -1.7,1.7 -0.3,0.3 -0.8,0.5 -1.3,0.4 l -0.8,-0.1 c -0.7,-0.1 -1.3,-0.4 -1.8,-0.9 l -34.1,-35.7 c -0.3,-0.3 -0.6,-0.6 -1,-0.8 l -3.4,-1.8 c -0.5,-0.3 -0.7,-0.9 -0.4,-1.4 l 8,-14.3999 c 0.3,-0.5 0.9,-0.7 1.4,-0.4 l 50.1,27.6999 c 0.8,0.4 1.1,1.4 0.6,2.2 l -5.7,9.8 c -0.3,0.5 -0.1,1.2 0.4,1.6 l 2.1,1.2 c 0.5,0.3 1.2,0.1 1.6,-0.4 l 5.7,-10 c 0.4,-0.8 1.4,-1 2.1,-0.6 l 14,7.8 c 0.8,0.5 1.1,1.5 0.7,2.4 z"
       stroke-miterlimit="10"
       id="path1252"
       inkscape:connector-curvature="0"
       style="fill:#f1f1f1;stroke:#dfdfdf;stroke-width:0.30000001;stroke-miterlimit:10" />
    <path
       d="M 27.5,3.46606 18,11.2661 c 0.1,-0.1 0.1,-0.1 0.2,-0.2 L 27,3.86606 c 0.2,-0.2 0.3,-0.3 0.5,-0.4 z"
       id="path1254"
       inkscape:connector-curvature="0"
       style="fill:#e2e2e2" />
    <path
       d="m 52.7,186.166 c -4.8,-0.8 -9.6,0.4 -13.6,3.2 -1.8,1.3 -3.4,3 -4.6,4.8 h -5 c 1.6,-3.3 4,-6.1 7.1,-8.3 5.2,-3.8 11.7,-5.1 18,-3.7 5,1.1 9.5,3.9 12.7,7.9 1.1,1.3 1.9,2.7 2.7,4.2 h -5 c -0.1,-0.2 -0.3,-0.4 -0.4,-0.7 -2.9,-4 -7.1,-6.6 -11.9,-7.4 z"
       id="path1256"
       inkscape:connector-curvature="0"
       style="fill:#e2e2e2" />
    <path
       d="m 55.5891,22.075 3.148,2.307 -1.78,2.43 -3.148,-2.307 z"
       stroke-miterlimit="10"
       id="path1258"
       inkscape:connector-curvature="0"
       style="stroke:#646464;stroke-width:0.30000001;stroke-miterlimit:10" />
    <path
       d="m 62.4961,12.2258 5.833,4.273 -1.781,2.43 -5.832,-4.273 z"
       stroke-miterlimit="10"
       id="path1260"
       inkscape:connector-curvature="0"
       style="stroke:#646464;stroke-width:0.30000001;stroke-miterlimit:10" />
    <path
       d="m 68.327,16.4968 -1.78,2.431 0.867,0.635 -0.391,0.534 2.43,1.78 2.172,-2.964 z"
       stroke-miterlimit="10"
       id="path1262"
       inkscape:connector-curvature="0"
       style="stroke:#646464;stroke-width:0.30000001;stroke-miterlimit:10" />
    <path
       d="m 64.853,23.059 2.171,-2.964 2.431,1.78 -2.172,2.964 z"
       stroke-miterlimit="10"
       id="path1264"
       inkscape:connector-curvature="0"
       style="stroke:#646464;stroke-width:0.30000001;stroke-miterlimit:10" />
    <path
       d="m 62.425,26.3728 2.428,-3.314 2.43,1.78 -2.4279,3.314 z"
       stroke-miterlimit="10"
       id="path1266"
       inkscape:connector-curvature="0"
       style="stroke:#646464;stroke-width:0.30000001;stroke-miterlimit:10" />
    <path
       d="m 54.7221,21.44 0.425,-0.58 -2.282,-1.672 -0.425,0.579 -0.405,0.553 -1.376,1.878 3.148,2.306 1.781,-2.43 z"
       stroke-miterlimit="10"
       id="path1268"
       inkscape:connector-curvature="0"
       style="stroke:#646464;stroke-width:0.30000001;stroke-miterlimit:10" />
    <path
       d="m 57.1751,13.3069 2.283,1.672 -4.309,5.882 -2.283,-1.672 z"
       stroke-miterlimit="10"
       id="path1270"
       inkscape:connector-curvature="0"
       style="stroke:#646464;stroke-width:0.30000001;stroke-miterlimit:10" />
    <path
       d="m 62.4951,12.2239 -2.947,-2.159 -2.374,3.241 2.283,1.672 0.593,-0.81 0.664,0.487 z"
       stroke-miterlimit="10"
       id="path1272"
       inkscape:connector-curvature="0"
       style="stroke:#646464;stroke-width:0.30000001;stroke-miterlimit:10" />
    <path
       d="m 82.325,26.7009 6.087,4.435 -1.774,2.435 -6.087,-4.435 z"
       stroke-miterlimit="10"
       id="path1274"
       inkscape:connector-curvature="0"
       style="stroke:#646464;stroke-width:0.30000001;stroke-miterlimit:10" />
    <path
       d="m 147.924,123.26 -3.675,6.574 -2.63,-1.47 3.675,-6.574 z"
       stroke-miterlimit="10"
       id="path1276"
       inkscape:connector-curvature="0"
       style="stroke:#646464;stroke-width:0.30000001;stroke-miterlimit:10" />
    <path
       d="m 150.635,120.117 -3.347,-1.872 -1.982,3.546 2.629,1.47 0.512,-0.916 0.718,0.401 z"
       stroke-miterlimit="10"
       id="path1278"
       inkscape:connector-curvature="0"
       style="stroke:#646464;stroke-width:0.30000001;stroke-miterlimit:10" />
    <path
       d="m 158.699,129.174 1.937,-3.466 -3.427,-1.916 -1.47,2.629 0.798,0.446 -0.468,0.837 z"
       stroke-miterlimit="10"
       id="path1280"
       inkscape:connector-curvature="0"
       style="stroke:#646464;stroke-width:0.30000001;stroke-miterlimit:10" />
    <path
       d="m 152.453,124.572 -3.287,-1.837 1.47,-2.63 3.287,1.838 z"
       stroke-miterlimit="10"
       id="path1282"
       inkscape:connector-curvature="0"
       style="stroke:#646464;stroke-width:0.30000001;stroke-miterlimit:10" />
    <path
       d="m 155.74,126.409 -3.287,-1.837 1.47,-2.63 3.287,1.838 z"
       stroke-miterlimit="10"
       id="path1284"
       inkscape:connector-curvature="0"
       style="stroke:#646464;stroke-width:0.30000001;stroke-miterlimit:10" />
    <path
       d="m 152.351,134.353 3.72,-6.654 2.63,1.47 -3.72,6.654 z"
       stroke-miterlimit="10"
       id="path1286"
       inkscape:connector-curvature="0"
       style="stroke:#646464;stroke-width:0.30000001;stroke-miterlimit:10" />
    <path
       d="m 168.997,135.216 -3.675,6.574 -2.63,-1.47 3.675,-6.574 z"
       stroke-miterlimit="10"
       id="path1288"
       inkscape:connector-curvature="0"
       style="stroke:#646464;stroke-width:0.30000001;stroke-miterlimit:10" />
    <path
       d="m 171.71,132.073 -3.348,-1.871 -1.982,3.545 2.629,1.47 0.513,-0.916 0.717,0.401 z"
       stroke-miterlimit="10"
       id="path1290"
       inkscape:connector-curvature="0"
       style="stroke:#646464;stroke-width:0.30000001;stroke-miterlimit:10" />
    <path
       d="m 179.773,141.13 1.937,-3.466 -3.427,-1.916 -1.47,2.629 0.798,0.446 -0.468,0.837 z"
       stroke-miterlimit="10"
       id="path1292"
       inkscape:connector-curvature="0"
       style="stroke:#646464;stroke-width:0.30000001;stroke-miterlimit:10" />
    <path
       d="m 173.527,136.527 -3.287,-1.838 1.47,-2.629 3.287,1.837 z"
       stroke-miterlimit="10"
       id="path1294"
       inkscape:connector-curvature="0"
       style="stroke:#646464;stroke-width:0.30000001;stroke-miterlimit:10" />
    <path
       d="m 176.814,138.364 -3.287,-1.838 1.47,-2.629 3.287,1.837 z"
       stroke-miterlimit="10"
       id="path1296"
       inkscape:connector-curvature="0"
       style="stroke:#646464;stroke-width:0.30000001;stroke-miterlimit:10" />
    <path
       d="m 173.427,146.308 3.719,-6.653 2.63,1.47 -3.72,6.653 z"
       stroke-miterlimit="10"
       id="path1298"
       inkscape:connector-curvature="0"
       style="stroke:#646464;stroke-width:0.30000001;stroke-miterlimit:10" />
    <path
       d="m 169.186,153.883 1.993,-3.566 2.63,1.47 -1.994,3.566 z"
       stroke-miterlimit="10"
       id="path1300"
       inkscape:connector-curvature="0"
       style="stroke:#646464;stroke-width:0.30000001;stroke-miterlimit:10" />
    <path
       d="m 166.472,157.026 3.348,1.872 1.982,-3.546 -2.63,-1.47 -0.512,0.916 -0.718,-0.401 z"
       stroke-miterlimit="10"
       id="path1302"
       inkscape:connector-curvature="0"
       style="stroke:#646464;stroke-width:0.30000001;stroke-miterlimit:10" />
    <path
       d="m 158.409,147.97 -1.937,3.466 3.427,1.915 1.47,-2.629 -0.798,-0.446 0.467,-0.837 z"
       stroke-miterlimit="10"
       id="path1304"
       inkscape:connector-curvature="0"
       style="stroke:#646464;stroke-width:0.30000001;stroke-miterlimit:10" />
    <path
       d="m 164.654,152.573 3.287,1.837 -1.47,2.63 -3.287,-1.838 z"
       stroke-miterlimit="10"
       id="path1306"
       inkscape:connector-curvature="0"
       style="stroke:#646464;stroke-width:0.30000001;stroke-miterlimit:10" />
    <path
       d="m 161.367,150.735 3.287,1.838 -1.47,2.629 -3.287,-1.837 z"
       stroke-miterlimit="10"
       id="path1308"
       inkscape:connector-curvature="0"
       style="stroke:#646464;stroke-width:0.30000001;stroke-miterlimit:10" />
    <path
       d="m 163.074,145.798 -2.038,3.646 -2.63,-1.47 2.039,-3.646 z"
       stroke-miterlimit="10"
       id="path1310"
       inkscape:connector-curvature="0"
       style="stroke:#646464;stroke-width:0.30000001;stroke-miterlimit:10" />
    <path
       d="m 144.396,145.342 3.003,-2.77 2.042,2.214 -3.003,2.77 z"
       stroke-miterlimit="10"
       id="path1312"
       inkscape:connector-curvature="0"
       style="stroke:#646464;stroke-width:0.30000001;stroke-miterlimit:10" />
    <path
       d="m 147.399,142.572 3.003,-2.77 2.042,2.215 -3.003,2.77 z"
       stroke-miterlimit="10"
       id="path1314"
       inkscape:connector-curvature="0"
       style="stroke:#646464;stroke-width:0.30000001;stroke-miterlimit:10" />
    <path
       d="m 140.846,147.491 2.6,2.819 2.986,-2.755 -2.042,-2.214 -0.772,0.712 -0.558,-0.605 z"
       stroke-miterlimit="10"
       id="path1316"
       inkscape:connector-curvature="0"
       style="stroke:#646464;stroke-width:0.30000001;stroke-miterlimit:10" />
    <path
       d="m 135.997,136.376 -2.919,2.692 2.662,2.887 2.214,-2.043 -0.619,-0.672 0.704,-0.649 z"
       stroke-miterlimit="10"
       id="path1318"
       inkscape:connector-curvature="0"
       style="stroke:#646464;stroke-width:0.30000001;stroke-miterlimit:10" />
    <path
       d="m 140.507,142.686 2.553,2.768 -2.215,2.043 -2.553,-2.768 z"
       stroke-miterlimit="10"
       id="path1320"
       inkscape:connector-curvature="0"
       style="stroke:#646464;stroke-width:0.30000001;stroke-miterlimit:10" />
    <path
       d="m 137.954,139.918 2.553,2.768 -2.215,2.043 -2.553,-2.768 z"
       stroke-miterlimit="10"
       id="path1322"
       inkscape:connector-curvature="0"
       style="stroke:#646464;stroke-width:0.30000001;stroke-miterlimit:10" />
    <path
       d="m 141.111,135.767 -3.07,2.832 -2.042,-2.214 3.07,-2.832 z"
       stroke-miterlimit="10"
       id="path1324"
       inkscape:connector-curvature="0"
       style="stroke:#646464;stroke-width:0.30000001;stroke-miterlimit:10" />
    <path
       d="m 128.934,129.161 2.72,-2.621 2.09,2.169 -2.719,2.621 z"
       stroke-miterlimit="10"
       id="path1326"
       inkscape:connector-curvature="0"
       style="stroke:#646464;stroke-width:0.30000001;stroke-miterlimit:10" />
    <path
       d="m 125.435,131.386 2.661,2.761 2.925,-2.819 -2.09,-2.169 -0.756,0.729 -0.571,-0.593 z"
       stroke-miterlimit="10"
       id="path1328"
       inkscape:connector-curvature="0"
       style="stroke:#646464;stroke-width:0.30000001;stroke-miterlimit:10" />
    <path
       d="m 114.322,115.521 5.187,5.381 -2.169,2.091 -5.187,-5.381 z"
       stroke-miterlimit="10"
       id="path1330"
       inkscape:connector-curvature="0"
       style="stroke:#646464;stroke-width:0.30000001;stroke-miterlimit:10" />
    <path
       d="m 119.509,120.902 5.187,5.382 -2.169,2.091 -5.187,-5.382 z"
       stroke-miterlimit="10"
       id="path1332"
       inkscape:connector-curvature="0"
       style="stroke:#646464;stroke-width:0.30000001;stroke-miterlimit:10" />
    <path
       d="m 124.696,126.284 2.906,3.015 -2.169,2.091 -2.906,-3.016 z"
       stroke-miterlimit="10"
       id="path1334"
       inkscape:connector-curvature="0"
       style="stroke:#646464;stroke-width:0.30000001;stroke-miterlimit:10" />
    <path
       d="m 88.409,31.1389 -1.775,2.434 0.913,0.666 -0.389,0.534 2.434,1.775 2.164,-2.97 z"
       stroke-miterlimit="10"
       id="path1336"
       inkscape:connector-curvature="0"
       style="stroke:#646464;stroke-width:0.30000001;stroke-miterlimit:10" />
    <path
       d="m 82.8311,40.704 4.324,-5.934 2.4349,1.774 -4.3239,5.934 z"
       stroke-miterlimit="10"
       id="path1338"
       inkscape:connector-curvature="0"
       style="stroke:#646464;stroke-width:0.30000001;stroke-miterlimit:10" />
    <path
       d="m 80.535,43.8559 2.296,-3.152 2.435,1.774 -2.297,3.152 z"
       stroke-miterlimit="10"
       id="path1340"
       inkscape:connector-curvature="0"
       style="stroke:#646464;stroke-width:0.30000001;stroke-miterlimit:10" />
    <path
       d="m 80.5371,43.859 -0.422,0.579 -0.803,-0.584 -1.774,2.434 3.237,2.359 2.196,-3.013 z"
       stroke-miterlimit="10"
       id="path1342"
       inkscape:connector-curvature="0"
       style="stroke:#646464;stroke-width:0.30000001;stroke-miterlimit:10" />
    <path
       d="m 76.024,41.4529 3.292,2.399 -1.774,2.434 -3.292,-2.399 z"
       stroke-miterlimit="10"
       id="path1344"
       inkscape:connector-curvature="0"
       style="stroke:#646464;stroke-width:0.30000001;stroke-miterlimit:10" />
    <path
       d="m 64.753,49.1799 4.6,5.694 -2.343,1.893 -4.6,-5.694 z"
       stroke-miterlimit="10"
       id="path1346"
       inkscape:connector-curvature="0"
       style="stroke:#646464;stroke-width:0.30000001;stroke-miterlimit:10" />
    <path
       d="m 48.0961,28.949 4.473,5.537 -2.343,1.893 -4.473,-5.537 z"
       stroke-miterlimit="10"
       id="path1348"
       inkscape:connector-curvature="0"
       style="stroke:#646464;stroke-width:0.30000001;stroke-miterlimit:10" />
    <path
       d="m 69.3591,54.873 -2.343,1.893 0.434,0.537 -0.776,0.628 1.893,2.343 3.12,-2.52 z"
       stroke-miterlimit="10"
       id="path1350"
       inkscape:connector-curvature="0"
       style="stroke:#646464;stroke-width:0.30000001;stroke-miterlimit:10" />
    <path
       d="m 63.598,60.422 3.076,-2.485 1.893,2.344 -3.076,2.484 z"
       stroke-miterlimit="10"
       id="path1352"
       inkscape:connector-curvature="0"
       style="stroke:#646464;stroke-width:0.30000001;stroke-miterlimit:10" />
    <path
       d="m 60.5231,62.9069 3.075,-2.485 1.893,2.343 -3.075,2.485 z"
       stroke-miterlimit="10"
       id="path1354"
       inkscape:connector-curvature="0"
       style="stroke:#646464;stroke-width:0.30000001;stroke-miterlimit:10" />
    <path
       d="m 57.489,65.357 3.033,-2.45 1.894,2.343 -3.034,2.451 z"
       stroke-miterlimit="10"
       id="path1356"
       inkscape:connector-curvature="0"
       style="stroke:#646464;stroke-width:0.30000001;stroke-miterlimit:10" />
    <path
       d="m 50.141,56.022 5.766,-4.658 1.893,2.344 -5.766,4.657 z"
       stroke-miterlimit="10"
       id="path1358"
       inkscape:connector-curvature="0"
       style="stroke:#646464;stroke-width:0.30000001;stroke-miterlimit:10" />
    <path
       d="m 41.1211,44.945 3.143,-2.538 1.893,2.343 -3.143,2.538 z"
       stroke-miterlimit="10"
       id="path1360"
       inkscape:connector-curvature="0"
       style="stroke:#646464;stroke-width:0.30000001;stroke-miterlimit:10" />
    <path
       d="m 44.264,42.4069 3.142,-2.539 1.893,2.344 -3.142,2.538 z"
       stroke-miterlimit="10"
       id="path1362"
       inkscape:connector-curvature="0"
       style="stroke:#646464;stroke-width:0.30000001;stroke-miterlimit:10" />
    <path
       d="m 33.816,35.5749 5.566,-4.496 1.893,2.344 -5.566,4.496 z"
       stroke-miterlimit="10"
       id="path1364"
       inkscape:connector-curvature="0"
       style="stroke:#646464;stroke-width:0.30000001;stroke-miterlimit:10" />
    <path
       d="m 39.3821,31.0789 3.159,-2.552 1.893,2.343 -3.159,2.552 z"
       stroke-miterlimit="10"
       id="path1366"
       inkscape:connector-curvature="0"
       style="stroke:#646464;stroke-width:0.30000001;stroke-miterlimit:10" />
    <path
       d="m 48.101,28.9479 -2.404,-2.975 -3.157,2.55 1.894,2.343 0.813,-0.657 0.511,0.633 z"
       stroke-miterlimit="10"
       id="path1368"
       inkscape:connector-curvature="0"
       style="stroke:#646464;stroke-width:0.30000001;stroke-miterlimit:10" />
    <path
       d="m 57.489,65.3508 -0.615,0.497 -0.365,-0.453 -2.344,1.893 2.259,2.796 2.958,-2.39 z"
       stroke-miterlimit="10"
       id="path1370"
       inkscape:connector-curvature="0"
       style="stroke:#646464;stroke-width:0.30000001;stroke-miterlimit:10" />
    <path
       d="m 51.765,59.5229 -0.463,-0.572 0.733,-0.592 -1.893,-2.343 -3.076,2.485 2.356,2.916 z"
       stroke-miterlimit="10"
       id="path1372"
       inkscape:connector-curvature="0"
       style="stroke:#646464;stroke-width:0.30000001;stroke-miterlimit:10" />
    <path
       d="M 54.1711,67.288 51.8,64.353 54.1431,62.46 56.515,65.395 Z"
       stroke-miterlimit="10"
       id="path1374"
       inkscape:connector-curvature="0"
       style="stroke:#646464;stroke-width:0.30000001;stroke-miterlimit:10" />
    <path
       d="m 53.7291,91.648 -4.482,-5.466 2.329,-1.91 4.483,5.466 z"
       stroke-miterlimit="10"
       id="path1388"
       inkscape:connector-curvature="0"
       style="stroke:#646464;stroke-width:0.30000001;stroke-miterlimit:10" />
    <path
       d="m 56.193,94.653 -2.464,-3.005 2.33,-1.91 2.464,3.005 z"
       stroke-miterlimit="10"
       id="path1390"
       inkscape:connector-curvature="0"
       style="stroke:#646464;stroke-width:0.30000001;stroke-miterlimit:10" />
    <path
       d="m 47.2591,102.495 -2.402,-3.01 2.355,-1.879 2.402,3.01 z"
       stroke-miterlimit="10"
       id="path1392"
       inkscape:connector-curvature="0"
       style="stroke:#646464;stroke-width:0.30000001;stroke-miterlimit:10" />
    <path
       d="m 44.8571,99.4849 -2.402,-3.011 2.355,-1.878 2.402,3.01 z"
       stroke-miterlimit="10"
       id="path1394"
       inkscape:connector-curvature="0"
       style="stroke:#646464;stroke-width:0.30000001;stroke-miterlimit:10" />
    <path
       d="m 42.4551,96.475 -4.5301,-5.678 2.355,-1.879 4.5301,5.678 z"
       stroke-miterlimit="10"
       id="path1396"
       inkscape:connector-curvature="0"
       style="stroke:#646464;stroke-width:0.30000001;stroke-miterlimit:10" />
    <path
       d="m 53.7211,98.128 2.634,-2.16 1.91,2.329 -2.634,2.16 z"
       stroke-miterlimit="10"
       id="path1398"
       inkscape:connector-curvature="0"
       style="stroke:#646464;stroke-width:0.30000001;stroke-miterlimit:10" />
    <path
       d="m 58.52,92.7468 -2.329,1.91 0.705,0.86 -0.546,0.448 1.91,2.33 2.876,-2.358 z"
       stroke-miterlimit="10"
       id="path1404"
       inkscape:connector-curvature="0"
       style="stroke:#646464;stroke-width:0.30000001;stroke-miterlimit:10" />
    <path
       d="m 47.259,102.499 2.355,-1.879 0.694,0.87 0.717,-0.573 1.879,2.355 -3.073,2.451 z"
       stroke-miterlimit="10"
       id="path1406"
       inkscape:connector-curvature="0"
       style="stroke:#646464;stroke-width:0.30000001;stroke-miterlimit:10" />
    <path
       d="m 39.2151,84.9519 1.878,2.355 -1.284,1.025 0.471,0.59 -2.355,1.879 -2.35,-2.946 z"
       stroke-miterlimit="10"
       id="path1408"
       inkscape:connector-curvature="0"
       style="stroke:#646464;stroke-width:0.30000001;stroke-miterlimit:10" />
    <path
       d="m 51.574,84.2758 -2.329,1.91 -0.532,-0.648 -1.195,0.98 -1.91,-2.3299 3.524,-2.89 z"
       stroke-miterlimit="10"
       id="path1410"
       inkscape:connector-curvature="0"
       style="stroke:#646464;stroke-width:0.30000001;stroke-miterlimit:10" />
    <path
       d="m 51.7991,64.3529 -2.371,-2.936 2.343,-1.893 2.372,2.936 z"
       stroke-miterlimit="10"
       id="path1412"
       inkscape:connector-curvature="0"
       style="stroke:#646464;stroke-width:0.30000001;stroke-miterlimit:10" />
    <path
       d="m 112.863,103.432 -3.332,6.045 -2.638,-1.454 3.332,-6.045 z"
       stroke-miterlimit="10"
       id="path1414"
       inkscape:connector-curvature="0"
       style="stroke:#646464;stroke-width:0.30000001;stroke-miterlimit:10" />
    <path
       d="m 104.985,111.475 1.909,-3.464 2.639,1.454 -1.91,3.464 z"
       stroke-miterlimit="10"
       id="path1416"
       inkscape:connector-curvature="0"
       style="stroke:#646464;stroke-width:0.30000001;stroke-miterlimit:10" />
    <path
       d="m 123.705,109.577 -1.634,2.964 -2.639,-1.454 1.634,-2.964 z"
       stroke-miterlimit="10"
       id="path1418"
       inkscape:connector-curvature="0"
       style="stroke:#646464;stroke-width:0.30000001;stroke-miterlimit:10" />
    <path
       d="m 112.864,103.425 0.382,-0.692 0.51,0.28 1.454,-2.638 -3.148,-1.7351 -1.836,3.3301 z"
       stroke-miterlimit="10"
       id="path1420"
       inkscape:connector-curvature="0"
       style="stroke:#646464;stroke-width:0.30000001;stroke-miterlimit:10" />
    <path
       d="m 120.877,106.937 0.644,0.355 -0.454,0.824 2.638,1.454 1.909,-3.462 -3.283,-1.81 z"
       stroke-miterlimit="10"
       id="path1422"
       inkscape:connector-curvature="0"
       style="stroke:#646464;stroke-width:0.30000001;stroke-miterlimit:10" />
    <path
       d="m 115.22,100.376 3.558,1.961 -1.454,2.639 -3.559,-1.962 z"
       stroke-miterlimit="10"
       id="path1424"
       inkscape:connector-curvature="0"
       style="stroke:#646464;stroke-width:0.30000001;stroke-miterlimit:10" />
    <path
       d="m 118.778,102.337 3.559,1.962 -1.454,2.638 -3.559,-1.961 z"
       stroke-miterlimit="10"
       id="path1426"
       inkscape:connector-curvature="0"
       style="stroke:#646464;stroke-width:0.30000001;stroke-miterlimit:10" />
    <path
       d="m 41.1211,44.9399 -0.572,0.463 -0.366,-0.453 -2.343,1.893 2.259,2.796 2.916,-2.356 z"
       stroke-miterlimit="10"
       id="path1428"
       inkscape:connector-curvature="0"
       style="stroke:#646464;stroke-width:0.30000001;stroke-miterlimit:10" />
    <path
       d="m 35.4401,39.079 -0.463,-0.573 0.732,-0.592 -1.893,-2.343 -3.075,2.485 2.355,2.916 z"
       stroke-miterlimit="10"
       id="path1430"
       inkscape:connector-curvature="0"
       style="stroke:#646464;stroke-width:0.30000001;stroke-miterlimit:10" />
    <path
       d="m 37.845,46.8439 -2.372,-2.936 2.343,-1.893 2.372,2.936 z"
       stroke-miterlimit="10"
       id="path1432"
       inkscape:connector-curvature="0"
       style="stroke:#646464;stroke-width:0.30000001;stroke-miterlimit:10" />
    <path
       d="m 35.4721,43.9079 -2.371,-2.936 2.343,-1.893 2.372,2.936 z"
       stroke-miterlimit="10"
       id="path1434"
       inkscape:connector-curvature="0"
       style="stroke:#646464;stroke-width:0.30000001;stroke-miterlimit:10" />
    <path
       d="M 77.073,27.844 79.36,29.51 75.167,35.265 72.88,33.599 Z"
       stroke-miterlimit="10"
       id="path1436"
       inkscape:connector-curvature="0"
       style="stroke:#646464;stroke-width:0.30000001;stroke-miterlimit:10" />
    <path
       d="m 82.3221,26.7029 -2.886,-2.103 -2.366,3.246 2.287,1.667 0.592,-0.812 0.599,0.437 z"
       stroke-miterlimit="10"
       id="path1438"
       inkscape:connector-curvature="0"
       style="stroke:#646464;stroke-width:0.30000001;stroke-miterlimit:10" />
    <path
       id="path1442"
       fill="#E2E2E2"
       d="M0 0V-1H-1V0H0ZM194 0H195V-1H194V0ZM194 194V195H195V194H194ZM0 194H-1V195H0V194ZM0 1H194V-1H0V1ZM193 0V194H195V0H193ZM194 193H0V195H194V193ZM1 194V0H-1V194H1Z" />
  </g>
  <defs
     id="defs1447">
    <clipPath
       id="clip0">
      <path
         d="M0 0H194V194H0V0Z"
         fill="white"
         id="path1444" />
    </clipPath>
  </defs>
</svg>
