<svg width="93" height="80" fill="none" xmlns="http://www.w3.org/2000/svg"><path d="M89.1 57.526C75.8 80.133 29.922 79.146 29.922 79.146s2.66-13.64 12.633-29.599C53.194 32.525 60.51 25.61 74.471 26.94 89.764 28.396 97.313 43.563 89.1 57.526z" fill="url(#paint0_linear)"/><path d="M59.843 30.232c0 25.628-29.922 48.915-29.922 48.915S0 55.724 0 30.23C0 13.536 13.322 0 29.921 0c16.6 0 29.922 13.536 29.922 30.232z" fill="#fff"/><path d="M38.518 29.935H12v8.374h26.518v-8.374zm8.374-8.374h-8.374v8.374h8.374V21.56z" fill="#FFD040"/><path d="M38.518 9v20.935H12v-8.374l26.518-12.56z" fill="#FFB600"/><path d="M42.705 29.935h-4.187v8.374h4.187v-8.374z" fill="#FFB600"/><path d="M46.892 18.77v2.79h-8.374V9l4.187 6.978 4.187 2.792zm0 11.165h-4.187v8.374h4.187v-8.374z" fill="#CC9F53"/><path d="M21.047 45.444h-1.539V42h-1.492v8h1.492v-3.733h1.54V50h1.492v-8h-1.493v3.444zm4.337 2.934h-.14s.094-1.622.14-2.356V42h-1.492v8h1.982l1.26-6.378h.14s-.094 1.622-.14 2.356V50h1.492v-8h-1.982l-1.26 6.378zm-10.47-2.845l-.092.934h-.117L13.772 42H12l2.005 6.333L13.4 50h1.539l2.588-8h-1.772l-.84 3.533zM45.019 42l-1.026 5.133h-.163L42.803 42H40.82v8h1.492v-4.022c-.07-.711-.14-2.356-.14-2.356h.14L43.573 50h.675l1.26-6.378h.14s-.094 1.622-.14 2.356V50H47v-8h-1.982zm-10.4 0H33.15l-1.539 3.556h-.14V42h-1.492v8h1.492v-3.822h.14L33.243 50h1.538l-1.888-4.267L34.618 42zm3.101 3.533l-.093.934h-.116L36.577 42h-1.772l2.005 6.333L36.204 50h1.539l2.588-8H38.56l-.84 3.533z" fill="#262729"/><defs><linearGradient id="paint0_linear" x1="85.775" y1="32.259" x2="29.922" y2="79.147" gradientUnits="userSpaceOnUse"><stop stop-opacity="0"/><stop offset="1" stop-opacity=".51"/></linearGradient></defs></svg>